<?xml version="1.0" encoding="iso-8859-1"?>
<!-- Generator: Adobe Illustrator 19.0.0, SVG Export Plug-In . SVG Version: 6.00 Build 0)  -->
<svg version="1.1" id="Layer_1" xmlns="http://www.w3.org/2000/svg" xmlns:xlink="http://www.w3.org/1999/xlink" x="0px" y="0px"
	 viewBox="0 0 512 512" style="enable-background:new 0 0 512 512;" xml:space="preserve">
<g>
	<rect x="383.994" y="438.713" style="fill:#1D1D1B;" width="15.998" height="15.999"/>
	<rect x="200.006" y="382.726" style="fill:#1D1D1B;" width="279.977" height="15.998"/>
	
		<rect x="391.985" y="256.101" transform="matrix(-0.7071 -0.7071 0.7071 -0.7071 485.7281 758.6494)" style="fill:#1D1D1B;" width="16" height="45.252"/>
	
		<rect x="407.962" y="283.429" transform="matrix(0.7072 0.707 -0.707 0.7072 330.1751 -207.7889)" style="fill:#1D1D1B;" width="15.998" height="22.625"/>
	
		<rect x="207.99" y="275.414" transform="matrix(0.7071 0.7071 -0.7071 0.7071 266.0084 -68.7475)" style="fill:#1D1D1B;" width="15.999" height="22.625"/>
	<rect x="96.009" y="374.728" style="fill:#1D1D1B;" width="15.999" height="15.998"/>
	<path style="fill:#1D1D1B;" d="M144.009,23.954H0.021v230.779h143.988V23.954z M128.011,238.734H16.02V39.951h111.991
		C128.011,39.951,128.011,238.734,128.011,238.734z"/>
	<path style="fill:#1D1D1B;" d="M48.017,142.741h63.994V54.749H32.018v167.986h15.999V142.741z M48.017,70.747h47.996v55.995H48.017
		V70.747z"/>
	<path style="fill:#1D1D1B;" d="M426.687,471.826c8.229-8.62,13.298-20.279,13.298-33.109h-15.998
		c0,17.643-14.354,31.997-31.998,31.997c-17.643,0-31.997-14.354-31.997-31.997h-15.998c0,12.739,4.999,24.326,13.125,32.928
		l-207.97-0.542l-13.138-26.275v-14.11H511.98V174.739H168.007v239.981h-55.995V398.72H96.013v31.997h23.999v14.11l-13.082,26.165
		l-26.914-0.069V262.732h-16v208.15l-63.974-0.167L0,486.713l511.959,1.333L512,472.048L426.687,471.826z M184.006,190.737h311.974
		v111.992h-23.999v-71.995H327.995v71.995h-63.996v-71.995h-79.993L184.006,190.737L184.006,190.737z M455.985,246.732v71.996
		H343.993v-71.996H455.985z M184.006,246.732h63.994v71.996h-63.994V246.732z M184.006,334.726h79.993v-15.999h63.996v15.999
		h143.987v-15.999h23.999v95.992H184.006V334.726z M124.793,471.04l3.218-6.436l3.227,6.452L124.793,471.04z"/>
	<polygon style="fill:#1D1D1B;" points="224.002,166.74 240.002,166.74 240.002,158.74 455.985,158.74 455.985,166.74 
		471.982,166.74 471.982,158.74 495.981,158.74 495.981,142.742 200.005,142.742 200.005,158.74 224.002,158.74 	"/>
	<polygon style="fill:#1D1D1B;" points="343.993,118.742 383.99,118.742 383.99,102.745 343.993,102.745 343.993,86.746 
		455.985,86.746 455.985,102.745 415.987,102.745 415.987,118.742 455.985,118.742 455.985,134.742 471.982,134.742 471.982,70.747 
		327.995,70.747 327.995,134.742 343.993,134.742 	"/>
	<rect x="391.992" y="102.749" style="fill:#1D1D1B;" width="15.999" height="15.998"/>
</g>
<g>
</g>
<g>
</g>
<g>
</g>
<g>
</g>
<g>
</g>
<g>
</g>
<g>
</g>
<g>
</g>
<g>
</g>
<g>
</g>
<g>
</g>
<g>
</g>
<g>
</g>
<g>
</g>
<g>
</g>
</svg>
