<?xml version="1.0" encoding="iso-8859-1"?>
<!-- Generator: Adobe Illustrator 19.0.0, SVG Export Plug-In . SVG Version: 6.00 Build 0)  -->
<svg version="1.1" id="Capa_1" xmlns="http://www.w3.org/2000/svg" xmlns:xlink="http://www.w3.org/1999/xlink" x="0px" y="0px"
	 viewBox="0 0 512 512" style="enable-background:new 0 0 512 512;" xml:space="preserve">
<g>
	<g>
		<path d="M328,398h-34v-28h56.333c5.522,0,10-4.477,10-10s-4.478-10-10-10H178.375c-5.522,0-10,4.477-10,10s4.478,10,10,10H218v28
			h-34c-16.542,0-30,13.458-30,30v20c0,5.523,4.478,10,10,10h184c5.522,0,10-4.477,10-10v-20C358,411.458,344.542,398,328,398z
			 M238,370h36v28h-36V370z M338,438H174v-10c0-5.514,4.486-10,10-10h144c5.514,0,10,4.486,10,10V438z"/>
	</g>
</g>
<g>
	<g>
		<path d="M401.08,352.93c-1.87-1.86-4.45-2.93-7.07-2.93c-2.64,0-5.21,1.07-7.08,2.93c-1.86,1.86-2.93,4.44-2.93,7.07
			s1.069,5.21,2.93,7.07c1.861,1.86,4.44,2.93,7.08,2.93c2.63,0,5.2-1.07,7.07-2.93c1.859-1.86,2.92-4.44,2.92-7.07
			S402.939,354.79,401.08,352.93z"/>
	</g>
</g>
<g>
	<g>
		<path d="M482,54H30C13.458,54,0,67.458,0,84v256c0,16.542,13.458,30,30,30h9.007L9.929,399.079
			c-3.905,3.905-3.905,10.237,0,14.143l39.823,39.823c1.953,1.953,4.512,2.929,7.071,2.929s5.118-0.976,7.071-2.929l45.281-45.282
			l18.342,18.342c2.613,2.613,6.455,3.571,9.986,2.495c3.533-1.077,6.186-4.015,6.897-7.64l22.139-112.771
			c0.642-3.269-0.386-6.642-2.741-8.998c-2.355-2.356-5.729-3.384-8.998-2.741L42.029,318.588c-3.625,0.711-6.563,3.364-7.639,6.897
			c-1.077,3.534-0.118,7.374,2.494,9.986l14.55,14.55C51.29,350.016,51.146,350,51,350H30c-5.514,0-10-4.486-10-10V84
			c0-5.514,4.486-10,10-10h112.059l-54.863,54.862c-3.905,3.905-3.905,10.237,0,14.142c1.953,1.953,4.512,2.929,7.071,2.929
			c2.559,0,5.118-0.977,7.071-2.929L170.344,74H482c5.514,0,10,4.486,10,10v256c0,5.514-4.486,10-10,10h-48.333
			c-5.522,0-10,4.477-10,10s4.478,10,10,10H482c16.542,0,30-13.458,30-30V84C512,67.458,498.542,54,482,54z M76.424,360.869
			c3.905-3.905,3.905-10.237,0-14.143l-12.128-12.127l79.751-15.657l-15.656,79.751l-12.144-12.145
			c-3.906-3.904-10.236-3.904-14.143,0L56.823,431.83l-25.68-25.68L76.424,360.869z"/>
	</g>
</g>
<g>
	<g>
		<path d="M72.109,158.09c-1.859-1.86-4.439-2.92-7.069-2.92c-2.641,0-5.221,1.06-7.08,2.92c-1.86,1.86-2.92,4.44-2.92,7.07
			c0,2.64,1.06,5.21,2.92,7.08c1.87,1.86,4.45,2.92,7.08,2.92s5.2-1.06,7.069-2.92c1.86-1.87,2.931-4.44,2.931-7.08
			C75.04,162.53,73.97,159.95,72.109,158.09z"/>
	</g>
</g>
<g>
	<g>
		<path d="M232.713,166.538c-5.227-1.787-10.91,1.004-12.695,6.23l-15.485,45.331l-16.772-45.554
			c-1.449-3.936-5.197-6.545-9.383-6.545c-0.039,0-0.079,0-0.119,0c-4.233,0.05-7.977,2.761-9.345,6.767l-15.485,45.331
			l-16.772-45.554c-1.907-5.183-7.654-7.837-12.839-5.929c-5.183,1.908-7.837,7.657-5.929,12.839l26.51,72
			c1.449,3.936,5.197,6.545,9.383,6.545c0.039,0,0.079,0,0.119,0c4.233-0.05,7.977-2.761,9.345-6.767l15.485-45.331l16.77,45.554
			c1.449,3.936,5.197,6.545,9.383,6.545c0.039,0,0.079,0,0.119,0c4.233-0.05,7.977-2.761,9.345-6.767l24.595-72
			C240.728,174.007,237.939,168.323,232.713,166.538z"/>
	</g>
</g>
<g>
	<g>
		<path d="M298.979,238.001h-16.333c-2.113,0-3.833-1.719-3.833-3.833V222h15.868c5.522,0,10-4.477,10-10s-4.478-10-10-10h-15.868
			v-12.167c0-2.114,1.72-3.833,3.833-3.833h16.333c5.522,0,10-4.477,10-10s-4.478-10-10-10h-16.333
			c-13.142,0-23.833,10.691-23.833,23.833v44.335c0,13.141,10.691,23.833,23.833,23.833h16.333c5.522,0,10-4.477,10-10
			C308.979,242.478,304.501,238.001,298.979,238.001z"/>
	</g>
</g>
<g>
	<g>
		<path d="M394.729,194c0-15.439-12.561-28-28-28h-24.75c-5.522,0-10,4.477-10,10v36v36c0,5.523,4.478,10,10,10h24.75
			c15.44,0,28-12.561,28-28c0-6.849-2.476-13.129-6.575-18C392.253,207.129,394.729,200.849,394.729,194z M366.729,238h-14.75v-16
			h14.75c4.411,0,8,3.589,8,8S371.141,238,366.729,238z M366.729,202h-14.75v-16h14.75c4.411,0,8,3.589,8,8S371.14,202,366.729,202z
			"/>
	</g>
</g>
<g>
</g>
<g>
</g>
<g>
</g>
<g>
</g>
<g>
</g>
<g>
</g>
<g>
</g>
<g>
</g>
<g>
</g>
<g>
</g>
<g>
</g>
<g>
</g>
<g>
</g>
<g>
</g>
<g>
</g>
</svg>
