<?xml version="1.0" encoding="iso-8859-1"?>
<!-- Generator: Adobe Illustrator 19.0.0, SVG Export Plug-In . SVG Version: 6.00 Build 0)  -->
<svg version="1.1" id="Capa_1" xmlns="http://www.w3.org/2000/svg" xmlns:xlink="http://www.w3.org/1999/xlink" x="0px" y="0px"
	 viewBox="0 0 512 512" style="enable-background:new 0 0 512 512;" xml:space="preserve">
<g>
	<g>
		<path d="M509.07,349.92c-1.86-1.87-4.44-2.93-7.07-2.93s-5.21,1.06-7.07,2.93c-1.86,1.86-2.93,4.43-2.93,7.07
			c0,2.63,1.07,5.21,2.93,7.07c1.86,1.86,4.44,2.93,7.07,2.93s5.21-1.07,7.07-2.93c1.86-1.86,2.93-4.44,2.93-7.07
			C512,354.35,510.93,351.78,509.07,349.92z"/>
	</g>
</g>
<g>
	<g>
		<g>
			<path d="M232.936,418.591c-4.404-3.333-10.675-2.465-14.009,1.938c-0.816,1.079-1.694,2.133-2.607,3.133
				c-3.725,4.077-3.439,10.402,0.639,14.127c1.918,1.752,4.333,2.617,6.741,2.617c2.712,0,5.414-1.096,7.387-3.256
				c1.327-1.451,2.6-2.983,3.787-4.55C238.207,428.196,237.34,421.924,232.936,418.591z"/>
			<path d="M143.708,438h-5c-5.523,0-10,4.477-10,10s4.477,10,10,10h5c5.523,0,10-4.477,10-10S149.231,438,143.708,438z"/>
			<path d="M187.807,437.823c-1.318,0.117-2.675,0.168-3.987,0.177h-0.112c-5.523,0-10,4.477-10,10s4.477,10,10,10h0.109
				c0.007,0,0.013,0,0.02,0c1.915,0,3.851-0.086,5.756-0.257c5.501-0.493,9.56-5.352,9.067-10.853
				C198.167,441.389,193.307,437.335,187.807,437.823z"/>
			<path d="M240.575,374.197c-5.433-1.011-10.652,2.567-11.665,7.996c-0.36,1.927-0.634,3.899-0.816,5.861
				c-0.509,5.499,3.536,10.37,9.036,10.879c0.313,0.029,0.624,0.043,0.933,0.043c5.106,0,9.465-3.893,9.946-9.079
				c0.125-1.352,0.314-2.71,0.562-4.035C249.584,380.433,246.004,375.21,240.575,374.197z"/>
			<path d="M307,330h-5c-5.523,0-10,4.477-10,10s4.477,10,10,10h5c5.523,0,10-4.477,10-10S312.523,330,307,330z"/>
			<path d="M258.247,339.504c-1.67,1.031-3.315,2.154-4.888,3.338c-4.414,3.32-5.299,9.59-1.978,14.003
				c1.965,2.612,4.963,3.988,7.998,3.988c2.093,0,4.204-0.655,6.005-2.01c1.085-0.816,2.218-1.59,3.367-2.299
				c4.7-2.901,6.158-9.062,3.258-13.762C269.107,338.062,262.945,336.605,258.247,339.504z"/>
		</g>
	</g>
</g>
<g>
	<g>
		<g>
			<path d="M361.077,203.466c-5.481-0.706-10.488,3.168-11.191,8.646c-0.265,2.062-0.399,4.167-0.399,6.258c0,5.523,4.477,10,10,10
				s10-4.477,10-10.001c0-1.243,0.08-2.492,0.236-3.712C370.426,209.179,366.555,204.169,361.077,203.466z"/>
			<path d="M384.688,171.502c-2.007,0.581-3.999,1.3-5.919,2.138c-5.062,2.21-7.374,8.104-5.165,13.166
				c1.641,3.759,5.315,6.002,9.17,6.002c1.336,0,2.693-0.269,3.995-0.838c1.128-0.492,2.298-0.915,3.477-1.256
				c5.306-1.534,8.362-7.079,6.827-12.385C395.539,173.024,389.995,169.967,384.688,171.502z"/>
			<path d="M432.32,169.582h-5c-5.523,0-10,4.477-10,10c0,5.523,4.477,10,10,10h5c5.523,0,10-4.477,10-10
				C442.32,174.059,437.843,169.582,432.32,169.582z"/>
		</g>
	</g>
</g>
<g>
	<g>
		<path d="M502,320.986c5.523,0,10-4.477,10-10V66c0-36.393-29.607-66-66-66c-5.523,0-10,4.477-10,10v80.988H328.517
			C307.979,37.818,256.326,0,196,0S84.021,37.818,63.483,90.988H10c-5.523,0-10,4.477-10,10V502c0,5.523,4.477,10,10,10h436
			c36.393,0,66-29.607,66-66c0-32.994-24.335-60.411-56-65.244V21.095C476.572,25.674,492,44.07,492,66v244.986
			C492,316.509,496.477,320.986,502,320.986z M196,20c67.271,0,122,54.729,122,122s-54.729,122-122,122S74,209.271,74,142
			S128.729,20,196,20z M305.77,231.98l77.478,77.477c5.458,5.458,5.458,14.34,0.001,19.798c-2.645,2.645-6.161,4.101-9.9,4.101
			c-3.74,0-7.255-1.456-9.9-4.101l-77.479-77.478C293.199,245.842,299.833,239.209,305.77,231.98z M492,446
			c0,25.364-20.636,46-46,46H20V110.988h37.42C55.187,120.974,54,131.35,54,142c0,78.299,63.701,142,142,142
			c26.849,0,51.979-7.492,73.416-20.492l79.891,79.89c6.422,6.421,14.96,9.958,24.042,9.958c9.081,0,17.619-3.536,24.042-9.958
			c13.256-13.257,13.256-34.827,0-48.083l-79.888-79.887C330.506,193.989,338,168.853,338,142c0-10.65-1.187-21.026-3.42-31.012H436
			V390c0,5.523,4.477,10,10,10C471.364,400,492,420.636,492,446z"/>
	</g>
</g>
<g>
	<g>
		<path d="M154.528,338.896l-79.783-46.063c-3.094-1.786-6.906-1.786-10,0c-2.86,1.651-4.684,4.601-4.947,7.859
			c-0.035,0.189-0.053,0.452-0.053,0.802v92.126V438h-2.914c-5.523,0-10,4.477-10,10s4.477,10,10,10h25.827c5.523,0,10-4.477,10-10
			s-4.477-10-10-10h-2.913v-38.607l74.783-43.176c3.094-1.786,5-5.087,5-8.66S157.623,340.683,154.528,338.896z M79.745,376.299
			v-57.485l49.783,28.743L79.745,376.299z"/>
	</g>
</g>
<g>
	<g>
		<path d="M196,40C139.757,40,94,85.757,94,142s45.757,102,102,102s102-45.757,102-102S252.243,40,196,40z M217.519,74.451
			c0-3.903,1.568-7.575,4.291-10.265c22.089,7.345,40.028,23.837,49.305,44.975h-69.184c-5.271,0-9.561-4.289-9.561-9.561
			c0-3.346,2.722-6.067,6.067-6.067C208.958,93.533,217.519,84.973,217.519,74.451z M158.096,214.678
			C131.916,200.969,114,173.545,114,142c0-45.215,36.785-82,82-82c1.557,0,3.102,0.053,4.638,0.139
			c-1.899,4.157-2.985,8.702-3.107,13.409C183.575,74.028,172.37,85.53,172.37,99.6c0,3.346,0.567,6.56,1.596,9.561h-20.027
			c-15.69,0-28.455,12.765-28.455,28.455v8.126c0,15.69,12.765,28.455,28.455,28.455c2.292,0,4.157,1.865,4.157,4.157V214.678z
			 M178.095,203.524v-25.168c0-13.32-10.837-24.157-24.157-24.157c-4.662,0-8.455-3.793-8.455-8.455v-8.126
			c0-4.662,3.793-8.455,8.455-8.455h47.001v-0.002c0.353,0,0.64,0.287,0.64,0.64c0,9.992,7.823,18.191,17.665,18.797v7.702h-2.909
			c-10.384,0-18.833,8.448-18.833,18.833v18.352c0,1.483-1.206,2.689-2.689,2.689C188.466,196.174,182.382,198.851,178.095,203.524z
			 M196,224c-3.042,0-6.042-0.18-8.998-0.504l5.818-6.437c0.508-0.563,1.235-0.885,1.995-0.885c12.51,0,22.688-10.178,22.688-22.689
			V176.3h2.909c10.384,0,18.833-8.448,18.833-18.833v-10.001c0-8.877-6.178-16.325-14.456-18.305h52.199
			c0.66,4.185,1.012,8.471,1.012,12.839C278,187.215,241.215,224,196,224z"/>
	</g>
</g>
<g>
	<g>
		<path d="M335.07,440.93c-1.86-1.86-4.44-2.93-7.07-2.93s-5.21,1.07-7.07,2.93S318,445.37,318,448s1.07,5.21,2.93,7.07
			c1.86,1.86,4.44,2.93,7.07,2.93s5.21-1.07,7.07-2.93c1.86-1.86,2.93-4.44,2.93-7.07S336.93,442.79,335.07,440.93z"/>
	</g>
</g>
<g>
	<g>
		<path d="M422.255,438h-53.669c-5.523,0-10,4.477-10,10s4.477,10,10,10h53.669c5.523,0,10-4.477,10-10S427.778,438,422.255,438z"/>
	</g>
</g>
<g>
</g>
<g>
</g>
<g>
</g>
<g>
</g>
<g>
</g>
<g>
</g>
<g>
</g>
<g>
</g>
<g>
</g>
<g>
</g>
<g>
</g>
<g>
</g>
<g>
</g>
<g>
</g>
<g>
</g>
</svg>
