<?xml version="1.0" encoding="iso-8859-1"?>
<!-- Generator: Adobe Illustrator 19.0.0, SVG Export Plug-In . SVG Version: 6.00 Build 0)  -->
<svg version="1.1" id="Capa_1" xmlns="http://www.w3.org/2000/svg" xmlns:xlink="http://www.w3.org/1999/xlink" x="0px" y="0px"
	 viewBox="0 0 512.001 512.001" style="enable-background:new 0 0 512.001 512.001;" xml:space="preserve">
<g>
	<g>
		<path d="M239.677,375.515h-0.01c-5.523,0-9.995,4.478-9.995,10s4.482,10,10.005,10s10-4.478,10-10S245.2,375.515,239.677,375.515z
			"/>
	</g>
</g>
<g>
	<g>
		<path d="M512,62.63c0-34.533-28.095-62.628-62.628-62.628c-29.43,0-53.372,23.942-53.372,53.372v0.628h-322
			c-40.804,0-73.999,33.196-73.999,73.999v321.273c0,0.032-0.002,0.064-0.002,0.096c0,34.533,28.095,62.628,62.628,62.628
			c29.429,0,53.372-23.942,53.372-53.372v-63.112H191c5.523,0,10-4.478,10-10s-4.477-10-10-10H73.857
			c-21.223,0-40.371,9.01-53.855,23.392V128.001c0-0.591,0.026-1.176,0.045-1.763h42.455c5.523,0,10-4.478,10-10s-4.477-10-10-10
			H24.599c8.387-18.964,27.369-32.237,49.404-32.237h113.938l25.649,46.568c6.787,12.323,19.743,19.979,33.812,19.979
			c10.256,0,18.601,8.344,18.601,18.601v39.853c0,5.522,4.477,10,10,10s10-4.478,10-10v-39.853
			c0-21.284-17.316-38.601-38.601-38.601c-6.779,0-13.022-3.688-16.293-9.627l-20.335-36.92h185.229v238.4
			c0,25.224,20.521,45.744,45.745,45.744c21.758,0,39.459-17.701,39.459-39.458c0-5.522-4.477-10-10-10c-5.523,0-10,4.478-10,10
			c0,10.729-8.729,19.458-19.459,19.458c-14.196,0-25.745-11.549-25.745-25.744c0-18.402,14.971-33.373,33.372-33.373
			c23.505,0,42.628,19.123,42.628,42.628c0,29.697-24.161,53.857-53.858,53.857h-94.07l-36.471-26.156
			c-13.526-9.701-21.602-25.431-21.602-42.075v-31.298c0-5.522-4.477-10-10-10c-5.523,0-10,4.478-10,10v31.298
			c0,23.074,11.194,44.879,29.945,58.327l13.81,9.904h-26.755c-5.523,0-10,4.478-10,10s4.477,10,10,10h155.143
			c40.726,0,73.857-33.132,73.857-73.856c0-0.415,0-1.648,0-1.858L512,62.63L512,62.63z M73.857,395.514h22.142v25.324
			c-7.339-5.016-16.204-7.956-25.745-7.956c-21.758,0-39.459,17.701-39.459,39.459c0,5.522,4.477,10,10,10s10-4.478,10-10
			c0-10.729,8.729-19.459,19.459-19.459c14.196,0,25.745,11.549,25.745,25.745c0,18.401-14.971,33.372-33.372,33.372
			c-23.495,0-42.61-19.106-42.627-42.596c0-0.011,0.002-0.021,0.002-0.032v-0.096C20.055,419.622,44.193,395.514,73.857,395.514z
			 M492,275.834c-11.189-10.416-26.173-16.805-42.628-16.805c-12.621,0-24.225,4.413-33.372,11.764V53.374
			c0-18.401,14.971-33.372,33.372-33.372C472.877,20.002,492,39.125,492,62.63V275.834z"/>
	</g>
</g>
<g>
	<g>
		<path d="M138.001,243.474l-68.999-39.838c-0.025-0.015-0.052-0.024-0.078-0.038c-0.354-0.201-0.72-0.384-1.1-0.542
			c-0.024-0.01-0.048-0.017-0.072-0.026c-0.342-0.139-0.695-0.255-1.055-0.356c-0.099-0.028-0.198-0.052-0.298-0.076
			c-0.295-0.073-0.594-0.131-0.899-0.177c-0.104-0.016-0.206-0.035-0.31-0.047c-0.387-0.046-0.778-0.076-1.177-0.076
			c-0.006,0-0.011,0-0.017,0c-0.401,0-0.794,0.031-1.182,0.077c-0.104,0.012-0.207,0.031-0.31,0.047
			c-0.304,0.046-0.604,0.104-0.899,0.177c-0.1,0.024-0.199,0.049-0.298,0.077c-0.36,0.101-0.712,0.217-1.054,0.355
			c-0.024,0.01-0.049,0.017-0.073,0.027c-0.38,0.157-0.745,0.34-1.1,0.542c-0.025,0.014-0.052,0.023-0.078,0.038
			c-0.051,0.029-0.095,0.067-0.145,0.097c-0.275,0.166-0.54,0.343-0.797,0.533c-0.086,0.064-0.173,0.125-0.256,0.192
			c-0.307,0.243-0.603,0.498-0.879,0.774c-0.019,0.019-0.035,0.04-0.054,0.059c-0.255,0.26-0.493,0.536-0.719,0.823
			c-0.069,0.088-0.134,0.177-0.2,0.267c-0.181,0.246-0.35,0.5-0.508,0.762c-0.047,0.078-0.097,0.153-0.141,0.232
			c-0.197,0.348-0.378,0.707-0.533,1.08c-0.001,0.002-0.002,0.005-0.003,0.007c-0.149,0.359-0.272,0.73-0.379,1.109
			c-0.027,0.095-0.05,0.192-0.074,0.288c-0.075,0.298-0.135,0.601-0.183,0.909c-0.016,0.105-0.035,0.21-0.048,0.316
			c-0.048,0.398-0.08,0.8-0.08,1.211v79.674v37.03h-1.168c-5.523,0-10,4.478-10,10s4.477,10,10,10h22.335c5.523,0,10-4.478,10-10
			s-4.477-10-10-10h-1.168v-31.257l64-36.951c3.094-1.786,5-5.088,5-8.66C143.001,248.562,141.095,245.26,138.001,243.474z
			 M74.001,274.649v-45.034l39,22.518L74.001,274.649z"/>
	</g>
</g>
<g>
	<g>
		<path d="M367.971,125.001l8.014-8.014c3.905-3.905,3.905-10.237,0-14.143c-3.905-3.904-10.237-3.904-14.143,0l-8.014,8.014
			l-8.014-8.014c-3.905-3.904-10.237-3.904-14.143,0c-3.905,3.905-3.905,10.237,0,14.143l8.014,8.014l-8.014,8.014
			c-3.903,3.906-3.903,10.238,0.002,14.143c1.953,1.952,4.512,2.929,7.071,2.929c2.559,0,5.119-0.977,7.071-2.929l8.014-8.014
			l8.014,8.014c1.953,1.952,4.512,2.929,7.071,2.929c2.559,0,5.119-0.977,7.071-2.929c3.905-3.905,3.905-10.237,0-14.143
			L367.971,125.001z"/>
	</g>
</g>
<g>
	<g>
		<path d="M238.356,267.208c-5.464-0.804-10.542,2.982-11.343,8.446c-0.284,1.938-0.481,3.918-0.586,5.884
			c-0.295,5.516,3.936,10.226,9.451,10.521c0.182,0.01,0.363,0.015,0.543,0.015c5.277,0,9.691-4.133,9.977-9.465
			c0.073-1.357,0.208-2.723,0.404-4.058C247.602,273.086,243.82,268.008,238.356,267.208z"/>
	</g>
</g>
<g>
	<g>
		<path d="M230.453,311.485c-4.271-3.503-10.571-2.88-14.074,1.392c-0.858,1.046-1.776,2.065-2.729,3.031
			c-3.879,3.932-3.837,10.263,0.094,14.143c1.948,1.923,4.486,2.882,7.023,2.882c2.582,0,5.162-0.993,7.118-2.976
			c1.382-1.4,2.714-2.88,3.958-4.398C235.346,321.288,234.723,314.987,230.453,311.485z"/>
	</g>
</g>
<g>
	<g>
		<path d="M268.539,234.574c-3.083-4.583-9.296-5.799-13.879-2.715c-1.635,1.1-3.235,2.286-4.754,3.526
			c-4.279,3.492-4.917,9.792-1.425,14.07c1.977,2.423,4.853,3.678,7.753,3.678c2.223,0,4.46-0.737,6.316-2.252
			c1.045-0.854,2.147-1.67,3.274-2.429C270.407,245.37,271.622,239.156,268.539,234.574z"/>
	</g>
</g>
<g>
	<g>
		<path d="M140.117,329h-5c-5.523,0-10,4.478-10,10c0,5.522,4.477,10,10,10h5c5.523,0,10-4.478,10-10
			C150.117,333.478,145.64,329,140.117,329z"/>
	</g>
</g>
<g>
	<g>
		<path d="M195.102,338.421c-0.281-5.515-4.998-9.751-10.496-9.479c-0.748,0.038-1.513,0.058-2.272,0.058h-2.218
			c-5.523,0-10,4.478-10,10c0,5.522,4.477,10,10,10h2.218c1.097,0,2.204-0.028,3.289-0.083
			C191.14,348.636,195.383,343.938,195.102,338.421z"/>
	</g>
</g>
<g>
	<g>
		<path d="M353.999,161.668c-5.523,0-10,4.478-10,10v5c0,5.522,4.477,10,10,10c5.523,0,10-4.478,10-10v-5
			C363.999,166.146,359.522,161.668,353.999,161.668z"/>
	</g>
</g>
<g>
	<g>
		<path d="M303.404,221.001h-5c-5.523,0-10,4.478-10,10s4.477,10,10,10h5c5.523,0,10-4.478,10-10S308.927,221.001,303.404,221.001z"
			/>
	</g>
</g>
<g>
	<g>
		<path d="M349.701,206.453c-4.254-3.522-10.558-2.933-14.081,1.32c-0.832,1.004-1.727,1.974-2.661,2.882
			c-3.959,3.851-4.047,10.182-0.196,14.141c1.96,2.017,4.563,3.028,7.169,3.028c2.512,0,5.028-0.941,6.971-2.831
			c1.446-1.406,2.831-2.907,4.118-4.46C354.545,216.28,353.954,209.976,349.701,206.453z"/>
	</g>
</g>
<g>
	<g>
		<path d="M167.487,210.337c-5.797,0-10.514-4.717-10.514-10.514v-36.719c0-10.452-2.877-20.692-8.32-29.615
			c-2.422-3.97-5.326-7.634-8.632-10.892c-3.934-3.877-10.265-3.83-14.142,0.104c-3.876,3.934-3.83,10.266,0.104,14.142
			c2.143,2.111,4.025,4.487,5.596,7.063c3.528,5.783,5.393,12.422,5.393,19.198v36.719c0,16.825,13.688,30.514,30.514,30.514
			c5.797,0,10.514,4.717,10.514,10.514V299c0,5.522,4.477,10,10,10s10-4.478,10-10v-58.15H198
			C198,224.026,184.313,210.337,167.487,210.337z"/>
	</g>
</g>
<g>
	<g>
		<path d="M101.1,106.245c-5.461-0.045-10.103,4.35-10.184,9.852c-0.082,5.503,4.385,10.04,9.888,10.148
			c0.066,0.001,0.132,0.002,0.197,0.002c5.503,0,10.059-4.448,10.086-9.951C111.114,110.792,106.604,106.3,101.1,106.245z"/>
	</g>
</g>
<g>
</g>
<g>
</g>
<g>
</g>
<g>
</g>
<g>
</g>
<g>
</g>
<g>
</g>
<g>
</g>
<g>
</g>
<g>
</g>
<g>
</g>
<g>
</g>
<g>
</g>
<g>
</g>
<g>
</g>
</svg>
