<?xml version="1.0" encoding="iso-8859-1"?>
<!-- Generator: Adobe Illustrator 19.0.0, SVG Export Plug-In . SVG Version: 6.00 Build 0)  -->
<svg version="1.1" id="Capa_1" xmlns="http://www.w3.org/2000/svg" xmlns:xlink="http://www.w3.org/1999/xlink" x="0px" y="0px"
	 viewBox="0 0 511.999 511.999" style="enable-background:new 0 0 511.999 511.999;" xml:space="preserve">
<g>
	<g>
		<path d="M255.999,392.001c-5.52,0-10,4.48-10,10c0,5.52,4.48,10,10,10c5.52,0,10-4.48,10-10
			C265.999,396.481,261.519,392.001,255.999,392.001z"/>
	</g>
</g>
<g>
	<g>
		<path d="M56.001,160.003h-46c-5.522,0-10,4.478-10,10c0,5.522,4.477,10,10,10h46c5.522,0,10-4.478,10-10
			C66.001,164.481,61.523,160.003,56.001,160.003z"/>
	</g>
</g>
<g>
	<g>
		<path d="M501.998,160.003h-46c-5.522,0-10,4.478-10,10c0,5.522,4.478,10,10,10h46c5.522,0,10-4.478,10-10
			C511.997,164.481,507.52,160.003,501.998,160.003z"/>
	</g>
</g>
<g>
	<g>
		<path d="M91.451,265.002c-2.762-4.781-8.876-6.422-13.66-3.66l-34.64,20c-4.783,2.761-6.422,8.877-3.66,13.66
			c2.771,4.798,8.891,6.414,13.66,3.66l34.64-20C92.574,275.9,94.213,269.785,91.451,265.002z"/>
	</g>
</g>
<g>
	<g>
		<path d="M472.508,45.004c-2.761-4.782-8.876-6.422-13.66-3.66l-34.64,20c-4.783,2.762-6.422,8.877-3.66,13.66
			c2.771,4.798,8.891,6.414,13.66,3.66l34.64-20C473.631,55.902,475.27,49.787,472.508,45.004z"/>
	</g>
</g>
<g>
	<g>
		<path d="M87.791,61.344l-34.64-20c-4.784-2.761-10.898-1.123-13.66,3.66s-1.123,10.898,3.66,13.66l34.64,20
			c4.774,2.756,10.892,1.133,13.66-3.66C94.213,70.22,92.574,64.105,87.791,61.344z"/>
	</g>
</g>
<g>
	<g>
		<path d="M468.848,281.342l-34.64-20c-4.784-2.762-10.898-1.122-13.66,3.66c-2.762,4.783-1.123,10.898,3.66,13.66l34.64,20
			c4.774,2.756,10.892,1.133,13.66-3.66C475.27,290.219,473.631,284.104,468.848,281.342z"/>
	</g>
</g>
<g>
	<g>
		<path d="M288.44,168.004c10.735-9.178,17.559-22.803,17.559-38.001c0-27.57-22.43-50-50-50s-50,22.43-50,50
			c0,15.198,6.824,28.823,17.559,38.001C201.256,179.722,186,203.107,186,230.002v20c0,5.522,4.477,10,10,10h119.999
			c5.522,0,10-4.478,10-10v-20C325.999,203.107,310.744,179.722,288.44,168.004z M255.999,100.003c16.542,0,30,13.458,30,30
			s-13.458,30-30,30s-30-13.458-30-30S239.458,100.003,255.999,100.003z M305.999,240.002H206v-10c0-27.57,22.43-50,50-50
			s50,22.43,50,50V240.002z"/>
	</g>
</g>
<g>
	<g>
		<path d="M236.639,1.074C161.713,9.372,99.663,68.609,88.12,142.815c-10.161,65.305,17.085,126.436,66.021,163.116
			c7.427,5.57,11.86,14.441,11.86,23.73c0,8.658,0,39.661,0,52.34c0,7.673,2.899,14.68,7.655,19.99
			C168.708,407.5,166,414.542,166,422c0,13.231,8.613,24.48,20.523,28.457c4.109,34.306,33.273,61.543,69.476,61.543
			c35.729,0,65.271-26.914,69.469-61.528c11.755-3.899,20.531-15.023,20.531-28.472c0-7.678-2.902-14.688-7.664-20
			c4.761-5.312,7.664-12.322,7.664-20c0-9.648,0-39.043,0-52.339c0-9.296,4.4-18.139,11.773-23.655
			c20.706-15.501,37.864-35.807,49.62-58.722c12.347-24.064,18.606-50.066,18.606-77.282
			C425.997,69.722,339.156-10.268,236.639,1.074z M255.999,492c-24.243,0-44.366-17.151-49.001-40.1h97.994
			C300.347,474.694,280.145,492,255.999,492z M325.999,382.001c0,5.514-4.486,10-10,10h-20c-5.522,0-10,4.478-10,10
			c0,5.522,4.478,10,10,10h20c5.514,0,10,4.486,10,10c0,5.52-4.479,10-10,10H196c-5.514,0-10-4.486-10-10c0-5.52,4.479-10,10-10h20
			c5.522,0,10-4.478,10-10c0-5.522-4.478-10-10-10h-20c-5.514,0-10-4.486-10-10v-10h139.999V382.001z M345.789,289.996
			c-12.392,9.271-19.79,24.1-19.79,39.667v22.34H186v-22.34c0-15.551-7.425-30.403-19.862-39.732
			c-44.561-33.402-66.883-88.594-58.257-144.041c10.129-65.11,65.206-117.654,130.958-124.936
			c92.549-10.246,167.159,62.544,167.159,149.05C405.998,217.613,384.052,261.35,345.789,289.996z"/>
	</g>
</g>
<g>
</g>
<g>
</g>
<g>
</g>
<g>
</g>
<g>
</g>
<g>
</g>
<g>
</g>
<g>
</g>
<g>
</g>
<g>
</g>
<g>
</g>
<g>
</g>
<g>
</g>
<g>
</g>
<g>
</g>
</svg>
