<?xml version="1.0" encoding="iso-8859-1"?>
<!-- Generator: Adobe Illustrator 19.0.0, SVG Export Plug-In . SVG Version: 6.00 Build 0)  -->
<svg version="1.1" id="Capa_1" xmlns="http://www.w3.org/2000/svg" xmlns:xlink="http://www.w3.org/1999/xlink" x="0px" y="0px"
	 viewBox="0 0 512 512" style="enable-background:new 0 0 512 512;" xml:space="preserve">
<g>
	<g>
		<path d="M131.685,54c-5.523,0-10,4.478-10,10s4.477,10,10,10h0.096c5.522,0,9.952-4.478,9.952-10
			C141.733,58.478,137.208,54,131.685,54z"/>
	</g>
</g>
<g>
	<g>
		<path d="M255.952,460c-5.522,0-10,4.478-10,10c0,5.522,4.478,10,10,10h0.096c5.522,0,9.952-4.478,9.952-10
			C266,464.478,261.475,460,255.952,460z"/>
	</g>
</g>
<g>
	<g>
		<path d="M502,492h-73.72c1.11-3.13,1.72-6.494,1.72-10V30c0-16.542-13.458-30-30-30H112C95.458,0,82,13.458,82,30v452
			c0,3.506,0.61,6.87,1.72,10H10c-5.522,0-10,4.478-10,10c0,5.522,4.478,10,10,10h492c5.522,0,10-4.478,10-10
			C512,496.478,507.522,492,502,492z M410,482c0,5.514-4.486,10-10,10H112c-5.514,0-10-4.486-10-10v-34h308V482z M410,54H169.435
			c-5.522,0-10,4.478-10,10s4.478,10,10,10H410v354H102V30c0-5.514,4.486-10,10-10h288c5.514,0,10,4.486,10,10V54z"/>
	</g>
</g>
<g>
	<g>
		<path d="M310.812,146.644h-30.538c-35.994,0-65.278,29.283-65.278,65.277v7.762h-14.244c-5.522,0-10,4.478-10,10v38.007
			c-0.001,5.524,4.477,10.001,9.999,10.001h14.244V354c0,5.522,4.478,10,10,10h38.008c5.522,0,10-4.478,10-10v-76.309h20.39
			c5.522,0,10-4.478,10-10v-38.007c0-5.522-4.478-10-10-10h-20.39v-7.762c0-4.009,3.262-7.271,7.271-7.271h30.538
			c5.522,0,10-4.478,10-10v-38.007C320.812,151.122,316.334,146.644,310.812,146.644z M300.811,184.653h-20.538
			c-15.037,0-27.271,12.233-27.271,27.271v17.762c0,5.522,4.478,10,10,10h20.39v18.007h-20.39c-5.522,0-10,4.478-10,10V344h-18.008
			v-76.309c0-5.522-4.478-10-10-10H210.75v-18.006h0.001h14.244c5.522,0,10-4.478,10-10v-17.762
			c0-24.966,20.312-45.277,45.278-45.277h20.538V184.653z"/>
	</g>
</g>
<g>
	<g>
		<path d="M282.625,389.653h-90.5c-5.522,0-10,4.478-10,10c0,5.522,4.478,10,10,10h90.5c5.522,0,10-4.478,10-10
			C292.625,394.131,288.147,389.653,282.625,389.653z"/>
	</g>
</g>
<g>
	<g>
		<path d="M326.951,392.58c-1.87-1.86-4.44-2.931-7.08-2.931c-2.631,0-5.211,1.071-7.061,2.931c-1.87,1.859-2.93,4.439-2.93,7.069
			c0,2.631,1.06,5.21,2.93,7.07c1.86,1.87,4.431,2.93,7.061,2.93s5.21-1.06,7.08-2.93c1.859-1.86,2.93-4.439,2.93-7.07
			C329.881,397.019,328.811,394.45,326.951,392.58z"/>
	</g>
</g>
<g>
</g>
<g>
</g>
<g>
</g>
<g>
</g>
<g>
</g>
<g>
</g>
<g>
</g>
<g>
</g>
<g>
</g>
<g>
</g>
<g>
</g>
<g>
</g>
<g>
</g>
<g>
</g>
<g>
</g>
</svg>
