<?xml version="1.0" encoding="iso-8859-1"?>
<!-- Generator: Adobe Illustrator 19.0.0, SVG Export Plug-In . SVG Version: 6.00 Build 0)  -->
<svg version="1.1" id="Capa_1" xmlns="http://www.w3.org/2000/svg" xmlns:xlink="http://www.w3.org/1999/xlink" x="0px" y="0px"
	 viewBox="0 0 512.001 512.001" style="enable-background:new 0 0 512.001 512.001;" xml:space="preserve">
<g>
	<g>
		<path d="M503.816,225.427c-5.659-6.008-13.639-9.453-21.893-9.453c-14.192,0-26.58,10.087-29.455,23.985l-20.142,97.381
			c-0.052-0.032-0.1-0.068-0.152-0.1c-9.135-5.614-20.713-6.021-30.22-1.057l-54.477,28.44c-18.727,9.775-32.6,26.236-39.063,46.349
			l-28.27,87.963c-1.689,5.258,1.203,10.889,6.46,12.579c1.018,0.327,2.048,0.482,3.062,0.482c4.228,0,8.154-2.702,9.518-6.942
			l28.27-87.963c4.845-15.075,15.243-27.412,29.279-34.74l54.477-28.44c3.299-1.723,7.319-1.583,10.493,0.367
			c2.794,1.718,4.615,4.57,4.997,7.826c0.094,0.8,0.095,1.597,0.013,2.378l-0.391,1.889c-0.497,1.676-1.395,3.226-2.675,4.503
			l-54.784,54.659c-3.909,3.9-3.916,10.231-0.016,14.142c3.901,3.908,10.233,3.916,14.141,0.016l54.785-54.659
			c4.748-4.737,7.728-10.754,8.67-17.203l25.61-123.82c0.963-4.658,5.114-8.037,9.87-8.037c2.807,0,5.412,1.125,7.336,3.168
			s2.893,4.711,2.725,7.512l-6.555,109.701c-1.202,20.139-9.332,39.457-22.892,54.396l-13.944,15.363
			c-3.712,4.089-3.406,10.413,0.684,14.124c1.915,1.738,4.32,2.596,6.717,2.596c2.722,0,5.435-1.104,7.406-3.279l13.944-15.363
			c16.614-18.302,26.574-41.972,28.048-66.643l6.555-109.7C512.44,239.606,509.476,231.435,503.816,225.427z"/>
	</g>
</g>
<g>
	<g>
		<path d="M437.469,453.959c-1.86-1.861-4.439-2.931-7.069-2.931c-2.63,0-5.21,1.07-7.068,2.931
			c-1.86,1.859-2.931,4.439-2.931,7.068c0,2.63,1.07,5.21,2.931,7.069c1.859,1.86,4.439,2.93,7.068,2.93
			c2.641,0,5.21-1.069,7.069-2.93s2.93-4.44,2.93-7.069C440.399,458.398,439.33,455.818,437.469,453.959z"/>
	</g>
</g>
<g>
	<g>
		<path d="M414.843,478.173c-4.09-3.711-10.411-3.408-14.124,0.683l-14.903,16.419c-3.712,4.089-3.406,10.412,0.684,14.124
			c1.915,1.738,4.32,2.596,6.717,2.596c2.722,0,5.434-1.104,7.406-3.279l14.903-16.419
			C419.238,488.208,418.933,481.885,414.843,478.173z"/>
	</g>
</g>
<g>
	<g>
		<path d="M231.853,498.934l-28.268-87.962c-6.464-20.112-20.337-36.573-39.064-46.349l-54.476-28.44
			c-9.505-4.964-21.084-4.559-30.221,1.057c-0.052,0.032-0.1,0.067-0.152,0.099l-20.141-97.381
			c-2.875-13.898-15.263-23.985-29.455-23.985c-8.254,0-16.233,3.446-21.893,9.453s-8.623,14.179-8.131,22.417l6.553,109.7
			c1.475,24.674,11.435,48.342,28.048,66.643l76.723,84.527c1.974,2.175,4.685,3.279,7.406,3.279c2.397,0,4.803-0.857,6.717-2.596
			c4.09-3.712,4.396-10.035,0.684-14.124l-76.723-84.526c-13.56-14.939-21.689-34.258-22.893-54.397l-6.553-109.699
			c-0.168-2.802,0.8-5.47,2.725-7.512c1.925-2.043,4.53-3.168,7.336-3.168c4.757,0,8.907,3.38,9.87,8.037l25.61,123.818
			c0.941,6.448,3.922,12.467,8.67,17.205l54.784,54.659c3.908,3.899,10.24,3.895,14.141-0.017c3.9-3.909,3.894-10.24-0.017-14.141
			l-54.784-54.659c-1.28-1.276-2.176-2.824-2.674-4.498l-0.392-1.896c-0.082-0.781-0.081-1.577,0.013-2.377
			c0.382-3.257,2.203-6.109,4.996-7.826c3.174-1.948,7.194-2.089,10.494-0.367l54.476,28.441
			c14.037,7.326,24.436,19.664,29.28,34.739l28.269,87.963c1.363,4.241,5.291,6.942,9.518,6.942c1.014,0,2.045-0.155,3.062-0.482
			C230.65,509.824,233.542,504.192,231.853,498.934z"/>
	</g>
</g>
<g>
	<g>
		<path d="M97.836,37.328c-3.906-3.905-10.235-3.905-14.142,0l-0.168,0.17c-3.883,3.927-3.847,10.258,0.08,14.141
			c1.95,1.927,4.491,2.889,7.031,2.889c2.577,0,5.155-0.991,7.11-2.969c0.003-0.004,0.081-0.083,0.1-0.102
			C101.741,47.551,101.738,41.229,97.836,37.328z"/>
	</g>
</g>
<g>
	<g>
		<path d="M340.162,0.005c-31.53,0-61.039,11.784-84.148,33.395c-23.109-21.611-52.618-33.394-84.148-33.394
			c-20.1,0-39.31,4.762-57.099,14.152c-4.884,2.578-6.752,8.627-4.175,13.511c2.578,4.884,8.624,6.754,13.512,4.175
			c14.881-7.855,30.949-11.839,47.762-11.839c29.305,0,56.564,12.202,76.759,34.357c1.895,2.079,4.578,3.264,7.39,3.264
			c2.813,0,5.496-1.185,7.39-3.264c20.193-22.155,47.454-34.357,76.759-34.357C398.522,20.005,446,69.468,446,130.267
			c0,103.44-158.393,216.822-189.984,238.399C224.424,347.089,66.031,233.707,66.031,130.267c0-18.016,4.261-35.886,12.32-51.68
			c2.511-4.919,0.558-10.941-4.361-13.452c-4.92-2.509-10.943-0.559-13.454,4.361c-9.489,18.595-14.506,39.609-14.506,60.77
			c0,29.588,11.048,61.772,32.836,95.659c17.02,26.471,40.663,54.144,70.27,82.253c50.095,47.557,99.375,79.586,101.448,80.926
			c1.652,1.067,3.54,1.602,5.429,1.602c1.889,0,3.776-0.534,5.429-1.602c2.073-1.341,51.353-33.369,101.448-80.926
			c29.608-28.11,53.251-55.782,70.27-82.253c21.788-33.887,32.836-66.072,32.836-95.659C465.997,58.439,409.547,0.005,340.162,0.005
			z"/>
	</g>
</g>
<g>
	<g>
		<path d="M325.987,159.978c-0.012-0.015-0.023-0.031-0.035-0.046l-61.757-79.521c-1.89-2.433-4.795-3.859-7.874-3.866
			c-0.008,0-0.016,0-0.023,0c-0.045,0-0.089,0.007-0.133,0.008c-0.051-0.001-0.1-0.008-0.151-0.008
			c-3.937,0-7.332,2.281-8.963,5.588L186.4,159.478c-0.135,0.171-0.263,0.346-0.385,0.524
			c-12.899,15.953-19.993,36.001-19.993,56.561c0,49.622,40.371,89.993,89.993,89.993s89.993-40.37,89.993-89.992
			C346.007,196.011,338.9,175.929,325.987,159.978z M246.015,175.068l-7.76-7.759c-3.906-3.905-10.235-3.905-14.142,0
			c-3.905,3.905-3.905,10.236,0,14.141l21.901,21.901v29.457l-25.606-25.606c-3.906-3.905-10.235-3.905-14.142,0
			c-3.905,3.905-3.905,10.236,0,14.142l39.748,39.748v24.744c-33.873-4.87-59.994-34.071-59.994-69.27
			c0-16.235,5.685-32.055,16.004-44.547c0.238-0.288,0.458-0.586,0.658-0.894l43.333-55.26V175.068z M266.013,285.833v-24.617
			l39.875-39.875c3.905-3.905,3.905-10.236,0-14.142c-3.906-3.905-10.235-3.905-14.142,0l-25.733,25.733v-29.457l22.028-22.028
			c3.905-3.905,3.905-10.236,0-14.141c-3.905-3.905-10.234-3.905-14.142,0l-7.887,7.886v-59.838l43.971,56.619
			c0.102,0.139,0.207,0.274,0.315,0.408c10.131,12.43,15.71,28.121,15.71,44.182C326.008,251.764,299.887,280.965,266.013,285.833z"
			/>
	</g>
</g>
<g>
</g>
<g>
</g>
<g>
</g>
<g>
</g>
<g>
</g>
<g>
</g>
<g>
</g>
<g>
</g>
<g>
</g>
<g>
</g>
<g>
</g>
<g>
</g>
<g>
</g>
<g>
</g>
<g>
</g>
</svg>
