<?xml version="1.0" encoding="iso-8859-1"?>
<!-- Generator: Adobe Illustrator 19.0.0, SVG Export Plug-In . SVG Version: 6.00 Build 0)  -->
<svg version="1.1" id="Capa_1" xmlns="http://www.w3.org/2000/svg" xmlns:xlink="http://www.w3.org/1999/xlink" x="0px" y="0px"
	 viewBox="0 0 512 512" style="enable-background:new 0 0 512 512;" xml:space="preserve">
<g>
	<g>
		<path d="M316,160c-5.52,0-10,4.48-10,10s4.48,10,10,10c5.52,0,10-4.48,10-10S321.52,160,316,160z"/>
	</g>
</g>
<g>
	<g>
		<path d="M196,60c-5.52,0-10,4.48-10,10s4.48,10,10,10s10-4.48,10-10S201.52,60,196,60z"/>
	</g>
</g>
<g>
	<g>
		<path d="M196,260c-5.52,0-10,4.48-10,10c0,5.52,4.48,10,10,10s10-4.48,10-10C206,264.48,201.52,260,196,260z"/>
	</g>
</g>
<g>
	<g>
		<path d="M156,60H70c-5.522,0-10,4.478-10,10c0,5.522,4.478,10,10,10h86c5.522,0,10-4.478,10-10C166,64.478,161.523,60,156,60z"/>
	</g>
</g>
<g>
	<g>
		<path d="M156,260H70c-5.522,0-10,4.478-10,10c0,5.522,4.478,10,10,10h86c5.522,0,10-4.478,10-10C166,264.478,161.523,260,156,260z
			"/>
	</g>
</g>
<g>
	<g>
		<path d="M509.071,162.928l-59.999-59.999C447.196,101.054,444.653,100,442,100H286V10c0-5.522-4.478-10-10-10h-40H70
			c-2.652,0-5.195,1.054-7.071,2.929l-60,60c-3.905,3.905-3.905,10.237,0,14.143l60,60C64.805,138.947,67.348,140,70,140h156v60H70
			c-2.652,0-5.195,1.054-7.071,2.929l-60,60c-3.905,3.905-3.905,10.237,0,14.143l60,60C64.805,338.947,67.348,340,70,340h156v152
			H116c-5.522,0-10,4.478-10,10c0,5.522,4.478,10,10,10h280c5.522,0,10-4.478,10-10c0-5.522-4.478-10-10-10H286V240h156
			c2.652,0,5.195-1.054,7.071-2.929l60-60C512.976,173.166,512.976,166.834,509.071,162.928z M226,320H74.143l-50-50l50-50H226V320z
			 M226,120H74.143l-50-50l50-50H226V120z M266,492h-20V20h20V492z M437.858,220H286V120h151.857l50,50L437.858,220z"/>
	</g>
</g>
<g>
	<g>
		<path d="M442,160h-86c-5.522,0-10,4.478-10,10c0,5.522,4.478,10,10,10h86c5.522,0,10-4.478,10-10C452,164.478,447.522,160,442,160
			z"/>
	</g>
</g>
<g>
</g>
<g>
</g>
<g>
</g>
<g>
</g>
<g>
</g>
<g>
</g>
<g>
</g>
<g>
</g>
<g>
</g>
<g>
</g>
<g>
</g>
<g>
</g>
<g>
</g>
<g>
</g>
<g>
</g>
</svg>
