<?xml version="1.0" encoding="iso-8859-1"?>
<!-- Generator: Adobe Illustrator 19.0.0, SVG Export Plug-In . SVG Version: 6.00 Build 0)  -->
<svg version="1.1" id="Capa_1" xmlns="http://www.w3.org/2000/svg" xmlns:xlink="http://www.w3.org/1999/xlink" x="0px" y="0px"
	 viewBox="0 0 512 512" style="enable-background:new 0 0 512 512;" xml:space="preserve">
<g>
	<g>
		<path d="M202.577,322.568c-1.859-1.86-4.439-2.93-7.069-2.93s-5.21,1.07-7.07,2.93c-1.86,1.86-2.93,4.44-2.93,7.07
			c0,2.641,1.069,5.22,2.93,7.07c1.86,1.87,4.44,2.93,7.07,2.93s5.21-1.06,7.069-2.93c1.86-1.86,2.931-4.43,2.931-7.07
			C205.508,327.008,204.438,324.438,202.577,322.568z"/>
	</g>
</g>
<g>
	<g>
		<path d="M301.412,161.1h-27.398v-7c0-3.859,3.141-7,7-7h3.399c14.888,0,26.999-12.112,26.999-26.999S299.3,93.102,284.413,93.102
			h-20.398c-5.522,0-10,4.478-10,10s4.478,10,10,10h20.398c3.859,0,7,3.141,7,7s-3.141,7-7,7h-3.399
			c-14.888,0-26.999,12.112-26.999,26.999v17c0,5.522,4.478,10,10,10h37.398c5.522,0,10-4.478,10-10S306.934,161.1,301.412,161.1z"
			/>
	</g>
</g>
<g>
	<g>
		<path d="M368.944,90.112c-5.522,0-10,4.478-10,10v27.398h-17.4v-27.398c0-5.522-4.478-10-10-10c-5.522,0-10,4.478-10,10v37.398
			c0,5.522,4.478,10,10,10h27.399v23.59c0,5.522,4.478,10,10,10c5.522,0,10-4.478,10-10v-33.59v-7.899v-29.499
			C378.943,94.589,374.466,90.112,368.944,90.112z"/>
	</g>
</g>
<g>
	<g>
		<path d="M435.934,123.701h-27.399v-23.589c0-5.522-4.478-10-10-10c-5.522,0-10,4.478-10,10v33.589v7.9V171.1
			c0,5.522,4.478,10,10,10c5.522,0,10-4.478,10-10v-27.399h17.4V171.1c0,5.522,4.478,10,10,10c5.522,0,10-4.478,10-10v-37.399
			C445.934,128.178,441.457,123.701,435.934,123.701z"/>
	</g>
</g>
<g>
	<g>
		<path d="M379.003,0.006h-58.057c-73.335,0-132.997,59.661-132.997,132.997c0,47.03,24.49,89.257,62.752,112.997H10
			c-5.522,0-10,4.478-10,10v245.994c0,5.522,4.478,10,10,10h383.99c5.522,0,10-4.478,10-10V263.636
			C465.42,251.91,512,197.798,512,133.003C512,59.668,452.339,0.006,379.003,0.006z M281.006,266.001v24.703
			c0,3.757,2.105,7.196,5.45,8.905c1.436,0.733,2.995,1.095,4.549,1.095c2.066,0,4.123-0.641,5.861-1.896l45.364-32.807h20.956
			L201.995,382.984l-59.72-43.342h14.734c5.522,0,10-4.478,10-10s-4.478-10-10-10h-42.291l-17.139-12.438h150.427
			c5.522,0,10-4.478,10-10c0-5.522-4.478-10-10-10H70.022l-29.218-21.204H281.006z M383.99,477.852l-50.885-50.885
			c-3.906-3.904-10.236-3.904-14.143,0c-3.905,3.905-3.905,10.237,0,14.143l50.885,50.885H34.142l51.885-51.885
			c3.905-3.905,3.905-10.237,0-14.143c-3.906-3.904-10.236-3.904-14.143,0L20,477.852V275.613l176.122,127.819
			c1.752,1.271,3.813,1.907,5.874,1.907s4.122-0.636,5.874-1.907L383.99,275.613V477.852z M379.003,246h-40.011
			c-2.104,0-4.155,0.664-5.86,1.896l-32.127,23.234v-18.81c0-4.588-3.122-8.588-7.573-9.701
			c-50.332-12.59-85.483-57.667-85.483-109.618c0-62.307,50.69-112.997,112.997-112.997h58.058
			c62.307,0,112.997,50.69,112.997,112.997S441.31,246,379.003,246z"/>
	</g>
</g>
<g>
</g>
<g>
</g>
<g>
</g>
<g>
</g>
<g>
</g>
<g>
</g>
<g>
</g>
<g>
</g>
<g>
</g>
<g>
</g>
<g>
</g>
<g>
</g>
<g>
</g>
<g>
</g>
<g>
</g>
</svg>
