<?xml version="1.0" encoding="iso-8859-1"?>
<!-- Generator: Adobe Illustrator 19.0.0, SVG Export Plug-In . SVG Version: 6.00 Build 0)  -->
<svg version="1.1" id="Layer_1" xmlns="http://www.w3.org/2000/svg" xmlns:xlink="http://www.w3.org/1999/xlink" x="0px" y="0px"
	 viewBox="0 0 512 512" style="enable-background:new 0 0 512 512;" xml:space="preserve">
<g>
	<g>
		<path d="M296.896,424.239l-5.062-5.1c-3.969-3.997-10.428-4.021-14.425-0.054c-3.998,3.969-4.021,10.427-0.054,14.425l5.062,5.1
			c1.994,2.008,4.616,3.014,7.239,3.014c2.598,0,5.196-0.986,7.185-2.96C300.84,434.695,300.864,428.237,296.896,424.239z"/>
	</g>
</g>
<g>
	<g>
		<path d="M404.671,202.766c5.632,0,10.199-4.567,10.199-10.199v-3.677h3.676c5.632,0,10.199-4.567,10.199-10.199
			c0-5.632-4.567-10.199-10.199-10.199h-3.676v-3.388h3.676c5.632,0,10.199-4.567,10.199-10.199c0-5.632-4.567-10.199-10.199-10.199
			h-3.676v-12.597c0-0.143-0.015-0.282-0.021-0.423c0.219-3.915-1.836-7.688-5.399-9.578l-64.01-33.939
			c-4.975-2.638-11.15-0.742-13.789,4.233c-2.638,4.977-0.744,11.151,4.233,13.789l27.779,14.729H310.8V75.938
			c0-0.059-0.015-0.118-0.02-0.177c-0.034-1.946-0.606-3.879-1.739-5.548L264.439,4.473C262.541,1.676,259.379,0,255.999,0
			s-6.542,1.676-8.44,4.473l-43.177,63.641l-101.829,53.991c-3.565,1.89-5.619,5.663-5.399,9.578
			c-0.006,0.142-0.021,0.281-0.021,0.423v12.597h-3.678c-5.632,0-10.199,4.567-10.199,10.199s4.567,10.199,10.199,10.199h3.677
			v3.388h-3.677c-5.632,0-10.199,4.567-10.199,10.199s4.567,10.199,10.199,10.199h3.677v3.677c0,5.632,4.567,10.199,10.199,10.199
			c5.632,0,10.199-4.567,10.199-10.199v-3.677h3.676c5.632,0,10.199-4.567,10.199-10.199s-4.567-10.199-10.199-10.199h-3.676v-3.388
			h3.676c5.632,0,10.199-4.567,10.199-10.199s-4.567-10.199-10.199-10.199h-3.676v-3.388h83.67v39.167l-98.647,52.304
			c-3.441,1.825-5.473,5.405-5.413,9.173c-0.001,0.055-0.008,0.108-0.008,0.163v12.597h-3.677c-5.632,0-10.199,4.567-10.199,10.199
			s4.567,10.199,10.199,10.199h3.677v3.388h-3.677c-5.632,0-10.199,4.567-10.199,10.199c0,5.632,4.567,10.199,10.199,10.199h3.677
			v3.677c0,5.632,4.567,10.199,10.199,10.199c5.632,0,10.199-4.567,10.199-10.199v-3.677h3.676c5.632,0,10.199-4.567,10.199-10.199
			c0-5.632-4.567-10.199-10.199-10.199h-3.676v-3.388h3.676c5.632,0,10.199-4.567,10.199-10.199s-4.567-10.199-10.199-10.199h-3.676
			v-2.722h81.145l-56.685,247.523c-1.257,5.491,2.174,10.961,7.666,12.219c0.849,0.195,1.693,0.264,2.524,0.245
			c0.083,0.002,0.165,0.012,0.248,0.012c2.611,0,5.22-0.996,7.212-2.987L260.72,407.929h67.388l14.406,62.907l-23.206-23.206
			c-3.984-3.982-10.44-3.982-14.425,0c-3.983,3.983-3.983,10.441,0,14.425l47.352,46.264l2.474,2.148
			c1.582,0.978,3.425,1.533,5.35,1.533c0.754,0,1.52-0.084,2.286-0.259c5.491-1.258,8.922-6.728,7.666-12.219l-56.685-247.523
			h81.146v2.722h-3.677c-5.632,0-10.199,4.567-10.199,10.199s4.567,10.199,10.199,10.199h3.677v3.388h-3.677
			c-5.632,0-10.199,4.567-10.199,10.199c0,5.632,4.567,10.199,10.199,10.199h3.677v3.677c0,5.632,4.567,10.199,10.199,10.199
			c5.632,0,10.199-4.567,10.199-10.199v-3.677h3.676c5.632,0,10.199-4.567,10.199-10.199c0-5.632-4.567-10.199-10.199-10.199h-3.676
			v-3.388h3.676c5.632,0,10.199-4.567,10.199-10.199s-4.567-10.199-10.199-10.199h-3.676v-12.597c0-0.055-0.007-0.108-0.008-0.163
			c0.06-3.768-1.971-7.349-5.413-9.172l-98.648-52.304v-39.167h83.671v3.388h-3.677c-5.632,0-10.199,4.567-10.199,10.199
			c0,5.632,4.567,10.199,10.199,10.199h3.677v3.388h-3.677c-5.632,0-10.199,4.567-10.199,10.199c0,5.632,4.567,10.199,10.199,10.199
			h3.677v3.677C394.471,198.199,399.039,202.766,404.671,202.766z M305.048,307.24l-65.973-54.916h53.397L305.048,307.24z
			 M255.999,28.366l25.355,37.374h-50.711L255.999,28.366z M221.598,86.137H290.4v34.781h-68.803V86.137z M221.598,141.641H290.4
			v34.78h-68.803V141.641z M221.598,196.818H290.4v34.781h-68.803V196.818z M148.338,120.918l52.861-28.028v28.028H148.338z
			 M148.338,231.601l52.861-28.028v28.028H148.338z M169.64,470.161l14.251-62.231h47.98L169.64,470.161z M252.27,387.53h-63.707
			l7.978-34.835l21.688,21.689c1.992,1.991,4.602,2.987,7.212,2.987s5.22-0.996,7.212-2.987c3.983-3.983,3.983-10.441,0-14.425
			l-25.963-25.963l31.597-26.303c4.33-3.603,4.917-10.035,1.314-14.363c-3.601-4.328-10.034-4.918-14.364-1.314L206.95,307.24
			l10.602-46.294l88.028,73.275L252.27,387.53z M315.55,353.099l7.885,34.432h-42.317L315.55,353.099z M363.66,231.599h-52.861
			v-28.028L363.66,231.599z"/>
	</g>
</g>
<g>
</g>
<g>
</g>
<g>
</g>
<g>
</g>
<g>
</g>
<g>
</g>
<g>
</g>
<g>
</g>
<g>
</g>
<g>
</g>
<g>
</g>
<g>
</g>
<g>
</g>
<g>
</g>
<g>
</g>
</svg>
