<?xml version="1.0" encoding="iso-8859-1"?>
<!-- Generator: Adobe Illustrator 19.0.0, SVG Export Plug-In . SVG Version: 6.00 Build 0)  -->
<svg version="1.1" id="Capa_1" xmlns="http://www.w3.org/2000/svg" xmlns:xlink="http://www.w3.org/1999/xlink" x="0px" y="0px"
	 viewBox="0 0 511.999 511.999" style="enable-background:new 0 0 511.999 511.999;" xml:space="preserve">
<g>
	<g>
		<g>
			<path d="M220.64,277.209c-3.9,3.91-3.9,10.24,0,14.15c3.91,3.9,10.24,3.9,14.15,0c3.9-3.91,3.9-10.24,0-14.15
				C230.88,273.309,224.55,273.309,220.64,277.209z"/>
			<path d="M509.071,325.216L186.781,2.928c-3.904-3.903-10.235-3.905-14.141-0.001l-28.29,28.28
				c-1.876,1.875-2.93,4.419-2.93,7.071s1.053,5.196,2.929,7.072c3.908,3.909,3.907,10.239,0,14.147
				c-3.898,3.898-10.24,3.898-14.138,0c-3.905-3.904-10.237-3.904-14.142,0c-3.904,3.905-3.906,10.237,0,14.143
				c3.907,3.908,3.908,10.228,0,14.137c-3.902,3.902-10.231,3.916-14.147,0c-3.904-3.903-10.236-3.904-14.142,0
				c-3.905,3.904-3.906,10.236,0,14.143c3.908,3.908,3.908,10.239,0,14.147c-3.908,3.908-10.229,3.908-14.138,0
				c-3.905-3.903-10.236-3.903-14.142,0c-3.905,3.904-3.906,10.236,0,14.143c3.908,3.908,3.908,10.229,0,14.138
				c-3.908,3.908-10.239,3.908-14.147,0c-3.905-3.904-10.239-3.903-14.144,0.001l-28.281,28.29
				c-3.904,3.905-3.903,10.235,0.001,14.141L325.22,509.07c1.952,1.952,4.512,2.929,7.071,2.929c2.559,0,5.117-0.976,7.07-2.928
				l28.29-28.28c3.904-3.902,3.907-10.238,0.001-14.144c-3.908-3.909-3.907-10.239,0-14.147c3.898-3.898,10.24-3.898,14.138,0
				c3.905,3.904,10.237,3.904,14.142,0c3.904-3.905,3.906-10.237,0-14.143c-3.907-3.908-3.908-10.228,0-14.137
				c3.902-3.902,10.231-3.916,14.147,0c3.905,3.904,10.237,3.905,14.142,0c3.905-3.904,3.906-10.236,0-14.143
				c-3.908-3.908-3.908-10.239,0-14.147c3.908-3.908,10.229-3.908,14.138,0c3.906,3.904,10.237,3.905,14.142,0
				c3.905-3.904,3.906-10.236,0-14.143c-3.908-3.908-3.908-10.229,0-14.138c3.908-3.908,10.239-3.908,14.147,0
				c3.905,3.904,10.239,3.903,14.144-0.001l28.28-28.291C512.976,335.452,512.975,329.122,509.071,325.216z M472.517,347.637
				c-10.916-5.224-24.75-3.538-34.158,5.87c-5.27,5.27-8.338,12.155-8.741,19.539c-7.384,0.403-14.27,3.472-19.539,8.741
				c-5.271,5.271-8.34,12.16-8.742,19.549c-7.389,0.401-14.277,3.47-19.548,8.741c-5.274,5.273-8.342,12.165-8.742,19.555
				c-7.114,0.394-14.115,3.302-19.538,8.725c-9.398,9.4-11.101,23.23-5.87,34.158l-15.348,15.343l-308.15-308.15l15.342-15.348
				c10.916,5.224,24.75,3.538,34.158-5.87c5.27-5.27,8.338-12.155,8.741-19.539c7.384-0.403,14.27-3.472,19.539-8.741
				c5.271-5.271,8.34-12.16,8.742-19.549c7.389-0.401,14.277-3.47,19.548-8.741c5.274-5.273,8.342-12.165,8.742-19.555
				c7.114-0.394,14.115-3.302,19.538-8.725c9.398-9.4,11.101-23.23,5.87-34.158l15.348-15.343l308.151,308.15L472.517,347.637z"/>
			<path d="M70.71,193.848c0,2.652,1.054,5.195,2.929,7.071l237.44,237.44c1.953,1.952,4.512,2.929,7.071,2.929
				s5.119-0.977,7.071-2.929l113.14-113.14c1.875-1.876,2.929-4.419,2.929-7.071c0-2.652-1.054-5.195-2.929-7.071l-237.44-237.44
				c-3.905-3.903-10.237-3.904-14.142,0l-113.14,113.14C71.764,188.653,70.71,191.196,70.71,193.848z M193.85,94.851
				l223.298,223.298l-98.998,98.997L94.852,193.848L193.85,94.851z"/>
			<path d="M220.677,206.534l-11.418-11.535h32.601c4.054,0,7.708-2.448,9.249-6.198c1.542-3.749,0.667-8.059-2.216-10.91
				l-28.29-27.99c-3.926-3.885-10.258-3.852-14.142,0.075c-3.885,3.926-3.851,10.258,0.075,14.142l10.999,10.881H185.29
				c-4.035,0-7.675,2.426-9.229,6.149c-1.554,3.725-0.717,8.018,2.122,10.886l28.28,28.57c3.885,3.925,10.217,3.957,14.142,0.072
				C224.53,216.791,224.562,210.46,220.677,206.534z"/>
			<path d="M291.351,263.07c11.723-11.723,11.725-30.696,0-42.423c-11.696-11.695-30.726-11.695-42.422,0
				c-11.722,11.724-11.726,30.697,0,42.423C260.625,274.765,279.654,274.766,291.351,263.07z M263.071,234.79
				c3.897-3.897,10.24-3.9,14.138,0c3.907,3.907,3.908,10.229,0,14.138c-3.897,3.898-10.239,3.898-14.138,0
				C259.163,245.019,259.164,238.698,263.071,234.79z"/>
			<path d="M305.499,319.64c11.695,11.695,30.726,11.696,42.422,0c11.722-11.724,11.725-30.706,0-42.433
				c-11.722-11.722-30.698-11.726-42.422,0C293.776,288.931,293.773,307.913,305.499,319.64z M319.641,291.35
				c3.908-3.908,10.229-3.908,14.138,0c3.908,3.909,3.907,10.239,0,14.147c-3.898,3.898-10.241,3.898-14.138,0
				C315.733,301.59,315.733,295.259,319.641,291.35z"/>
			<path d="M164.082,206.499c-3.905-3.906-10.237-3.906-14.142-0.002c-3.906,3.905-3.906,10.237-0.001,14.143l42.42,42.43
				c3.905,3.906,10.236,3.906,14.142,0.002c3.906-3.905,3.906-10.237,0.001-14.143L164.082,206.499z"/>
			<path d="M263.07,305.497c-3.905-3.904-10.237-3.903-14.142,0.002c-3.905,3.906-3.904,10.237,0.001,14.143l42.43,42.42
				c3.905,3.904,10.237,3.904,14.142-0.002c3.905-3.906,3.904-10.237-0.001-14.143L263.07,305.497z"/>
		</g>
	</g>
</g>
<g>
</g>
<g>
</g>
<g>
</g>
<g>
</g>
<g>
</g>
<g>
</g>
<g>
</g>
<g>
</g>
<g>
</g>
<g>
</g>
<g>
</g>
<g>
</g>
<g>
</g>
<g>
</g>
<g>
</g>
</svg>
