<?xml version="1.0" encoding="iso-8859-1"?>
<!-- Generator: Adobe Illustrator 19.0.0, SVG Export Plug-In . SVG Version: 6.00 Build 0)  -->
<svg version="1.1" id="Capa_1" xmlns="http://www.w3.org/2000/svg" xmlns:xlink="http://www.w3.org/1999/xlink" x="0px" y="0px"
	 viewBox="0 0 512 512" style="enable-background:new 0 0 512 512;" xml:space="preserve">
<g>
	<g>
		<g>
			<path d="M185.999,245.365c1.696,0,3.417-0.432,4.991-1.342c4.557-2.631,9.744-4.021,14.999-4.021c5.257,0,10.444,1.391,15,4.021
				c4.782,2.76,10.899,1.123,13.661-3.658c2.762-4.783,1.123-10.898-3.659-13.662c-7.593-4.385-16.239-6.701-25.002-6.701
				c-8.762,0-17.407,2.316-25,6.701c-4.782,2.762-6.421,8.879-3.659,13.662C179.182,243.572,182.543,245.365,185.999,245.365z"/>
			<path d="M290.993,244.023c4.556-2.631,9.743-4.021,14.998-4.021c5.257,0,10.443,1.391,14.997,4.021
				c1.576,0.91,3.295,1.342,4.993,1.342c3.454,0,6.815-1.793,8.669-5c2.762-4.781,1.125-10.898-3.658-13.66
				c-7.591-4.385-16.236-6.703-25.001-6.703c-8.763,0-17.407,2.316-25,6.701c-4.782,2.764-6.421,8.879-3.659,13.662
				C280.095,245.148,286.209,246.787,290.993,244.023z"/>
			<path d="M255.995,442.567c-5.523,0-10,4.477-10,10v0.477c0,5.521,4.477,10,10,10c5.522,0,10-4.479,10-10v-0.477
				C265.995,447.043,261.517,442.567,255.995,442.567z"/>
			<path d="M501.999,491.996h-0.236c-5.523,0-10,4.479-10,10c0,5.523,4.477,10,10,10h0.236c5.523,0,10-4.477,10-10
				C511.998,496.475,507.522,491.996,501.999,491.996z"/>
			<path d="M473.031,491.996h-7.276c-0.516-10.84-1.864-21.525-4.001-31.98c-0.004-0.02-0.008-0.039-0.012-0.059
				c-11.666-56.992-46.732-107.089-97.662-137.806c12.09-18.051,19.785-39.281,21.533-62.151h0.377
				c22.057,0,40.001-17.943,40.001-40s-17.943-39.998-39.997-40.002v-9.998c0-68.315-52.969-124.493-119.998-129.618V20h49.375
				c5.522,0,10-4.479,10-10c0-5.523-4.478-10-10-10H196.621c-5.522,0-10,4.477-10,10c0,5.521,4.478,10,10,10h49.375v20.383
				c-67.027,5.121-120,61.301-120,129.618v9.998h-0.002c-22.057,0-40.001,17.945-40.001,40.002s17.944,40,40.001,40h0.383
				c1.748,22.871,9.445,44.103,21.536,62.156c-50.931,30.719-85.994,80.817-97.658,137.81c-0.003,0.014-0.006,0.027-0.008,0.041
				c-2.139,10.457-3.488,21.147-4.004,31.99h-7.273c-5.524,0-10,4.479-10,10c0,5.523,4.476,10,10,10h16.953
				c0.025,0,0.051,0.004,0.077,0.004s0.052-0.004,0.077-0.004h59.848c0.025,0,0.051,0.004,0.077,0.004s0.052-0.004,0.077-0.004
				h279.845c0.026,0,0.051,0.004,0.077,0.004s0.051-0.004,0.077-0.004h59.845c0.026,0,0.052,0.004,0.078,0.004
				c0.025,0,0.051-0.004,0.076-0.004h16.956c5.522,0,10-4.477,10-10C483.031,496.475,478.553,491.996,473.031,491.996z
				 M385.993,199.998c11.027,0.004,19.997,8.975,19.997,20.002c0,11.025-8.97,19.998-19.997,20V199.998z M125.996,240h-0.002
				c-11.03,0-20.001-8.973-20.001-20c0-11.029,8.972-20.002,20.001-20.002h0.002V240z M106,491.996H66.263
				c0.354-6.74,1.069-13.414,2.123-19.998H106V491.996z M72.713,451.998c6.618-24.174,17.96-46.719,33.287-66.398v66.398H72.713z
				 M365.535,160.001h-46.643c-1.043-29.674-6.697-57.391-16.213-78.899c-2.221-5.018-4.614-9.605-7.161-13.75
				C333.731,82.114,361.698,117.626,365.535,160.001z M255.995,60.002c9.692,0,20.308,10.914,28.393,29.191
				c8.439,19.074,13.49,43.924,14.498,70.808h-85.781c1.007-26.885,6.058-51.736,14.496-70.808
				C235.688,70.915,246.302,60.002,255.995,60.002z M216.471,67.351c-2.547,4.145-4.94,8.732-7.16,13.75
				c-9.516,21.51-15.17,49.225-16.213,78.899h-46.645C150.292,117.626,178.258,82.112,216.471,67.351z M145.994,250v-69.999h0.001
				h219.998v9.922c0,0.025-0.004,0.051-0.004,0.076c0,0.027,0.004,0.051,0.004,0.078v59.848c0,0.025-0.004,0.051-0.004,0.076
				c0,0.021,0.004,0.041,0.004,0.063c-0.015,25.637-8.846,49.248-23.617,67.964c-0.596,0.57-1.125,1.225-1.576,1.953
				c-8.251,9.982-18.229,18.482-29.469,25.053c-0.636,0.281-1.24,0.625-1.804,1.029C293.674,354.933,275.416,360,255.996,360h-0.004
				c-19.415,0-37.666-5.063-53.516-13.928c-0.576-0.416-1.194-0.768-1.847-1.055c-11.215-6.561-21.174-15.043-29.413-25.002
				c-0.464-0.754-1.009-1.428-1.624-2.012C154.82,299.276,145.994,275.649,145.994,250z M293.998,374.327
				c-9.402,10.524-23.032,16.934-38.007,16.934c-14.979,0-28.608-6.41-38.01-16.936c12.028,3.684,24.79,5.674,38.01,5.674h0.004
				C269.212,379.999,281.973,378.011,293.998,374.327z M386,491.996H126.001V363.685c10.342-9.699,21.852-18.334,34.4-25.684
				c8.11,8.803,17.415,16.486,27.657,22.789c8.021,26.725,30.656,45.951,57.936,49.766l0.003,12.928
				c0.001,5.523,4.477,9.998,10,9.998c0.001,0,0.001,0,0.002,0c5.523,0,9.999-4.479,9.998-10.002l-0.003-12.924
				c27.275-3.816,49.91-23.041,57.934-49.762c10.246-6.305,19.554-13.99,27.666-22.797c12.551,7.352,24.064,15.988,34.408,25.691
				V491.996z M405.999,385.602c15.326,19.68,26.667,42.225,33.284,66.396h-33.284V385.602z M405.999,491.996v-19.998h37.611
				c1.055,6.584,1.77,13.258,2.124,19.998H405.999z"/>
			<path d="M10.234,491.996h-0.233c-5.523,0-10,4.479-10,10c0,5.523,4.477,10,10,10h0.233c5.523,0,10-4.477,10-10
				C20.234,496.475,15.757,491.996,10.234,491.996z"/>
			<path d="M225.993,306.348c0,16.543,13.457,30,29.999,30c16.543,0,30.001-13.457,30.001-30s-13.458-30.002-30.001-30.002
				C239.45,276.346,225.993,289.805,225.993,306.348z M255.992,296.346c5.515,0,10.001,4.486,10.001,10.002
				c0,5.514-4.486,10-10.001,10c-5.514,0-9.999-4.486-9.999-10C245.993,300.832,250.478,296.346,255.992,296.346z"/>
		</g>
	</g>
</g>
<g>
</g>
<g>
</g>
<g>
</g>
<g>
</g>
<g>
</g>
<g>
</g>
<g>
</g>
<g>
</g>
<g>
</g>
<g>
</g>
<g>
</g>
<g>
</g>
<g>
</g>
<g>
</g>
<g>
</g>
</svg>
