<?xml version="1.0" encoding="iso-8859-1"?>
<!-- Generator: Adobe Illustrator 19.0.0, SVG Export Plug-In . SVG Version: 6.00 Build 0)  -->
<svg version="1.1" id="Capa_1" xmlns="http://www.w3.org/2000/svg" xmlns:xlink="http://www.w3.org/1999/xlink" x="0px" y="0px"
	 viewBox="0 0 512 512" style="enable-background:new 0 0 512 512;" xml:space="preserve">
<g>
	<g>
		<path d="M502,124.13c5.522,0,10-4.477,10-10V80.159c0-5.523-4.478-10-10-10h-39.667v-7.375c0-5.523-4.478-10-10-10H423.12v-4.798
			c0-5.523-4.477-10-10-10h-68.476c-26.859,0-50.338,16.556-59.586,41.124h-8.185c-15.651,0-28.662,11.511-31.018,26.511h-38.5
			c-5.523,0-10,4.477-10,10v14.177H76.311C34.232,129.797,0,164.03,0,206.108v0.212c0,42.078,34.232,76.311,76.311,76.311h130.198
			c5.522,0,10-4.477,10-10s-4.478-10-10-10H76.311C45.261,262.631,20,237.37,20,206.32v-0.212c0-31.05,25.261-56.311,56.311-56.311
			h121.045v14.177c0,5.523,4.477,10,10,10h38.538c2.445,14.897,15.403,26.301,30.981,26.301h8.104
			c9.189,24.693,32.696,41.334,59.666,41.334h68.476c5.523,0,10-4.477,10-10v-4.798h29.213c5.522,0,10-4.477,10-10v-7.376H502
			c5.522,0,10-4.477,10-10v-33.972c0-5.523-4.478-10-10-10h-39.667V124.13H502z M462.333,90.159H492v13.972h-29.667V90.159z
			 M245.472,153.975h-28.117V125.62h28.117V153.975z M403.121,221.609h-0.001h-58.476c-20.368,0-37.857-13.83-42.531-33.631
			c-1.065-4.514-5.095-7.703-9.732-7.703h-15.507c-6.287,0-11.401-5.115-11.401-11.401v-58.363c0-6.287,5.114-11.402,11.401-11.402
			h15.556c4.623,0,8.644-3.169,9.724-7.664c4.733-19.701,22.207-33.46,42.491-33.46h58.476V221.609z M442.333,206.812H423.12V72.783
			h19.213V206.812z M492,175.464v13.972h-29.667v-13.972H492z"/>
	</g>
</g>
<g>
	<g>
		<path d="M415.739,262.631h-129.73c-5.522,0-10,4.477-10,10s4.478,10,10,10h129.73c31.05,0,56.311,25.261,56.311,56.311
			c0,31.05-25.261,56.311-56.311,56.311h-83.163v-6.677c0-5.523-4.478-10-10-10h-37.245c-10.438-24.703-34.914-42.084-63.374-42.084
			h-100.51c-5.523,0-10,4.477-10,10v8.841h-43.55c-27.526,0-49.92,22.394-49.92,49.92s22.394,49.92,49.92,49.92h43.55v8.841
			c0,5.523,4.477,10,10,10h100.51c28.46,0,52.936-17.38,63.374-42.084h37.245c5.522,0,10-4.477,10-10v-6.677h83.163
			c42.078,0,76.311-34.233,76.311-76.311S457.817,262.631,415.739,262.631z M71.752,435.173h-3.854
			c-16.499,0-29.92-13.422-29.92-29.92s13.422-29.92,29.92-29.92h3.854V435.173z M111.447,435.173H91.752v-59.84h19.695V435.173z
			 M270.662,407.501c-0.009,0.194-0.02,0.388-0.031,0.581c-0.037,0.643-0.085,1.283-0.146,1.919c-0.01,0.105-0.017,0.21-0.028,0.314
			c-0.08,0.768-0.177,1.531-0.292,2.289c-0.01,0.07-0.023,0.139-0.034,0.209c-0.114,0.731-0.244,1.457-0.39,2.177
			c-0.009,0.044-0.017,0.089-0.027,0.134c-4.574,22.169-24.249,38.891-47.757,38.891h-90.51v-21.084h44.886c5.523,0,10-4.477,10-10
			s-4.477-10-10-10h-44.886v-17.333h44.886c5.523,0,10-4.477,10-10s-4.477-10-10-10h-44.886v-19.105h90.51
			c23.508,0,43.183,16.721,47.757,38.895c0.009,0.044,0.018,0.089,0.027,0.134c0.146,0.72,0.276,1.446,0.39,2.177
			c0.011,0.07,0.023,0.139,0.034,0.209c0.115,0.757,0.212,1.521,0.292,2.289c0.011,0.105,0.018,0.21,0.028,0.314
			c0.062,0.636,0.109,1.276,0.146,1.919c0.011,0.194,0.022,0.387,0.031,0.581c0.034,0.745,0.057,1.492,0.057,2.245
			S270.696,406.756,270.662,407.501z M312.576,411.931h-22.179c0.067-0.689,0.104-1.382,0.15-2.074
			c0.026-0.387,0.065-0.771,0.084-1.16c0.057-1.145,0.088-2.293,0.088-3.443c0-1.15-0.031-2.298-0.088-3.443
			c-0.019-0.389-0.058-0.773-0.084-1.16c-0.046-0.692-0.083-1.385-0.15-2.074h22.179V411.931z"/>
	</g>
</g>
<g>
	<g>
		<path d="M253.58,265.56c-0.46-0.46-0.971-0.88-1.52-1.24c-0.54-0.36-1.12-0.67-1.73-0.92c-0.601-0.25-1.23-0.44-1.87-0.57
			c-1.29-0.26-2.62-0.26-3.91,0c-0.63,0.13-1.26,0.32-1.87,0.57c-0.6,0.25-1.18,0.56-1.72,0.92c-0.55,0.36-1.061,0.78-1.521,1.24
			c-0.46,0.46-0.88,0.97-1.25,1.52c-0.359,0.539-0.67,1.12-0.92,1.73c-0.25,0.6-0.439,1.23-0.569,1.87
			c-0.131,0.64-0.19,1.3-0.19,1.95c0,2.63,1.07,5.21,2.93,7.07c0.46,0.46,0.971,0.88,1.521,1.25c0.539,0.36,1.119,0.67,1.719,0.92
			c0.61,0.25,1.24,0.44,1.87,0.57c0.65,0.13,1.31,0.19,1.96,0.19c0.65,0,1.31-0.06,1.95-0.19c0.64-0.13,1.27-0.32,1.87-0.57
			c0.609-0.25,1.189-0.56,1.73-0.92c0.55-0.37,1.061-0.79,1.52-1.25c1.859-1.86,2.93-4.44,2.93-7.07S255.44,267.42,253.58,265.56z"
			/>
	</g>
</g>
<g>
</g>
<g>
</g>
<g>
</g>
<g>
</g>
<g>
</g>
<g>
</g>
<g>
</g>
<g>
</g>
<g>
</g>
<g>
</g>
<g>
</g>
<g>
</g>
<g>
</g>
<g>
</g>
<g>
</g>
</svg>
