<svg viewBox="-26 0 512 512" xmlns="http://www.w3.org/2000/svg"><path d="m390 89.125c0-22.058594-17.945312-40-40-40s-40 17.941406-40 40c0 22.054688 17.945312 40 40 40s40-17.945312 40-40zm-60 0c0-11.027344 8.972656-20 20-20s20 8.972656 20 20-8.972656 20-20 20-20-8.972656-20-20zm0 0"/><path d="m350 256c16.542969 0 30-13.457031 30-30s-13.457031-30-30-30-30 13.457031-30 30 13.457031 30 30 30zm0-40c5.515625 0 10 4.484375 10 10s-4.484375 10-10 10-10-4.484375-10-10 4.484375-10 10-10zm0 0"/><path d="m280 226c0 38.597656 31.402344 70 70 70s70-31.402344 70-70-31.402344-70-70-70-70 31.402344-70 70zm70-50c27.570312 0 50 22.429688 50 50s-22.429688 50-50 50-50-22.429688-50-50 22.429688-50 50-50zm0 0"/><path d="m350 422.875c16.542969 0 30-13.457031 30-30s-13.457031-30-30-30-30 13.457031-30 30 13.457031 30 30 30zm0-40c5.515625 0 10 4.484375 10 10s-4.484375 10-10 10-10-4.484375-10-10 4.484375-10 10-10zm0 0"/><path d="m350 462.875c38.597656 0 70-31.402344 70-70s-31.402344-70-70-70-70 31.402344-70 70 31.402344 70 70 70zm0-120c27.570312 0 50 22.429688 50 50s-22.429688 50-50 50-50-22.429688-50-50 22.429688-50 50-50zm0 0"/><path d="m59.019531 20h.269531c5.523438 0 10-4.476562 10-10s-4.476562-10-10-10h-.269531c-5.523437 0-10 4.476562-10 10s4.476563 10 10 10zm0 0"/><path d="m190.742188 0h-91.484376c-5.523437 0-10 4.476562-10 10s4.476563 10 10 10h91.484376c5.105468 0 9.257812 4.152344 9.257812 9.253906v453.488282c0 5.105468-4.152344 9.257812-9.257812 9.257812h-161.484376c-5.105468 0-9.257812-4.152344-9.257812-9.257812v-453.488282c0-5.101562 4.152344-9.253906 9.257812-9.253906h1.03125c5.523438 0 10-4.476562 10-10s-4.476562-10-10-10h-1.03125c-16.132812 0-29.257812 13.125-29.257812 29.253906v453.488282c0 16.132812 13.125 29.257812 29.257812 29.257812h161.484376c16.132812 0 29.257812-13.125 29.257812-29.257812v-453.488282c0-16.128906-13.125-29.253906-29.257812-29.253906zm0 0"/><path d="m110 129.125c22.058594 0 40-17.945312 40-40 0-22.058594-17.941406-40-40-40-22.054688 0-40 17.941406-40 40 0 22.054688 17.945312 40 40 40zm0-60c11.027344 0 20 8.972656 20 20s-8.972656 20-20 20-20-8.972656-20-20 8.972656-20 20-20zm0 0"/><path d="m110 196c-16.542969 0-30 13.457031-30 30s13.457031 30 30 30 30-13.457031 30-30-13.457031-30-30-30zm0 40c-5.515625 0-10-4.484375-10-10s4.484375-10 10-10 10 4.484375 10 10-4.488281 10-10 10zm0 0"/><path d="m110 156c-38.597656 0-70 31.402344-70 70s31.402344 70 70 70 70-31.402344 70-70-31.402344-70-70-70zm0 120c-27.570312 0-50-22.429688-50-50s22.429688-50 50-50 50 22.429688 50 50-22.429688 50-50 50zm0 0"/><path d="m110 362.875c-16.542969 0-30 13.457031-30 30s13.457031 30 30 30 30-13.457031 30-30-13.457031-30-30-30zm0 40c-5.515625 0-10-4.484375-10-10s4.484375-10 10-10 10 4.484375 10 10-4.488281 10-10 10zm0 0"/><path d="m110 322.875c-38.597656 0-70 31.402344-70 70s31.402344 70 70 70 70-31.402344 70-70-31.402344-70-70-70zm0 120c-27.570312 0-50-22.429688-50-50s22.429688-50 50-50 50 22.429688 50 50-22.429688 50-50 50zm0 0"/><path d="m430.742188 0h-161.484376c-16.132812 0-29.257812 13.125-29.257812 29.253906v453.488282c0 16.132812 13.125 29.257812 29.257812 29.257812h91.488282c5.519531 0 10-4.476562 10-10s-4.480469-10-10-10h-91.488282c-5.105468 0-9.257812-4.152344-9.257812-9.253906v-453.492188c0-5.101562 4.152344-9.253906 9.257812-9.253906h161.484376c5.105468 0 9.257812 4.152344 9.257812 9.253906v453.488282c0 5.105468-4.152344 9.257812-9.257812 9.257812h-1.03125c-5.523438 0-10 4.476562-10 10s4.476562 10 10 10h1.03125c16.132812 0 29.257812-13.125 29.257812-29.257812v-453.488282c0-16.128906-13.125-29.253906-29.257812-29.253906zm0 0"/><path d="m400.980469 492h-.269531c-5.523438 0-10 4.476562-10 10s4.476562 10 10 10h.269531c5.523437 0 10-4.476562 10-10s-4.476563-10-10-10zm0 0"/></svg>