<svg height="511pt" viewBox="-7 1 511 511.99899" width="511pt" xmlns="http://www.w3.org/2000/svg"><path d="m496.566406 155.160156-25.535156-66.285156c-9.628906-24.996094-34.09375-41.789062-60.878906-41.789062h-141c-4.792969-26.730469-28.203125-47.085938-56.289063-47.085938h-2.117187c-28.089844 0-51.5 20.355469-56.292969 47.085938h-51.921875c-12.554688 0-22.996094 9.417968-24.289062 21.902343l-4.488282 43.328125h-63.136718c-3.824219 0-7.324219 2.15625-9.039063 5.574219-1.71875 3.417969-1.363281 7.515625.921875 10.582031l61.074219 82.097656-23.820313 229.949219-4.617187 44.546875c-.710938 6.863282 1.53125 13.742188 6.15625 18.867188 4.621093 5.125 11.230469 8.066406 18.132812 8.066406h300.023438c6.902343 0 13.511719-2.941406 18.132812-8.066406 4.621094-5.125 6.867188-12.003906 6.15625-18.867188l-3.445312-33.253906h30.660156c5.910156 0 11.507813-2.570312 15.355469-7.054688 3.847656-4.484374 5.542968-10.402343 4.648437-16.246093l-9.714843-63.40625c-1.527344-9.949219-9.9375-17.171875-20.003907-17.171875h-31.859375l-10.546875-100.246094c-.585937-5.558594-5.566406-9.585938-11.121093-9.003906-5.558594.585937-9.589844 5.5625-9.003907 11.121094l19.113281 181.640624h-296.785156l27.351563-264.015624 3.722656-34.878907h234.761719l3.570312 34.4375c.574219 5.558594 5.550782 9.613281 11.105469 9.019531 5.558594-.574218 9.597656-5.546874 9.023437-11.105468l-3.351562-32.351563h46.007812c.894532 0 1.722657.523438 2.105469 1.332031.085938.175782.171875.347657.265625.515626l21.34375 38.878906c3.785156 7.644531 11.6875 12.5625 20.230469 12.5625h38.332031c7.441406 0 14.398438-3.660156 18.609375-9.796875 4.210938-6.132813 5.125-13.941407 2.453125-20.882813zm-95.328125 213.011719 9.714844 63.40625h-32.773437l-6.671876-63.40625zm-41.304687 83.507813 3.675781 35.472656c.164063 1.609375-.589844 2.714844-1.054687 3.230468-.464844.515626-1.488282 1.378907-3.105469 1.378907h-41.902344v-15.058594c0-5.585937-4.527344-10.117187-10.117187-10.117187-5.589844 0-10.117188 4.53125-10.117188 10.117187v15.058594h-47.003906v-15.058594c0-5.585937-4.527344-10.117187-10.117188-10.117187-5.585937 0-10.117187 4.53125-10.117187 10.117187v15.058594h-47.003907v-15.058594c0-5.585937-4.527343-10.117187-10.117187-10.117187-5.585937 0-10.117187 4.53125-10.117187 10.117187v15.058594h-47.003907v-15.058594c0-5.585937-4.527343-10.117187-10.117187-10.117187s-10.117188 4.53125-10.117188 10.117187v15.058594h-36.171875c-1.621093 0-2.640625-.863281-3.105469-1.378907-.464843-.515624-1.222656-1.621093-1.054687-3.230468l3.675781-35.472656zm-149.1875-431.441407h2.113281c16.878906 0 31.152344 11.367188 35.5625 26.847657h-73.238281c4.410156-15.480469 18.683594-26.847657 35.5625-26.847657zm-144.132813 160.519531-35.855469-48.207031h40.898438l-3.398438 32.8125zm31.757813-109.683593c.222656-2.136719 2.007812-3.75 4.15625-3.75h213.820312c2.144532 0 3.933594 1.609375 4.15625 3.742187l3.785156 41.25h-230.191406zm379.058594 93.519531c-.320313.460938-.910157 1.011719-1.925782 1.011719h-38.332031c-.894531 0-1.722656-.523438-2.105469-1.328125-.085937-.175782-.171875-.351563-.265625-.519532l-21.34375-38.878906c-3.78125-7.640625-11.6875-12.5625-20.230469-12.5625h-48.105468l-4.488282-43.328125c-.011718-.109375-.035156-.214843-.050781-.328125-.023437-.183594-.046875-.363281-.082031-.542968-.035156-.265626-.074219-.53125-.117188-.792969h69.769532c18.476562 0 35.355468 11.582031 41.996094 28.824219l25.535156 66.285156c.363281.949218.0625 1.695312-.253906 2.160156zm0 0"/><path d="m173.296875 199.546875v161.523437c0 21.230469 17.273437 38.507813 38.507813 38.507813 21.230468 0 38.507812-17.273437 38.507812-38.507813v-161.523437c0-21.234375-17.277344-38.507813-38.507812-38.507813-21.234376 0-38.507813 17.273438-38.507813 38.507813zm56.777344 0v161.523437c0 10.074219-8.195313 18.269532-18.273438 18.269532-7.179687 0-13.390625-4.175782-16.375-10.21875h5.859375c5.585938 0 10.117188-4.53125 10.117188-10.117188 0-5.585937-4.53125-10.117187-10.117188-10.117187h-7.753906v-11.269531h7.753906c5.585938 0 10.117188-4.53125 10.117188-10.121094 0-5.585938-4.53125-10.117188-10.117188-10.117188h-7.753906v-11.269531h7.753906c5.585938 0 10.117188-4.53125 10.117188-10.117187 0-5.589844-4.53125-10.121094-10.117188-10.121094h-7.753906v-11.269532h7.753906c5.585938 0 10.117188-4.527343 10.117188-10.117187 0-5.585937-4.53125-10.117187-10.117188-10.117187h-7.753906v-11.269532h7.753906c5.585938 0 10.117188-4.53125 10.117188-10.117187 0-5.589844-4.53125-10.121094-10.117188-10.121094h-7.753906v-11.265625h7.753906c5.585938 0 10.117188-4.53125 10.117188-10.121094 0-5.585937-4.53125-10.117187-10.117188-10.117187h-5.792968c3.011718-5.96875 9.183593-10.078125 16.308593-10.078125 10.078125 0 18.273438 8.195312 18.273438 18.269531zm0 0"/><path d="m341.417969 197.707031c-5.269531 1.863281-8.027344 7.648438-6.160157 12.914063l.210938.605468c1.472656 4.148438 5.375 6.742188 9.539062 6.742188 1.121094 0 2.261719-.1875 3.378907-.582031 5.265625-1.867188 8.023437-7.648438 6.160156-12.917969l-.214844-.601562c-1.863281-5.269532-7.648437-8.027344-12.914062-6.160157zm0 0"/></svg>