<svg height="512pt" viewBox="0 -53 512.00102 512" width="512pt" xmlns="http://www.w3.org/2000/svg"><path d="m10.167969 170.921875c-5.613281 0-10.167969 4.554687-10.167969 10.167969v14.046875c0 26.625 4.898438 52.582031 14.5625 77.152343 4.777344 12.148438 23.707031 4.726563 18.921875-7.441406-9.25-23.527344-13.238281-48.375-13.148437-73.589844h381.117187c.367187 105.167969-84.066406 194.4375-190.5625 194.4375-51.414063 0-99.613281-20.167968-135.714844-56.789062-9.203125-9.34375-23.6875 4.933594-14.480469 14.273438 17.546876 17.804687 37.679688 32.089843 59.5625 42.515624h-71.742187c-13.054687 0-13.074219 20.335938 0 20.335938h324.757813c13.054687 0 13.074218-20.335938 0-20.335938h-72.085938c39.355469-18.722656 72.027344-49.28125 93.394531-87.050781h53.558594c35.210937 0 63.859375-28.648437 63.859375-63.859375 0-35.214844-28.648438-63.863281-63.859375-63.863281zm437.972656 107.386719h-43.460937c11.886718-27.589844 17.207031-57.085938 17.109374-87.050782h26.351563c24 0 43.523437 19.527344 43.523437 43.527344s-19.523437 43.523438-43.523437 43.523438zm0 0"/><path d="m197.949219 333.371094c30.398437 0 59.726562-2.226563 83.464843-23.484375 31.683594-28.375 34.03125-71.828125 34.117188-73.664063.285156-6.179687-5.199219-11.289062-11.34375-10.566406-32.019531 3.769531-74.785156 16.035156-96.675781 53.085938-1.140625 1.929687-2.167969 3.847656-3.109375 5.742187-18.660156-30.417969-54.042969-40.558594-80.609375-43.6875-6.144531-.71875-11.628907 4.386719-11.34375 10.566406.070312 1.550781 2.054687 38.207031 28.804687 62.164063 14.722656 13.183594 33.765625 19.84375 56.695313 19.84375zm27.066406-44.285156c12.554687-21.242188 35.5-35.078126 68.320313-41.230469-2.757813 12.722656-9.445313 32.511719-25.488282 46.882812-13.109375 11.738281-30.40625 17.851563-51.53125 18.234375 1.035156-6.222656 3.386719-14.894531 8.699219-23.886718zm-90.082031-25.902344c44.804687 9.417968 56.34375 35.527344 59.273437 49.773437-16.023437-.660156-29.199219-5.507812-39.265625-14.46875-11.867187-10.5625-17.429687-25.015625-20.007812-35.304687zm0 0"/><path d="m213.953125 89.667969c5.085937 2.226562 11.167969-.160157 13.390625-5.238281l30.8125-70.402344c5.234375-11.960938-13.382812-20.128906-18.628906-8.152344l-30.8125 70.402344c-2.25 5.144531.09375 11.140625 5.238281 13.390625zm0 0"/><path d="m247.414062 146.253906c5.085938 2.226563 11.167969-.160156 13.390626-5.238281l30.8125-70.402344c5.230468-11.960937-13.386719-20.128906-18.628907-8.152343l-30.8125 70.402343c-2.25 5.144531.09375 11.140625 5.238281 13.390625zm0 0"/><path d="m148.386719 102.917969c5.085937 2.226562 11.167969-.160157 13.390625-5.238281l15.785156-36.070313c5.234375-11.960937-13.390625-20.132813-18.628906-8.15625l-15.785156 36.074219c-2.25 5.144531.09375 11.140625 5.238281 13.390625zm0 0"/><path d="m175.921875 22.429688c2.101563 5.128906 8.171875 7.609374 13.277344 5.5 5.121093-2.113282 7.625-8.160157 5.5-13.277344-2.121094-5.113282-8.160157-7.625-13.277344-5.5-5.105469 2.121094-7.628906 8.167968-5.5 13.277344zm0 0"/><path d="m41.199219 315.265625c5.53125 0 10.167969-4.640625 10.167969-10.167969 0-5.535156-4.640626-10.171875-10.171876-10.171875-5.535156 0-10.160156 4.640625-10.160156 10.171875s4.628906 10.167969 10.164063 10.167969zm0 0"/></svg>