<?xml version="1.0" encoding="iso-8859-1"?>
<!-- Generator: Adobe Illustrator 19.0.0, SVG Export Plug-In . SVG Version: 6.00 Build 0)  -->
<svg version="1.1" id="Capa_1" xmlns="http://www.w3.org/2000/svg" xmlns:xlink="http://www.w3.org/1999/xlink" x="0px" y="0px"
	 viewBox="0 0 512.001 512.001" style="enable-background:new 0 0 512.001 512.001;" xml:space="preserve">
<g>
	<g>
		<path d="M512.001,225.315c0-60.184-23.436-116.765-65.992-159.321C403.452,23.438,346.871,0.001,286.687,0.001
			c-71.848,0-139.031,34.163-181.48,91.797c-5.306-2.072-10.87-3.145-16.58-3.145c-12.618,0-24.687,5.174-34.902,14.962
			c-0.062,0.059-0.123,0.119-0.183,0.18l-31.604,31.88C9.232,148.382,1.986,163.898,0.397,181.858
			c-2.296,27.96,5.835,53.829,12.15,70.852c15.247,41.139,38.02,79.143,71.691,119.628c41.051,49.017,90.415,87.672,146.79,114.924
			c21.817,10.339,50.994,22.472,83.226,24.539c0.051,0.003,0.102,0.006,0.153,0.009c1.986,0.097,4.092,0.191,6.081,0.191
			c22.74,0,41.867-8.176,56.851-24.3c0.174-0.187,0.34-0.38,0.499-0.579c0.069-0.079,0.138-0.16,0.205-0.241l0.102-0.122
			c4.321-5.235,9.355-10.098,14.686-15.248l1.116-1.079c4.962-4.739,8.727-8.477,12.186-12.097
			c10.059-10.46,15.376-22.737,15.376-35.503c0-5.172-0.89-10.23-2.599-15.093C477.352,365.341,512.001,297.785,512.001,225.315z
			 M391.694,444.497c-3.263,3.415-6.827,6.953-11.601,11.511l-1.16,1.121c-5.737,5.544-11.157,10.78-16.185,16.865
			c-0.094,0.107-0.191,0.22-0.291,0.341c-11.012,11.723-25.13,17.666-41.968,17.666c-1.517,0-3.312-0.08-5.027-0.164
			c-28.815-1.863-55.68-13.081-75.799-22.615c-53.738-25.978-100.872-62.895-140.07-109.699
			C67.436,320.86,45.736,284.71,31.3,245.757c-5.652-15.238-12.939-38.271-10.975-62.199c1.159-13.093,6.459-24.444,15.786-33.77
			l31.539-31.815c6.398-6.097,13.649-9.319,20.977-9.319c4.991,0,9.895,1.515,14.465,4.431c0.461,0.295,0.918,0.606,1.372,0.929
			c0.143,0.102,0.285,0.21,0.427,0.315c0.341,0.251,0.68,0.507,1.016,0.773c0.15,0.119,0.3,0.24,0.449,0.362
			c0.338,0.276,0.673,0.561,1.005,0.853c0.131,0.115,0.263,0.227,0.393,0.345c0.453,0.409,0.903,0.828,1.344,1.265
			c0.044,0.044,0.089,0.087,0.134,0.13l0.125,0.119c0.038,0.036,0.077,0.072,0.115,0.108c5.787,5.343,11.468,11.125,16.749,16.581
			c1.498,1.597,3.044,3.187,4.603,4.769c0.003,0.003,0.005,0.006,0.008,0.008c0.052,0.053,0.104,0.105,0.157,0.158
			c1.212,1.228,2.432,2.453,3.647,3.669c0.002,0.002,0.005,0.005,0.007,0.007c0.002,0.003,0.005,0.005,0.008,0.008l25.69,25.686
			c3.83,3.831,6.583,7.821,8.259,11.88c4.283,10.372,1.53,21.196-8.259,30.984c-1.29,1.29-2.578,2.601-3.866,3.912
			c-1.3,1.324-2.602,2.648-3.964,4.008l-1.985,2.014c-6.084,6.176-12.374,12.563-18.966,18.593l-2.674,2.446
			c-3.19,2.919-4.143,7.556-2.363,11.496l1.493,3.302c0.78,1.727,1.593,3.442,2.441,5.154c5.939,11.98,13.644,23.742,24.462,37.418
			c0.029,0.036,0.058,0.072,0.087,0.108c24.928,30.627,51.044,54.406,79.842,72.695c0.029,0.018,0.057,0.036,0.086,0.054
			c3.262,2.026,6.647,3.724,10.228,5.516c0.016,0.008,0.032,0.016,0.049,0.024c0.771,0.399,1.546,0.797,2.326,1.196
			c1.496,0.767,3.018,1.547,4.542,2.367l3.27,1.761c0.333,0.179,0.674,0.331,1.019,0.469c0.081,0.032,0.161,0.064,0.242,0.094
			c0.343,0.128,0.689,0.241,1.04,0.329c0.033,0.008,0.067,0.013,0.1,0.021c0.326,0.079,0.655,0.137,0.985,0.182
			c0.082,0.011,0.163,0.023,0.245,0.032c0.354,0.039,0.708,0.063,1.062,0.065c0.015,0,0.03,0.003,0.045,0.003
			c0.062,0,0.123-0.008,0.185-0.009c0.22-0.004,0.439-0.013,0.658-0.032c0.1-0.009,0.2-0.02,0.3-0.032
			c0.202-0.023,0.404-0.053,0.604-0.088c0.098-0.017,0.195-0.034,0.293-0.055c0.22-0.046,0.438-0.101,0.655-0.161
			c0.071-0.02,0.143-0.036,0.213-0.057c0.287-0.087,0.57-0.186,0.849-0.299c0.044-0.018,0.087-0.04,0.131-0.059
			c0.231-0.098,0.459-0.203,0.683-0.318c0.087-0.045,0.172-0.094,0.258-0.141c0.181-0.1,0.359-0.205,0.535-0.317
			c0.089-0.057,0.178-0.115,0.266-0.174c0.175-0.12,0.346-0.246,0.515-0.378c0.076-0.059,0.153-0.115,0.227-0.177
			c0.237-0.196,0.468-0.401,0.689-0.621l31.905-31.801c6.455-6.457,13.74-9.871,21.065-9.871c7.273,0,14.355,3.369,20.48,9.743
			c0.042,0.043,0.085,0.087,0.127,0.13l30.865,30.976l20.083,20.155c0.015,0.015,0.029,0.031,0.044,0.046
			c0.526,0.523,1.026,1.055,1.513,1.591c0.123,0.135,0.245,0.271,0.365,0.407c0.485,0.549,0.955,1.103,1.398,1.664
			c0.047,0.059,0.089,0.12,0.135,0.179c0.389,0.499,0.756,1.004,1.11,1.512c0.125,0.179,0.25,0.359,0.37,0.539
			c0.353,0.527,0.692,1.058,1.009,1.592c2.563,4.348,3.889,8.944,3.889,13.597C401.509,430.329,398.123,437.812,391.694,444.497z
			 M189.675,181.34c-0.169-0.768-0.359-1.534-0.57-2.299c-0.422-1.529-0.928-3.05-1.519-4.56c-1.867-4.773-4.591-9.435-8.145-13.896
			c22.703-37.514,63.247-60.584,107.246-60.584c69.098,0,125.314,56.215,125.314,125.313c0,20.102-4.896,40.096-14.157,57.822
			c-2.558,4.895-0.662,10.937,4.232,13.494c1.479,0.772,3.061,1.139,4.622,1.139c3.604,0,7.087-1.955,8.872-5.371
			c10.749-20.573,16.431-43.77,16.431-67.084c0-80.125-65.188-145.313-145.314-145.313c-49.239,0-94.738,24.903-121.512,65.72
			l-14.402-14.399c31.004-44.806,81.242-71.321,135.914-71.321c91.154,0,165.314,74.159,165.314,165.313
			c0,54.999-26.758,105.407-71.973,136.366l-25.072-25.16l-0.001-0.001c-1.09-1.131-2.21-2.193-3.348-3.207
			c-0.163-0.145-0.322-0.299-0.485-0.442c-0.262-0.228-0.53-0.439-0.793-0.66c-0.397-0.333-0.791-0.673-1.193-0.992
			c-0.082-0.065-0.167-0.124-0.25-0.189c-0.588-0.461-1.179-0.914-1.778-1.346c-0.029-0.021-0.058-0.039-0.087-0.059
			c-6.807-4.883-14.288-7.82-22.133-8.665c-0.15-0.016-0.302-0.022-0.453-0.036c-1.428-0.139-2.866-0.219-4.316-0.219
			c-12.746,0-24.922,5.44-35.197,15.719l-26.66,26.573c-0.536-0.276-1.07-0.551-1.602-0.823c-0.776-0.397-1.545-0.792-2.31-1.188
			c-0.042-0.022-0.084-0.043-0.126-0.064c-1.246-0.624-2.451-1.232-3.624-1.837c-0.325-0.167-0.66-0.336-0.977-0.503
			c-0.098-0.052-0.188-0.103-0.285-0.155c-0.629-0.333-1.249-0.665-1.841-0.998c-0.047-0.027-0.089-0.053-0.136-0.08
			c-0.634-0.358-1.25-0.716-1.833-1.078c-7.468-4.745-14.745-9.91-21.874-15.491c-18.223-14.267-35.44-31.352-52.14-51.715
			c-0.317-0.386-0.635-0.761-0.952-1.149c-10.284-13.007-17.428-23.986-22.803-35.1c5.958-5.588,11.566-11.282,17.013-16.811
			l1.924-1.953c1.35-1.347,2.698-2.719,4.046-4.091c1.246-1.268,2.492-2.537,3.74-3.784
			C187.987,212.671,193.051,196.698,189.675,181.34z M408.607,390.519c-0.161-0.183-0.33-0.36-0.494-0.541
			c-0.225-0.248-0.448-0.497-0.679-0.744c-0.535-0.571-1.078-1.137-1.638-1.692l-11.455-11.495
			c21.793-15.616,40.12-35.869,53.419-59.174c15.858-27.79,24.24-59.45,24.24-91.557c0.001-102.183-83.13-185.315-185.313-185.315
			c-31.953,0-63.48,8.307-91.172,24.022c-23.157,13.142-43.328,31.253-58.948,52.796c-4.298-4.386-8.816-8.878-13.467-13.175
			l-0.005-0.005c-0.346-0.341-0.695-0.677-1.047-1.008c38.725-51.912,99.591-82.63,164.639-82.63
			c113.21,0,205.314,92.104,205.314,205.313C492.001,290.757,461,351.818,408.607,390.519z"/>
	</g>
</g>
<g>
	<g>
		<path d="M272.024,415.793l-29.425-15.846c-1.322-0.711-2.641-1.389-3.93-2.05l-0.255-0.131c-0.745-0.381-1.483-0.761-2.218-1.141
			c-0.038-0.02-0.078-0.039-0.117-0.059c-3.398-1.701-7.627-3.818-11.641-6.31l-0.312-0.196
			c-30.64-19.459-58.323-44.631-84.591-76.904l-0.301-0.375c-11.334-14.33-19.593-26.893-25.993-39.537
			c-2.494-4.928-8.511-6.899-13.438-4.407c-4.928,2.494-6.901,8.51-4.407,13.438c7.02,13.87,15.965,27.505,28.199,42.973
			l0.389,0.483c27.686,34.016,56.935,60.58,89.451,81.229l0.397,0.25c4.822,2.995,9.483,5.331,13.236,7.209
			c0.741,0.383,1.485,0.765,2.226,1.145l0.247,0.126c1.174,0.603,2.377,1.219,3.579,1.865l29.422,15.844
			c1.508,0.812,3.132,1.197,4.732,1.197c3.561,0,7.007-1.906,8.814-5.261C278.706,424.477,276.887,418.412,272.024,415.793z"/>
	</g>
</g>
<g>
	<g>
		<path d="M95.321,235.371c-0.46-0.46-0.97-0.88-1.52-1.25c-0.54-0.36-1.12-0.67-1.73-0.92c-0.6-0.25-1.23-0.44-1.87-0.57
			c-1.29-0.26-2.62-0.26-3.91,0c-0.63,0.13-1.26,0.32-1.87,0.57c-0.6,0.25-1.18,0.56-1.72,0.92c-0.55,0.37-1.06,0.79-1.52,1.25
			c-0.46,0.46-0.88,0.97-1.25,1.52c-0.36,0.54-0.67,1.12-0.92,1.72c-0.25,0.61-0.44,1.24-0.57,1.87c-0.13,0.65-0.19,1.31-0.19,1.96
			s0.06,1.31,0.19,1.95s0.32,1.27,0.57,1.87c0.25,0.61,0.56,1.19,0.92,1.73c0.37,0.55,0.79,1.06,1.25,1.52
			c0.46,0.46,0.97,0.88,1.52,1.24c0.54,0.36,1.12,0.67,1.72,0.92c0.61,0.25,1.24,0.44,1.87,0.57c0.65,0.13,1.31,0.2,1.96,0.2
			c0.65,0,1.31-0.07,1.95-0.2s1.27-0.32,1.87-0.57c0.61-0.25,1.19-0.56,1.73-0.92c0.55-0.36,1.06-0.78,1.52-1.24
			s0.88-0.97,1.24-1.52c0.36-0.54,0.67-1.12,0.92-1.73c0.25-0.6,0.44-1.23,0.57-1.87c0.13-0.64,0.2-1.3,0.2-1.95
			C98.251,239.811,97.181,237.231,95.321,235.371z"/>
	</g>
</g>
<g>
	<g>
		<path d="M259.268,244.642h-21.263c0.842-2.121,4.536-4.65,8.417-7.307c7.867-5.386,18.642-12.761,18.642-25.243
			c0-12.926-11.433-19.901-22.192-19.901c-10.459,0-21.576,6.511-21.576,18.578c0,7.268,4.255,8.794,7.824,8.794
			c5.769,0,8.881-3.441,8.881-6.678c0-3.29,1.669-4.958,4.96-4.958c4.804,0,5.047,3.837,5.047,4.606
			c0,4.464-5.881,8.781-12.108,13.351c-7.699,5.651-15.661,11.495-15.661,19.619v8.55c0,3.789,4.522,5.885,7.648,5.885h31.382
			c3.142,0,5.796-3.542,5.796-7.735C265.064,248.104,262.411,244.642,259.268,244.642z"/>
	</g>
</g>
<g>
	<g>
		<path d="M306.253,230.362h-2.137v-4.518c0-3.521-3.348-5.796-8.529-5.796c-5.181,0-8.529,2.275-8.529,5.796v4.518h-3.257
			l14.452-28.99c0.298-0.696,0.575-1.46,0.575-2.327c0-4.435-5.634-6.854-8.529-6.854c-3.167,0-5.724,1.569-7.202,4.428
			l-20.342,39.892c-0.79,1.447-0.908,2.775-0.908,3.437c0,3.776,2.564,6.413,6.237,6.413h18.975v7.691
			c0,3.465,3.507,5.885,8.529,5.885c5.022,0,8.529-2.42,8.529-5.885v-7.691h2.137c3.368,0,5.885-4.223,5.885-8
			C312.138,233.651,309.718,230.362,306.253,230.362z"/>
	</g>
</g>
<g>
	<g>
		<path d="M356.498,214.141c-3.961,0-7.074,1.502-9.279,3.469v-21.122c0-3.358-3.586-5.796-8.529-5.796
			c-4.969,0-8.441,2.383-8.441,5.796v57.564c0,3.245,3.787,5.885,8.441,5.885c4.543,0,8.529-2.75,8.529-5.885v-19.746
			c0-3.104,2.163-4.959,4.254-4.959c2.413,0,4.694,2.41,4.694,4.959v19.746c0,3.863,4.246,5.885,8.441,5.885
			c5.022,0,8.529-2.42,8.529-5.885v-19.746C373.136,223.376,365.517,214.141,356.498,214.141z"/>
	</g>
</g>
<g>
	<g>
		<path d="M396.27,314.671c-0.13-0.64-0.319-1.27-0.569-1.87c-0.25-0.61-0.561-1.19-0.92-1.73c-0.36-0.55-0.78-1.06-1.24-1.52
			c-0.46-0.46-0.98-0.88-1.521-1.24c-0.55-0.36-1.13-0.671-1.729-0.921c-0.601-0.25-1.23-0.44-1.87-0.57
			c-1.29-0.26-2.62-0.26-3.91,0c-0.64,0.13-1.27,0.32-1.87,0.57c-0.6,0.25-1.18,0.56-1.729,0.921c-0.54,0.36-1.061,0.78-1.511,1.24
			c-0.47,0.46-0.88,0.97-1.25,1.52c-0.359,0.54-0.67,1.12-0.92,1.73c-0.25,0.6-0.439,1.23-0.569,1.87s-0.19,1.3-0.19,1.95
			c0,0.65,0.061,1.31,0.19,1.95c0.13,0.64,0.319,1.27,0.569,1.88c0.25,0.6,0.561,1.18,0.92,1.72c0.37,0.55,0.78,1.06,1.25,1.52
			c0.45,0.46,0.971,0.88,1.511,1.25c0.55,0.36,1.13,0.67,1.729,0.92c0.601,0.25,1.23,0.44,1.87,0.57c0.65,0.13,1.3,0.19,1.96,0.19
			c0.65,0,1.311-0.06,1.95-0.19c0.64-0.13,1.27-0.32,1.87-0.57c0.6-0.25,1.18-0.56,1.729-0.92c0.54-0.37,1.061-0.79,1.521-1.25
			c0.46-0.46,0.88-0.97,1.24-1.52c0.359-0.54,0.67-1.12,0.92-1.72c0.25-0.61,0.439-1.24,0.569-1.88s0.2-1.3,0.2-1.95
			S396.4,315.311,396.27,314.671z"/>
	</g>
</g>
<g>
</g>
<g>
</g>
<g>
</g>
<g>
</g>
<g>
</g>
<g>
</g>
<g>
</g>
<g>
</g>
<g>
</g>
<g>
</g>
<g>
</g>
<g>
</g>
<g>
</g>
<g>
</g>
<g>
</g>
</svg>
