<svg height="512pt" viewBox="0 0 512 512" width="512pt" xmlns="http://www.w3.org/2000/svg"><path d="m426 236c0 5.523438-4.476562 10-10 10s-10-4.476562-10-10 4.476562-10 10-10 10 4.476562 10 10zm0 0"/><path d="m256 186c22.054688 0 40-17.945312 40-40s-17.945312-40-40-40-40 17.945312-40 40 17.945312 40 40 40zm0-60c11.027344 0 20 8.972656 20 20s-8.972656 20-20 20-20-8.972656-20-20 8.972656-20 20-20zm0 0"/><path d="m216 406h80c5.523438 0 10-4.476562 10-10v-40c0-5.523438-4.476562-10-10-10h-10v-130c0-5.523438-4.476562-10-10-10h-60c-5.523438 0-10 4.476562-10 10v40c0 5.523438 4.476562 10 10 10h10v80h-10c-5.523438 0-10 4.476562-10 10v40c0 5.523438 4.476562 10 10 10zm10-40h10c5.523438 0 10-4.476562 10-10v-100c0-5.523438-4.476562-10-10-10h-10v-20h40v130c0 5.523438 4.476562 10 10 10h10v20h-60zm0 0"/><path d="m256 512c137.914062 0 256-117.703125 256-256 0-138.011719-117.816406-256-256-256-138.011719 0-256 117.816406-256 256 0 138.011719 117.816406 256 256 256zm0-492c127.925781 0 236 108.074219 236 236s-108.074219 236-236 236-236-108.074219-236-236 108.074219-236 236-236zm0 0"/><path d="m256 469c115.609375 0 213-96.984375 213-213 0-115.820312-97.222656-213-213-213-115.695312 0-213 97.074219-213 213 0 115.820312 97.222656 213 213 213zm0-406c104.617188 0 193 88.382812 193 193s-88.382812 193-193 193-193-88.382812-193-193 88.382812-193 193-193zm0 0"/><path d="m369.386719 369.21875c4.167969 3.675781 10.480469 3.230469 14.113281-.882812 22.707031-25.742188 36.949219-57.25 41.183594-91.117188.683594-5.480469-3.203125-10.476562-8.683594-11.164062-5.484375-.683594-10.476562 3.203124-11.164062 8.683593-3.730469 29.859375-16.296876 57.652344-36.335938 80.367188-3.652344 4.140625-3.257812 10.460937.886719 14.113281zm0 0"/></svg>