<?xml version="1.0" encoding="iso-8859-1"?>
<!-- Generator: Adobe Illustrator 19.0.0, SVG Export Plug-In . SVG Version: 6.00 Build 0)  -->
<svg version="1.1" id="Capa_1" xmlns="http://www.w3.org/2000/svg" xmlns:xlink="http://www.w3.org/1999/xlink" x="0px" y="0px"
	 viewBox="0 0 512 512" style="enable-background:new 0 0 512 512;" xml:space="preserve">
<g>
	<g>
		<g>
			<path d="M379.312,67.797c7.384-1.846,14.295-3.663,19.491-5.037c5.339-1.412,8.523-6.885,7.111-12.224
				c-1.412-5.339-6.883-8.524-12.224-7.111c-5.136,1.358-11.964,3.15-19.235,4.971c-5.357,1.341-8.613,6.772-7.272,12.129
				C368.32,65.068,373.5,69.25,379.312,67.797z"/>
			<path d="M328.9,78.61c0.59,0.01,1.19-0.05,1.8-0.16c5.43-0.98,9.03-6.19,8.05-11.62c-0.99-5.441-6.19-9.04-11.62-8.06h-0.01
				c-5.43,0.99-9.04,6.19-8.05,11.63C319.95,75.23,324.16,78.61,328.9,78.61z"/>
			<path d="M184.24,58.19c-0.6-0.11-1.22-0.16-1.82-0.16c-4.82,0-8.95,3.44-9.83,8.19c-0.48,2.63,0.09,5.28,1.6,7.48
				c1.52,2.2,3.8,3.68,6.43,4.16c0.6,0.12,1.21,0.17,1.82,0.17c4.82,0,8.95-3.44,9.82-8.19C193.26,64.42,189.66,59.19,184.24,58.19z
				"/>
			<path d="M280.84,84.82c2.67-0.17,5.11-1.37,6.87-3.37c1.77-2.01,2.65-4.58,2.48-7.25c-0.34-5.25-4.72-9.36-9.97-9.36
				c-0.22,0-17.36,0.59-22.81,0.59c-10.07,0-26.05-1.15-26.3-1.15c-5.2,0-9.58,4.07-9.96,9.27c-0.19,2.67,0.66,5.25,2.41,7.27
				c1.75,2.02,4.18,3.24,6.84,3.43c10.67,0.78,16.44,1.18,27.01,1.18C263.29,85.43,274.49,85.22,280.84,84.82z"/>
			<path d="M137.632,46.886c-6.355-1.943-12.555-4.022-18.429-6.182c-5.184-1.905-10.931,0.752-12.836,5.935
				c-1.905,5.185,0.752,10.932,5.936,12.837c6.22,2.287,12.742,4.598,19.483,6.536c5.464,1.571,11.17-2.333,12.486-6.64
				C145.887,54.091,142.914,48.5,137.632,46.886z"/>
			<path d="M501.85,0H10.15c-5.523,0-10,4.477-10,10L0,499.5c0,4.347,2.808,8.195,6.947,9.522c4.137,1.326,8.661-0.171,11.189-3.707
				c0.053-0.074,5.759-7.425,15.829-7.425c5.486,0,10.312,2.743,15.901,5.919c6.754,3.839,14.41,8.19,24.432,8.19
				c10.293,0,18.496-4.352,25.087-7.849c4.803-2.548,8.952-4.749,12.58-4.749c11.264,0,22.195,8.021,22.274,8.08
				c3.452,2.605,8.189,2.695,11.738,0.225c3.549-2.472,5.108-6.945,3.863-11.086l-9.416-31.316h231.154l-9.416,31.316
				c-1.241,4.128,0.319,8.576,3.847,11.052c3.528,2.477,8.262,2.402,11.723-0.168c0.109-0.081,11.041-8.103,22.304-8.103
				c3.628,0,7.776,2.201,12.58,4.75c6.591,3.497,14.794,7.848,25.086,7.848c10.023,0,17.678-4.351,24.432-8.19
				c5.589-3.176,10.415-5.919,15.901-5.919c9.745,0,15.286,6.736,15.863,7.474c2.467,3.607,6.921,5.087,11.104,3.808
				c4.204-1.286,6.998-5.276,6.998-9.672V10h0C512,2.375,507.373,0,501.85,0z M432.8,165.797
				c6.654,42.192,20.391,73.567,40.948,93.725h-28.44c-32.31-26.99-55.564-81.133-61.768-143.593
				c9.794-3.095,33.253-14.135,45.142-20.497C428.186,112.436,428.492,138.483,432.8,165.797z M432.994,279.622
				c0.924-0.058,59.006-0.1,59.006-0.1v33.717c0,0-58.264-0.066-58.336-0.066c-14.789,0-17.272-10.157-17.272-16.792
				C416.392,288.57,418.448,280.597,432.994,279.622z M452.556,162.681c-5.362-33.995-4.168-65.929-3.319-78.985
				c14.764-9.1,29.075-19.276,42.763-30.405V249.01C467.738,228.313,457.156,191.847,452.556,162.681z M20.15,20h471.7v7.069
				C479.715,37.82,391.5,119.11,255.851,119.11C127,119.11,38.209,42.901,20.15,26.898V20z M79.5,165.797
				c4.294-27.228,4.611-53.197,4.122-70.204c11.793,6.296,37.045,18.407,44.84,20.336c-6.204,62.453-29.459,116.602-61.762,143.592
				H38.552C59.109,239.365,72.846,207.99,79.5,165.797z M20.3,249.01V53.394c13.725,11.161,28,21.305,42.769,30.396
				c0.849,13.111,2.025,44.975-3.324,78.892C55.144,191.849,44.561,228.313,20.3,249.01z M20.001,279.522l55.785,0.01
				c17.387,0,19.731,8.53,19.731,16.875c0,8.346-4.184,16.832-19.623,16.832H20.001V279.522z M111.964,479.402
				c-8.604,0-15.696,3.762-21.953,7.082C84.433,489.444,79.614,492,74.298,492c-4.736,0-9.284-2.585-14.55-5.578
				c-6.688-3.801-15.011-8.531-25.783-8.531c-5.169,0-9.849,0.983-13.965,2.513V375.208c11.848,6.121,30.258,23.221,36.705,70.892
				c0.679,5.018,4.97,8.661,9.897,8.661c8.023,0,10.663-5.868,9.922-11.341C67.542,377.004,36.13,358.744,20,353.728v-20.489
				c0,0,59.4-0.091,59.793-0.115l44.475,147.915C120.435,480.046,116.284,479.402,111.964,479.402z M241.325,445.306l3.12-42.12
				L256,370.907l11.556,32.279l3.121,42.12H241.325z M240.286,263.949c0-8.665,7.05-15.714,15.715-15.714
				c8.664,0,15.714,7.049,15.714,15.714c0,8.665-7.05,15.715-15.714,15.715C247.336,279.664,240.286,272.615,240.286,263.949z
				 M377.438,445.305h-86.706c0,0-3.585-46.734-3.888-47.583c0,0-18.904-54.328-20.843-55.491v-23.235l30.739,17.627
				c2.183,1.252,4.758,1.634,7.208,1.073l41.142-9.429c5.383-1.233,8.747-6.598,7.513-11.981c-1.233-5.383-6.596-8.749-11.981-7.513
				l-37.328,8.554l-34.769-19.937c13.532-5.085,23.188-18.155,23.188-33.442c0-19.693-16.021-35.714-35.714-35.714
				s-35.715,16.021-35.715,35.714c0,15.287,9.657,28.357,23.189,33.442l-34.77,19.937l-37.328-8.554
				c-5.387-1.234-10.748,2.13-11.981,7.513c-1.234,5.383,2.13,10.748,7.513,11.981l41.142,9.429
				c0.738,0.169,1.487,0.252,2.234,0.252c1.732,0,3.449-0.45,4.975-1.325l30.741-17.627v23.234
				c-1.94,1.164-20.844,55.492-20.844,55.492c-0.303,0.848-3.887,47.583-3.887,47.583h-86.859L99.087,327.827
				c10.606-6.033,16.52-16.886,16.52-31.447c0-17.248-8.293-29.298-22.862-34.289c12.649-14.015,23.79-31.827,32.775-52.541
				c11.162-25.733,18.815-55.568,22.356-86.949C182.935,133.6,219.181,139.185,256,139.185c36.82,0,73.065-5.585,108.125-16.585
				c3.539,31.365,11.185,61.185,22.338,86.91c8.977,20.707,20.111,38.519,32.749,52.535c-14.675,4.959-23.03,17.042-23.03,34.361
				c0,14.342,5.918,25.366,16.563,31.472L377.438,445.305z M492.001,353.728H492c-16.13,5.016-47.543,23.276-56.524,89.691
				c-0.74,5.473,3.024,11.341,9.922,11.341c4.927,0,9.218-3.643,9.897-8.661c6.447-47.671,24.856-64.771,36.705-70.892v105.196
				c-4.116-1.53-8.796-2.513-13.965-2.513c-10.772,0-19.095,4.73-25.783,8.531c-5.266,2.993-9.814,5.578-14.55,5.578
				c-5.316,0-10.134-2.556-15.713-5.516c-6.257-3.319-13.349-7.082-21.953-7.082c-4.319,0-8.47,0.644-12.304,1.636l44.476-147.915
				c0.393,0.024,59.793,0.115,59.793,0.115V353.728z"/>
			<path d="M176,153.09c-5.51,0-10,4.49-10,10v40c0,5.52,4.49,10,10,10s10-4.48,10-10v-40C186,157.581,181.51,153.09,176,153.09z"/>
			<path d="M176,233.09c-5.51,0-10,4.49-10,10c0,5.52,4.49,10,10,10s10-4.48,10-10C186,237.581,181.51,233.09,176,233.09z"/>
			<path d="M336,233.09c-5.51,0-10,4.49-10,10c0,5.52,4.49,10,10,10s10-4.48,10-10C346,237.581,341.51,233.09,336,233.09z"/>
			<path d="M336,153.09c-5.51,0-10,4.49-10,10v40c0,5.52,4.49,10,10,10s10-4.48,10-10v-40C346,157.581,341.51,153.09,336,153.09z"/>
		</g>
	</g>
</g>
<g>
</g>
<g>
</g>
<g>
</g>
<g>
</g>
<g>
</g>
<g>
</g>
<g>
</g>
<g>
</g>
<g>
</g>
<g>
</g>
<g>
</g>
<g>
</g>
<g>
</g>
<g>
</g>
<g>
</g>
</svg>
