<svg id="Capa_1" enable-background="new 0 0 512.063 512.063" height="512" viewBox="0 0 512.063 512.063" width="512" xmlns="http://www.w3.org/2000/svg"><path id="XMLID_318_" d="m512.063 74.031v-64c0-5.523-4.477-10-10-10h-492c-5.523 0-10 4.477-10 10v64c0 5.523 4.477 10 10 10h30.582c-6.014 11.215-6.281 25.197.537 37.005l13.644 23.632 85.476 212.92-137.372 137.37c-1.81 1.81-2.93 4.31-2.93 7.072 0 5.523 4.477 10 10 10h199.034c.011 0 .022.002.033.002.017 0 .035-.002.052-.002h93.826c.017 0 .035.002.052.002.011 0 .022-.002.033-.002h199.034c5.523 0 10-4.477 10-10 0-2.762-1.12-5.263-2.93-7.072l-137.372-137.371 25.434-63.357c2.057-5.125-.43-10.948-5.555-13.006-5.127-2.056-10.948.429-13.006 5.555l-22.252 55.429-86.21-86.21 131.21-131.21 34.327 19.818-23.546 58.653c-2.058 5.125.43 10.948 5.555 13.006 1.222.49 2.482.722 3.722.722 3.964 0 7.716-2.373 9.284-6.277l26.513-66.044 13.644-23.632c6.817-11.808 6.551-25.79.537-37.005h30.645c5.522.002 9.999-4.476 9.999-9.998zm-413.889-10 37.857-37.857 37.857 37.857zm-22.142-6.143-37.858-37.857h75.715zm82.142-37.857h75.715l-37.857 37.857zm97.858 6.142 37.857 37.857h-75.715zm22.142-6.142h75.715l-37.857 37.857zm97.858 6.142 37.857 37.857h-75.715zm22.142-6.142h75.715l-37.857 37.857zm-378.111 10.174 33.826 33.826h-33.826zm54.087 53.826c1.534.008 3.078.211 4.599.618 4.644 1.245 8.525 4.223 10.93 8.387l9 15.588-31.177 18-9-15.588c-4.962-8.595-2.007-19.625 6.589-24.588 2.747-1.586 5.793-2.401 8.881-2.417zm2.203 60.576 34.327-19.818 131.21 131.21-86.21 86.21zm72.05 233.162 45.87 114.262h-160.131zm329.519 114.262h-160.132l45.87-114.262zm-129.64-129.64-52.043 129.64h-80.414l-52.043-129.64 92.25-92.25zm105.28-251.356-9 15.588-31.177-18 9-15.588c2.404-4.164 6.286-7.142 10.93-8.387 4.645-1.245 9.495-.605 13.659 1.798 8.594 4.964 11.55 15.994 6.588 24.589zm-61.871-4.837-135.659 135.659-135.659-135.659-12.799-22.167h296.916zm66.483-42.167 33.889-33.889v33.889z"/><path id="XMLID_1320_" d="m404.683 238.745c-2.64 0-5.21 1.07-7.07 2.93-1.87 1.86-2.93 4.44-2.93 7.07s1.06 5.21 2.93 7.07c1.86 1.86 4.43 2.93 7.07 2.93 2.63 0 5.21-1.07 7.07-2.93s2.93-4.44 2.93-7.07-1.07-5.21-2.93-7.07-4.44-2.93-7.07-2.93z"/></svg>