<?xml version="1.0" encoding="iso-8859-1"?>
<!-- Generator: Adobe Illustrator 21.0.0, SVG Export Plug-In . SVG Version: 6.00 Build 0)  -->
<svg xmlns="http://www.w3.org/2000/svg" xmlns:xlink="http://www.w3.org/1999/xlink" version="1.1" id="Capa_1" x="0px" y="0px" viewBox="0 0 512 512" style="enable-background:new 0 0 512 512;" xml:space="preserve" width="512" height="512">
<g>
	<path style="fill-rule:evenodd;clip-rule:evenodd;" d="M366.638,218.109l-41.429-9.459v-102.47l68.206-15.573v106.157   c0,5.522,4.477,10,10,10c5.523,0,10-4.478,10-10V78.066c0-3.043-1.386-5.921-3.766-7.818c-2.378-1.896-5.491-2.606-8.46-1.931   l-72.688,16.598l16.597-72.689c0.677-2.967-0.033-6.081-1.931-8.46C341.269,1.386,338.392,0,335.348,0H176.651   c-3.044,0-5.921,1.386-7.818,3.766c-1.897,2.379-2.608,5.493-1.931,8.46l16.597,72.688l-33.685-7.691   c-5.381-1.228-10.745,2.139-11.975,7.522c-1.23,5.385,2.139,10.746,7.523,11.976l41.429,9.46v102.47l-68.206,15.573V118.066   c0-5.522-4.477-10-10-10c-5.523,0-10,4.478-10,10v118.698c0,3.043,1.386,5.921,3.766,7.818c1.788,1.426,3.991,2.182,6.235,2.182   c0.742,0,1.488-0.083,2.226-0.251l72.688-16.598l-16.597,72.689c-0.677,2.967,0.033,6.081,1.931,8.46   c1.898,2.38,4.775,3.766,7.818,3.766H246v85.06l-77.139,95.84c-3.463,4.302-2.782,10.597,1.52,14.06   c4.301,3.462,10.597,2.783,14.06-1.521L246,431.788V502c0,5.522,4.477,10,10,10c5.523,0,10-4.478,10-10v-70.212l61.559,76.481   c1.976,2.455,4.873,3.73,7.796,3.73c2.2,0,4.416-0.723,6.264-2.21c4.302-3.463,4.983-9.758,1.52-14.06L266,399.891v-85.06h69.349   c3.043,0,5.921-1.386,7.818-3.766c1.898-2.379,2.608-5.493,1.931-8.46l-16.597-72.689l33.685,7.691   c0.75,0.171,1.497,0.253,2.235,0.253c4.561,0,8.682-3.141,9.74-7.776C375.39,224.7,372.022,219.339,366.638,218.109z    M206.791,206.624v-98.417h98.418v98.417H206.791z M322.808,20l-15.573,68.207h-102.47L189.191,20H322.808z M189.191,294.831   l15.573-68.207h102.47l15.573,68.207H189.191z"/>
	<path style="fill-rule:evenodd;clip-rule:evenodd;" d="M256,118.533c-21.439,0-38.882,17.442-38.882,38.882   c0,21.441,17.442,38.883,38.882,38.883c21.44,0,38.882-17.442,38.882-38.883C294.881,135.976,277.439,118.533,256,118.533z    M256,176.298c-10.412,0-18.882-8.471-18.882-18.883c0-10.411,8.47-18.882,18.882-18.882c10.412,0,18.882,8.471,18.882,18.882   C274.881,167.827,266.411,176.298,256,176.298z"/>
	<path style="fill-rule:evenodd;clip-rule:evenodd;" d="M108.585,88.066c5.508,0,10-4.492,10-10c0-5.508-4.492-10-10-10   s-10,4.492-10,10C98.585,83.574,103.077,88.066,108.585,88.066z"/>
	<path style="fill-rule:evenodd;clip-rule:evenodd;" d="M403.415,226.764c-5.508,0-10,4.492-10,10.001c0,5.508,4.492,10,10,10   c5.508,0,10.001-4.492,10.001-10C413.416,231.256,408.922,226.764,403.415,226.764z"/>
</g>















</svg>
