<svg height="511pt" viewBox="-111 1 511 511.999" width="511pt" xmlns="http://www.w3.org/2000/svg"><path d="m144.546875 384c79.429687 0 144.046875-64.621094 144.046875-144.046875 0-32.78125-23.148438-82.726563-68.808594-148.445313-33.421875-48.101562-67.316406-87.632812-67.65625-88.027343-1.898437-2.210938-4.667968-3.480469-7.582031-3.480469s-5.683594 1.269531-7.582031 3.480469c-.339844.394531-34.234375 39.925781-67.652344 88.027343-45.660156 65.71875-68.8125 115.664063-68.8125 148.445313 0 79.425781 64.617188 144.046875 144.046875 144.046875zm-58.90625-280.945312c23.457031-33.773438 47.15625-63.25 58.90625-77.480469 11.730469 14.203125 35.371094 43.605469 58.8125 77.34375 42.679687 61.429687 65.234375 108.8125 65.234375 137.035156 0 68.398437-55.644531 124.046875-124.046875 124.046875-68.398437 0-124.046875-55.648438-124.046875-124.046875 0-28.199219 22.527344-75.539063 65.140625-136.898437zm0 0"/><path d="m92.660156 403.496094c-5.523437 0-10 4.476562-10 10v24.5h-28v-24.5c0-5.523438-4.480468-10-10-10-5.523437 0-10 4.476562-10 10v72c0 5.523437 4.476563 10 10 10 5.519532 0 10-4.476563 10-10v-27.5h28v27.5c0 5.523437 4.476563 10 10 10 5.519532 0 10-4.476563 10-10v-72c0-5.523438-4.480468-10-10-10zm0 0"/><path d="m219.992188 403.496094c-18.75 0-34 15.25-34 34v24c0 18.746094 15.25 34 34 34 18.746093 0 34-15.253906 34-34v-24c0-18.746094-15.253907-34-34-34zm14 58c0 7.71875-6.28125 14-14 14s-14-6.28125-14-14v-24c0-7.71875 6.28125-14 14-14s14 6.28125 14 14zm0 0"/><path d="m144.359375 438.292969c-14.421875 0-26.152344 11.730469-26.152344 26.152343 0 5.523438 4.476563 10 10 10 5.519531 0 10-4.476562 10-10 0-3.394531 2.757813-6.152343 6.152344-6.152343 4.089844 0 7.414063 3.324219 7.414063 7.410156v1.074219c0 2.261718-1.015626 4.375-2.78125 5.789062l-27.035157 21.625c-3.316406 2.652344-4.59375 7.109375-3.1875 11.117188 1.40625 4.007812 5.1875 6.691406 9.4375 6.691406h33.566407c5.523437 0 10-4.476562 10-10s-4.476563-10-10-10h-5.058594l4.769531-3.816406c6.539063-5.234375 10.289063-13.035156 10.289063-21.40625v-1.074219c0-15.113281-12.300782-27.410156-27.414063-27.410156zm0 0"/><path d="m189.277344 310.722656c2.058594 0 4.136718-.636718 5.925781-1.953125 21.785156-16.058593 34.789063-41.785156 34.789063-68.816406 0-5.523437-4.476563-10-10-10-5.523438 0-10 4.476563-10 10 0 20.703125-9.964844 40.414063-26.65625 52.71875-4.445313 3.277344-5.394532 9.539063-2.117188 13.980469 1.960938 2.660156 4.988281 4.070312 8.058594 4.070312zm0 0"/><path d="m154.546875 315.394531c0 5.523438-4.476563 10-10 10s-10-4.476562-10-10c0-5.519531 4.476563-10 10-10s10 4.480469 10 10zm0 0"/></svg>