<?xml version="1.0" encoding="iso-8859-1"?>
<!-- Generator: Adobe Illustrator 19.0.0, SVG Export Plug-In . SVG Version: 6.00 Build 0)  -->
<svg xmlns="http://www.w3.org/2000/svg" xmlns:xlink="http://www.w3.org/1999/xlink" version="1.1" id="Layer_1" x="0px" y="0px" viewBox="0 0 512 512" style="enable-background:new 0 0 512 512;" xml:space="preserve" width="512" height="512">
<g>
	<path d="M459.647,254.756h-63.372c-12.723,0-23.368,9.068-25.819,21.084h-25.035l-32.855-44.301   c-1.292-1.741-3.111-3.02-5.186-3.645l-33.238-10.003v-77.099c0-17.038-13.854-30.898-30.884-30.898h-8.137v-19.53h34.472   c19.183,0,34.79-15.615,34.79-34.81V34.811C304.382,15.615,288.774,0,269.592,0H167.824h-35.509c-5.562,0-10.07,4.51-10.07,10.071   v21.158h-14.733c-5.562,0-10.07,4.509-10.07,10.071v29.091H75.117c-5.563,0-10.07,4.51-10.07,10.071v29.432h-8.164   c-17.029,0-30.883,13.86-30.883,30.898v73.877c0,13.522,8.715,25.038,20.812,29.23v22.727C34.715,270.819,26,282.334,26,295.856   v59.086c0,5.561,4.51,10.071,10.071,10.071s10.07-4.51,10.07-10.071v-59.086c0-5.947,4.818-10.784,10.741-10.784h108.795   l-3.043,12.918c-1.502,5.026-0.629,10.219,2.427,14.321c4.548,6.107,13.313,9.28,24.69,8.942   c20.039-0.584,35.6-5.863,46.554-15.754c3.381,8.849,8.949,17.258,17.694,22.407V481.1c0,5.932-4.819,10.758-10.742,10.758H56.883   c-5.923,0-10.741-4.826-10.741-10.758v-45.935c0-5.562-4.509-10.071-10.07-10.071S26,429.603,26,435.165V481.1   c0,17.038,13.854,30.9,30.883,30.9h186.374c16.962,0,30.77-13.754,30.879-30.699c15.354-0.184,29.741-8.467,46.562-26.796   l9.324-10.147h40.434c2.45,12.03,13.096,21.111,25.82,21.111h63.372c14.529,0,26.353-11.841,26.353-26.393V281.121   C486,266.584,474.177,254.756,459.647,254.756z M284.239,34.811v20.744c0,8.087-6.57,14.667-14.647,14.667h-48.337   c-0.615,0-1.216,0.064-1.802,0.17h-16.725V41.301c0-5.563-4.51-10.071-10.071-10.071h-14.762V20.143h91.696   C277.669,20.143,284.239,26.723,284.239,34.811z M142.387,20.143h15.366v11.087h-15.366V20.143z M117.583,51.372h65.003v19.02   h-65.003V51.372z M85.188,90.534h129.789v19.36H85.188V90.534z M46.142,214.67v-73.877c0-5.932,4.818-10.756,10.741-10.756h186.374   c5.923,0,10.742,4.824,10.742,10.756v71.037l-4.36-1.313c-16.131-6.484-32.98-6.701-46.295-0.578   c-7.438,3.419-13.685,8.614-18.703,15.516H56.883C50.96,225.455,46.142,220.617,46.142,214.67z M170.421,264.93H66.953v-19.332   h108.021L170.421,264.93z M369.924,424.216H325.6c-2.818,0-5.508,1.182-7.414,3.257l-12.323,13.408   c-16.195,17.647-25.818,20.147-31.722,20.28V321.65c0-0.02,0-0.037,0-0.055v-0.121c0-0.225-0.01-0.425-0.024-0.614   c-0.246-3.995-2.869-7.628-6.902-8.954c-12.312-4.045-15.689-24.345-15.34-32.984c0.203-5.017-3.32-9.417-8.26-10.315   c-4.943-0.899-9.786,1.979-11.363,6.746c-5.66,17.116-18.948,25.064-43.096,25.769c-2.925,0.094-5.046-0.213-6.433-0.561   l11.93-50.655c3.675-10.847,9.428-18.136,17.105-21.666c11.915-5.477,25.445-1.051,30.71,1.106c0.3,0.123,0.606,0.232,0.917,0.325   l17.586,5.292c0.086,0.028,0.174,0.053,0.26,0.078l37.147,11.18l33.885,45.69c1.9,2.563,4.901,4.072,8.09,4.072h29.572V424.216z    M465.858,439.076c0,3.447-2.787,6.251-6.211,6.251h-63.372c-3.366,0-6.21-2.862-6.21-6.251v-4.789V285.911v-4.79   c0-3.432,2.785-6.223,6.21-6.223h63.372c3.424,0,6.211,2.791,6.211,6.223V439.076z"/>
	<path d="M197.037,413.854c0-7.593-1.858-15.148-5.373-21.849c-0.038-0.074-0.078-0.147-0.119-0.221l-16.025-28.792   c-0.029-0.054-0.059-0.107-0.09-0.159l-16.735-28.818c-1.803-3.103-5.12-5.014-8.708-5.014c-3.59,0-6.906,1.91-8.71,5.013   l-16.735,28.818c-0.039,0.068-0.078,0.138-0.117,0.207l-15.826,28.792c-0.025,0.044-0.048,0.088-0.071,0.133   c-3.548,6.688-5.424,14.258-5.424,21.89c0,25.913,21.069,46.996,46.968,46.996C175.968,460.851,197.037,439.768,197.037,413.854z    M123.245,413.854c0-4.331,1.052-8.613,3.042-12.392l15.73-28.616l7.969-13.72l7.978,13.741l15.917,28.595   c1.973,3.801,3.015,8.082,3.015,12.392c0,14.808-12.034,26.854-26.825,26.854C135.278,440.708,123.245,428.662,123.245,413.854z"/>
	<path d="M36.071,405.252c5.562,0,10.07-4.51,10.07-10.071v-0.254c0-5.562-4.509-10.071-10.07-10.071S26,389.365,26,394.927v0.254   C26,400.742,30.51,405.252,36.071,405.252z"/>
</g>















</svg>
