<?xml version="1.0" encoding="iso-8859-1"?>
<!-- Generator: Adobe Illustrator 19.0.0, SVG Export Plug-In . SVG Version: 6.00 Build 0)  -->
<svg version="1.1" id="Capa_1" xmlns="http://www.w3.org/2000/svg" xmlns:xlink="http://www.w3.org/1999/xlink" x="0px" y="0px"
	 viewBox="0 0 512 512" style="enable-background:new 0 0 512 512;" xml:space="preserve">
<g>
	<g>
		<path d="M236.004,175.017h-40c-5.522,0-10,4.478-10,10.001v40.004c0,5.523,4.478,10.001,10,10.001h40c5.522,0,10-4.478,10-10.001
			v-40.004C246.004,179.495,241.526,175.017,236.004,175.017z M226.003,215.021h-20v-20.002h20V215.021z"/>
	</g>
</g>
<g>
	<g>
		<path d="M316.004,175.017h-40c-5.522,0-10,4.478-10,10.001v40.004c0,5.523,4.478,10.001,10,10.001h40c5.522,0,10-4.478,10-10.001
			v-40.004C326.004,179.495,321.526,175.017,316.004,175.017z M306.004,215.021h-20v-20.002h20V215.021z"/>
	</g>
</g>
<g>
	<g>
		<path d="M236.004,95.01h-40c-5.522,0-10,4.478-10,10.001v40.004c0,5.523,4.478,10.001,10,10.001h40c5.522,0,10-4.478,10-10.001
			v-40.004C246.004,99.488,241.526,95.01,236.004,95.01z M226.003,135.013h-20v-20.002h20V135.013z"/>
	</g>
</g>
<g>
	<g>
		<path d="M316.004,95.01h-40c-5.522,0-10,4.478-10,10.001v40.004c0,5.523,4.478,10.001,10,10.001h40c5.522,0,10-4.478,10-10.001
			v-40.004C326.004,99.488,321.526,95.01,316.004,95.01z M306.004,135.013h-20v-20.002h20V135.013z"/>
	</g>
</g>
<g>
	<g>
		<path d="M116.003,206.02h-40c-5.522,0-10,4.478-10,10.001v40.004c0,5.523,4.478,10.001,10,10.001h40c5.522,0,10-4.478,10-10.001
			v-40.004C126.003,210.498,121.526,206.02,116.003,206.02z M106.003,246.024h-20v-20.002h20V246.024z"/>
	</g>
</g>
<g>
	<g>
		<path d="M509.364,169.246l-46-50.005c-1.894-2.059-4.563-3.23-7.359-3.23h-90V75.008c0,0,9.964,0,10,0
			c10.222,0,13.602-14.767,4.167-19.093l-120-55.005c-2.646-1.213-5.688-1.213-8.334,0c0,0-119.728,54.88-120,55.005
			c-9.276,4.252-6.529,19.093,4.167,19.093h10v41.004h-90c-2.797,0-5.466,1.171-7.359,3.23c0,0-45.865,49.857-46,50.004
			c-5.756,6.257-1.103,16.772,7.359,16.772h16v109.01c0,5.523,4.478,10.001,10,10.001h110v20.002c0,5.523,4.478,10.001,10,10.001
			h200.001c5.522,0,10-4.478,10-10.001V305.03h110c5.522,0,10-4.478,10-10.001v-109.01c0,0,15.936,0,16,0
			C510.384,186.018,515.064,175.442,509.364,169.246z M146.003,285.028h-100v-99.01h100V285.028z M146.004,166.017H32.791
			l27.601-30.003h85.612V166.017z M256.004,21.003l74.181,34.003H181.823L256.004,21.003z M266.004,315.031h-24v-28.024
			c0-6.606,5.383-11.98,12-11.98s12,5.374,12,11.98V315.031z M346.004,315.031h-60v-28.024c0-17.635-14.355-31.982-32-31.982
			c-17.645,0-32,14.347-32,31.982v28.024h-56V75.008h180V315.031z M466.004,285.028h-100v-99.01h100V285.028z M366.004,166.017
			v-30.003h85.611l27.601,30.003H366.004z"/>
	</g>
</g>
<g>
	<g>
		<path d="M436.004,206.02h-40c-5.522,0-10,4.478-10,10.001v40.004c0,5.523,4.478,10.001,10,10.001h40c5.522,0,10-4.478,10-10.001
			v-40.004C446.004,210.498,441.526,206.02,436.004,206.02z M426.004,246.024h-20v-20.002h20V246.024z"/>
	</g>
</g>
<g>
	<g>
		<path d="M266.375,403.546l-13.151-37.78c-1.816-5.214-7.513-7.972-12.732-6.157l-37.776,13.153
			c-5.216,1.817-7.972,7.517-6.156,12.734l3.462,9.945l-33.034,14.025c-1.292-4.027-5.064-6.944-9.52-6.944h-40
			c-5.522,0-10,4.478-10,10.001v22.213L59.739,455l-2.515-7.226c-1.815-5.214-7.513-7.974-12.732-6.157L6.715,454.77
			c-5.216,1.817-7.972,7.517-6.156,12.734c0,0,13.112,37.666,13.151,37.78c1.685,4.84,7.618,7.939,12.733,6.157l37.776-13.153
			c5.216-1.817,7.972-7.517,6.156-12.734l-4.046-11.622l41.138-17.466v26.063h-4.5c-5.522,0-10,4.478-10,10.001
			s4.478,10.001,10,10.001h69c5.522,0,10-4.478,10-10.001s-4.478-10.001-10-10.001h-4.5v-51.537l39.144-16.62
			c0,0,3.099,8.903,3.1,8.904c1.377,3.951,5.275,6.714,9.444,6.714c1.09,0.001,41.064-13.71,41.064-13.71
			C265.435,414.463,268.191,408.763,266.375,403.546z M29.311,489.262l-6.576-18.89l18.889-6.577l6.576,18.89L29.311,489.262z
			 M147.467,482.529h-20v-20.002h20V482.529z M147.467,442.526h-20c0,0,0-20.002,0-20.002h20V442.526z M225.311,407.255
			l-6.576-18.89l18.889-6.578l6.576,18.891L225.311,407.255z"/>
	</g>
</g>
<g>
	<g>
		<path d="M511.854,500.267l-19.85-113.157c-0.004-11.502-0.149-25.586-6.057-37.391c-7.553-15.09-22.338-22.741-43.943-22.741
			s-36.39,7.651-43.943,22.741c-4.724,9.438-5.76,20.333-5.989,30.202c-36.069,17.117-55.788,33.649-80.139,57.991
			c-27.57,27.583-47.97,40.724-60.241,46.895c-7.169,3.607-15.535,7.191-23.689,7.191c-5.154,0-9.636,4.202-9.98,9.34
			c-0.348,5.204,3.513,9.901,8.681,10.571c0.38,0.051,55.68,0.091,55.68,0.091c5.519,0,10-4.49,10-10
			c0.001-7.969-7.113-10.002-13.6-10.002c14.81-9.932,30.72-23.363,47.289-39.935c19.183-19.191,40.781-39.667,65.931-50.743
			v100.675c0,5.523,4.478,10.001,10,10.001c0,0,99.832,0,100,0C508.114,511.996,512.908,506.274,511.854,500.267z M480.623,437.989
			l3.509,20.002h-32.128v-20.002H480.623z M477.115,417.987h-25.11v-20.002h21.601L477.115,417.987z M442.004,346.98
			c24.588,0,29.075,11.557,29.848,31.003h-59.695C412.929,358.537,417.416,346.98,442.004,346.98z M432.004,491.994h-20v-94.009h20
			V491.994z M452.004,491.994v-14.001h35.637l2.456,14.001H452.004z"/>
	</g>
</g>
<g>
	<g>
		<path d="M322.384,491.998c-5.51,0-10,4.48-10,10.001c0,5.51,4.49,10.001,10,10.001c5.52,0,10-4.491,10-10.001
			C332.384,496.478,327.903,491.998,322.384,491.998z"/>
	</g>
</g>
<g>
</g>
<g>
</g>
<g>
</g>
<g>
</g>
<g>
</g>
<g>
</g>
<g>
</g>
<g>
</g>
<g>
</g>
<g>
</g>
<g>
</g>
<g>
</g>
<g>
</g>
<g>
</g>
<g>
</g>
</svg>
