<svg viewBox="0 -10 512 512" xmlns="http://www.w3.org/2000/svg"><path d="m502 184v-32.8125c0-36.722656-27.710938-67.082031-63.316406-71.308594 5.976562-8.027344 9.519531-17.972656 9.519531-28.726562v-2.949219c0-26.578125-21.625-48.203125-48.203125-48.203125s-48.203125 21.625-48.203125 48.203125v2.949219c0 10.753906 3.542969 20.695312 9.519531 28.726562-35.605468 4.226563-63.316406 34.585938-63.316406 71.3125v32.8125h-84v-32.8125c0-36.726562-27.710938-67.085937-63.316406-71.3125 5.976562-8.027344 9.519531-17.972656 9.519531-28.726562v-2.949219c0-26.578125-21.625-48.203125-48.203125-48.203125s-48.203125 21.625-48.203125 48.203125v2.949219c0 10.753906 3.542969 20.699218 9.519531 28.726562-35.605468 4.226563-63.316406 34.585938-63.316406 71.3125v32.8125c-5.523438 0-10 4.476563-10 10v176c0 5.519532 4.476562 10 10 10h44v77.347656c0 18.75 15.253906 34 34 34s34-15.25 34-34v-8.441406c4.273438 1.941406 9.011719 3.03125 14 3.03125 18.746094 0 34-15.253906 34-34v-37.9375h45c5.523438 0 10-4.480468 10-10 0-5.523437-4.476562-10-10-10h-195v-107.996094h109c5.523438 0 10-4.476562 10-10 0-5.523437-4.476562-10-10-10h-109v-28.007812h472v156h-184c-5.523438 0-10 4.476562-10 10s4.476562 10 10 10h34v77.351562c0 18.746094 15.253906 34 34 34s34-15.253906 34-34v-8.441406c4.273438 1.9375 9.011719 3.027344 14 3.027344 18.746094 0 34-15.25 34-34v-37.9375h44c5.523438 0 10-4.476562 10-10v-176c0-5.523438-4.476562-10-10-10zm-400 273.351562c0 7.71875-6.28125 14-14 14s-14-6.28125-14-14v-77.351562h28zm48-39.414062c0 7.722656-6.28125 14-14 14s-14-6.277344-14-14v-37.9375h28zm240 39.414062c0 7.71875-6.28125 14-14 14s-14-6.28125-14-14v-77.351562h28zm48-39.414062c0 7.722656-6.28125 14-14 14s-14-6.277344-14-14v-37.9375h28zm-66.203125-369.734375c0-15.550781 12.652344-28.203125 28.203125-28.203125s28.203125 12.652344 28.203125 28.203125v2.949219c0 15.550781-12.648437 28.203125-28.203125 28.203125-15.550781 0-28.203125-12.652344-28.203125-28.203125zm-53.796875 102.988281c0-28.582031 23.253906-51.835937 51.832031-51.835937h60.332031c28.582032 0 51.835938 23.253906 51.835938 51.835937v32.8125h-23.480469v-37.3125c0-5.523437-4.476562-10-10-10-5.523437 0-10 4.476563-10 10v37.3125h-76.523437v-37.3125c0-5.523437-4.476563-10-10-10-5.519532 0-10 4.476563-10 10v37.3125h-23.996094zm-234.203125-102.988281c0-15.550781 12.652344-28.203125 28.203125-28.203125s28.203125 12.652344 28.203125 28.203125v2.949219c0 15.550781-12.648437 28.203125-28.203125 28.203125-15.550781 0-28.203125-12.652344-28.203125-28.203125zm-53.796875 102.988281c0-28.582031 23.253906-51.835937 51.832031-51.835937h60.332031c28.582032 0 51.835938 23.253906 51.835938 51.835937v32.8125h-23.480469v-37.3125c0-5.523437-4.476562-10-10-10-5.523437 0-10 4.476563-10 10v37.3125h-76.519531v-37.3125c0-5.523437-4.476562-10-10-10s-10 4.476563-10 10v37.3125h-24zm0 0"/><path d="m263 360.007812c-2.628906 0-5.210938 1.058594-7.070312 2.917969-1.859376 1.871094-2.929688 4.441407-2.929688 7.070313 0 2.640625 1.070312 5.21875 2.929688 7.078125 1.859374 1.863281 4.441406 2.921875 7.070312 2.921875s5.210938-1.058594 7.070312-2.921875c1.859376-1.867188 2.929688-4.4375 2.929688-7.078125 0-2.628906-1.070312-5.199219-2.929688-7.070313-1.859374-1.859375-4.441406-2.917969-7.070312-2.917969zm0 0"/><path d="m165.261719 234.9375c-1.863281 1.859375-2.933594 4.4375-2.933594 7.070312 0 2.636719 1.070313 5.207032 2.933594 7.066407 1.859375 1.871093 4.4375 2.933593 7.066406 2.933593 2.640625 0 5.210937-1.0625 7.070313-2.933593 1.871093-1.859375 2.929687-4.4375 2.929687-7.066407 0-2.632812-1.058594-5.203124-2.929687-7.070312-1.859376-1.863281-4.429688-2.929688-7.070313-2.929688-2.628906 0-5.207031 1.066407-7.066406 2.929688zm0 0"/></svg>