<?xml version="1.0" encoding="iso-8859-1"?>
<!-- Generator: Adobe Illustrator 19.0.0, SVG Export Plug-In . SVG Version: 6.00 Build 0)  -->
<svg version="1.1" id="Capa_1" xmlns="http://www.w3.org/2000/svg" xmlns:xlink="http://www.w3.org/1999/xlink" x="0px" y="0px"
	 viewBox="0 0 512.001 512.001" style="enable-background:new 0 0 512.001 512.001;" xml:space="preserve">
<g>
	<g>
		<path d="M472.994,362.366l-19.385-4.53c-1.154-3.324-2.503-6.578-4.036-9.742l10.504-16.912c2.451-3.947,1.861-9.062-1.424-12.348
			l-21.701-21.701c-3.286-3.285-8.402-3.875-12.348-1.423l-16.911,10.504c-3.165-1.535-6.419-2.883-9.742-4.037l-4.531-19.384
			c-1.058-4.524-5.091-7.724-9.737-7.724h-30.689c-4.646,0-8.68,3.2-9.737,7.724l-4.531,19.384
			c-3.323,1.153-6.577,2.502-9.742,4.037l-16.911-10.504c-3.945-2.451-9.061-1.861-12.348,1.423l-21.701,21.701
			c-3.285,3.286-3.875,8.401-1.424,12.348l10.504,16.912c-1.342,2.769-2.542,5.606-3.594,8.498
			c-10.064-20.573-29.756-35.643-53.63-39.149c-1.204-0.503-2.512-0.773-3.854-0.773h-25.667
			c17.887-7.828,33.072-18.606,44.569-31.739c17.175-19.616,25.883-43.519,25.883-71.044v-43.872
			c12.238-4.034,21.097-15.574,21.097-29.146v-0.554c0-13.54-8.818-25.06-21.013-29.118c-3.718-46.851-38.142-85.422-84.166-94.406
			v-6.79c0-5.523-4.477-10-10-10H115.18c-5.522,0-10,4.477-10,10v6.789c-46.024,8.984-80.449,47.555-84.166,94.406
			C8.818,115.254,0,126.774,0,140.314v0.554c0,13.572,8.858,25.113,21.097,29.146v43.872c0,27.525,8.708,51.428,25.883,71.045
			c11.498,13.132,26.683,23.91,44.57,31.738H65.882c-1.342,0-2.65,0.27-3.854,0.773C27.12,322.57,1.152,352.418,1.152,388.048
			v113.952c0,5.523,4.477,10,10,10h269.604c5.522,0,10-4.477,10-10v-33.206l8.969,8.969c3.287,3.286,8.401,3.874,12.348,1.424
			l16.911-10.504c3.165,1.535,6.419,2.883,9.742,4.037l4.531,19.384c1.058,4.524,5.091,7.724,9.737,7.724h30.689
			c4.647,0,8.68-3.2,9.737-7.724l4.531-19.384c3.323-1.153,6.577-2.501,9.742-4.036l16.911,10.504
			c3.946,2.451,9.063,1.863,12.348-1.424l21.701-21.702c3.285-3.285,3.875-8.4,1.424-12.347l-10.504-16.911
			c1.533-3.164,2.882-6.418,4.036-9.742l19.385-4.53c4.523-1.058,7.724-5.092,7.724-9.738v-30.69
			C480.718,367.457,477.518,363.423,472.994,362.366z M211.697,336.671l-16.093,43.808l-31.787-21.69l31.431-22.118H211.697z
			 M20,140.868v-0.553c0-5.888,4.79-10.678,10.679-10.678c0.015,0,0.03-0.001,0.045-0.001s0.03,0.001,0.045,0.001h157.336
			c5.522,0,10-4.477,10-10s-4.478-10-10-10H41.26c4.112-35.162,29.66-64.018,63.919-72.374v42.798c0,5.523,4.478,10,10,10
			c5.522,0,10-4.477,10-10v-60.06h41.549V80.06c0,5.523,4.478,10,10,10c5.523,0,10-4.477,10-10V37.262
			c37.457,9.136,64.5,42.777,64.5,82.374c0,5.523,4.478,10,10,10c5.889,0,10.679,4.79,10.679,10.678v0.554
			c0,5.888-4.79,10.679-10.679,10.679H30.679C24.79,151.547,20,146.757,20,140.868z M230.081,171.547
			c-5.639,7.715-14.762,12.626-24.795,12.626H86.62c-10.033,0-19.156-4.911-24.795-12.626H230.081z M41.097,213.887v-38.133
			c8.343,17.014,25.877,28.419,45.523,28.419h118.666c19.646,0,37.181-11.405,45.523-28.419v38.133
			c0,43.578-27.489,76.596-75.418,90.588c-4.266,1.245-7.198,5.155-7.198,9.599v17.179l-22.24,15.65l-22.24-15.65v-17.179
			c0-4.443-2.933-8.354-7.198-9.599C68.586,290.483,41.097,257.465,41.097,213.887z M96.658,336.67l31.431,22.118l-31.788,21.689
			L80.209,336.67H96.658z M75.882,492.001v-39.055c0-5.523-4.478-10-10-10c-5.522,0-10,4.477-10,10v39.055h-34.73V388.048h-0.001
			c0-23.758,16.032-43.944,38.359-49.721l22.441,61.09c1.063,2.893,3.4,5.135,6.336,6.075c0.081,0.026,0.162,0.05,0.244,0.074
			c0.023,0.007,0.045,0.013,0.068,0.02c0.068,0.02,0.137,0.038,0.205,0.056c0.016,0.004,0.031,0.008,0.046,0.012
			c0.078,0.02,0.155,0.039,0.233,0.057c0.027,0.006,0.054,0.012,0.081,0.018c0.064,0.014,0.129,0.028,0.193,0.041
			c0.018,0.004,0.035,0.008,0.053,0.011c0.08,0.016,0.159,0.03,0.239,0.044c0.025,0.004,0.051,0.008,0.076,0.012
			c0.061,0.01,0.121,0.019,0.182,0.028c0.025,0.004,0.05,0.007,0.075,0.011c0.077,0.01,0.154,0.02,0.23,0.029
			c0.028,0.003,0.055,0.006,0.083,0.009c0.059,0.006,0.118,0.012,0.178,0.017c0.025,0.002,0.051,0.005,0.076,0.007
			c0.077,0.006,0.154,0.011,0.23,0.016c0.029,0.002,0.058,0.003,0.088,0.004c0.054,0.003,0.109,0.005,0.163,0.006
			c0.031,0.001,0.061,0.002,0.092,0.003c0.071,0.001,0.143,0.003,0.214,0.003c0.003,0,0.007,0,0.01,0c0.029,0,0.059,0,0.088-0.001
			c0.052-0.001,0.105-0.001,0.158-0.003c0.034-0.001,0.067-0.002,0.101-0.003c0.069-0.003,0.139-0.006,0.208-0.009
			c0.036-0.002,0.073-0.005,0.11-0.007c0.045-0.003,0.091-0.006,0.136-0.01c0.036-0.003,0.072-0.006,0.107-0.009
			c0.069-0.006,0.137-0.013,0.206-0.021c0.038-0.004,0.076-0.009,0.114-0.014c0.042-0.005,0.084-0.011,0.126-0.016
			c0.038-0.005,0.075-0.01,0.113-0.016c0.067-0.01,0.134-0.021,0.201-0.032c0.039-0.007,0.078-0.014,0.117-0.021
			c0.041-0.007,0.082-0.015,0.123-0.023c0.038-0.007,0.076-0.015,0.114-0.022c0.066-0.014,0.132-0.028,0.197-0.043
			c0.038-0.009,0.076-0.018,0.114-0.027c0.043-0.01,0.085-0.021,0.128-0.032c0.035-0.009,0.071-0.018,0.106-0.027
			c0.066-0.018,0.133-0.036,0.2-0.055c0.035-0.01,0.071-0.021,0.106-0.031c0.045-0.014,0.09-0.028,0.136-0.042
			c0.032-0.01,0.063-0.02,0.095-0.03c0.068-0.022,0.136-0.045,0.203-0.069c0.032-0.011,0.064-0.023,0.096-0.035
			c0.05-0.018,0.099-0.037,0.149-0.055c0.026-0.01,0.053-0.02,0.08-0.03c0.069-0.027,0.137-0.055,0.206-0.083
			c0.029-0.012,0.058-0.025,0.087-0.037c0.053-0.023,0.107-0.046,0.16-0.07c0.022-0.01,0.044-0.019,0.066-0.029
			c0.07-0.032,0.14-0.065,0.209-0.099c0.025-0.012,0.05-0.024,0.075-0.037c0.06-0.03,0.12-0.06,0.179-0.091
			c0.014-0.007,0.029-0.015,0.043-0.022c0.071-0.038,0.142-0.076,0.212-0.115c0.021-0.012,0.043-0.024,0.064-0.036
			c0.063-0.036,0.127-0.073,0.189-0.11c0.012-0.007,0.023-0.014,0.035-0.021c0.07-0.042,0.139-0.085,0.208-0.129
			c0.018-0.012,0.036-0.023,0.054-0.035c0.072-0.046,0.143-0.093,0.214-0.141l18.115-12.36l-14.975,71.173
			c-0.707,3.363,0.361,6.854,2.831,9.244l20.361,19.711H75.882z M120.823,461.757l18.131-86.169l6.999-4.776l6.999,4.775
			l18.131,86.17l-25.13,24.326L120.823,461.757z M270.758,492.001h-0.003h-34.731v-39.055c0-5.523-4.477-10-10-10
			c-5.522,0-10,4.477-10,10v39.055h-47.429l20.366-19.714c2.47-2.39,3.538-5.881,2.831-9.244l-14.975-71.173l18.115,12.36
			c0.071,0.048,0.142,0.095,0.214,0.141c0.018,0.012,0.036,0.023,0.054,0.035c0.069,0.044,0.138,0.087,0.207,0.129
			c0.012,0.007,0.023,0.014,0.035,0.021c0.063,0.037,0.126,0.074,0.189,0.11c0.021,0.012,0.043,0.024,0.064,0.036
			c0.07,0.039,0.141,0.078,0.212,0.115c0.014,0.008,0.029,0.015,0.043,0.022c0.06,0.031,0.119,0.061,0.179,0.091
			c0.025,0.012,0.05,0.025,0.075,0.037c0.069,0.034,0.139,0.067,0.209,0.099c0.022,0.01,0.044,0.019,0.065,0.029
			c0.053,0.024,0.107,0.047,0.16,0.07c0.029,0.012,0.058,0.025,0.087,0.037c0.068,0.028,0.137,0.056,0.206,0.083
			c0.027,0.01,0.053,0.02,0.08,0.03c0.049,0.019,0.099,0.037,0.149,0.055c0.032,0.012,0.064,0.023,0.096,0.035
			c0.067,0.024,0.135,0.047,0.203,0.069c0.031,0.01,0.063,0.02,0.095,0.03c0.045,0.014,0.09,0.028,0.136,0.042
			c0.035,0.011,0.071,0.021,0.106,0.031c0.066,0.019,0.133,0.038,0.199,0.055c0.035,0.009,0.07,0.018,0.106,0.027
			c0.043,0.011,0.085,0.021,0.128,0.032c0.038,0.009,0.076,0.018,0.114,0.027c0.066,0.015,0.131,0.029,0.197,0.043
			c0.038,0.008,0.076,0.015,0.114,0.022c0.041,0.008,0.082,0.016,0.123,0.023c0.039,0.007,0.078,0.014,0.117,0.021
			c0.067,0.011,0.134,0.022,0.201,0.032c0.037,0.006,0.075,0.011,0.113,0.016c0.042,0.006,0.084,0.011,0.126,0.016
			c0.038,0.005,0.076,0.01,0.114,0.014c0.068,0.008,0.137,0.015,0.206,0.021c0.036,0.003,0.071,0.006,0.107,0.009
			c0.045,0.004,0.091,0.007,0.136,0.01c0.037,0.003,0.073,0.005,0.11,0.007c0.069,0.004,0.139,0.007,0.208,0.009
			c0.034,0.001,0.067,0.002,0.101,0.003c0.053,0.001,0.105,0.002,0.158,0.003c0.029,0,0.059,0.001,0.088,0.001
			c0.003,0,0.007,0,0.01,0c0.071,0,0.143-0.001,0.214-0.003c0.031-0.001,0.061-0.002,0.092-0.003
			c0.055-0.002,0.109-0.004,0.163-0.006c0.029-0.001,0.058-0.003,0.088-0.004c0.077-0.004,0.154-0.009,0.23-0.016
			c0.025-0.002,0.051-0.004,0.076-0.007c0.059-0.005,0.118-0.011,0.178-0.017c0.028-0.003,0.055-0.006,0.083-0.009
			c0.077-0.009,0.154-0.018,0.23-0.029c0.025-0.003,0.049-0.007,0.074-0.011c0.061-0.009,0.121-0.018,0.182-0.028
			c0.025-0.004,0.05-0.008,0.076-0.012c0.08-0.014,0.159-0.028,0.239-0.044c0.018-0.003,0.036-0.007,0.053-0.011
			c0.065-0.013,0.129-0.027,0.193-0.041c0.027-0.006,0.054-0.012,0.081-0.018c0.078-0.018,0.156-0.037,0.233-0.057
			c0.016-0.004,0.031-0.008,0.046-0.012c0.069-0.018,0.137-0.037,0.206-0.056c0.023-0.007,0.046-0.013,0.068-0.02
			c0.081-0.024,0.163-0.048,0.244-0.074c2.936-0.94,5.273-3.182,6.336-6.075l22.441-61.09c16.971,4.391,30.305,17.108,35.725,33.389
			c0.055,0.221,0.116,0.442,0.186,0.661c1.47,4.59,2.284,9.342,2.426,14.149c0.001,0.039,0.002,0.077,0.003,0.116
			c0.003,0.125,0.007,0.25,0.009,0.374c0.002,0.078,0.003,0.156,0.004,0.235c0.001,0.092,0.003,0.185,0.004,0.277
			c0.002,0.173,0.003,0.346,0.003,0.519V492.001z M460.718,394.861l-17.234,4.028c-3.575,0.835-6.404,3.563-7.371,7.104
			c-1.552,5.683-3.818,11.153-6.737,16.26c-1.822,3.188-1.751,7.119,0.186,10.239l9.341,15.038l-10.483,10.483l-15.038-9.34
			c-3.119-1.939-7.05-2.009-10.239-0.187c-5.107,2.919-10.577,5.185-16.258,6.736c-3.542,0.966-6.27,3.796-7.104,7.371
			l-4.029,17.235h-14.824l-4.029-17.235c-0.835-3.575-3.563-6.405-7.105-7.372c-5.68-1.55-11.15-3.816-16.258-6.736
			c-3.19-1.823-7.119-1.752-10.239,0.187l-15.038,9.34l-10.483-10.483l9.341-15.038c1.938-3.12,2.009-7.05,0.187-10.239
			c-2.92-5.109-5.187-10.579-6.736-16.258c-0.967-3.542-3.797-6.269-7.372-7.105l-2.438-0.57v-10.271
			c0-0.216-0.001-0.431-0.003-0.646c0-0.034-0.001-0.068-0.001-0.102c-0.002-0.222-0.006-0.444-0.01-0.665c0-0.003,0-0.007,0-0.01
			c-0.065-3.34-0.358-6.626-0.865-9.843l3.318-0.775c3.574-0.836,6.404-3.563,7.371-7.105c1.55-5.679,3.816-11.149,6.736-16.258
			c1.822-3.188,1.751-7.119-0.187-10.239l-9.341-15.038l10.483-10.483l15.038,9.34c3.12,1.938,7.05,2.009,10.239,0.187
			c5.109-2.92,10.579-5.187,16.258-6.736c3.542-0.967,6.27-3.796,7.105-7.372l4.029-17.235h14.824l4.029,17.235
			c0.835,3.575,3.563,6.405,7.104,7.371c5.68,1.55,11.149,3.817,16.258,6.737c3.189,1.823,7.12,1.751,10.239-0.187l15.038-9.34
			l10.483,10.483l-9.341,15.038c-1.938,3.12-2.009,7.051-0.186,10.239c2.919,5.106,5.185,10.577,6.737,16.26
			c0.967,3.541,3.796,6.268,7.371,7.103l17.234,4.028V394.861z"/>
	</g>
</g>
<g>
	<g>
		<path d="M235.83,412.381c-0.13-0.64-0.32-1.27-0.57-1.87c-0.25-0.6-0.56-1.18-0.92-1.73c-0.37-0.54-0.78-1.06-1.24-1.52
			c-0.47-0.46-0.979-0.88-1.53-1.24c-0.539-0.36-1.119-0.67-1.72-0.92c-0.609-0.25-1.229-0.44-1.87-0.57
			c-1.29-0.26-2.62-0.26-3.91,0c-0.64,0.13-1.27,0.32-1.869,0.57c-0.601,0.25-1.181,0.56-1.73,0.92c-0.54,0.36-1.059,0.78-1.52,1.24
			c-0.46,0.46-0.881,0.98-1.24,1.52c-0.36,0.55-0.67,1.13-0.92,1.73c-0.25,0.6-0.44,1.23-0.57,1.87c-0.13,0.65-0.2,1.3-0.2,1.96
			c0,0.65,0.07,1.3,0.2,1.95c0.13,0.64,0.32,1.27,0.57,1.87c0.25,0.6,0.56,1.18,0.92,1.73c0.359,0.54,0.78,1.05,1.24,1.52
			c0.46,0.46,0.98,0.87,1.52,1.24c0.55,0.36,1.13,0.67,1.73,0.92c0.6,0.25,1.23,0.44,1.869,0.57c0.65,0.13,1.301,0.19,1.95,0.19
			c0.66,0,1.311-0.06,1.96-0.19c0.641-0.13,1.261-0.32,1.87-0.57c0.601-0.25,1.181-0.56,1.72-0.92c0.551-0.37,1.061-0.78,1.53-1.24
			c0.46-0.47,0.87-0.98,1.24-1.52c0.36-0.55,0.67-1.13,0.92-1.73c0.25-0.6,0.44-1.23,0.57-1.87c0.13-0.65,0.189-1.3,0.189-1.95
			C236.019,413.681,235.96,413.03,235.83,412.381z"/>
	</g>
</g>
<g>
	<g>
		<path d="M72.949,407.261c-0.46-0.46-0.971-0.88-1.521-1.24c-0.54-0.36-1.12-0.67-1.72-0.92c-0.61-0.25-1.24-0.44-1.87-0.57
			c-1.3-0.26-2.62-0.26-3.91,0c-0.64,0.13-1.27,0.32-1.87,0.57c-0.609,0.25-1.19,0.56-1.729,0.92c-0.55,0.36-1.061,0.78-1.521,1.24
			c-0.46,0.46-0.88,0.98-1.24,1.52c-0.359,0.55-0.67,1.13-0.92,1.73c-0.25,0.6-0.439,1.23-0.569,1.87c-0.13,0.65-0.2,1.3-0.2,1.95
			c0,0.66,0.07,1.31,0.2,1.96c0.131,0.64,0.32,1.27,0.57,1.87c0.25,0.6,0.561,1.18,0.92,1.73c0.36,0.54,0.78,1.05,1.24,1.52
			c0.46,0.46,0.971,0.87,1.521,1.24c0.54,0.36,1.12,0.67,1.729,0.92c0.601,0.25,1.23,0.44,1.87,0.57s1.3,0.19,1.95,0.19
			c0.65,0,1.31-0.06,1.96-0.19c0.63-0.13,1.26-0.32,1.87-0.57c0.6-0.25,1.18-0.56,1.72-0.92c0.55-0.37,1.06-0.78,1.521-1.24
			c0.46-0.47,0.88-0.98,1.25-1.52c0.359-0.55,0.67-1.13,0.92-1.73c0.25-0.6,0.439-1.23,0.569-1.87c0.13-0.65,0.19-1.3,0.19-1.96
			C75.879,411.701,74.809,409.131,72.949,407.261z"/>
	</g>
</g>
<g>
	<g>
		<path d="M176.276,268.902c-2.042-5.131-7.859-7.636-12.989-5.593c-11.178,4.449-23.49,4.449-34.668,0
			c-5.131-2.043-10.946,0.462-12.989,5.593s0.462,10.946,5.593,12.989c7.974,3.174,16.352,4.761,24.73,4.761
			s16.757-1.587,24.73-4.761C175.814,279.85,178.319,274.033,176.276,268.902z"/>
	</g>
</g>
<g>
	<g>
		<path d="M235.54,117.681c-0.13-0.64-0.32-1.27-0.57-1.87s-0.559-1.18-0.92-1.73c-0.37-0.54-0.78-1.05-1.25-1.52
			c-0.46-0.46-0.97-0.87-1.52-1.24c-0.54-0.36-1.12-0.67-1.721-0.92c-0.609-0.25-1.24-0.44-1.87-0.57c-1.29-0.26-2.62-0.26-3.909,0
			c-0.641,0.13-1.271,0.32-1.87,0.57c-0.601,0.25-1.191,0.56-1.73,0.92c-0.55,0.37-1.06,0.78-1.52,1.24
			c-0.46,0.47-0.88,0.98-1.24,1.52c-0.36,0.55-0.67,1.13-0.92,1.73c-0.25,0.6-0.44,1.23-0.57,1.87c-0.13,0.65-0.2,1.3-0.2,1.96
			c0,2.63,1.07,5.21,2.931,7.07c0.459,0.46,0.969,0.88,1.519,1.24c0.54,0.36,1.13,0.67,1.73,0.92c0.6,0.25,1.229,0.441,1.87,0.57
			c0.64,0.13,1.3,0.19,1.949,0.19c0.66,0,1.31-0.06,1.96-0.19c0.63-0.13,1.261-0.32,1.87-0.57c0.601-0.25,1.181-0.559,1.721-0.92
			c0.55-0.36,1.059-0.78,1.52-1.24c1.87-1.86,2.93-4.44,2.93-7.07C235.73,118.98,235.67,118.331,235.54,117.681z"/>
	</g>
</g>
<g>
	<g>
		<path d="M199.427,212.001c-5.523,0-10,4.477-10,10v12c0,5.523,4.477,10,10,10c5.522,0,10-4.477,10-10v-12
			C209.427,216.478,204.949,212.001,199.427,212.001z"/>
	</g>
</g>
<g>
	<g>
		<path d="M92.48,212.001c-5.522,0-10,4.477-10,10v12c0,5.523,4.478,10,10,10c5.522,0,10-4.477,10-10v-12
			C102.48,216.478,98.003,212.001,92.48,212.001z"/>
	</g>
</g>
<g>
	<g>
		<path d="M368.338,338.434c-27.026,0-49.014,21.988-49.014,49.014s21.987,49.014,49.014,49.014
			c27.027,0,49.014-21.987,49.014-49.014C417.352,360.423,395.364,338.434,368.338,338.434z M368.338,416.462
			c-15.998,0-29.014-13.016-29.014-29.014c0-15.999,13.016-29.014,29.014-29.014s29.014,13.016,29.014,29.014
			C397.352,403.447,384.336,416.462,368.338,416.462z"/>
	</g>
</g>
<g>
	<g>
		<path d="M504.276,164.517l-14.504-3.39c-0.741-2.04-1.573-4.046-2.491-6.012l7.859-12.652c2.451-3.947,1.861-9.062-1.424-12.347
			l-17.412-17.413c-3.286-3.286-8.401-3.875-12.348-1.424l-12.652,7.858c-1.966-0.918-3.973-1.749-6.013-2.491l-3.39-14.503
			c-1.057-4.524-5.091-7.724-9.737-7.724H407.54c-4.646,0-8.681,3.2-9.737,7.724l-3.39,14.503c-2.04,0.742-4.047,1.573-6.013,2.491
			l-12.652-7.858c-3.945-2.451-9.06-1.862-12.348,1.423l-17.413,17.413c-3.285,3.286-3.875,8.401-1.424,12.348l7.859,12.652
			c-0.918,1.966-1.75,3.973-2.491,6.012l-14.503,3.39c-4.523,1.057-7.724,5.091-7.724,9.737v24.626c0,4.646,3.2,8.68,7.724,9.738
			l14.503,3.389c0.742,2.04,1.573,4.046,2.491,6.012l-7.859,12.652c-2.451,3.947-1.861,9.062,1.424,12.348l17.413,17.412
			c3.286,3.285,8.401,3.874,12.348,1.424l12.652-7.858c1.967,0.917,3.973,1.749,6.013,2.491l3.39,14.503
			c1.057,4.524,5.091,7.724,9.737,7.724h24.625c4.646,0,8.681-3.2,9.737-7.724l3.39-14.503c2.04-0.742,4.047-1.573,6.013-2.491
			l12.652,7.858c3.946,2.452,9.062,1.862,12.348-1.424l17.412-17.413c3.285-3.285,3.875-8.4,1.424-12.347l-7.858-12.652
			c0.918-1.967,1.749-3.973,2.491-6.013l14.503-3.389c4.523-1.058,7.724-5.092,7.724-9.738v-24.626
			C512,169.608,508.8,165.574,504.276,164.517z M492,190.947l-12.303,2.875c-3.574,0.836-6.404,3.563-7.371,7.105
			c-1.199,4.394-2.953,8.628-5.215,12.584c-1.822,3.188-1.751,7.119,0.187,10.239l6.668,10.734l-6.194,6.194l-10.734-6.667
			c-3.122-1.938-7.051-2.008-10.238-0.187c-3.954,2.26-8.188,4.014-12.587,5.215c-3.541,0.967-6.269,3.796-7.104,7.371
			l-2.876,12.303h-8.76l-2.876-12.303c-0.835-3.575-3.563-6.405-7.105-7.371c-4.396-1.2-8.632-2.955-12.586-5.215
			c-3.188-1.821-7.118-1.751-10.238,0.187l-10.734,6.667l-6.195-6.195l6.668-10.734c1.938-3.12,2.009-7.051,0.186-10.239
			c-2.26-3.954-4.015-8.188-5.214-12.584c-0.967-3.542-3.797-6.27-7.371-7.105l-12.303-2.875v-8.761l12.303-2.876
			c3.575-0.835,6.404-3.563,7.371-7.105c1.199-4.396,2.954-8.629,5.214-12.585c1.822-3.188,1.751-7.119-0.186-10.238l-6.668-10.734
			l6.195-6.195l10.734,6.667c3.12,1.939,7.052,2.009,10.239,0.187c3.953-2.26,8.188-4.015,12.585-5.215
			c3.542-0.966,6.27-3.796,7.105-7.371l2.876-12.303h8.76l2.876,12.303c0.835,3.575,3.563,6.404,7.104,7.371
			c4.398,1.201,8.633,2.955,12.586,5.215c3.188,1.822,7.119,1.751,10.239-0.187l10.734-6.667l6.194,6.194l-6.668,10.734
			c-1.938,3.12-2.009,7.05-0.187,10.238c2.26,3.955,4.015,8.189,5.216,12.587c0.967,3.541,3.796,6.268,7.37,7.103L492,182.186
			V190.947z"/>
	</g>
</g>
<g>
	<g>
		<path d="M419.853,145.262c-22.775,0-41.305,18.529-41.305,41.304s18.529,41.304,41.305,41.304
			c22.775,0,41.304-18.529,41.304-41.304C461.156,163.79,442.628,145.262,419.853,145.262z M419.853,207.871
			c-11.747,0-21.305-9.557-21.305-21.304s9.558-21.304,21.305-21.304s21.304,9.557,21.304,21.304
			C441.156,198.314,431.6,207.871,419.853,207.871z"/>
	</g>
</g>
<g>
</g>
<g>
</g>
<g>
</g>
<g>
</g>
<g>
</g>
<g>
</g>
<g>
</g>
<g>
</g>
<g>
</g>
<g>
</g>
<g>
</g>
<g>
</g>
<g>
</g>
<g>
</g>
<g>
</g>
</svg>
