<?xml version="1.0" encoding="iso-8859-1"?>
<!-- Generator: Adobe Illustrator 19.0.0, SVG Export Plug-In . SVG Version: 6.00 Build 0)  -->
<svg version="1.1" id="Capa_1" xmlns="http://www.w3.org/2000/svg" xmlns:xlink="http://www.w3.org/1999/xlink" x="0px" y="0px"
	 viewBox="0 0 512 512" style="enable-background:new 0 0 512 512;" xml:space="preserve">
<g>
	<g>
		<path d="M156,326c-5.52,0-10,4.48-10,10c0,5.52,4.48,10,10,10s10-4.48,10-10C166,330.48,161.52,326,156,326z"/>
	</g>
</g>
<g>
	<g>
		<path d="M156,366c-5.52,0-10,4.48-10,10c0,5.52,4.48,10,10,10s10-4.48,10-10C166,370.48,161.52,366,156,366z"/>
	</g>
</g>
<g>
	<g>
		<path d="M482,0H30C13.458,0,0,13.458,0,30v366c0,16.542,13.458,30,30,30h139.204c-2.124,7.383-3.204,15.046-3.204,22.92V502
			c0,5.523,4.477,10,10,10h280c5.523,0,10-4.477,10-10v-53.08c0-7.864-1.074-15.531-3.2-22.92H482c16.542,0,30-13.458,30-30V30
			C512,13.458,498.542,0,482,0z M226,492h-40v-43.08c0-10.007,2.273-19.561,6.76-28.4c7.026-13.865,19.013-24.581,33.24-30.179V492z
			 M177.976,406H30c-5.514,0-10-4.486-10-10v-90h219.452c3.794,12.523,10.601,23.905,19.977,33.281
			c2.068,2.068,4.275,4.017,6.571,5.856V366h-17.08c-4.931,0-9.873,0.436-14.692,1.297C210.862,371.481,190.25,385.776,177.976,406z
			 M133,206h-30v-15l36-27c2.518-1.889,4-4.853,4-8c0-3.147-1.482-6.111-4-8l-36-27v-18h30c5.523,0,10-4.477,10-10V83h306v143
			h-24.72c-2.08-5.864-5.934-10.89-10.914-14.439c-0.945-17.503-7.437-34.399-18.546-47.994
			c-10.135-12.404-23.713-21.61-38.82-26.486v-6.5c0-13.554-11.026-24.58-24.58-24.58h-30.84c-13.554,0-24.58,11.026-24.58,24.58
			v6.5c-15.107,4.876-28.685,14.082-38.82,26.486c-11.105,13.59-17.596,30.478-18.545,47.975c-1.356,0.967-2.646,2.047-3.847,3.248
			c-3.219,3.22-5.614,7.042-7.085,11.211H143V226v-10C143,210.477,138.523,206,133,206z M123,226v20H63v-20H123z M93,173.5
			L69.667,156L93,138.5l23.333,17.5L93,173.5z M63,83V63h60v20H63z M286,186c5.523,0,10-4.477,10-10v-31.333c0-0.02,0-0.041,0-0.061
			V130.58c0-2.525,2.055-4.58,4.58-4.58h30.84c2.525,0,4.58,2.055,4.58,4.58v14.026c0,0.02,0,0.041,0,0.061V176
			c0,5.523,4.477,10,10,10s10-4.477,10-10v-17.551c19.301,8.573,33.266,26.577,36.683,47.551H239.317
			c3.417-20.975,17.382-38.979,36.683-47.551V176C276,181.523,280.477,186,286,186z M228.931,228.932
			c1.891-1.891,4.401-2.932,7.069-2.932h160c5.514,0,10,4.486,10,10c0,2.668-1.041,5.179-2.931,7.068
			c-1.89,1.891-4.401,2.932-7.069,2.932H236c-5.514,0-10-4.486-10-10C226,233.332,227.041,230.821,228.931,228.932z M376,266v16.71
			c0,3.852-0.363,7.686-1.08,11.404c-2.956,15.385-11.706,28.825-24.641,37.845c-10.084,7.034-21.938,10.751-34.279,10.751
			s-24.195-3.718-34.281-10.753c-2.914-2.031-5.655-4.325-8.148-6.818c-8.572-8.572-14.287-19.369-16.525-31.228
			c-0.694-3.668-1.046-7.437-1.046-11.201V266H376z M386,492H246V386.069c0.972-0.044,1.946-0.069,2.92-0.069H276
			c5.523,0,10-4.477,10-10v-19.109c9.456,3.83,19.598,5.819,30,5.819c10.402,0,20.545-1.988,30-5.819V376c0,5.523,4.477,10,10,10
			h27.08c0.974,0,1.948,0.024,2.92,0.069V492z M446,492h-40V390.334c14.608,5.733,26.792,16.833,33.76,31.235
			c4.141,8.549,6.24,17.751,6.24,27.351V492z M492,396c0,5.514-4.486,10-10,10h-27.97c-4.594-7.577-10.342-14.315-16.968-20H459
			c5.523,0,10-4.477,10-10s-4.477-10-10-10h-73c-0.299,0-0.594,0.019-0.887,0.045c-0.678-0.016-1.355-0.045-2.033-0.045H366v-20.861
			c12.694-10.148,21.888-23.712,26.551-39.139H492V396z M492,286h-96.078c0.044-1.095,0.078-2.192,0.078-3.29V266
			c8.01,0,15.543-3.121,21.212-8.789c3.219-3.22,5.614-7.042,7.085-11.211H459c5.523,0,10-4.477,10-10V73c0-5.523-4.477-10-10-10
			H143V53c0-5.523-4.477-10-10-10H53c-5.523,0-10,4.477-10,10v40c0,5.523,4.477,10,10,10h30v18l-36,27c-2.518,1.889-4,4.853-4,8
			c0,3.147,1.482,6.111,4,8l36,27v15H53c-5.523,0-10,4.477-10,10v40c0,5.523,4.477,10,10,10h80c5.523,0,10-4.477,10-10v-10h64.72
			c4.128,11.639,15.243,20,28.28,20v16.71c0,1.097,0.032,2.194,0.077,3.29H20V30c0-5.514,4.486-10,10-10h452c5.514,0,10,4.486,10,10
			V286z"/>
	</g>
</g>
<g>
	<g>
		<path d="M113,326H53c-5.523,0-10,4.477-10,10s4.477,10,10,10h60c5.523,0,10-4.477,10-10S118.523,326,113,326z"/>
	</g>
</g>
<g>
	<g>
		<path d="M113,366H53c-5.523,0-10,4.477-10,10s4.477,10,10,10h60c5.523,0,10-4.477,10-10S118.523,366,113,366z"/>
	</g>
</g>
<g>
	<g>
		<path d="M459,326h-43c-5.523,0-10,4.477-10,10s4.477,10,10,10h43c5.523,0,10-4.477,10-10S464.523,326,459,326z"/>
	</g>
</g>
<g>
</g>
<g>
</g>
<g>
</g>
<g>
</g>
<g>
</g>
<g>
</g>
<g>
</g>
<g>
</g>
<g>
</g>
<g>
</g>
<g>
</g>
<g>
</g>
<g>
</g>
<g>
</g>
<g>
</g>
</svg>
