<?xml version="1.0" encoding="iso-8859-1"?>
<!-- Generator: Adobe Illustrator 19.0.0, SVG Export Plug-In . SVG Version: 6.00 Build 0)  -->
<svg version="1.1" id="Capa_1" xmlns="http://www.w3.org/2000/svg" xmlns:xlink="http://www.w3.org/1999/xlink" x="0px" y="0px"
	 viewBox="0 0 512 512" style="enable-background:new 0 0 512 512;" xml:space="preserve">
<g>
	<g>
		<path d="M512,236.046v-58c0-5.523-4.478-10-10-10h-20V118c0-2.652-1.054-5.196-2.929-7.071l-54-54
			c-3.906-3.904-10.236-3.904-14.143,0l-54,54C355.054,112.804,354,115.346,354,118v50.046h-34V118c0-2.652-1.054-5.196-2.929-7.071
			l-54-54c-3.906-3.904-10.236-3.904-14.143,0l-54,54C193.054,112.804,192,115.346,192,118v50.046h-34V118
			c0-2.652-1.054-5.196-2.929-7.071l-54-54c-3.906-3.904-10.236-3.904-14.143,0l-54,54C31.054,112.804,30,115.346,30,118v50.046H10
			c-5.522,0-10,4.477-10,10v58c0,5.523,4.478,10,10,10h20V311H10c-5.522,0-10,4.477-10,10v58c0,5.523,4.478,10,10,10h20v59
			c0,5.523,4.478,10,10,10h20.5c5.522,0,10-4.477,10-10s-4.478-10-10-10H50V122.141l44-44l44,44V438h-9c-5.522,0-10,4.477-10,10
			s4.478,10,10,10h19c5.522,0,10-4.477,10-10v-59h34v59c0,5.523,4.478,10,10,10h20.5c5.522,0,10-4.477,10-10s-4.478-10-10-10H212
			V122.141l44-44l44,44V438h-9c-5.522,0-10,4.477-10,10s4.478,10,10,10h19c5.522,0,10-4.477,10-10v-59h34v59c0,5.523,4.478,10,10,10
			h20.5c5.522,0,10-4.477,10-10s-4.478-10-10-10H374V122.141l44-44l44,44V438h-9c-5.522,0-10,4.477-10,10s4.478,10,10,10h19
			c5.522,0,10-4.477,10-10v-59h20c5.522,0,10-4.477,10-10v-58c0-5.523-4.478-10-10-10h-20v-64.954h20v0
			C507.522,246.046,512,241.568,512,236.046z M30,369H20v-38h10V369z M30,226.046H20v-38h10V226.046z M192,369h-34v-38h34V369z
			 M192,311h-34v-64.954h34V311z M192,226.046h-34v-38h34V226.046z M354,369h-34v-38h34V369z M354,311h-34v-64.954h34V311z
			 M354,226.046h-34v-38h34V226.046z M492,331v38h-10v-38H492z M492,226.046h-10v-38h10V226.046z"/>
	</g>
</g>
<g>
	<g>
		<path d="M101.079,199.844c-3.925-3.884-10.257-3.851-14.142,0.075l-0.092,0.093c-3.885,3.926-3.851,10.257,0.075,14.142
			c1.95,1.929,4.492,2.891,7.034,2.891c2.576,0,5.153-0.99,7.108-2.966l0.092-0.093C105.039,210.06,105.005,203.729,101.079,199.844
			z"/>
	</g>
</g>
<g>
	<g>
		<path d="M263.164,199.88c-3.906-3.905-10.236-3.905-14.143,0l-0.093,0.093c-3.905,3.905-3.905,10.237,0,14.143
			c1.954,1.953,4.512,2.929,7.072,2.929s5.118-0.976,7.071-2.929l0.093-0.093C267.069,210.119,267.069,203.786,263.164,199.88z"/>
	</g>
</g>
<g>
	<g>
		<path d="M425.164,199.88c-3.906-3.905-10.236-3.905-14.143,0l-0.093,0.093c-3.905,3.905-3.905,10.237,0,14.143
			c1.954,1.953,4.512,2.929,7.072,2.929s5.118-0.976,7.071-2.929l0.093-0.093C429.069,210.119,429.069,203.786,425.164,199.88z"/>
	</g>
</g>
<g>
	<g>
		<path d="M101.079,342.799c-3.925-3.884-10.257-3.851-14.142,0.075l-0.092,0.093c-3.884,3.925-3.85,10.256,0.076,14.141
			c1.949,1.929,4.491,2.892,7.033,2.892c2.576,0,5.153-0.99,7.108-2.966l0.092-0.093
			C105.039,353.015,105.005,346.684,101.079,342.799z"/>
	</g>
</g>
<g>
	<g>
		<path d="M263.164,342.835c-3.906-3.905-10.236-3.905-14.143,0l-0.093,0.093c-3.905,3.906-3.905,10.238,0.001,14.143
			C250.882,359.023,253.44,360,256,360s5.118-0.976,7.071-2.929l0.093-0.093C267.069,353.073,267.069,346.741,263.164,342.835z"/>
	</g>
</g>
<g>
	<g>
		<path d="M425.164,342.835c-3.906-3.905-10.236-3.905-14.143,0l-0.093,0.093c-3.905,3.906-3.905,10.238,0.001,14.143
			C412.882,359.023,415.44,360,418,360s5.118-0.976,7.071-2.929l0.093-0.093C429.069,353.073,429.069,346.741,425.164,342.835z"/>
	</g>
</g>
<g>
	<g>
		<path d="M94.313,438H94c-5.522,0-10,4.477-10,10s4.478,10,10,10h0.313c5.522,0,10-4.477,10-10S99.835,438,94.313,438z"/>
	</g>
</g>
<g>
	<g>
		<path d="M256.313,438H256c-5.522,0-10,4.477-10,10s4.478,10,10,10h0.313c5.522,0,10-4.477,10-10S261.835,438,256.313,438z"/>
	</g>
</g>
<g>
	<g>
		<path d="M418.313,438H418c-5.522,0-10,4.477-10,10s4.478,10,10,10h0.313c5.522,0,10-4.477,10-10S423.835,438,418.313,438z"/>
	</g>
</g>
<g>
</g>
<g>
</g>
<g>
</g>
<g>
</g>
<g>
</g>
<g>
</g>
<g>
</g>
<g>
</g>
<g>
</g>
<g>
</g>
<g>
</g>
<g>
</g>
<g>
</g>
<g>
</g>
<g>
</g>
</svg>
