<svg height="512pt" viewBox="-46 0 512 512" width="512pt" xmlns="http://www.w3.org/2000/svg"><path d="m170 326c5.519531 0 10-4.480469 10-10s-4.480469-10-10-10-10 4.480469-10 10 4.480469 10 10 10zm0 0"/><path d="m330 20c5.523438 0 10-4.476562 10-10s-4.476562-10-10-10h-320c-5.523438 0-10 4.476562-10 10s4.476562 10 10 10c28.128906 0 53.175781 38.160156 66.320312 63 24.648438 46.5625 40.632813 106.488281 43.28125 143h-39.601562v-10c0-5.523438-4.476562-10-10-10s-10 4.476562-10 10v80c0 5.523438 4.476562 10 10 10s10-4.476562 10-10v-10h40v76c0 82.710938 67.289062 150 150 150s150-67.289062 150-150v-126c0-63.042969-53.9375-115.855469-120.769531-109.484375-24.617188 2.347656-47.496094 13.335937-65.285157 31.183594 7.398438-25.203125 17.503907-51.601563 29.738282-74.710938 13.144531-24.828125 38.1875-62.988281 66.316406-62.988281zm-210 246h-40v-20h40zm80-30v132.039062c0 43.574219 32.816406 81.605469 75.71875 83.847657 45.945312 2.414062 84.28125-34.027344 84.28125-79.886719 0-13.621094 0-118.675781 0-136 0-33.144531-26.847656-60-60-60-33.085938 0-60 26.914062-60 60v136c0 22.054688 17.945312 40 40 40s40-17.945312 40-40v-96c0-5.523438-4.476562-10-10-10h-50v-20h70c5.515625 0 10 4.484375 10 10v116c0 34.230469-28.558594 61.714844-63.238281 59.914062-31.296875-1.636718-56.761719-30.292968-56.761719-63.875 0-17.617187 0-114.832031 0-127.738281 0-48.300781 35.636719-89.535156 81.128906-93.875 54.671875-5.210937 98.871094 37.902344 98.871094 89.574219v126c0 71.683594-58.316406 130-130 130s-130-58.316406-130-130v-126c0-35.753906-15.261719-100.097656-41.226562-153.011719h142.453124c-25.964843 52.914063-41.226562 117.257813-41.226562 153.011719zm139.066406-8.597656c-2.863281-.910156-5.90625-1.402344-9.066406-1.402344h-68.734375c4.453125-17.234375 20.128906-30 38.734375-30 19.410156 0 35.207031 13.71875 39.066406 31.402344zm-49.066406 101.597656h10v23h-10c-5.523438 0-10 4.476562-10 10s4.476562 9.988281 10 9.988281h10c0 11.03125-8.972656 20.011719-20 20.011719s-20-8.972656-20-20v-86h40v23h-10c-5.523438 0-10 4.476562-10 10s4.476562 10 10 10zm-201.902344-266c-10.589844-18.183594-21.746094-32.589844-33.238281-43h230.28125c-11.492187 10.410156-22.648437 24.816406-33.238281 43zm0 0"/><path d="m170 286c5.523438 0 10-4.476562 10-10v-60c0-5.523438-4.476562-10-10-10s-10 4.476562-10 10v60c0 5.523438 4.476562 10 10 10zm0 0"/></svg>