<?xml version="1.0" encoding="iso-8859-1"?>
<!-- Generator: Adobe Illustrator 19.0.0, SVG Export Plug-In . SVG Version: 6.00 Build 0)  -->
<svg version="1.1" id="Capa_1" xmlns="http://www.w3.org/2000/svg" xmlns:xlink="http://www.w3.org/1999/xlink" x="0px" y="0px"
	 viewBox="0 0 511.999 511.999" style="enable-background:new 0 0 511.999 511.999;" xml:space="preserve">
<g>
	<g>
		<path d="M255.999,406.037c-5.521,0-10.001,4.48-10.001,10.001c0,5.52,4.48,10.001,10.001,10.001S266,421.559,266,416.038
			C266,410.518,261.52,406.037,255.999,406.037z"/>
	</g>
</g>
<g>
	<g>
		<path d="M379.548,18.144C346.395,6.444,302.518,0,255.999,0s-90.396,6.444-123.548,18.145
			C95.509,31.183,75.983,49.115,75.983,70.006c0,0.042,0.004,0.084,0.004,0.126c0.001,0.07,0.004,0.139,0.006,0.209
			c0.024,2.215,0.289,4.445,0.78,6.651l8.897,71.119c7.403,59.344,44.908,109.674,97.846,134.305
			c-0.39,2.167-36.979,205.691-37.368,207.86c-0.963,5.36,2.541,10.508,7.882,11.575c33.831,6.766,67.901,10.148,101.97,10.148
			s68.139-3.383,101.97-10.148c5.341-1.067,8.845-6.214,7.882-11.575c-0.436-2.426-36.989-205.746-37.369-207.859
			c52.618-24.482,90.395-74.679,97.845-134.301l8.899-71.126c0.491-2.209,0.757-4.443,0.78-6.661
			c0.002-0.063,0.005-0.126,0.006-0.189c0-0.045,0.004-0.09,0.004-0.135C436.016,49.115,416.49,31.182,379.548,18.144z
			 M132.889,215.35c-13.016-18.066-21.841-38.672-25.932-60.615c13.764,6.229,30.644,11.511,50.056,15.642L132.889,215.35z
			 M146.687,231.941l27.606-51.464l24.836,86.917c-0.109-0.044-0.219-0.083-0.328-0.128
			C179.569,259.469,161.638,247.507,146.687,231.941z M296.004,253.615l-21.124-73.937c14.793-0.502,29.234-1.588,43.183-3.259
			L296.004,253.615z M309.507,289.908l10.219,56.842c-3.603-1.442-7.875-0.706-10.793,2.211l-12.93,12.93l-12.93-12.93
			c-3.906-3.904-10.237-3.904-14.144,0l-12.93,12.93l-12.93-12.93c-3.906-3.904-10.238-3.904-14.144,0l-12.93,12.93l-12.93-12.93
			c-1.875-1.875-4.419-2.929-7.072-2.929c-1.288,0-2.549,0.253-3.722,0.724l10.22-56.848c17.167,5.639,34.962,8.551,53.503,8.551
			C274.398,298.458,292.215,295.589,309.507,289.908z M281.676,276.269c-16.959,2.902-34.398,2.902-51.353,0l25.676-89.867
			L281.676,276.269z M215.993,253.614l-22.059-77.195c13.945,1.671,28.389,2.757,43.184,3.259L215.993,253.614z M344.413,484.068
			c-58.719,10.57-118.107,10.57-176.828,0l3.962-22.041c28.045,4.624,56.25,6.945,84.452,6.945c28.204,0,56.406-2.32,84.452-6.945
			L344.413,484.068z M329.393,400.512c-12.898,1.914-25.892,3.338-38.759,4.226c-5.511,0.381-9.668,5.156-9.288,10.667
			c0.365,5.275,4.757,9.313,9.968,9.312c0.231,0,0.465-0.008,0.699-0.023c13.585-0.939,27.306-2.451,40.921-4.488l3.979,22.134
			c-53.741,8.829-108.082,8.83-161.825,0l3.976-22.133c13.618,2.036,27.35,3.549,40.951,4.488c0.234,0.016,0.467,0.023,0.699,0.023
			c5.208,0,9.603-4.036,9.967-9.312c0.381-5.51-3.777-10.286-9.288-10.667c-12.88-0.889-25.884-2.313-38.789-4.228l3.715-20.663
			l9.672-9.673l12.93,12.93c3.905,3.904,10.238,3.904,14.144,0l12.93-12.93l12.93,12.93c3.906,3.904,10.237,3.904,14.144,0
			l12.93-12.93l12.93,12.93c1.953,1.952,4.512,2.929,7.072,2.929c2.559,0,5.118-0.977,7.072-2.929l12.93-12.93l9.672,9.672
			L329.393,400.512z M313.176,267.276c-0.102,0.042-0.205,0.079-0.307,0.12l23.138-80.973l16.411,57.433
			C340.528,253.651,327.299,261.55,313.176,267.276z M368.756,228.229l-16.375-57.307c20.511-4.208,38.294-9.683,52.674-16.192
			C399.924,182.144,387.345,207.564,368.756,228.229z M408.374,130.5c-37.035,22.271-103.27,29.033-146.771,29.486
			c-3.73,0.039-7.472,0.039-11.21,0c-43.194-0.45-109.772-7.24-146.767-29.486l-2.972-23.761
			c38.796,25.501,107.729,33.274,155.347,33.274c47.822,0,116.721-7.884,155.347-33.274L408.374,130.5z M415.509,73.432
			c-6.533,22.587-71.746,46.579-159.51,46.579c-87.77,0-152.986-23.996-159.512-46.584l-0.483-3.875
			c0.871-20.845,61.571-49.55,159.995-49.55c98.428,0,159.127,28.707,159.994,49.552L415.509,73.432z"/>
	</g>
</g>
<g>
</g>
<g>
</g>
<g>
</g>
<g>
</g>
<g>
</g>
<g>
</g>
<g>
</g>
<g>
</g>
<g>
</g>
<g>
</g>
<g>
</g>
<g>
</g>
<g>
</g>
<g>
</g>
<g>
</g>
</svg>
