<svg height="512pt" viewBox="-26 0 512 512" width="512pt" xmlns="http://www.w3.org/2000/svg"><path d="m178.386719 97.636719h.269531c5.519531 0 10-4.480469 10-10 0-5.523438-4.480469-10-10-10h-.269531c-5.523438 0-10 4.476562-10 10 0 5.519531 4.476562 10 10 10zm0 0"/><path d="m403.144531 130.597656v-38.703125c15.726563-8.410156 25.882813-24.925781 25.882813-43.070312 0-26.921875-21.902344-48.824219-48.824219-48.824219-26.460937 0-48.359375 21.523438-48.8125 48.023438l-.003906 29.613281h-112.765625c-5.523438 0-10 4.476562-10 10 0 5.519531 4.476562 10 10 10h112.761718v12h-202.761718v-12h21.035156c5.519531 0 10-4.480469 10-10 0-5.523438-4.480469-10-10-10h-21.035156v-28.8125l-.011719-.84375c-.453125-26.457031-22.351563-47.980469-48.8125-47.980469-26.921875 0-48.824219 21.902344-48.824219 48.824219 0 18.144531 10.15625 34.660156 25.882813 43.070312v38.703125c-36.691407 41.890625-56.855469 95.5-56.855469 151.402344 0 61.429688 23.921875 119.183594 67.363281 162.628906.003907.003906.007813.007813.011719.011719 43.441406 43.4375 101.195312 67.359375 162.625 67.359375s119.183594-23.921875 162.625-67.359375c2.921875-2.917969 3.734375-7.460937 2.03125-11.214844-1.597656-3.53125-5.222656-5.867187-9.101562-5.863281h-34.175782v-15.054688c1.570313-1.464843 3.128906-2.949218 4.652344-4.476562 33.664062-33.660156 52.203125-78.421875 52.203125-126.03125 0-47.546875-18.496094-92.261719-52.128906-125.957031-3.046875-3.011719-4.726563-7.027344-4.726563-11.304688v-95.914062l.007813-.5c.265625-15.617188 13.195312-28.324219 28.816406-28.324219 15.894531 0 28.824219 12.929688 28.824219 28.824219 0 12.148437-7.730469 23.070312-19.238282 27.167969-3.984374 1.421874-6.644531 5.191406-6.644531 9.421874v48.992188c0 2.480469.921875 4.875 2.589844 6.714844 34.996094 38.617187 54.265625 88.648437 54.265625 140.878906 0 32.152344-7.480469 64.300781-21.636719 92.972656-2.445312 4.949219-.414062 10.949219 4.539063 13.390625 4.949218 2.449219 10.949218.414063 13.394531-4.539062 15.507813-31.40625 23.703125-66.617188 23.703125-101.824219 0-55.902344-20.164062-109.511719-56.855469-151.402344zm-218.832031 302.972656v-303.933593h35.6875v310.277343c-12.222656-.757812-24.179688-2.890624-35.6875-6.34375zm-75.691406-50.046874c-23.855469-28.425782-36.855469-63.972657-36.855469-101.523438 0-37.566406 13.015625-73.136719 36.855469-101.527344zm20-253.886719h35.6875v296.398437c-12.753906-5.824218-24.746094-13.375-35.6875-22.535156zm111.378906 0h35.6875v303.933593c-11.507812 3.453126-23.464844 5.585938-35.6875 6.34375zm55.6875 0h35.691406v273.863281c-10.941406 9.160156-22.933594 16.710938-35.691406 22.535156zm-221.421875 11.484375c1.667969-1.839844 2.589844-4.234375 2.589844-6.714844v-48.992188c0-4.230468-2.660157-8-6.644531-9.421874-11.507813-4.097657-19.238282-15.019532-19.238282-27.167969 0-15.894531 12.929688-28.824219 28.824219-28.824219 15.621094 0 28.550781 12.707031 28.816406 28.285156l.007813 96.453125c0 4.28125-1.679688 8.292969-4.777344 11.351563-33.582031 33.648437-52.078125 78.363281-52.078125 125.910156 0 47.609375 18.539063 92.367188 52.203125 126.03125 1.523438 1.527344 3.082031 3.011719 4.652344 4.476562v15.054688h-29.96875c-37.851563-39.316406-58.652344-90.839844-58.652344-145.5625 0-52.230469 19.269531-102.261719 54.265625-140.878906zm267.113281 306.441406h17.847656c-36.757812 28.8125-81.792968 44.4375-129.226562 44.4375s-92.46875-15.625-129.226562-44.4375h17.847656c5.523437 0 10-4.476562 10-10v-8.917969c29.566406 20.53125 64.617187 31.589844 101.378906 31.589844s71.8125-11.058594 101.378906-31.589844v8.917969c0 5.523438 4.476563 10 10 10zm46.855469-165.5625c0 37.550781-13 73.101562-36.855469 101.523438v-203.042969c23.855469 28.421875 36.855469 63.972656 36.855469 101.519531zm0 0"/><path d="m418.894531 395.289062c-4.601562-3.050781-10.804687-1.792968-13.859375 2.8125l-.15625.238282c-3.0625 4.59375-1.824218 10.800781 2.773438 13.863281 1.703125 1.140625 3.628906 1.683594 5.535156 1.683594 3.230469 0 6.402344-1.566407 8.332031-4.453125l.1875-.28125c3.050781-4.605469 1.792969-10.808594-2.8125-13.863282zm0 0"/></svg>