<svg height="511pt" viewBox="0 0 511.99913 511" width="511pt" xmlns="http://www.w3.org/2000/svg"><path d="m424.300781 102.351562c3.902344-3.910156 3.902344-10.242187 0-14.152343-3.910156-3.902344-10.242187-3.902344-14.152343 0-3.902344 3.910156-3.902344 10.242187 0 14.152343 3.910156 3.902344 10.242187 3.902344 14.152343 0zm0 0"/><path d="m8.945312 362.105469c-10.519531 10.519531-11.804687 28.03125-3.621093 49.308593 7.171875 18.644532 21.019531 38.808594 38.988281 56.773438 17.964844 17.96875 38.128906 31.816406 56.773438 38.988281 16.6875 6.417969 36.722656 8.964844 49.3125-3.621093.476562-.476563 23.582031-28.117188 90.65625-108.207032 16.152343-4.664062 30.914062-13.375 42.855468-25.316406 16.46875-16.457031 26.605469-38.085938 28.796875-61.21875l189.742188-228.039062c15.191406-15.671876 11.925781-43.941407-7.425781-63.304688-19.355469-19.34375-47.625-22.613281-63.296876-7.417969l-228.039062 189.742188c-23.128906 2.191406-44.761719 12.328125-61.214844 28.792969-11.945312 11.949218-20.65625 26.710937-25.320312 42.859374-81.445313 68.210938-107.71875 90.171876-108.207032 90.660157zm435.894532-336.941407c.234375-.195312.460937-.402343.675781-.617187 7.664063-7.664063 23.863281-4.425781 35.363281 7.070313 11.5 11.503906 14.738282 27.699218 7.074219 35.367187-.214844.214844-.421875.4375-.617187.671875l-176.171876 211.734375c-3.875-19.082031-13.257812-36.808594-27.25-50.804687-13.996093-13.992188-31.726562-23.371094-50.808593-27.246094zm-288.21875 217.5625c31.363281-31.378906 82.144531-30.996093 113.148437.003907 31.019531 31.019531 31.367188 81.800781 0 113.152343-31.480469 31.476563-82.429687 30.722657-113.152343 0-30.851563-30.855468-31.472657-81.679687.003906-113.15625zm-133.769532 133.773438 90.414063-75.707031c.433594 25.679687 10.710937 50.738281 29.207031 69.234375 18.5 18.5 43.554688 28.773437 69.238282 29.207031l-75.710938 90.417969c-4.542969 4.136718-15.101562 3.714844-27.730469-1.148438-16.089843-6.1875-33.78125-18.425781-49.8125-34.460937-16.035156-16.03125-28.273437-33.71875-34.460937-49.808594-4.859375-12.628906-5.285156-23.191406-1.144532-27.734375zm0 0"/><path d="m255.628906 341.742188c23.398438-23.398438 23.398438-61.472657 0-84.871094-23.421875-23.421875-61.449218-23.417969-84.871094 0-23.398437 23.398437-23.398437 61.46875 0 84.871094 23.421876 23.417968 61.449219 23.417968 84.871094 0zm-70.722656-70.726563c15.597656-15.601563 40.976562-15.601563 56.578125 0 15.597656 15.601563 15.597656 40.980469 0 56.578125-15.597656 15.601562-40.980469 15.605469-56.578125 0-15.601562-15.597656-15.601562-40.976562 0-56.578125zm0 0"/><path d="m115.039062 454.046875c3.90625 3.902344 10.238282 3.902344 14.144532 0 3.90625-3.90625 3.90625-10.242187 0-14.148437l-56.582032-56.582032c-3.90625-3.902344-10.238281-3.902344-14.148437 0-3.902344 3.90625-3.902344 10.242188 0 14.148438zm0 0"/><path d="m319.28125 207.363281 76.726562-76.726562c3.90625-3.902344 3.90625-10.238281 0-14.144531-3.90625-3.902344-10.238281-3.902344-14.144531 0l-76.726562 76.726562c-3.90625 3.90625-3.90625 10.238281 0 14.144531s10.238281 3.90625 14.144531 0zm0 0"/></svg>