<svg viewBox="0 -54 512 512" xmlns="http://www.w3.org/2000/svg"><path d="m384 384c-2.628906 0-5.210938 1.070312-7.070312 2.929688-1.859376 1.859374-2.929688 4.441406-2.929688 7.070312s1.070312 5.210938 2.929688 7.070312c1.859374 1.859376 4.441406 2.929688 7.070312 2.929688s5.210938-1.070312 7.070312-2.929688c1.859376-1.859374 2.929688-4.441406 2.929688-7.070312s-1.070312-5.210938-2.929688-7.070312c-1.859374-1.859376-4.441406-2.929688-7.070312-2.929688zm0 0"/><path d="m462 0h-412c-27.570312 0-50 22.429688-50 50v304c0 27.570312 22.429688 50 50 50h289.828125c5.523437 0 10-4.476562 10-10s-4.476563-10-10-10h-289.828125c-16.542969 0-30-13.457031-30-30v-304c0-16.542969 13.457031-30 30-30h412c16.542969 0 30 13.457031 30 30v304c0 16.542969-13.457031 30-30 30h-32.050781c-5.523438 0-10 4.476562-10 10s4.476562 10 10 10h32.050781c27.570312 0 50-22.429688 50-50v-304c0-27.570312-22.429688-50-50-50zm0 0"/><path d="m458 74c0-5.523438-4.476562-10-10-10h-338c-5.523438 0-10 4.476562-10 10s4.476562 10 10 10h338c5.523438 0 10-4.476562 10-10zm0 0"/><path d="m71.070312 81.070312c1.859376-1.859374 2.929688-4.441406 2.929688-7.070312s-1.070312-5.210938-2.929688-7.070312c-1.859374-1.859376-4.441406-2.929688-7.070312-2.929688s-5.210938 1.070312-7.070312 2.929688c-1.859376 1.859374-2.929688 4.441406-2.929688 7.070312s1.070312 5.210938 2.929688 7.070312c1.859374 1.859376 4.441406 2.929688 7.070312 2.929688s5.210938-1.070312 7.070312-2.929688zm0 0"/><path d="m202.667969 340c5.519531 0 10-4.476562 10-10v-73.871094c17.644531 0 32-14.355468 32-32 0-17.648437-14.355469-32-32-32v-54.128906c0-5.523438-4.480469-10-10-10-5.523438 0-10 4.476562-10 10v54.128906c-17.644531 0-32 14.351563-32 32 0 17.644532 14.355469 32 32 32v73.871094c0 5.523438 4.476562 10 10 10zm-22-115.871094c0-6.617187 5.382812-12 12-12h20c6.617187 0 12 5.382813 12 12 0 6.613282-5.382813 12-12 12h-20c-6.617188 0-12-5.386718-12-12zm0 0"/><path d="m96 340c5.523438 0 10-4.476562 10-10v-29.871094c17.644531 0 32-14.355468 32-32 0-17.648437-14.355469-32-32-32v-98.128906c0-5.523438-4.476562-10-10-10s-10 4.476562-10 10v98.128906c-17.644531 0-32 14.351563-32 32 0 17.644532 14.355469 32 32 32v29.871094c0 5.523438 4.476562 10 10 10zm-22-71.871094c0-6.617187 5.382812-12 12-12h20c6.617188 0 12 5.382813 12 12 0 6.613282-5.382812 12-12 12h-20c-6.617188 0-12-5.386718-12-12zm0 0"/><path d="m309.332031 340c5.523438 0 10-4.476562 10-10v-118c17.644531 0 32-14.355469 32-32s-14.355469-32-32-32v-10c0-5.523438-4.476562-10-10-10-5.519531 0-10 4.476562-10 10v10c-17.644531 0-32 14.355469-32 32s14.355469 32 32 32v118c0 5.523438 4.480469 10 10 10zm-22-160c0-6.617188 5.382813-12 12-12h20c6.617188 0 12 5.382812 12 12s-5.382812 12-12 12h-20c-6.617187 0-12-5.382812-12-12zm0 0"/><path d="m426 330v-29.871094c17.644531 0 32-14.355468 32-32 0-17.648437-14.355469-32-32-32v-98.128906c0-5.523438-4.476562-10-10-10s-10 4.476562-10 10v98.128906c-17.644531 0-32 14.351563-32 32 0 17.644532 14.355469 32 32 32v29.871094c0 5.523438 4.476562 10 10 10s10-4.476562 10-10zm-32-61.871094c0-6.617187 5.382812-12 12-12h20c6.617188 0 12 5.382813 12 12 0 6.613282-5.382812 12-12 12h-20c-6.617188 0-12-5.386718-12-12zm0 0"/></svg>