<?xml version="1.0" encoding="iso-8859-1"?>
<!-- Generator: Adobe Illustrator 19.0.0, SVG Export Plug-In . SVG Version: 6.00 Build 0)  -->
<svg version="1.1" id="Layer_1" xmlns="http://www.w3.org/2000/svg" xmlns:xlink="http://www.w3.org/1999/xlink" x="0px" y="0px"
	 viewBox="0 0 512 512" style="enable-background:new 0 0 512 512;" xml:space="preserve">
<g>
	<g>
		<path d="M180.737,354.74c-3.976-3.833-10.306-3.718-14.14,0.259l-0.092,0.095c-3.832,3.976-3.717,10.307,0.26,14.14
			c1.94,1.871,4.441,2.801,6.939,2.801c2.62,0,5.237-1.024,7.2-3.06l0.092-0.095C184.829,364.904,184.714,358.574,180.737,354.74z"
			/>
	</g>
</g>
<g>
	<g>
		<path d="M263.072,359.914c-3.955-3.854-10.285-3.772-14.141,0.184l-0.093,0.095c-3.854,3.956-3.772,10.287,0.184,14.141
			c1.945,1.894,4.462,2.837,6.978,2.837c2.603,0,5.203-1.01,7.163-3.021l0.093-0.095
			C267.11,370.099,267.027,363.768,263.072,359.914z"/>
	</g>
</g>
<g>
	<g>
		<path d="M345.237,354.74c-3.976-3.833-10.306-3.718-14.14,0.259l-0.092,0.095c-3.833,3.976-3.718,10.307,0.259,14.14
			c1.941,1.871,4.442,2.801,6.94,2.801c2.62,0,5.237-1.024,7.2-3.06l0.092-0.095C349.329,364.904,349.214,358.574,345.237,354.74z"
			/>
	</g>
</g>
<g>
	<g>
		<path d="M401.761,305.652l54.856-246.23c0.915-2.347,1.383-4.781,1.383-7.31c0-17.151-20.965-30.086-64.093-39.546
			C356.962,4.463,307.985,0,256.001,0S155.04,4.463,118.094,12.567c-43.128,9.459-64.093,22.395-64.093,39.546
			c0,2.528,0.468,4.962,1.383,7.31l54.856,246.23c0.643,2.884,2.527,5.336,5.149,6.699c0.424,0.22,2.955,1.51,7.572,3.394
			l-12.929,161.549c-0.321,4.007,1.789,7.817,5.356,9.671c1.968,1.021,49.22,25.034,140.613,25.034s138.645-24.013,140.611-25.035
			c3.567-1.854,5.678-5.664,5.356-9.671L389.04,315.745c4.617-1.885,7.148-3.174,7.572-3.394
			C399.234,310.988,401.118,308.537,401.761,305.652z M264.998,221.177c-1.314-4.162-5.175-6.988-9.536-6.988
			c-0.016,0-0.032,0-0.049,0c-4.381,0.021-8.237,2.892-9.516,7.082l-28.829,94.49c-6.613-0.565-12.886-1.253-18.804-2.037
			l56.681-185.771l58.676,185.786c-5.901,0.779-12.156,1.464-18.748,2.026L264.998,221.177z M274.298,317.032
			c-5.88,0.226-11.972,0.354-18.297,0.354c-6.365,0-12.496-0.128-18.41-0.358l18.036-59.114L274.298,317.032z M256.001,337.386
			c52.455,0,90.363-7.91,113.52-14.844l4.426,55.305c-18.396,6.639-58.011,17.683-117.946,17.683s-99.55-11.045-117.946-17.683
			l4.426-55.305C165.638,329.476,203.546,337.386,256.001,337.386z M268.397,104.138c7.362-0.102,14.647-0.292,21.83-0.571
			l36.106,113.392c1.251,3.929,4.785,6.688,8.9,6.946c0.212,0.013,0.422,0.02,0.631,0.02c3.874,0,7.426-2.247,9.07-5.796
			l59.78-129.036c7.868-2.019,14.85-4.18,20.955-6.49l-97.238,211.618L268.397,104.138z M310.877,102.505
			c25.223-1.621,48.755-4.362,69.341-8.111l-42.626,92.007L310.877,102.505z M74.335,52.79l-0.277-0.61
			c-0.012-0.027-0.025-0.054-0.037-0.081c0.828-2.84,11.772-12.343,51.405-20.65C160.651,24.066,207.023,20,256.001,20
			c48.978,0,95.35,4.066,130.575,11.449c39.632,8.306,50.576,17.809,51.405,20.649c-0.069,0.152-0.125,0.311-0.187,0.467
			c-1.717,3.278-13.411,12.288-51.218,20.211c-35.225,7.384-81.597,11.45-130.575,11.45c-48.978,0-95.35-4.066-130.575-11.449
			C88.457,65.028,76.454,56.241,74.335,52.79z M200.874,102.489l-26.72,83.912l-42.649-92.058
			C152.088,98.105,175.631,100.859,200.874,102.489z M107,89.02c0.002,0.005,0.004,0.011,0.006,0.016l59.806,129.093
			c1.645,3.55,5.195,5.796,9.07,5.796c0.209,0,0.42-0.006,0.63-0.02c4.116-0.259,7.65-3.017,8.901-6.946l36.11-113.402
			c6.518,0.255,13.12,0.44,19.788,0.549l-57.838,189.565L88.146,83.272C93.735,85.303,100.012,87.219,107,89.02z M95.697,148.4
			l72.519,160.059c-20.072-4.445-33.341-9.414-39.54-12.025L95.697,148.4z M136.408,398.435c5.401,1.795,12,3.765,19.753,5.712
			l-23.047,35.44L136.408,398.435z M134.915,473.501l33.751-51.899l21.483,65.575C163.92,483.125,145.427,477.393,134.915,473.501z
			 M185.98,410.212c15.217,2.434,32.927,4.321,53.061,5.019l-32.537,57.629L185.98,410.212z M256.001,492
			c-13.144,0-25.318-0.531-36.532-1.425l36.539-64.715l36.597,64.725C281.383,491.473,269.186,492,256.001,492z M272.972,415.23
			c20.165-0.7,37.897-2.592,53.129-5.032l-20.533,62.679L272.972,415.23z M321.919,487.207l21.493-65.605l33.756,51.906
			C366.708,477.409,348.254,483.155,321.919,487.207z M355.906,404.13c7.725-1.941,14.302-3.905,19.688-5.695l3.283,41.016
			L355.906,404.13z M383.325,296.433c-6.196,2.61-19.422,7.563-39.413,11.998l71.317-155.206L383.325,296.433z"/>
	</g>
</g>
<g>
	<g>
		<path d="M355.305,55.998c-0.883-5.452-6.008-9.16-11.469-8.275c-37.042,5.992-93.836,7.567-141.32,3.921
			c-5.528-0.429-10.313,3.699-10.736,9.205s3.699,10.313,9.205,10.736c17.459,1.34,36.166,1.992,54.753,1.992
			c33.479,0,66.57-2.112,91.292-6.111C352.482,66.584,356.187,61.449,355.305,55.998z"/>
	</g>
</g>
<g>
	<g>
		<path d="M168.197,47.727l-0.098-0.016c-5.452-0.869-10.533,2.849-11.405,8.302c-0.873,5.454,2.89,10.591,8.343,11.463
			c0.535,0.085,1.067,0.127,1.593,0.127c4.826,0,9.075-3.503,9.861-8.421C177.363,53.728,173.65,48.6,168.197,47.727z"/>
	</g>
</g>
<g>
</g>
<g>
</g>
<g>
</g>
<g>
</g>
<g>
</g>
<g>
</g>
<g>
</g>
<g>
</g>
<g>
</g>
<g>
</g>
<g>
</g>
<g>
</g>
<g>
</g>
<g>
</g>
<g>
</g>
</svg>
