<svg height="512pt" viewBox="0 -132 512 512" width="512pt" xmlns="http://www.w3.org/2000/svg"><path d="m512 48.027344c0-5.589844-4.53125-10.121094-10.117188-10.121094h-32.648437l-10.363281-25.332031c-3.121094-7.636719-10.476563-12.574219-18.730469-12.574219h-23.5c-12.992187 0-13.011719 20.238281 0 20.238281h23.5l7.226563 17.667969h-382.734376l7.226563-17.667969h265.082031c12.992188 0 13.011719-20.238281 0-20.238281h-265.082031c-8.253906 0-15.609375 4.9375-18.730469 12.574219l-10.363281 25.332031h-32.648437c-5.585938 0-10.117188 4.53125-10.117188 10.121094v37.90625.019531.019531 113.722656c0 5.589844 4.53125 10.121094 10.117188 10.121094h32.648437l10.363281 25.328125c3.121094 7.640625 10.476563 12.578125 18.730469 12.578125h368.28125c8.253906 0 15.609375-4.9375 18.730469-12.578125l10.363281-25.328125h32.648437c5.585938 0 10.117188-4.53125 10.117188-10.121094v-113.722656c0-.007812 0-.011718 0-.019531s0-.011719 0-.019531zm-20.238281 65.734375h-32.367188v-17.671875h32.367188zm-378.929688 0h-45.023437v-17.671875h45.023437zm65.265625 0h-45.027344v-17.671875h45.027344zm65.265625 0h-45.027343v-17.671875h45.027343zm65.265625 0h-45.027344v-17.671875h45.027344zm65.261719 0h-45.023437v-17.671875h45.023437zm65.265625 0h-45.027344v-17.671875h45.027344zm-391.585938 0h-27.332031v-17.671875h27.332031zm20.238282 37.90625v-17.667969h45.023437v17.667969zm65.261718 0v-17.667969h45.027344v17.667969zm65.265626 0v-17.667969h45.027343v17.667969zm65.265624 0v-17.667969h45.027344v17.667969zm65.265626 0v-17.667969h45.023437v17.667969zm65.261718 0v-17.667969h45.027344v17.667969zm-373.890625-17.667969h27.332031v17.667969h-27.332031zm439.15625 17.667969v-17.667969h32.367188v17.667969zm-439.15625-93.523438h471.523438v17.671875h-471.523438zm419.902344 169.339844h-368.28125l-7.226563-17.667969h382.734376zm-419.902344-37.90625v-17.671875h471.523438v17.671875zm0 0"/><path d="m376.910156 20.242188c5.410156 0 10.03125-4.539063 10.101563-9.953126.070312-5.609374-4.53125-10.2499995-10.125-10.2539058-5.585938-.0078124-10.203125 4.7382818-10.089844 10.3203128.113281 5.375 4.742187 9.886719 10.113281 9.886719zm0 0"/></svg>