<?xml version="1.0" encoding="iso-8859-1"?>
<!-- Generator: Adobe Illustrator 19.0.0, SVG Export Plug-In . SVG Version: 6.00 Build 0)  -->
<svg version="1.1" id="Capa_1" xmlns="http://www.w3.org/2000/svg" xmlns:xlink="http://www.w3.org/1999/xlink" x="0px" y="0px"
	 viewBox="0 0 512.001 512.001" style="enable-background:new 0 0 512.001 512.001;" xml:space="preserve">
<g>
	<g>
		<g>
			<polygon points="127.085,274.094 127.085,380.007 150.007,380.007 172.929,380.007 172.929,274.094 150.007,274.094 			"/>
			<polygon points="304.106,274.094 280.312,274.094 280.312,380.007 304.106,380.007 326.156,380.007 326.156,274.094 			"/>
		</g>
	</g>
</g>
<g>
	<g>
		<path d="M412.454,159.895H118.709c-30.741,0-55.751,25.01-55.751,55.751v58.448v203.267c0,19.101,15.539,34.64,34.639,34.64h52.41
			h77.05h77.049h77.05h52.41c19.101,0,34.64-15.539,34.64-34.64V274.094v-58.448C468.206,184.905,443.196,159.895,412.454,159.895z
			 M140.007,492.001h-42.41c-8.072,0-14.639-6.567-14.639-14.64V284.094h34.127v85.644c0,11.176,9.093,20.269,20.269,20.269h2.653
			V492.001z M140.007,370.007h-2.653c-0.148,0-0.269-0.121-0.269-0.269v-85.644h2.922h20h2.923v85.644
			c0,0.148-0.121,0.269-0.27,0.269h-2.653H140.007z M294.106,492.001h-57.049v-78.055c0-5.523-4.478-10-10-10
			c-5.522,0-10,4.477-10,9.999V492h-57.05V390.007h2.653c11.177,0,20.27-9.093,20.27-20.269v-85.644h34.127v43.943
			c0,5.523,4.478,10,10,10c5.522,0,10-4.477,10-10v-43.943h33.255v85.644c0,11.176,9.093,20.269,20.269,20.269h3.525V492.001z
			 M294.106,370.007h-3.525c-0.148,0-0.269-0.121-0.269-0.269v-85.644h3.794h20h2.051v85.644c0,0.148-0.121,0.269-0.27,0.269h-1.781
			H294.106z M433.565,492.001h-42.41V465.49c0-5.523-4.478-10-10-10c-5.522,0-10,4.477-10,10v26.511h-57.05V390.007h1.781
			c11.177,0,20.27-9.093,20.27-20.269v-85.644h34.999v95.488c0,5.523,4.478,10,10,10c5.522,0,10-4.477,10-10v-95.488h57.05v193.267
			h0C448.205,485.433,441.638,492.001,433.565,492.001z M448.205,264.094h-67.05h-54.999h-22.051h-23.794h-53.255H172.93h-22.923
			h-22.922H82.958v-48.448c0-19.713,16.038-35.751,35.751-35.751h293.744c19.714,0,35.752,16.038,35.752,35.751V264.094z"/>
	</g>
</g>
<g>
	<g>
		<path d="M397.411,191.582c-17.362,0-31.487,14.125-31.487,31.487s14.125,31.487,31.487,31.487s31.487-14.125,31.487-31.487
			S414.773,191.582,397.411,191.582z M397.411,234.555c-6.334,0-11.487-5.153-11.487-11.487s5.153-11.487,11.487-11.487
			c6.334,0,11.487,5.153,11.487,11.487S403.745,234.555,397.411,234.555z"/>
	</g>
</g>
<g>
	<g>
		<path d="M326.156,214.142H130.495c-5.522,0-10,4.477-10,10c0,5.523,4.478,10,10,10h195.661c5.522,0,10-4.477,10-10
			C336.156,218.619,331.678,214.142,326.156,214.142z"/>
	</g>
</g>
<g>
	<g>
		<path d="M204.138,98.262v0.001c-0.311-1.166-1.309-4.908-1.509-5.659l-22.717-85.18c-0.697-2.613-2.423-4.833-4.783-6.152
			c-2.361-1.32-5.157-1.628-7.746-0.851L68.509,30.012c-5.179,1.55-8.188,6.934-6.795,12.157L77.859,102.7
			c-7.255-1.558-14.976-1.443-21.966,0.422c-19.811,5.284-32.054,24.107-27.292,41.96c2.378,8.917,8.51,16.171,17.268,20.427
			c5.148,2.502,10.851,3.772,16.676,3.772c3.526,0,7.099-0.466,10.619-1.405c18.889-5.038,36.39-23.948,31.301-43.028
			c-0.533-2.001-2.225-8.345-2.578-9.667L83.539,46.39l79.705-23.854l14.29,53.579c-7.256-1.559-14.975-1.443-21.966,0.422
			c-9.336,2.49-17.324,8.046-22.491,15.646c-5.475,8.052-7.18,17.396-4.802,26.314c3.913,14.667,18.104,24.187,34.029,24.186
			c3.458,0,7-0.449,10.534-1.392c9.125-2.434,17.851-8.061,23.938-15.438C203.847,117.285,206.529,107.228,204.138,98.262z
			 M85.141,130c1.52,5.7-6.515,15.719-17.131,18.551c-4.693,1.252-9.454,0.886-13.399-1.031c-3.453-1.678-5.827-4.375-6.686-7.592
			c-1.919-7.197,3.967-15.04,13.122-17.482c2.095-0.559,4.35-0.834,6.632-0.834c3.289,0,6.634,0.573,9.624,1.697
			C81.516,124.892,84.446,127.394,85.141,130z M181.352,113.123c-3.444,4.174-8.554,7.48-13.667,8.844
			c-9.154,2.441-18.164-1.428-20.085-8.625c-0.858-3.218-0.142-6.739,2.017-9.914c2.467-3.627,6.41-6.314,11.106-7.567
			c2.095-0.559,4.35-0.834,6.632-0.834c3.289,0,6.633,0.573,9.623,1.697c4.213,1.584,7.142,4.086,7.838,6.692
			C185.511,106.023,184.216,109.652,181.352,113.123z"/>
	</g>
</g>
<g>
	<g>
		<path d="M477.582,26.686c-23.694-7.882-37.432-15.601-37.557-15.671c-2.798-1.594-6.19-1.743-9.116-0.403
			c-2.927,1.341-5.029,4.009-5.648,7.168l-12.042,61.455c-5.844-4.562-12.854-7.848-19.929-9.235
			c-9.486-1.858-19.099-0.369-27.077,4.193c-8.452,4.834-14.084,12.484-15.858,21.54c-1.774,9.056,0.554,18.266,6.557,25.932
			c5.665,7.236,14.007,12.244,23.489,14.102c2.806,0.55,5.714,0.82,8.647,0.82c17.13,0,35.116-9.21,38.358-25.755c0,0,0,0,0-0.001
			c0.413-2.105,1.665-8.497,1.924-9.817l13.044-66.565c6.938,3.137,16.684,7.153,28.895,11.215
			c5.236,1.743,10.901-1.091,12.645-6.332C485.658,34.091,482.823,28.43,477.582,26.686z M407.779,106.986
			c-1.137,5.788-12.757,11.268-23.533,9.154c-4.769-0.934-8.884-3.351-11.588-6.805c-2.367-3.023-3.317-6.488-2.677-9.757
			c0.641-3.269,2.828-6.118,6.161-8.024c2.696-1.542,5.851-2.335,9.156-2.335c1.363,0,2.752,0.135,4.144,0.408
			C400.225,91.739,408.913,101.197,407.779,106.986z"/>
	</g>
</g>
<g>
	<g>
		<path d="M388.224,415.46c-0.458-0.459-0.968-0.869-1.518-1.24c-0.54-0.36-1.12-0.67-1.73-0.92c-0.6-0.25-1.229-0.44-1.87-0.57
			c-1.29-0.26-2.619-0.26-3.909,0c-0.631,0.13-1.261,0.32-1.87,0.57c-0.601,0.25-1.181,0.56-1.721,0.92
			c-0.55,0.37-1.06,0.78-1.52,1.24c-1.86,1.87-2.93,4.44-2.93,7.08c0,0.65,0.06,1.3,0.189,1.95c0.13,0.64,0.32,1.27,0.57,1.87
			c0.25,0.6,0.56,1.18,0.92,1.73c0.37,0.54,0.79,1.05,1.25,1.52c0.46,0.46,0.97,0.87,1.52,1.24c0.54,0.36,1.12,0.67,1.721,0.92
			c0.609,0.25,1.239,0.44,1.87,0.57c0.649,0.13,1.31,0.19,1.96,0.19c0.649,0,1.31-0.06,1.949-0.19c0.641-0.13,1.271-0.32,1.87-0.57
			c0.61-0.25,1.19-0.56,1.73-0.92c0.55-0.37,1.06-0.78,1.52-1.24c0.46-0.47,0.88-0.98,1.24-1.52c0.36-0.55,0.67-1.13,0.92-1.73
			c0.25-0.6,0.44-1.23,0.57-1.87c0.13-0.65,0.2-1.3,0.2-1.95C391.155,419.9,390.085,417.33,388.224,415.46z"/>
	</g>
</g>
<g>
	<g>
		<path d="M236.855,369.04c-0.119-0.64-0.319-1.27-0.569-1.87c-0.25-0.61-0.561-1.19-0.92-1.73c-0.36-0.55-0.78-1.06-1.24-1.52
			c-0.46-0.46-0.97-0.88-1.521-1.24c-0.54-0.36-1.119-0.67-1.729-0.92c-0.6-0.25-1.23-0.45-1.87-0.57c-1.29-0.26-2.61-0.26-3.9,0
			c-0.64,0.12-1.27,0.32-1.88,0.57c-0.6,0.25-1.18,0.56-1.72,0.92c-0.55,0.36-1.06,0.78-1.52,1.24c-0.46,0.46-0.881,0.97-1.24,1.52
			c-0.36,0.54-0.67,1.12-0.92,1.73c-0.25,0.6-0.45,1.23-0.58,1.87s-0.19,1.3-0.19,1.95s0.061,1.31,0.19,1.95
			c0.129,0.64,0.33,1.27,0.58,1.88c0.25,0.6,0.56,1.18,0.92,1.72c0.359,0.55,0.78,1.06,1.24,1.52c0.46,0.46,0.97,0.88,1.52,1.25
			c0.54,0.36,1.12,0.67,1.72,0.91c0.61,0.25,1.24,0.45,1.88,0.57c0.641,0.13,1.301,0.2,1.95,0.2c0.65,0,1.311-0.07,1.95-0.2
			c0.64-0.119,1.27-0.32,1.87-0.57c0.61-0.24,1.189-0.55,1.729-0.91c0.551-0.37,1.061-0.79,1.521-1.25
			c0.46-0.46,0.88-0.97,1.24-1.52c0.359-0.54,0.67-1.12,0.92-1.72c0.25-0.61,0.45-1.24,0.569-1.88c0.131-0.64,0.2-1.3,0.2-1.95
			S236.986,369.68,236.855,369.04z"/>
	</g>
</g>
<g>
</g>
<g>
</g>
<g>
</g>
<g>
</g>
<g>
</g>
<g>
</g>
<g>
</g>
<g>
</g>
<g>
</g>
<g>
</g>
<g>
</g>
<g>
</g>
<g>
</g>
<g>
</g>
<g>
</g>
</svg>
