<svg id="Layer_1" enable-background="new 0 0 512 512" height="512" viewBox="0 0 512 512" width="512" xmlns="http://www.w3.org/2000/svg"><path d="m253.34 445.8c-4.867-2.469-10.987-.388-13.409 4.47-2.406 4.827-.331 11.019 4.469 13.41 4.897 2.439 10.972.412 13.42-4.47 2.436-4.857.372-10.995-4.48-13.41z"/><path d="m489.096 138.006c-6.929-32.497-26.369-59.415-54.738-75.794-41.376-23.89-92.362-18.147-131.177 7.981-6.901 4.645-13.416 9.856-19.524 15.502-6.5 6.009-12.609 12.616-18.31 19.748-14.112-56.367-54.483-105.443-118.352-105.443-80.71 0-126.995 79.08-126.995 152 0 45.964 25.569 90.486 52.654 126.058 20.426 26.825 34.273 56.428 32.588 90.833-2.393 48.835-5.688 91.992-5.721 92.423-.003.047-.007.093-.01.14-1.656 26.741 20.75 50.546 47.483 50.546 10.188 0 19.67-3.348 27.446-8.961 1.269.915 2.569 1.792 3.933 2.581 7.219 4.17 15.419 6.38 23.739 6.38 11.14 0 21.969-3.92 30.518-11.03 4.167-3.465 4.74-9.943 1.281-14.09-1.948-2.335-4.812-3.553-7.69-3.562-2.271-.007-4.549.738-6.39 2.281-4.95 4.13-11.23 6.4-17.719 6.4-4.86-.01-9.489-1.25-13.739-3.7-.119-.069-.231-.146-.349-.216 4.608-7.859 7.052-17.062 6.449-26.703-.016-.232-.886-12.74-2.025-31.833 9.642-14.366 23.455-35.155 38.123-57.908 6.88-10.68 12.33-22.25 16.19-34.38l43.496 25.112c-8.209 9.1-15.228 19.209-20.868 30.058-2.97 5.7-6.019 11.61-9.08 17.57-2.482 4.833-.469 10.989 4.33 13.46 4.858 2.502 10.985.51 13.47-4.33 2.92-5.7 5.949-11.57 9.019-17.47 6.669-12.818 15.457-24.297 26.122-34.112 11.509-10.594 24.743-18.851 39.332-24.541 25.406-9.91 49.501-23.699 70.839-40.682 18.746-14.918 33.554-31.289 42.822-47.343 9.798-16.971 16.918-34.444 21.163-51.934 5.495-22.646 6.063-44.529 1.69-65.041zm-64.737-58.474c18.697 10.795 32.358 26.526 40.161 46.046-.181-.057-.363-.112-.543-.168-22.533-7.103-44.11-17.109-64.048-29.79-12.985-8.259-25.252-17.632-36.643-27.979 21.346-2.859 42.54 1.191 61.073 11.891zm-277.364-59.532c21.589 0 41.285 6.792 57.802 19.795-.19.043-.381.087-.571.13-37.974 8.421-77.618 8.577-115.647.408-.141-.03-.281-.063-.422-.093 17.06-13.15 37.438-20.24 58.838-20.24zm-75.861 36.734c.674-.811 13.574 3.235 15.09 3.551 6.04 1.26 12.119 2.328 18.226 3.203 13.105 1.878 26.38 2.943 39.623 2.943.463.002.927.012 1.39.012.109 0 .218-.003.326-.003 13.162-.015 26.321-.945 39.357-2.755 6.386-.887 12.743-1.985 19.056-3.29 1.686-.349 16.518-4.931 17.202-4.081 8.732 10.845 15.649 23.617 20.635 38.104l-14.049 10.218-21.617-15.723c-1.753-1.275-3.817-1.913-5.882-1.913s-4.128.638-5.882 1.913l-21.617 15.722-21.617-15.722c-3.507-2.55-8.256-2.55-11.763 0l-21.617 15.722-21.616-15.722c-3.507-2.55-8.256-2.55-11.763 0l-21.617 15.723-13.406-9.75c5.243-14.436 12.464-27.225 21.541-38.152zm-31.135 95.266c0-12.69 1.256-24.96 3.744-36.639l13.373 9.726c3.508 2.551 8.257 2.55 11.763 0l21.617-15.722 21.617 15.722c3.507 2.55 8.256 2.55 11.763 0l21.617-15.722 21.617 15.722c3.507 2.55 8.256 2.55 11.763 0l21.617-15.722 21.617 15.722c.438.319.896.598 1.368.837.801.406 1.645.689 2.506.865 2.693.551 5.564-.011 7.889-1.702l13.72-9.978c2.258 11.411 3.398 23.43 3.398 35.891 0 12.733-2.615 27.348-7.621 42.819l-9.496-6.906c-.219-.159-.443-.309-.671-.448-3.424-2.092-7.804-1.942-11.092.448l-21.617 15.722-21.617-15.722c-1.753-1.275-3.817-1.913-5.882-1.913-2.064 0-4.128.638-5.882 1.913l-21.617 15.722-21.617-15.722c-3.507-2.55-8.256-2.55-11.763 0l-21.617 15.722-21.616-15.722c-3.506-2.55-8.256-2.55-11.763 0l-9.018 6.559c-5.38-15.188-8.1-29.095-8.1-41.472zm15.93 60.507 7.07-5.142 21.617 15.722c.219.159.443.309.671.448 3.178 1.942 7.178 1.95 10.365.031.247-.149.49-.307.727-.479l21.617-15.722 21.617 15.722c3.507 2.55 8.256 2.55 11.763 0l21.617-15.722 21.617 15.722c3.507 2.55 8.256 2.55 11.763 0l21.617-15.723 8.03 5.84c-7.261 16.755-16.924 33.721-27.805 48.795h-122.602c-11.862-16.089-21.999-32.995-29.684-49.492zm44.736 69.493h92.661c-6.238 9.377-11.339 19.412-15.249 30h-61.947c-3.978-10.591-9.153-20.629-15.465-30zm46.331 210c-15.684.001-28.472-13.593-27.528-29.236.162-2.121 3.391-44.771 5.749-92.895.625-12.758-.439-25.446-3.166-37.869h50.221c-2.562 11.973-3.585 24.191-3.043 36.472 2.193 49.723 5.263 93.864 5.289 94.23.48 7.679-2.157 14.996-7.424 20.603-5.268 5.607-12.406 8.695-20.098 8.695zm83.71-172.047c-.005.022-.007.045-.012.067-3.193 14.574-8.887 28.3-16.933 40.78-7.353 11.409-15.114 23.282-23.173 35.464-.474-9.135-.945-18.792-1.381-28.673-1.514-34.324 11.915-62.839 32.049-89.581 3.243-4.305 6.437-8.791 9.547-13.427.052.421.909 6.928 1.313 9.553 2.357 15.302 1.882 30.717-1.41 45.817zm74.577 28-53.648-30.979c1.85-11.16 2.387-22.439 1.606-33.709l80.246 46.333c-10.089 5.002-19.525 11.142-28.204 18.355zm51.1-28.23-106.178-61.304c-.9-8.019-1.473-16.007-1.752-23.881 4.673-9.224 8.833-18.767 12.266-28.482l8.077 18.166c1.763 3.961 5.875 6.34 10.187 5.882l26.582-2.807 10.861 24.425c1.763 3.961 5.877 6.339 10.187 5.882l26.582-2.807 10.86 24.425c1.762 3.961 5.874 6.338 10.187 5.882l26.582-2.807 4.034 9.073c-14.664 10.878-31.515 20.739-48.475 28.353zm92.541-74.741c-6.367 11.027-15.938 22.376-28.009 33.271l-4.771-10.729c-1.715-3.858-5.99-6.323-10.187-5.882l-26.582 2.807-10.86-24.425c-1.762-3.961-5.873-6.334-10.187-5.882l-26.582 2.807-10.861-24.425c-1.763-3.961-5.875-6.333-10.187-5.882l-26.582 2.807-10.86-24.425c-1.059-2.381-2.97-4.182-5.26-5.146 1.925-9.635 2.993-19.306 2.993-28.878 0-5.942-.296-11.925-.874-17.901 5.22-8.169 10.948-15.731 17.146-22.608l6.719 15.11c1.763 3.962 5.878 6.335 10.187 5.882l26.582-2.807 10.86 24.425c1.763 3.962 5.875 6.334 10.187 5.882l26.583-2.807 10.86 24.425c1.763 3.961 5.877 6.34 10.187 5.882l26.582-2.807 10.86 24.425c1.723 3.874 5.974 6.329 10.187 5.882l16.871-1.781c-3.75 11.01-8.772 21.988-15.002 32.78zm20.54-53.478-17.277 1.824-10.86-24.425c-1.724-3.875-5.973-6.322-10.187-5.882l-26.582 2.807s-10.853-24.409-10.86-24.425c-1.734-3.9-5.948-6.325-10.187-5.882l-26.583 2.807-10.86-24.425c-1.762-3.961-5.872-6.337-10.187-5.882l-26.582 2.807-6.736-15.148c11.759-9.879 24.407-17.343 37.731-22.267 16.371 16.2 34.592 30.471 54.295 42.402 19.874 12.035 41.184 21.704 63.349 28.673 1.136.357 12.704 3.227 12.704 3.699 2.141 13.759 1.746 28.278-1.178 43.317z"/><circle cx="417.581" cy="233.921" r="10"/><circle cx="378.753" cy="211.173" r="10"/><circle cx="339.93" cy="188.425" r="10"/><circle cx="301.106" cy="165.678" r="10"/><circle cx="122.996" cy="157" r="10"/><circle cx="77.998" cy="157" r="10"/><circle cx="212.992" cy="157" r="10"/><circle cx="167.994" cy="157" r="10"/></svg>