<svg viewBox="-66 0 512 512" xmlns="http://www.w3.org/2000/svg"><path d="m205.570312 381.425781c-4.167968-3.625-10.480468-3.191406-14.109374.976563l-.175782.203125c-3.625 4.167969-3.1875 10.484375.980469 14.109375 1.894531 1.648437 4.230469 2.457031 6.558594 2.457031 2.792969 0 5.570312-1.164063 7.546875-3.4375l.179687-.203125c3.625-4.164062 3.183594-10.480469-.980469-14.105469zm0 0"/><path d="m376.140625 138.171875c-6.886719-15.175781-22.421875-23.890625-42.628906-23.921875-.019531 0-.039063 0-.0625 0-4.910157 0-9.878907.84375-14.867188 2.25-4.601562-8.507812-10.066406-14.066406-16.574219-16.878906-11.066406-4.773438-21.90625-.441406-30.617187 3.035156-8.144531 3.253906-13.386719 5.085938-17.535156 3.078125-4.644531-2.246094-7.367188-9.65625-10.246094-17.5-3.902344-10.636719-8.328125-22.695313-20.273437-27.777344-6.378907-2.714843-13.789063-2.859375-22.480469-.429687-15.179688-33.3125-40.910157-62.925782-99.679688-54.023438-1.542969-3.53125-5.0625-6.003906-9.164062-6.003906h-48.132813c-5.523437 0-10 4.476562-10 10v41.03125c0 7.160156 2.226563 13.8125 6.019532 19.300781-5.90625 4.578125-9.71875 11.734375-9.71875 19.765625 0 9.824219 5.699218 18.335938 13.960937 22.421875-.757813 2.382813-1.167969 4.917969-1.167969 7.546875v14.046875c0 5.523438 4.476563 10 10 10 5.519532 0 10-4.476562 10-10v-14.046875c0-2.691406 2.273438-4.96875 4.96875-4.96875h.007813c2.695312.003906 4.96875 2.277344 4.96875 4.96875v225.621094c0 2.695312-2.277344 4.972656-4.972657 4.972656-2.699218 0-4.976562-2.277344-4.976562-4.972656v-142.609375c0-5.523437-4.476562-10-10-10s-10 4.476563-10 10v142.609375c0 2.628906.414062 5.167969 1.171875 7.550781-8.261719 4.082031-13.960937 12.597657-13.960937 22.421875 0 8.03125 3.8125 15.1875 9.71875 19.761719-3.792969 5.492187-6.019532 12.140625-6.019532 19.304687v31.027344h-.757812c-18.261719 0-33.121094 14.859375-33.121094 33.125 0 18.261719 14.859375 33.121094 33.121094 33.121094h120.964844c8.988281 0 17.148437-3.605469 23.121093-9.4375 5.976563 5.832031 14.132813 9.4375 23.125 9.4375 18.265625 0 33.121094-14.859375 33.121094-33.125 0-18.261719-14.855469-33.121094-33.121094-33.121094-8.988281 0-17.148437 3.605469-23.125 9.4375-4.109375-4.011718-9.25-6.96875-14.988281-8.425781 4.753906-5.507813 10.761719-12.460937 18.011719-20.84375 3.613281-4.175781 3.15625-10.492187-1.023438-14.105469-4.175781-3.613281-10.492187-3.152344-14.105469 1.023438-14.410156 16.664062-23.925781 27.699218-28.417968 32.914062h-13.152344l2.628906-3.058594c59.386719-69.078124 120.289063-138.914062 179.183594-206.449218l1.121094-1.28125c19.5-22.363282 32.265625-41.433594 39.03125-58.304688 1.464844-3.648437 6.085937-16.15625 4.140625-23.875-.738281-2.929687-2.761719-5.367187-5.5-6.632812-3.6875-1.707032-8.6875-1.898438-10.667969-1.902344-.007812 0-.015625 0-.023438 0-6.925781 0-17.074218 4.589844-31.1875 11.988281l-1.855468.96875c-16.460938 8.574219-33.480469 17.4375-51.007813 17.4375-9.59375 0-18.425781-2.390625-26.238281-7.105469-9.726562-5.863281-16.824219-14.699218-22.488281-25.035156-.035157-.070312-.074219-.136718-.113281-.203125-6.480469-11.894531-11.078126-25.757812-15.59375-39.375-2.214844-6.667969-4.300782-12.964843-6.621094-19.105469-8.519532-22.546874-17.285156-35.273437-29.316406-42.554687-.742188-.449219-1.5-.871094-2.261719-1.277344-.035157-.019531-.070313-.039062-.109375-.058593-11.433594-6.027344-25.5-7.179688-44.640625-3.667969v-10.148438c28.230469-4.769531 48.472656.128907 63.289062 15.203125 14.589844 14.851563 22.148438 37.503906 29.460938 59.410156 10.488281 31.425782 21.332031 63.921876 54.632812 63.921876 15.105469 0 30.929688-8.246094 46.234375-16.214844 13.386719-6.972656 27.226563-14.183594 37.820313-14.183594h.03125c7.070312.011719 19.648437 1.605469 24.449219 12.1875 3.535156 7.789062 2.546874 19.226562-2.855469 33.074219-6.976563 17.875-20.816407 38.75-41.132813 62.042969-29.257812 33.550781-57.292968 65.753906-83.320312 95.71875l-20.339844 23.4375c-3.621094 4.171874-3.171875 10.488281 1 14.109374 1.894531 1.640626 4.226562 2.445313 6.550781 2.445313 2.796875 0 5.578125-1.167969 7.554688-3.445313l20.335937-23.4375c26.019532-29.945312 54.042969-62.140624 83.292969-95.683593 54.371094-62.34375 55.636719-97.777344 47.125-116.527344zm-295.429687-43.074219h-12.746094c-.007813 0-.015625 0-.019532 0-.007812 0-.011718 0-.019531 0h-12.742187c-2.710938 0-5-2.292968-5-5.003906 0-2.707031 2.289062-5 5-5h25.527344c2.707031 0 5 2.292969 5 5.003906-.003907 2.710938-2.292969 5-5 5zm-26.832032-75.097656h28.132813v28.679688.054687 2.296875c0 7.753906-6.3125 14.0625-14.066407 14.0625-7.753906 0-14.066406-6.308594-14.066406-14.0625zm26.832032 360.660156h-25.527344c-2.710938 0-5-2.292968-5-5 0-2.710937 2.289062-5 5-5h25.527344c2.707031 0 5 2.289063 5 5-.003907 2.710938-2.292969 5-5 5zm-26.832032 34.066406c0-7.753906 6.304688-14.0625 14.058594-14.066406h.019531c7.75.003906 14.054688 6.3125 14.054688 14.066406v31.027344h-28.132813zm146.449219 51.027344c7.238281 0 13.125 5.886719 13.125 13.121094 0 7.238281-5.886719 13.125-13.125 13.125-7.230469 0-13.117187-5.882812-13.121094-13.117188v-.003906c0-.003906 0-.007812 0-.007812.003907-7.234375 5.890625-13.117188 13.121094-13.117188zm-33.121094 13.117188v.003906.007812c-.003906 7.230469-5.890625 13.117188-13.121093 13.117188h-120.964844c-7.234375 0-13.121094-5.886719-13.121094-13.125s5.886719-13.121094 13.121094-13.121094h120.964844c7.234374 0 13.117187 5.882813 13.121093 13.117188zm142.433594-303.925782 1.898437-.992187c7.917969-4.148437 13.136719-6.597656 16.566407-7.996094-.371094 1.144531-.769531 2.261719-1.171875 3.261719-5.917969 14.75-17.542969 31.957031-35.542969 52.597656l-1.121094 1.285156c-12.753906 14.625-25.613281 29.375-38.519531 44.183594v-72.679687c21.476562-.695313 40.785156-10.75 57.890625-19.660157zm-96.816406 9.722657c5.9375 3.578125 12.265625 6.195312 18.925781 7.855469v97.722656c-9.957031 11.433594-19.925781 22.890625-29.914062 34.382812v-148.140625c3.332031 3.003907 6.972656 5.757813 10.988281 8.179688zm-53.195313-93.777344c2.175782 5.757813 4.199219 11.863281 6.347656 18.332031 4.414063 13.316406 9.121094 27.492188 15.859376 40.445313v197.996093c-9.980469 11.507813-19.953126 23.019532-29.910157 34.535157v-308.566407c2.628907 4.753907 5.136719 10.460938 7.703125 17.257813zm-27.703125-35.402344v349.867188c-6.992187 8.109375-29.914062 34.753906-29.914062 34.753906v-25.382813c0-7.164062-2.226563-13.8125-6.019531-19.304687 5.90625-4.578125 9.71875-11.730469 9.71875-19.761719 0-9.824218-5.699219-18.335937-13.960938-22.421875.757812-2.382812 1.171875-4.917969 1.171875-7.550781v-225.621094c0-2.628906-.414063-5.164062-1.171875-7.546875 8.261719-4.085937 13.960938-12.601562 13.960938-22.425781 0-8.03125-3.8125-15.183594-9.714844-19.761719 2.761718-3.996093 4.683594-8.613281 5.527344-13.59375 12.976562-2.777343 22.65625-3.453125 30.402343-1.25zm154.464844 75.207031c-13.171875 6.859376-26.789063 13.953126-36.996094 13.953126-17.980469 0-25.261719-19.097657-35.660156-50.253907-1.683594-5.046875-3.441406-10.304687-5.355469-15.632812 3.023438-.628907 5.460938-.613281 7.128906.097656 3.980469 1.695313 6.699219 9.101563 9.328126 16.265625 3.933593 10.710938 8.386718 22.851562 20.316406 28.617188 12.386718 5.988281 24.183594 1.273437 33.660156-2.511719 6.085938-2.429688 11.835938-4.726563 15.269531-3.246094 1.851563.800781 3.796875 2.835937 5.707031 5.925781-4.492187 2.152344-8.96875 4.476563-13.398437 6.785156zm0 0"/><path d="m52.972656 184.347656c5.519532 0 10-4.480468 10-10v-.273437c0-5.519531-4.480468-10-10-10-5.523437 0-10 4.480469-10 10v.273437c0 5.519532 4.476563 10 10 10zm0 0"/></svg>