<?xml version="1.0" encoding="iso-8859-1"?>
<!-- Generator: Adobe Illustrator 19.0.0, SVG Export Plug-In . SVG Version: 6.00 Build 0)  -->
<svg version="1.1" id="Capa_1" xmlns="http://www.w3.org/2000/svg" xmlns:xlink="http://www.w3.org/1999/xlink" x="0px" y="0px"
	 viewBox="0 0 512 512" style="enable-background:new 0 0 512 512;" xml:space="preserve">
<g>
	<g>
		<path d="M418.359,235.108c-3.9-3.9-10.24-3.9-14.14,0c-3.91,3.91-3.91,10.24,0,14.14c3.901,3.91,10.24,3.91,14.14,0
			C422.269,245.347,422.269,239.018,418.359,235.108z"/>
	</g>
</g>
<g>
	<g>
		<path d="M390.081,206.829c-3.91-3.91-10.24-3.91-14.149,0c-3.9,3.9-3.9,10.23,0,14.14c3.91,3.9,10.239,3.9,14.149,0
			C393.981,217.058,393.981,210.728,390.081,206.829z"/>
	</g>
</g>
<g>
	<g>
		<path d="M390.081,263.397c-3.91-3.91-10.24-3.91-14.149,0c-3.9,3.9-3.9,10.23,0,14.14c3.91,3.9,10.239,3.9,14.149,0
			C393.981,273.626,393.981,267.297,390.081,263.397z"/>
	</g>
</g>
<g>
	<g>
		<path d="M361.792,178.54c-3.9-3.9-10.24-3.9-14.14,0c-3.91,3.91-3.91,10.24,0,14.14c3.9,3.91,10.24,3.91,14.14,0
			C365.702,188.779,365.702,182.449,361.792,178.54z"/>
	</g>
</g>
<g>
	<g>
		<path d="M361.792,235.108c-3.9-3.9-10.24-3.9-14.14,0c-3.91,3.91-3.91,10.24,0,14.14c3.9,3.91,10.24,3.91,14.14,0
			C365.702,245.347,365.702,239.018,361.792,235.108z"/>
	</g>
</g>
<g>
	<g>
		<path d="M361.792,291.676c-3.9-3.91-10.24-3.91-14.14,0c-3.91,3.9-3.91,10.24,0,14.14c3.9,3.91,10.24,3.91,14.14,0
			C365.702,301.915,365.702,295.576,361.792,291.676z"/>
	</g>
</g>
<g>
	<g>
		<path d="M333.513,150.26c-3.91-3.91-10.24-3.91-14.14,0c-3.91,3.9-3.91,10.24,0,14.14c3.9,3.91,10.23,3.91,14.14,0
			C337.413,160.5,337.413,154.16,333.513,150.26z"/>
	</g>
</g>
<g>
	<g>
		<path d="M333.513,206.829c-3.91-3.91-10.24-3.91-14.14,0c-3.91,3.9-3.91,10.23,0,14.14c3.9,3.9,10.23,3.9,14.14,0
			C337.413,217.058,337.413,210.728,333.513,206.829z"/>
	</g>
</g>
<g>
	<g>
		<path d="M333.513,263.397c-3.91-3.91-10.24-3.91-14.14,0c-3.91,3.9-3.91,10.23,0,14.14c3.9,3.9,10.23,3.9,14.14,0
			C337.413,273.626,337.413,267.297,333.513,263.397z"/>
	</g>
</g>
<g>
	<g>
		<path d="M305.224,121.971c-3.9-3.9-10.23-3.9-14.14,0c-3.9,3.91-3.9,10.24,0,14.15c3.91,3.9,10.24,3.9,14.14,0
			C309.134,132.211,309.134,125.881,305.224,121.971z"/>
	</g>
</g>
<g>
	<g>
		<path d="M305.224,178.54c-3.9-3.9-10.23-3.9-14.14,0c-3.9,3.91-3.9,10.24,0,14.14c3.91,3.91,10.24,3.91,14.14,0
			C309.134,188.779,309.134,182.449,305.224,178.54z"/>
	</g>
</g>
<g>
	<g>
		<path d="M305.224,235.108c-3.9-3.9-10.23-3.9-14.14,0c-3.9,3.91-3.9,10.24,0,14.14c3.91,3.91,10.24,3.91,14.14,0
			C309.134,245.347,309.134,239.018,305.224,235.108z"/>
	</g>
</g>
<g>
	<g>
		<path d="M276.945,93.692c-3.91-3.91-10.241-3.91-14.14,0c-3.91,3.9-3.91,10.24,0,14.14c3.9,3.91,10.23,3.91,14.14,0
			C280.845,103.932,280.845,97.592,276.945,93.692z"/>
	</g>
</g>
<g>
	<g>
		<path d="M276.945,150.26c-3.91-3.91-10.241-3.91-14.14,0c-3.91,3.9-3.91,10.24,0,14.14c3.9,3.91,10.23,3.91,14.14,0
			C280.845,160.5,280.845,154.16,276.945,150.26z"/>
	</g>
</g>
<g>
	<g>
		<path d="M276.945,206.829c-3.91-3.91-10.241-3.91-14.14,0c-3.91,3.9-3.91,10.23,0,14.14c3.9,3.9,10.23,3.9,14.14,0
			C280.845,217.058,280.845,210.728,276.945,206.829z"/>
	</g>
</g>
<g>
	<g>
		<path d="M248.656,121.971c-3.9-3.9-10.231-3.9-14.14,0c-3.9,3.91-3.9,10.24,0,14.15c3.91,3.9,10.24,3.9,14.14,0
			C252.566,132.211,252.566,125.881,248.656,121.971z"/>
	</g>
</g>
<g>
	<g>
		<path d="M248.656,178.54c-3.9-3.9-10.231-3.9-14.14,0c-3.9,3.91-3.9,10.24,0,14.14c3.91,3.91,10.24,3.91,14.14,0
			C252.566,188.779,252.566,182.449,248.656,178.54z"/>
	</g>
</g>
<g>
	<g>
		<path d="M220.376,150.26c-3.9-3.91-10.239-3.91-14.14,0c-3.91,3.9-3.91,10.24,0,14.14c3.9,3.91,10.24,3.91,14.14,0
			C224.286,160.5,224.286,154.16,220.376,150.26z"/>
	</g>
</g>
<g>
	<g>
		<path d="M65.721,446.411c-3.91-3.9-10.24-3.9-14.14,0c-3.91,3.91-3.91,10.24,0,14.14c3.9,3.91,10.231,3.91,14.14,0
			C69.621,456.65,69.621,450.321,65.721,446.411z"/>
	</g>
</g>
<g>
	<g>
		<path d="M503.207,206.828L305.216,8.836c-11.585-11.555-30.509-11.865-42.412,0.009c-9.403,9.402-11.1,23.217-5.868,34.146
			L155.533,144.395c-10.95-5.244-24.726-3.529-34.144,5.866c-11.726,11.724-11.727,30.695-0.001,42.421l65.109,65.109
			c-28.098,44.294-68.262,84.246-108.825,110.895l-50.449,33.13C0.074,419.65-7.53,455.095,7.859,481.527
			c22.99,39.53,78.127,40.398,102.46,3.383l33.129-50.437c27.884-42.453,67.971-81.781,110.813-108.919l65.102,65.101
			c11.72,11.75,30.743,11.729,42.43,0.01c9.407-9.405,11.098-23.221,5.868-34.147L469.059,255.12
			c10.998,5.265,24.825,3.479,34.148-5.871C514.93,237.528,514.932,218.554,503.207,206.828z M126.731,423.492l-33.128,50.436
			c-16.247,24.729-52.988,24.138-68.458-2.459c-10.009-17.193-5.219-40.934,13.057-52.939l50.45-33.13
			c42.306-27.794,83.153-68.45,112.321-113.135l38.81,38.81C196.03,339.592,155.302,379.995,126.731,423.492z M347.64,376.531
			c-3.85,3.86-10.188,3.939-14.127-0.01c-41.282-41.282-156.771-156.77-197.983-197.982c-3.926-3.926-3.887-10.251-0.008-14.128
			c3.93-3.922,10.223-3.924,14.155,0L347.65,362.384C351.542,366.277,351.575,372.596,347.64,376.531z M354.722,341.172
			L170.881,157.331l98.994-98.995l183.842,183.842L354.722,341.172z M489.055,235.116c-3.881,3.892-10.221,3.906-14.117,0
			c-0.002-0.002-0.003-0.003-0.005-0.005c-0.002-0.002-0.003-0.003-0.005-0.005L276.945,37.122
			c-0.002-0.002-0.004-0.003-0.005-0.005c-3.907-3.914-3.891-10.234-0.003-14.122c3.949-3.941,10.245-3.902,14.146-0.009
			l197.982,197.982C492.958,224.862,492.991,231.181,489.055,235.116z"/>
	</g>
</g>
<g>
	<g>
		<path d="M110.72,401.411c-3.906-3.904-10.236-3.904-14.143,0L76.579,421.41c-3.905,3.905-3.905,10.237,0,14.143
			c3.908,3.906,10.237,3.905,14.143,0l19.999-19.999C114.625,411.649,114.625,405.317,110.72,401.411z"/>
	</g>
</g>
<g>
</g>
<g>
</g>
<g>
</g>
<g>
</g>
<g>
</g>
<g>
</g>
<g>
</g>
<g>
</g>
<g>
</g>
<g>
</g>
<g>
</g>
<g>
</g>
<g>
</g>
<g>
</g>
<g>
</g>
</svg>
