<?xml version="1.0" encoding="iso-8859-1"?>
<!-- Generator: Adobe Illustrator 19.0.0, SVG Export Plug-In . SVG Version: 6.00 Build 0)  -->
<svg version="1.1" id="Capa_1" xmlns="http://www.w3.org/2000/svg" xmlns:xlink="http://www.w3.org/1999/xlink" x="0px" y="0px"
	 viewBox="0 0 511.999 511.999" style="enable-background:new 0 0 511.999 511.999;" xml:space="preserve">
<g>
	<g>
		<path d="M504.358,376.895L379.547,252.548c6.847-12.95,4.814-29.396-6.09-40.26l-22.718-22.633
			c-6.441-6.418-15.017-9.949-24.152-9.949c-0.021,0-0.044,0-0.066,0c-9.16,0.017-17.748,3.583-24.18,10.04l-22.634,22.718
			c-0.764,0.766-1.483,1.565-2.164,2.389L215.588,89.101c-3.429-6.961-8.924-12.458-15.892-15.897
			c-17.298-8.535-38.313-1.407-46.85,15.896L4.607,389.984C1.592,395.261,0,401.259,0,407.36c0,19.316,15.71,35.031,35.023,35.042
			c0.007,0,0.013,0.001,0.02,0.001H76.48c5.523,0,10-4.477,10-10s-4.477-10-10-10H35.052c-0.003,0-0.006,0-0.01,0
			c-8.294,0-15.043-6.748-15.043-15.043c0-2.677,0.711-5.304,2.056-7.596c0.123-0.21,0.238-0.423,0.346-0.641L170.784,97.944
			c3.656-7.407,12.655-10.46,20.062-6.805c2.983,1.472,5.336,3.824,6.802,6.799l149.178,302.793
			c3.655,7.407,0.602,16.407-6.806,20.063c-2.084,1.028-4.307,1.55-6.608,1.55c-0.007,0-0.014,0-0.02,0
			c-0.351,0-0.7,0.022-1.047,0.059H155.447c-5.523,0-10,4.477-10,10s4.477,10,10,10h177.945c0.43,0,0.85-0.036,1.265-0.089
			c4.951-0.173,9.728-1.372,14.214-3.585c17.296-8.536,24.424-29.551,15.893-46.842l-49.442-100.352
			c3.595,1.254,7.417,1.911,11.345,1.911c0.022,0,0.044,0,0.066,0c5.706-0.011,11.19-1.4,16.069-4.005L467.61,413.782
			c5.072,5.053,11.724,7.578,18.374,7.578c6.683,0,13.365-2.55,18.443-7.647c4.896-4.914,7.585-11.456,7.572-18.423
			C511.985,388.324,509.272,381.791,504.358,376.895z M336.747,269.289c-2.663,2.673-6.233,4.149-10.051,4.156
			c-0.009,0-0.018,0-0.027,0c-3.808,0-7.371-1.462-10.037-4.118l-22.719-22.633c-0.63-0.628-1.188-1.31-1.682-2.031l-1.746-3.545
			c-0.468-1.423-0.724-2.926-0.727-4.474c-0.008-3.818,1.455-7.393,4.117-10.065l22.635-22.719c2.662-2.672,6.23-4.148,10.049-4.155
			c0.009,0,0.019,0,0.027,0c3.808,0,7.372,1.462,10.038,4.118l22.718,22.633c5.556,5.535,5.572,14.559,0.038,20.115L336.747,269.289
			z M490.26,399.595c-2.311,2.318-6.218,2.324-8.534,0.016l-123.754-123.29l8.518-8.549l123.755,123.29
			c1.129,1.125,1.752,2.64,1.756,4.264C492.003,396.95,491.385,398.466,490.26,399.595z"/>
	</g>
</g>
<g>
	<g>
		<path d="M126.363,422.403h-0.475c-5.523,0-10,4.477-10,10s4.477,10,10,10h0.475c5.523,0,10-4.477,10-10
			S131.886,422.403,126.363,422.403z"/>
	</g>
</g>
<g>
	<g>
		<path d="M302.177,377.896l-108.989-221.22c-0.04-0.081-0.089-0.155-0.131-0.235c-0.089-0.169-0.18-0.336-0.279-0.501
			c-0.075-0.125-0.153-0.246-0.233-0.366c-0.1-0.151-0.203-0.3-0.311-0.446c-0.091-0.123-0.186-0.243-0.282-0.361
			c-0.108-0.132-0.219-0.262-0.334-0.389c-0.108-0.119-0.219-0.235-0.332-0.348c-0.115-0.115-0.232-0.227-0.353-0.337
			c-0.126-0.114-0.254-0.223-0.384-0.33c-0.119-0.098-0.241-0.193-0.365-0.286c-0.144-0.107-0.291-0.208-0.44-0.307
			c-0.122-0.081-0.245-0.161-0.372-0.237c-0.162-0.097-0.328-0.188-0.495-0.276c-0.081-0.043-0.156-0.092-0.238-0.133
			c-0.048-0.024-0.099-0.041-0.147-0.063c-0.164-0.077-0.33-0.146-0.498-0.215c-0.145-0.059-0.29-0.12-0.436-0.172
			c-0.147-0.052-0.297-0.096-0.446-0.141c-0.168-0.051-0.336-0.104-0.505-0.145c-0.135-0.033-0.272-0.058-0.408-0.085
			c-0.182-0.037-0.364-0.075-0.546-0.102c-0.141-0.021-0.284-0.031-0.427-0.046c-0.175-0.018-0.35-0.038-0.525-0.046
			c-0.167-0.008-0.334-0.005-0.501-0.004c-0.15,0.001-0.301-0.003-0.451,0.004c-0.19,0.009-0.38,0.031-0.57,0.05
			c-0.128,0.014-0.256,0.023-0.383,0.041c-0.194,0.028-0.386,0.068-0.579,0.108c-0.126,0.026-0.252,0.048-0.376,0.079
			c-0.178,0.044-0.353,0.098-0.53,0.152c-0.141,0.043-0.283,0.084-0.422,0.133c-0.152,0.054-0.302,0.117-0.453,0.178
			c-0.163,0.066-0.324,0.134-0.483,0.209c-0.05,0.024-0.102,0.041-0.152,0.065c-0.085,0.042-0.162,0.093-0.245,0.136
			c-0.163,0.086-0.325,0.174-0.483,0.269c-0.131,0.078-0.257,0.16-0.383,0.244c-0.145,0.096-0.289,0.195-0.429,0.3
			c-0.128,0.095-0.253,0.193-0.376,0.294c-0.127,0.104-0.252,0.211-0.374,0.322c-0.124,0.112-0.244,0.227-0.362,0.345
			c-0.111,0.111-0.219,0.223-0.324,0.34c-0.118,0.13-0.231,0.262-0.341,0.397c-0.095,0.116-0.187,0.233-0.277,0.354
			c-0.11,0.148-0.214,0.298-0.315,0.451c-0.078,0.119-0.156,0.238-0.23,0.361c-0.1,0.166-0.192,0.335-0.282,0.506
			c-0.042,0.079-0.09,0.152-0.13,0.232L119.47,269.89c-2.441,4.954-0.403,10.949,4.551,13.39c1.421,0.7,2.928,1.032,4.412,1.032
			c3.689,0,7.237-2.049,8.978-5.582l46.807-95.007l92.916,188.595H91.301l11.21-22.752c2.441-4.954,0.403-10.949-4.551-13.39
			c-4.954-2.439-10.949-0.404-13.39,4.551l-18.314,37.172c-0.032,0.065-0.054,0.131-0.085,0.196
			c-0.09,0.192-0.174,0.386-0.252,0.584c-0.048,0.123-0.092,0.246-0.136,0.37c-0.062,0.179-0.12,0.36-0.172,0.543
			c-0.043,0.151-0.081,0.303-0.117,0.455c-0.036,0.156-0.07,0.314-0.099,0.473c-0.034,0.183-0.061,0.366-0.084,0.55
			c-0.017,0.135-0.032,0.269-0.044,0.405c-0.017,0.207-0.027,0.414-0.031,0.621c-0.002,0.075-0.011,0.147-0.011,0.222
			c0,0.053,0.007,0.103,0.008,0.156c0.005,0.2,0.016,0.4,0.032,0.599c0.011,0.142,0.021,0.284,0.038,0.424
			c0.02,0.166,0.047,0.331,0.076,0.495c0.028,0.169,0.057,0.337,0.094,0.503c0.029,0.132,0.066,0.261,0.101,0.392
			c0.05,0.189,0.101,0.377,0.161,0.561c0.037,0.112,0.081,0.221,0.121,0.332c0.071,0.191,0.142,0.382,0.224,0.568
			c0.05,0.114,0.108,0.225,0.162,0.337c0.084,0.172,0.167,0.344,0.26,0.51c0.074,0.133,0.157,0.261,0.237,0.39
			c0.086,0.137,0.169,0.276,0.26,0.408c0.103,0.149,0.215,0.292,0.326,0.436c0.082,0.106,0.162,0.214,0.248,0.317
			c0.125,0.149,0.259,0.291,0.393,0.433c0.087,0.092,0.171,0.185,0.261,0.274c0.134,0.131,0.275,0.255,0.417,0.379
			c0.106,0.093,0.211,0.187,0.321,0.276c0.128,0.103,0.262,0.199,0.396,0.296c0.14,0.102,0.28,0.202,0.425,0.296
			c0.114,0.074,0.233,0.143,0.351,0.213c0.177,0.105,0.355,0.206,0.539,0.3c0.045,0.023,0.086,0.051,0.131,0.073
			c0.055,0.027,0.112,0.045,0.167,0.071c0.24,0.113,0.485,0.216,0.735,0.31c0.105,0.04,0.21,0.08,0.315,0.116
			c0.234,0.079,0.472,0.146,0.713,0.208c0.119,0.031,0.236,0.065,0.355,0.091c0.222,0.048,0.448,0.082,0.675,0.116
			c0.134,0.02,0.267,0.047,0.401,0.061c0.213,0.022,0.43,0.027,0.646,0.036c0.135,0.005,0.27,0.023,0.405,0.023
			c0.009,0,0.019-0.002,0.028-0.002h217.96c3.455,0,6.666-1.784,8.491-4.718C303.523,384.664,303.704,380.996,302.177,377.896z"/>
	</g>
</g>
<g>
	<g>
		<path d="M111.019,309.658c-4.957-2.439-10.95-0.398-13.387,4.558l-0.21,0.426c-2.438,4.955-0.398,10.949,4.558,13.387
			c1.42,0.699,2.925,1.029,4.407,1.029c3.691,0,7.241-2.052,8.98-5.587l0.21-0.426C118.015,318.089,115.974,312.096,111.019,309.658
			z"/>
	</g>
</g>
<g>
</g>
<g>
</g>
<g>
</g>
<g>
</g>
<g>
</g>
<g>
</g>
<g>
</g>
<g>
</g>
<g>
</g>
<g>
</g>
<g>
</g>
<g>
</g>
<g>
</g>
<g>
</g>
<g>
</g>
</svg>
