<svg height="512pt" viewBox="0 0 512 511" width="512pt" xmlns="http://www.w3.org/2000/svg"><path d="m216 472.476562c5.519531 0 10-4.476562 10-10 0-5.519531-4.480469-10-10-10s-10 4.480469-10 10c0 5.523438 4.480469 10 10 10zm0 0"/><path d="m502 252.476562h-10v-42c0-12.367187-7.636719-22.957031-17.671875-27.34375l-379.503906-179.769531c-14.949219-7.042969-32.867188-.640625-39.945313 14.289063-7.0625 14.9375-.660156 32.851562 14.28125 39.933594l44.527344 21.089843-69.359375 102.347657c-13.839844 2.660156-24.328125 14.851562-24.328125 29.453124v42h-10c-5.523438 0-10 4.480469-10 10v80c0 5.523438 4.476562 10 10 10h10v130c0 16.542969 13.457031 30 30 30s30-13.457031 30-30v-130h352v130c0 16.542969 13.457031 30 30 30s30-13.457031 30-30v-130h10c5.523438 0 10-4.476562 10-10v-80c0-5.519531-4.476562-10-10-10zm-194 40v-20h62v20zm-84 0v-20h64v20zm-82 0v-20h62v20zm-82 0v-20h62v20zm330-20h62v20h-62zm-317.042969-246.265624c2.359375-4.976563 8.347657-7.109376 13.320313-4.765626l335.730468 159.03125h-46.6875c-.304687-.140624-297.105468-140.730468-297.597656-140.964843-4.980468-2.359375-7.117187-8.332031-4.765625-13.300781zm255.644531 154.265624h-259.746093l63.121093-93.140624zm-288.601562 30c0-5.507812 4.476562-9.988281 9.984375-9.996093h.007813c.003906 0 .011718-.003907.015624-.003907h411.992188c5.527344 0 10 4.523438 10 10v42h-432zm20 272c0 5.515626-4.484375 10-10 10s-10-4.484374-10-10v-130h20zm412 0c0 5.515626-4.484375 10-10 10s-10-4.484374-10-10v-130h20zm20-150c-14.605469 0-470.078125 0-472 0v-60h20v30c0 5.523438 4.476562 10 10 10h412c5.523438 0 10-4.476562 10-10v-30h20zm0 0"/><path d="m176 512.476562h160c5.523438 0 10-4.476562 10-10v-71.703124c11.390625-4.015626 20-14.964844 20-28.296876 0-16.539062-13.457031-30-30-30h-160c-16.574219 0-30 13.425782-30 30 0 13.039063 8.359375 24.152344 20 28.28125v71.71875c0 5.523438 4.476562 10 10 10zm150-20h-140v-60h140zm-150-100h160c5.515625 0 10 4.488282 10 10 0 5.523438-4.480469 10-10 10h-160c-5.515625 0-10-4.484374-10-10 0-5.519531 4.480469-10 10-10zm0 0"/><path d="m256 472.476562h40c5.523438 0 10-4.476562 10-10 0-5.519531-4.476562-10-10-10h-40c-5.523438 0-10 4.480469-10 10 0 5.523438 4.476562 10 10 10zm0 0"/></svg>