<svg height="682.66535pt" viewBox="-21 -21 682.66535 682.66535" width="682.66535pt" xmlns="http://www.w3.org/2000/svg"><path d="m616.664062 111.816406h-56.601562c-12.867188 0-23.335938 10.46875-23.335938 23.335938v6.371094l-30.914062-5.527344v-28.800782c0-12.863281-10.460938-23.332031-23.328125-23.332031h-56.605469c-12.867187 0-23.335937 10.46875-23.335937 23.332031v10.332032l-30.90625-5.527344v-32.757812c0-12.867188-10.46875-23.335938-23.335938-23.335938h-56.605469c-12.867187 0-23.332031 10.46875-23.332031 23.335938v14.296874l-30.90625-5.527343v-36.722657c0-12.867187-10.46875-23.335937-23.335937-23.335937h-56.605469c-12.867187 0-23.335937 10.46875-23.335937 23.335937v18.257813l-30.910157-5.527344v-40.683593c0-12.867188-10.46875-23.335938-23.332031-23.335938h-56.601562c-12.867188 0-23.335938 10.46875-23.335938 23.335938v425.605468c0 12.863282 10.46875 23.332032 23.335938 23.332032h56.601562c12.863281 0 23.332031-10.46875 23.332031-23.332032v-40.691406l30.914063-5.527344v18.261719c0 12.867187 10.464844 23.332031 23.332031 23.332031h56.605469c12.867187 0 23.335937-10.464844 23.335937-23.332031v-36.722656l30.90625-5.527344v14.292969c0 12.867187 10.46875 23.335937 23.335938 23.335937h56.605469c12.867187 0 23.332031-10.46875 23.332031-23.335937v-32.757813l30.90625-5.527343v10.332031c0 12.863281 10.46875 23.332031 23.335937 23.332031h56.605469c12.867187 0 23.335937-10.46875 23.335937-23.332031v-28.800781l30.90625-5.527344v6.371094c0 12.867187 10.46875 23.335937 23.335938 23.335937h56.605469c12.867187 0 23.332031-10.46875 23.332031-23.335937v-201.964844c0-12.867188-10.46875-23.335938-23.335938-23.335938zm-513.394531 271.042969v-96.722656c0-6.902344-5.59375-12.5-12.5-12.5-6.898437 0-12.5 5.597656-12.5 12.5v161.136719h-53.269531v-422.273438h53.269531v161.136719c0 6.898437 5.601563 12.5 12.5 12.5 6.90625 0 12.5-5.601563 12.5-12.5v-96.722657l30.914063 5.527344v282.390625zm55.914063 36.457031v-31.125c0-.097656 0-.195312 0-.292968v-303.523438c0-.097656 0-.195312 0-.292969v-31.128906h53.273437v366.367187h-53.273437zm78.273437-60.449218v-245.460938l30.90625 5.527344v234.40625zm109.179688 32.496093h-53.273438v-310.457031h53.273438zm25-56.492187v-197.46875l30.90625 5.523437v186.417969zm109.179687 28.535156h-53.273437v-23.195312c.003906-.097657 0-.203126 0-.300782v-207.550781c0-.097656.003906-.195313 0-.292969v-23.203125h53.273437zm24.996094-52.527344v-149.488281l30.914062 5.527344v138.433593zm109.1875 24.574219h-53.273438v-198.636719h53.273438zm0 0"/><path d="m51.636719 54.988281c-3.289063 0-6.511719 1.335938-8.835938 3.664063-2.324219 2.308594-3.664062 5.535156-3.664062 8.824218 0 3.300782 1.335937 6.511719 3.664062 8.847657 2.324219 2.328125 5.546875 3.664062 8.835938 3.664062 3.289062 0 6.511719-1.335937 8.835937-3.664062 2.324219-2.320313 3.664063-5.546875 3.664063-8.847657 0-3.289062-1.335938-6.515624-3.664063-8.824218-2.324218-2.328125-5.550781-3.664063-8.835937-3.664063zm0 0"/><path d="m588.359375 175.953125c3.289063 0 6.511719-1.328125 8.835937-3.664063 2.324219-2.328124 3.664063-5.550781 3.664063-8.835937 0-3.292969-1.335937-6.503906-3.664063-8.839844-2.324218-2.324219-5.546874-3.660156-8.835937-3.660156s-6.511719 1.335937-8.835937 3.660156c-2.324219 2.335938-3.664063 5.546875-3.664063 8.839844 0 3.285156 1.335937 6.507813 3.664063 8.835937 2.324218 2.335938 5.546874 3.664063 8.835937 3.664063zm0 0"/><path d="m454.1875 151.5c3.289062 0 6.5-1.339844 8.839844-3.664062 2.320312-2.339844 3.660156-5.546876 3.660156-8.835938 0-3.300781-1.335938-6.511719-3.660156-8.847656-2.339844-2.324219-5.550782-3.652344-8.839844-3.652344s-6.511719 1.328125-8.851562 3.652344c-2.324219 2.335937-3.648438 5.546875-3.648438 8.847656 0 3.289062 1.324219 6.496094 3.648438 8.835938 2.339843 2.324218 5.5625 3.664062 8.851562 3.664062zm0 0"/><path d="m320 127.738281c3.285156 0 6.511719-1.335937 8.835938-3.667969 2.324218-2.332031 3.664062-5.546874 3.664062-8.832031 0-3.300781-1.339844-6.511719-3.664062-8.851562-2.324219-2.324219-5.550782-3.648438-8.835938-3.648438-3.300781 0-6.515625 1.324219-8.839844 3.648438-2.324218 2.339843-3.660156 5.550781-3.660156 8.851562 0 3.285157 1.335938 6.507813 3.660156 8.832031 2.324219 2.332032 5.554688 3.667969 8.839844 3.667969zm0 0"/><path d="m185.808594 79.199219c-3.285156 0-6.511719 1.335937-8.835938 3.660156-2.324218 2.324219-3.664062 5.554687-3.664062 8.839844 0 3.300781 1.339844 6.511719 3.664062 8.851562 2.324219 2.324219 5.550782 3.648438 8.835938 3.648438 3.300781 0 6.515625-1.324219 8.839844-3.648438 2.339843-2.339843 3.660156-5.5625 3.660156-8.851562 0-3.285157-1.320313-6.5-3.660156-8.839844-2.324219-2.324219-5.539063-3.660156-8.839844-3.660156zm0 0"/><path d="m51.636719 392.289062c-3.289063 0-6.511719 1.332032-8.835938 3.664063-2.324219 2.324219-3.664062 5.546875-3.664062 8.835937 0 3.285157 1.335937 6.507813 3.664062 8.832032 2.324219 2.339844 5.546875 3.667968 8.835938 3.667968 3.289062 0 6.511719-1.328124 8.835937-3.667968 2.324219-2.324219 3.664063-5.546875 3.664063-8.832032 0-3.289062-1.335938-6.511718-3.664063-8.835937-2.324218-2.324219-5.550781-3.664063-8.835937-3.664063zm0 0"/><path d="m588.359375 321.3125c3.289063 0 6.511719-1.324219 8.835937-3.652344 2.324219-2.332031 3.664063-5.5625 3.664063-8.847656s-1.335937-6.5-3.664063-8.835938c-2.324218-2.324218-5.546874-3.664062-8.835937-3.664062s-6.511719 1.339844-8.835937 3.664062c-2.324219 2.335938-3.664063 5.550782-3.664063 8.835938s1.335937 6.515625 3.664063 8.847656c2.324218 2.328125 5.546874 3.652344 8.835937 3.652344zm0 0"/><path d="m454.1875 345.777344c3.289062 0 6.511719-1.339844 8.839844-3.664063 2.320312-2.324219 3.660156-5.550781 3.660156-8.835937 0-3.289063-1.335938-6.515625-3.660156-8.839844-2.339844-2.324219-5.550782-3.660156-8.839844-3.660156s-6.511719 1.335937-8.851562 3.660156c-2.324219 2.324219-3.648438 5.550781-3.648438 8.839844 0 3.285156 1.324219 6.511718 3.648438 8.835937 2.339843 2.324219 5.550781 3.664063 8.851562 3.664063zm0 0"/><path d="m320 369.535156c3.285156 0 6.511719-1.335937 8.835938-3.660156 2.324218-2.324219 3.664062-5.546875 3.664062-8.839844 0-3.285156-1.339844-6.507812-3.664062-8.835937-2.324219-2.320313-5.550782-3.664063-8.835938-3.664063s-6.515625 1.339844-8.839844 3.664063c-2.324218 2.328125-3.660156 5.550781-3.660156 8.835937 0 3.292969 1.335938 6.515625 3.660156 8.839844 2.324219 2.324219 5.554688 3.660156 8.839844 3.660156zm0 0"/><path d="m185.808594 368.0625c-3.285156 0-6.511719 1.335938-8.835938 3.660156-2.324218 2.328125-3.664062 5.550782-3.664062 8.839844 0 3.300781 1.339844 6.527344 3.664062 8.835938 2.324219 2.339843 5.550782 3.664062 8.835938 3.664062 3.300781 0 6.515625-1.324219 8.839844-3.664062 2.339843-2.324219 3.660156-5.535157 3.660156-8.835938 0-3.289062-1.320313-6.511719-3.660156-8.839844-2.324219-2.324218-5.539063-3.660156-8.839844-3.660156zm0 0"/><path d="m587.5 535c-24.644531 0-45.363281 17.070312-50.988281 40h-350.695313c-6.902344 0-12.5 5.59375-12.5 12.5 0 6.902344 5.597656 12.5 12.5 12.5h350.695313c5.625 22.929688 26.34375 40 50.988281 40 28.949219 0 52.5-23.550781 52.5-52.5 0-28.953125-23.550781-52.5-52.5-52.5zm0 80c-15.167969 0-27.5-12.335938-27.5-27.5s12.332031-27.5 27.5-27.5c15.164062 0 27.5 12.335938 27.5 27.5s-12.335938 27.5-27.5 27.5zm0 0"/><path d="m454.867188 520.964844c4.488281 0 9.042968-.582032 13.574218-1.796875 27.964844-7.488281 44.613282-36.335938 37.125-64.296875-7.492187-27.957032-36.332031-44.617188-64.296875-37.121094-23.804687 6.375-39.398437 28.226562-38.898437 51.828125l-338.742188 90.773437c-6.671875 1.785157-10.632812 8.636719-8.84375 15.304688 1.5 5.585938 6.546875 9.269531 12.070313 9.269531 1.070312 0 2.15625-.136719 3.242187-.429687l338.746094-90.765625c9.203125 16.75 26.960938 27.234375 46.023438 27.234375zm-7.128907-79.066406c2.375-.640626 4.761719-.941407 7.109375-.941407 12.144532 0 23.28125 8.113281 26.574219 20.386719 3.917969 14.648438-4.800781 29.753906-19.449219 33.679688-14.648437 3.921874-29.757812-4.800782-33.683594-19.449219-3.917968-14.640625 4.800782-29.753907 19.449219-33.675781zm0 0"/><path d="m99.609375 227.300781c-2.324219-2.324219-5.546875-3.664062-8.832031-3.664062-3.300782 0-6.515625 1.339843-8.839844 3.664062-2.324219 2.328125-3.660156 5.535157-3.660156 8.835938 0 3.285156 1.332031 6.515625 3.660156 8.839843 2.324219 2.324219 5.539062 3.660157 8.839844 3.660157 3.285156 0 6.507812-1.335938 8.832031-3.660157 2.328125-2.324218 3.667969-5.554687 3.667969-8.839843 0-3.285157-1.339844-6.511719-3.667969-8.835938zm0 0"/></svg>