<?xml version="1.0" encoding="iso-8859-1"?>
<!-- Generator: Adobe Illustrator 19.0.0, SVG Export Plug-In . SVG Version: 6.00 Build 0)  -->
<svg version="1.1" id="Capa_1" xmlns="http://www.w3.org/2000/svg" xmlns:xlink="http://www.w3.org/1999/xlink" x="0px" y="0px"
	 viewBox="0 0 512.001 512.001" style="enable-background:new 0 0 512.001 512.001;" xml:space="preserve">
<g>
	<g>
		<path d="M403.438,102.789c-3.91-3.9-10.241-3.9-14.141,0c-3.91,3.91-3.91,10.241,0,14.141c3.9,3.91,10.231,3.91,14.141,0
			C407.339,113.03,407.339,106.7,403.438,102.789z"/>
	</g>
</g>
<g>
	<g>
		<g>
			<path d="M497.433,140.221L366.008,8.793c-11.723-11.723-30.7-11.727-42.424,0c-10.838,10.838-11.63,27.813-2.525,39.548
				l3.177,28.651c5.977,53.732-22.145,84.466-62.173,124.602l-7.079-7.079c-9.41-9.389-23.194-11.103-34.14-5.857l-15.348-15.343
				l7.071-7.069c3.907-3.903,3.909-10.236,0.005-14.143c-3.905-3.907-10.237-3.908-14.143-0.005
				c-9.453,9.451-17.76,17.754-28.294,28.284c-3.905,3.905-3.905,10.238,0,14.144c3.906,3.905,10.238,3.904,14.143,0l7.072-7.069
				l15.349,15.344c-5.227,10.924-3.542,24.746,5.868,34.158l7.068,7.068l-14.144,14.144l-7.064-7.064
				c-9.412-9.438-23.26-11.101-34.164-5.88l-15.342-15.337l7.071-7.069c3.907-3.903,3.909-10.236,0.005-14.143
				c-3.904-3.906-10.237-3.909-14.143-0.005c-9.555,9.552-17.831,17.824-28.293,28.283c-3.905,3.905-3.906,10.237,0,14.144
				c3.906,3.905,10.238,3.905,14.143,0l7.072-7.069l15.362,15.356c-5.311,11.151-3.363,24.924,5.856,34.146l7.068,7.068
				l-14.143,14.143l-7.084-7.083c-9.413-9.388-23.195-11.098-34.138-5.855l-15.35-15.35l7.077-7.077
				c3.904-3.906,3.901-10.239-0.005-14.144c-3.907-3.902-10.24-3.9-14.143,0.006l-28.287,28.289
				c-3.907,3.904-3.909,10.237-0.005,14.144c3.903,3.905,10.234,3.911,14.143,0.006l7.077-7.077l15.361,15.361
				c-5.307,11.148-3.36,24.92,5.854,34.146l7.069,7.069l-57.774,57.774c-10.921-5.23-24.734-3.547-34.15,5.868
				C2.844,432.54,2.841,451.513,14.567,463.24l28.282,28.292c11.723,11.723,30.71,11.727,42.434,0
				c9.432-9.432,11.082-23.265,5.867-34.159l16.141-16.142c-0.204,18.215,6.606,36.49,20.413,50.302
				c27.297,27.286,71.71,27.295,99.005-0.001l7.069-7.069l7.069,7.069c11.723,11.723,30.71,11.727,42.434,0
				c11.722-11.722,11.73-30.705-0.002-42.437l-7.07-7.07l14.141-14.136l7.071,7.071c11.689,11.689,30.722,11.702,42.42,0.004
				c11.734-11.72,11.745-30.712,0.004-42.439l-7.068-7.068l14.146-14.141l7.07,7.07c11.696,11.695,30.727,11.697,42.423,0
				c11.721-11.721,11.728-30.696,0.003-42.422l-7.074-7.079l7.071-7.072c27.356-27.356,27.359-71.637,0-98.997
				c-12.553-12.553-28.721-19.367-45.201-20.383c21.88-15.314,45.807-24.018,78.02-20.438l28.648,3.177
				c11.729,9.097,28.706,8.317,39.548-2.525C509.158,170.921,509.159,151.948,497.433,140.221z M233.78,258.17l14.14,14.14
				l-14.141,14.147l-14.143-14.143L233.78,258.17z M177.206,314.744l14.147,14.147l-14.144,14.14l-14.145-14.145L177.206,314.744z
				 M205.497,343.033l14.14,14.14l-14.141,14.141l-14.143-14.142L205.497,343.033z M71.14,477.387
				c-3.906,3.906-10.239,3.909-14.147,0.001L28.71,449.096c-3.907-3.908-3.908-10.228,0-14.139
				c3.91-3.909,10.225-3.911,14.137-0.001c0.001,0.001,0.002,0.002,0.003,0.003l28.286,28.274c0.002,0.002,0.003,0.003,0.005,0.005
				C75.048,467.148,75.049,473.479,71.14,477.387z M78.21,442.026l-14.146-14.141l56.57-56.57l14.138,14.138l-7.094,7.095
				c-0.149,0.149-0.297,0.3-0.446,0.456L78.21,442.026z M212.567,477.387c-19.494,19.495-51.22,19.493-70.72,0.002
				c-19.315-19.323-19.46-50.888-0.333-70.382l7.408-7.403l14.141,14.141l-7.065,7.065c-11.714,11.699-11.725,30.722-0.004,42.428
				c11.707,11.707,30.717,11.724,42.424,0l7.069-7.069l14.149,14.149L212.567,477.387z M170.137,434.958l7.069-7.069l14.139,14.139
				l-7.073,7.073c-3.884,3.889-10.231,3.899-14.139-0.009C166.252,445.215,166.229,438.862,170.137,434.958z M269.14,477.387
				c-3.908,3.908-10.24,3.908-14.148,0c-48.435-48.435-111.584-111.584-141.423-141.422c-3.9-3.905-3.902-10.255-0.014-14.144
				c3.944-3.935,10.24-3.908,14.151-0.008c25.407,25.407,102.19,102.191,127.284,127.285c11.449,11.441,13.919,13.909,14.133,14.122
				c-0.152-0.152-1.297-1.296,0.018,0.017C273.049,467.148,273.049,473.479,269.14,477.387z M219.639,385.456l14.141-14.141
				l14.14,14.14l-14.138,14.143L219.639,385.456z M262.067,427.882l-14.142-14.141l14.137-14.142l14.147,14.147L262.067,427.882z
				 M325.704,420.815c-3.898,3.897-10.242,3.899-14.139,0C290.3,399.55,188.817,298.069,170.138,279.389
				c-3.9-3.901-3.9-10.249,0.009-14.158c3.836-3.846,10.175-3.956,14.13,0.009c27.374,27.374,99.984,99.984,127.287,127.286
				l14.146,14.147C329.599,410.558,329.641,416.883,325.704,420.815z M262.063,314.74l-14.142-14.142l14.141-14.147l14.147,14.147
				L262.063,314.74z M290.351,314.742l14.142,14.142l-14.141,14.147l-14.147-14.147L290.351,314.742z M318.636,371.313
				l-14.141-14.141l14.141-14.147l14.147,14.147L318.636,371.313z M382.276,364.242c-3.897,3.898-10.24,3.898-14.139,0
				c-6.787-6.787-135.601-135.601-141.427-141.427c-3.92-3.92-3.893-10.254-0.009-14.14c0.003-0.003,0.007-0.006,0.01-0.009
				c3.991-3.97,10.284-3.843,14.135-0.002c7.867,7.868,135.707,135.716,141.43,141.44
				C386.183,354.011,386.185,360.333,382.276,364.242z M332.777,272.308l7.064-7.064c3.904-3.897,10.255-3.898,14.153-0.004
				c3.9,3.9,3.9,10.248,0,14.148l-7.069,7.069L332.777,272.308z M382.276,236.958c19.539,19.538,19.542,51.17,0,70.711l-7.069,7.069
				l-14.139-14.139l7.069-7.069c11.699-11.7,11.699-30.735-0.004-42.438c-11.697-11.683-30.73-11.684-42.43,0.004l-7.069,7.069
				l-14.135-14.135c0.372-0.371,0.75-0.75,1.121-1.119c2.678-2.667,5.327-5.287,7.956-7.858
				C333.331,217.336,363.476,218.156,382.276,236.958z M483.292,168.501c-3.907,3.907-10.229,3.909-14.14-0.001l-37.432-37.422
				c-3.905-3.904-10.239-3.903-14.143,0.002c-3.905,3.906-3.904,10.238,0.001,14.144l17.273,17.269l-3.408-0.378
				c-26.935-2.993-51.093,1.304-73.853,13.132c-20.221,10.509-37.723,25.704-57.774,45.286c-0.84,0.768-1.649,1.536-2.401,2.288
				l-5.93,5.939c-0.001,0.001-0.003,0.003-0.004,0.004c-0.373,0.37-0.752,0.751-1.126,1.124l-14.151-14.151
				c20.159-20.212,37.557-38.284,50.095-58.953c15.529-25.6,21.189-51.657,17.814-81.999l-0.378-3.408l17.268,17.272
				c3.905,3.905,10.237,3.907,14.143,0.002c3.906-3.905,3.907-10.237,0.002-14.144l-37.423-37.434
				c-3.907-3.908-3.908-10.229,0-14.138c3.908-3.908,10.23-3.908,14.139,0L483.29,154.362
				C487.2,158.271,487.2,164.593,483.292,168.501z"/>
			<path d="M269.122,463.22C269.142,463.24,269.145,463.243,269.122,463.22L269.122,463.22z"/>
		</g>
	</g>
</g>
<g>
</g>
<g>
</g>
<g>
</g>
<g>
</g>
<g>
</g>
<g>
</g>
<g>
</g>
<g>
</g>
<g>
</g>
<g>
</g>
<g>
</g>
<g>
</g>
<g>
</g>
<g>
</g>
<g>
</g>
</svg>
