<?xml version="1.0" encoding="iso-8859-1"?>
<!-- Generator: Adobe Illustrator 19.0.0, SVG Export Plug-In . SVG Version: 6.00 Build 0)  -->
<svg version="1.1" id="Capa_1" xmlns="http://www.w3.org/2000/svg" xmlns:xlink="http://www.w3.org/1999/xlink" x="0px" y="0px"
	 viewBox="0 0 512 512" style="enable-background:new 0 0 512 512;" xml:space="preserve">
<g>
	<g>
		<path d="M322,60c-5.52,0-10,4.48-10,10s4.48,10,10,10c5.52,0,10-4.48,10-10S327.52,60,322,60z"/>
	</g>
</g>
<g>
	<g>
		<path d="M193,189c-71.683,0-130,58.318-130,130c0,5.523,4.478,10,10,10c5.522,0,10-4.477,10-10c0-60.654,49.346-110,110-110
			c5.522,0,10-4.477,10-10S198.522,189,193,189z"/>
	</g>
</g>
<g>
	<g>
		<path d="M263,319c0-38.598-31.402-70-70-70c-38.598,0-70,31.402-70,70c0,25.991,14.105,49.327,36.545,61.493
			C153.744,398.659,153,405.436,153,409c0,22.056,17.944,40,40,40c22.056,0,40-17.944,40-40c0-3.564-0.744-10.341-6.545-28.507
			C248.895,368.327,263,344.991,263,319z M193,429c-11.028,0-20-8.972-20-20c0-10.182,16.772-54.282,20-62.71
			c3.257,8.502,20,52.538,20,62.71C213,420.028,204.028,429,193,429z M219.866,361.178c-8.226-22.957-17.502-45.698-17.609-45.961
			c-1.536-3.76-5.194-6.218-9.257-6.218s-7.721,2.458-9.257,6.218c-0.107,0.263-9.382,23.003-17.609,45.96
			C151.841,352.111,143,336.387,143,319c0-27.57,22.43-50,50-50s50,22.43,50,50C243,336.387,234.159,352.111,219.866,361.178z"/>
	</g>
</g>
<g>
	<g>
		<path d="M322,0c-83.48,0-157.393,55.006-181.705,134.449C60.278,159.091,0,234.037,0,319c0,104.617,88.383,193,193,193
			c86.029,0,161.803-59.78,185.461-140.571C455.422,347.372,512,275.521,512,190C512,85.233,426.767,0,322,0z M193,492
			c-93.775,0-173-79.224-173-173c0-92.332,80.998-173,176-173c94.057,0,170,79.974,170,173C366,413.578,285.743,492,193,492z
			 M383.656,348.426C385.212,338.695,386,328.851,386,319c0-5.2-0.224-10.378-0.641-15.528C426.407,280.48,452,237.22,452,190
			c0-55.226-35.065-104.568-87.255-122.781c-5.217-1.821-10.917,0.933-12.736,6.146c-1.82,5.214,0.932,10.917,6.146,12.736
			C402.324,101.516,432,143.27,432,190c0,37.588-18.714,71.689-49.623,91.921c-14.973-76.167-75.143-138.124-152.003-152.691
			c13.261-19.859,32.887-35.245,55.472-43.129c5.214-1.82,7.966-7.523,6.146-12.737s-7.521-7.966-12.737-6.146
			c-29.748,10.385-55.15,31.777-70.625,59.227C204.409,126.16,200.183,126,196,126c-10.91,0-21.832,0.978-32.643,2.887
			C188.397,64.003,251.373,20,322,20c93.738,0,170,76.262,170,170C492,260.225,448.179,323.217,383.656,348.426z"/>
	</g>
</g>
<g>
</g>
<g>
</g>
<g>
</g>
<g>
</g>
<g>
</g>
<g>
</g>
<g>
</g>
<g>
</g>
<g>
</g>
<g>
</g>
<g>
</g>
<g>
</g>
<g>
</g>
<g>
</g>
<g>
</g>
</svg>
