<?xml version="1.0" encoding="iso-8859-1"?>
<!-- Generator: Adobe Illustrator 19.0.0, SVG Export Plug-In . SVG Version: 6.00 Build 0)  -->
<svg version="1.1" id="Capa_1" xmlns="http://www.w3.org/2000/svg" xmlns:xlink="http://www.w3.org/1999/xlink" x="0px" y="0px"
	 viewBox="0 0 512.001 512.001" style="enable-background:new 0 0 512.001 512.001;" xml:space="preserve">
<g>
	<g>
		<path d="M118.586,294.126c-11.015,0-20,8.984-20,20c0,11.015,8.984,20,20,20s20-8.984,20-20S129.602,294.126,118.586,294.126z"/>
	</g>
</g>
<g>
	<g>
		<path d="M394.664,294.126c-11.016,0-20,8.984-20,20c0,11.015,8.984,20,20,20c11.015,0,20-8.984,20-20
			S405.68,294.126,394.664,294.126z"/>
	</g>
</g>
<g>
	<g>
		<path d="M492.001,128.625h-25.123v-66.25c0-11.028-8.972-20-20-20H70.877c-11.028,0-20,8.972-20,20v66.25H19.999
			c-11.027,0-19.999,8.972-19.999,20v271c0,11.028,8.972,20,19.999,20H37.5v20c0,5.523,4.478,10,10,10h47.25c5.522,0,10-4.477,10-10
			v-20h31.439c5.522,0,10-4.477,10-10s-4.478-10-10-10H20l-0.001-271h472.002v271H215.155c-5.523,0-10,4.477-10,10s4.477,10,10,10
			H407.25v20c0,5.523,4.478,10,10,10h47.25c5.522,0,10-4.477,10-10v-20h17.501c11.028,0,20-8.972,20-20v-271
			C512.001,137.597,503.029,128.625,492.001,128.625z M57.5,439.625h27.25v10H57.5V439.625z M124.813,62.375h268.13v14h-268.13
			V62.375z M104.813,76.375h-9.936c-5.522,0-10,4.477-10,10v42.25h-14v-66.25h33.936V76.375z M412.878,128.625H356.75v-15.499
			c0-5.523-4.478-10-10-10c-5.522,0-10,4.477-10,10v15.499H242v-15.499c0-5.523-4.477-10-10-10c-5.522,0-10,4.477-10,10v15.499
			h-12.25v-15.499c0-5.523-4.477-10-10-10c-5.522,0-10,4.477-10,10v15.499h-14.5v-15.499c0-5.523-4.477-10-10-10
			c-5.522,0-10,4.477-10,10v15.499h-50.373v-32.25h308.001V128.625z M446.878,128.625h-14v-42.25c0-5.523-4.478-10-10-10h-9.936v-14
			h33.936V128.625z M454.5,449.625h-27.25v-10h27.25V449.625z"/>
	</g>
</g>
<g>
	<g>
		<path d="M454.625,169.875h-396c-5.522,0-10,4.477-10,10v33.751c0,5.523,4.478,10,10,10H334.22c5.522,0,10-4.477,10-10
			c0-5.523-4.478-10-10-10H142.125v-13.751h302.5v13.751h-31.439c-5.522,0-10,4.477-10,10c0,5.523,4.478,10,10,10h41.439
			c5.522,0,10-4.477,10-10v-33.751C464.625,174.352,460.147,169.875,454.625,169.875z M122.125,203.625h-53.5v-13.751h53.5V203.625z
			"/>
	</g>
</g>
<g>
	<g>
		<path d="M118.586,236.592c-42.753,0-77.534,34.782-77.534,77.534c0,42.753,34.781,77.534,77.534,77.534
			s77.534-34.781,77.534-77.534C196.12,271.374,161.339,236.592,118.586,236.592z M118.586,371.66
			c-31.725,0-57.534-25.81-57.534-57.534c0-31.725,25.81-57.534,57.534-57.534s57.534,25.81,57.534,57.534
			S150.311,371.66,118.586,371.66z"/>
	</g>
</g>
<g>
	<g>
		<path d="M394.663,236.592c-42.752,0-77.533,34.782-77.533,77.534c0,42.753,34.781,77.534,77.533,77.534
			c42.753,0,77.534-34.781,77.534-77.534C472.197,271.375,437.416,236.592,394.663,236.592z M394.663,371.66
			c-31.724,0-57.533-25.81-57.533-57.534c0-31.725,25.81-57.534,57.533-57.534c31.725,0,57.534,25.81,57.534,57.534
			S426.387,371.66,394.663,371.66z"/>
	</g>
</g>
<g>
	<g>
		<path d="M363.779,203.625h-0.476c-5.522,0-10,4.477-10,10s4.478,10,10,10h0.476c5.522,0,10-4.477,10-10
			S369.301,203.625,363.779,203.625z"/>
	</g>
</g>
<g>
	<g>
		<path d="M305.947,290.455v-20.954c0-5.523-4.478-10-10-10h-78.645c-5.523,0-10,4.477-10,10v20.953
			c0,0.783,0.092,1.564,0.274,2.326c1.665,6.965,2.51,14.147,2.51,21.347c0,7.2-0.845,14.381-2.51,21.347
			c-0.183,0.762-0.274,1.543-0.274,2.326v20.953c0,5.523,4.477,10,10,10h78.645c5.522,0,10-4.477,10-10v-20.954
			c0-0.783-0.092-1.563-0.273-2.325c-1.665-6.967-2.51-14.149-2.51-21.347s0.845-14.38,2.51-21.347
			C305.855,292.018,305.947,291.237,305.947,290.455z M285.947,289.305c-1.847,8.119-2.783,16.463-2.783,24.821
			s0.936,16.703,2.783,24.821v9.804h-58.645v-9.802c1.848-8.118,2.784-16.463,2.784-24.823s-0.937-16.705-2.784-24.823v-9.802
			h58.645V289.305z"/>
	</g>
</g>
<g>
	<g>
		<path d="M186.071,419.625h-0.476c-5.522,0-10,4.477-10,10s4.478,10,10,10h0.476c5.522,0,10-4.477,10-10
			S191.594,419.625,186.071,419.625z"/>
	</g>
</g>
<g>
</g>
<g>
</g>
<g>
</g>
<g>
</g>
<g>
</g>
<g>
</g>
<g>
</g>
<g>
</g>
<g>
</g>
<g>
</g>
<g>
</g>
<g>
</g>
<g>
</g>
<g>
</g>
<g>
</g>
</svg>
