<svg height="512pt" viewBox="0 -63 512 512" width="512pt" xmlns="http://www.w3.org/2000/svg"><path d="m424.894531 247.492188c-5.519531 0-10 4.492187-10 10.015624 0 5.523438 4.480469 10 10 10 5.523438 0 10-4.476562 10-10v-.027343c0-5.523438-4.476562-9.988281-10-9.988281zm0 0"/><path d="m512 266.214844c0-30.976563-21.527344-56.976563-51.128906-63.199219-3.332032-12.882813-7.863282-25.285156-13.445313-37.101563 21.945313-25.359374 20.898438-63.859374-3.183593-87.941406-11.972657-11.972656-27.886719-18.691406-44.816407-18.921875-14.3125-.183593-28.070312 4.304688-39.40625 12.75-12.664062-7.179687-26.128906-13.089843-40.234375-17.558593-4.980468-30.933594-31.722656-54.242188-63.785156-54.242188s-58.804688 23.308594-63.78125 54.242188c-14.105469 4.46875-27.574219 10.382812-40.238281 17.5625-10.292969-7.648438-22.683594-12.113282-35.609375-12.691407-5.519532-.253906-10.191406 4.023438-10.4375 9.539063-.25 5.519531 4.023437 10.191406 9.539062 10.4375 6.25.28125 12.316406 1.882812 17.832032 4.621094-23.402344 16.714843-43.273438 38.070312-58.25 62.710937-5.742188-9.648437-7.667969-21.195313-5.152344-32.496094 1.199218-5.394531-2.199219-10.734375-7.589844-11.9375-5.394531-1.195312-10.734375 2.199219-11.933594 7.589844-4.492187 20.183594.804688 40.910156 14.1875 56.351563-5.578125 11.808593-10.105468 24.207031-13.4375 37.082031-29.601562 6.226562-51.128906 32.226562-51.128906 63.203125 0 33.386718 25.449219 60.941406 57.96875 64.285156 4.054688 10.785156 8.996094 21.257812 14.789062 31.296875 7.882813 13.648437 17.175782 21.441406 28.410157 23.820313 20.378906 4.3125 40.816406-10.589844 64.488281-27.847657 5.5-4.011719 11.144531-8.109375 16.953125-12.109375 1.617187 2.082032 3.316406 4.113282 5.121094 6.070313 3.285156 3.566406 8.660156 4.257812 12.742187 1.644531 21.269532-13.613281 38.917969-19.953125 55.527344-19.953125s34.257812 6.339844 55.527344 19.953125c1.660156 1.0625 3.53125 1.578125 5.386718 1.578125 2.71875 0 5.40625-1.105469 7.359376-3.222656 1.800781-1.957031 3.5-3.988281 5.117187-6.070313 5.808594 4 11.453125 8.097656 16.953125 12.109375 20.867188 15.214844 39.226562 28.601563 57.242188 28.601563 2.417968 0 4.832031-.242188 7.246093-.753906 11.234375-2.375 20.527344-10.167969 28.410157-23.820313 5.792968-10.035156 10.734374-20.507813 14.789062-31.296875 32.519531-3.34375 57.96875-30.898438 57.96875-64.285156zm-81.898438-174.097656c14.699219 14.695312 16.976563 37.183593 6.84375 54.296874-14.988281-24.65625-34.875-46.019531-58.296874-62.734374 16.75-8.425782 37.453124-5.5625 51.453124 8.4375zm-174.101562-72.117188c18.933594 0 35.179688 11.769531 41.636719 28.535156-13.464844-2.699218-27.386719-4.125-41.636719-4.125s-28.171875 1.425782-41.636719 4.125c6.457031-16.765625 22.703125-28.535156 41.636719-28.535156zm-236 246.214844c0-18.234375 10.800781-33.96875 26.640625-40.878906-1.460937 10.015624-2.230469 20.25-2.230469 30.664062 0 17.847656 2.277344 35.570312 6.695313 52.742188-18.015625-5.742188-31.105469-22.632813-31.105469-42.527344zm137.390625-134.726563c-1.574219 8.863281-5.804687 17.160157-12.382813 23.738281-5.789062 5.792969-12.871093 9.761719-20.535156 11.703126 9.117188-13.421876 20.234375-25.375 32.917969-35.441407zm-60.292969 124.511719c0-6.460938.398438-12.828125 1.152344-19.09375 6.972656 8.015625 11 18.382812 11 29.308594 0 9.234375-2.890625 18.128906-8.054688 25.53125-2.699218-11.683594-4.097656-23.675782-4.097656-35.746094zm32.152344 10.214844c0-20.742188-9.996094-40.097656-26.515625-52.183594 2.445313-8.917969 5.648437-17.523438 9.539063-25.75.445312.007812.886718.023438 1.332031.023438 17.039062 0 33.28125-6.671876 45.546875-18.9375 13.714844-13.714844 20.421875-32.597657 18.648437-51.652344 8.824219-5.007813 18.167969-9.199219 27.9375-12.464844 12.203125 15.152344 30.480469 24 50.261719 24 19.832031 0 38.148438-8.890625 50.355469-24.113281 9.738281 3.210937 19.066406 7.328125 27.875 12.269531-1.878907 19.160156 4.828125 38.171875 18.617187 51.960938 12.265625 12.265624 28.507813 18.9375 45.546875 18.9375.511719 0 1.027344-.011719 1.542969-.023438 3.8125 8.183594 6.964844 16.777344 9.378906 25.714844-16.550781 12.082031-26.566406 31.457031-26.566406 52.222656 0 18.277344 7.789062 35.644531 21.15625 47.816406-2.003906 5.109375-4.253906 10.117188-6.78125 14.996094-8.695312-5.507812-20.28125-14.042969-27.371094-19.261719-3.027344-2.230469-5.417968-3.992187-7.023437-5.121093-4.960938-3.476563-9.625-6.605469-14.140625-9.480469.144531-2.101563.238281-4.210938.238281-6.332031 0-2.601563-.113281-5.277344-.339844-7.949219-.28125-3.296875-2.175781-6.246094-5.0625-7.867188-29.871093-16.804687-58.46875-24.972656-87.429687-24.972656-28.957032 0-57.554688 8.167969-87.425782 24.972656-2.886718 1.625-4.78125 4.570313-5.0625 7.867188-.226562 2.671875-.34375 5.347656-.34375 7.949219 0 2.121093.097657 4.230468.242188 6.332031-4.511719 2.875-9.179688 6.003906-14.140625 9.480469-1.605469 1.125-3.996094 2.886718-7.023437 5.117187-7.085938 5.222656-18.671876 13.753906-27.371094 19.265625-2.523438-4.882812-4.777344-9.894531-6.777344-15 13.367188-12.171875 21.15625-29.539062 21.15625-47.816406zm98.945312-166.679688c9.03125-1.597656 18.320313-2.4375 27.804688-2.4375 9.492188 0 18.796875.828125 27.847656 2.402344-7.78125 6.238281-17.511718 9.75-27.847656 9.75-10.316406 0-20.027344-3.5-27.804688-9.714844zm159.765626 67.496094c-7.828126-1.898438-15.066407-5.90625-20.96875-11.808594-6.707032-6.703125-10.984376-15.203125-12.480469-24.265625 12.917969 10.15625 24.214843 22.3125 33.449219 36.074219zm-131.960938 146.390625c-22.988281 0-43.574219 9.511719-58.753906 18.457031-9.125-12.433594-14.078125-27.445312-14.078125-43.042968 0-.335938.003906-.675782.007812-1.015626 25.296875-13.472656 48.5625-19.773437 72.824219-19.773437s47.53125 6.300781 72.824219 19.773437c.003906.339844.007812.675782.007812 1.015626 0 15.597656-4.953125 30.609374-14.078125 43.042968-15.179687-8.945312-35.765625-18.457031-58.753906-18.457031zm165.921875 38.375c-4.882813 8.457031-9.863281 13.117187-15.230469 14.253906-11.648437 2.464844-29.582031-10.605469-48.5625-24.441406-5.890625-4.296875-11.929687-8.691406-18.25-13.019531 1.863282-3.925782 3.445313-7.972656 4.734375-12.121094 2.15625 1.445312 4.359375 2.960938 6.632813 4.554688 1.414062.992187 3.839844 2.777343 6.648437 4.847656 14.8125 10.910156 30.019531 21.894531 38.96875 25.886718 1.316407.585938 2.703125.867188 4.070313.867188 3.269531 0 6.4375-1.609375 8.34375-4.484375.53125-.804687 1.089844-1.707031 1.65625-2.6875 5.695312-9.863281 10.402344-20.230469 14.113281-30.964844.136719-.34375.253906-.695312.351563-1.050781 1.765624-5.199219 3.316406-10.476562 4.597656-15.835938 1.285156-5.375-2.027344-10.769531-7.398438-12.050781-5-1.199219-10.007812 1.585938-11.714844 6.300781-5.210937-7.425781-8.132812-16.359374-8.132812-25.636718 0-11.519532 4.484375-22.410156 12.171875-30.582032 2.15625 2.796876 5.738281 4.363282 9.472656 3.773438 5.457031-.859375 9.183594-5.976562 8.324219-11.433594-2.996094-19.039062-9.078125-37.351562-17.855469-54.265625-.152343-.335937-.320312-.664062-.503906-.976562-10.375-19.699219-24.425781-37.476563-41.5625-52.257813-19.539063-16.851562-42.367187-29.132812-66.804687-36.242187-.59375-.234375-1.199219-.402344-1.808594-.515625-15.570313-4.351563-31.773438-6.617188-48.183594-6.617188-16.792969 0-33.050781 2.332032-48.46875 6.675782-.480469.105468-.953125.234374-1.417969.410156-15.460937 4.496094-30.0625 11.027344-43.5 19.28125-.6875.332031-1.332031.730468-1.917969 1.199218-26.34375 16.652344-48.0625 39.984376-62.753906 67.605469-.375.5625-.695312 1.167969-.953125 1.808594-6.789062 13.125-12.003906 27.1875-15.386719 41.945313-.066406.261718-.125.519531-.167968.78125-2.832032 12.621093-4.335938 25.734374-4.335938 39.199218 0 19.6875 3.269532 39.207032 9.582032 57.730469.0625.210937.144531.421875.222656.628906 3.710937 10.753907 8.4375 21.175781 14.160156 31.085938.378906.65625.972656 1.65625 1.652344 2.6875 1.902344 2.878906 5.074218 4.488281 8.351562 4.488281 1.367188 0 2.75-.28125 4.066406-.867188 8.949219-3.992187 24.160157-14.976562 38.972657-25.886718 2.804687-2.070313 5.230469-3.855469 6.644531-4.847656 2.277344-1.59375 4.480469-3.105469 6.632812-4.554688 1.292969 4.148438 2.875 8.195312 4.734376 12.121094-6.320313 4.328125-12.359376 8.726562-18.246094 13.019531-18.980469 13.839844-36.914063 26.902344-48.5625 24.441406-5.367188-1.136719-10.351563-5.796875-15.234375-14.253906-16.789063-29.082031-25.667969-62.210937-25.667969-95.792969 0-105.644531 85.949219-191.59375 191.589844-191.59375 105.644531 0 191.59375 85.949219 191.59375 191.59375 0 33.582032-8.875 66.707032-25.667969 95.792969zm38.972656-43.054687c4.421875-17.171876 6.695313-34.894532 6.695313-52.742188 0-10.414062-.769532-20.648438-2.230469-30.664062 15.84375 6.910156 26.640625 22.644531 26.640625 40.878906 0 19.894531-13.089844 36.785156-31.105469 42.527344zm-377.894531-221.0625c0 5.523437-4.476562 10-10 10s-10-4.476563-10-10c0-5.523438 4.476562-10 10-10s10 4.476562 10 10zm0 0"/></svg>