<svg id="Capa_1" enable-background="new 0 0 512.002 512.002" height="512" viewBox="0 0 512.002 512.002" width="512" xmlns="http://www.w3.org/2000/svg"><path d="m482.002 46.001h-136.861l-26.088-18.201c-3.438-2.398-8.006-2.398-11.443 0l-22.943 16.008-22.944-16.008c-3.438-2.398-8.006-2.398-11.443 0l-22.943 16.008-22.944-16.008c-3.438-2.398-8.006-2.398-11.443 0l-26.088 18.202h-36.856c-5.522 0-10 4.477-10 10s4.478 10 10 10h30.001v380h-130.007c-5.514 0-10-4.486-10-10v-10h110.005c5.522 0 10-4.477 10-10v-320c0-5.523-4.478-10-10-10h-110.005v-10.001c0-5.514 4.486-10 10-10h10.005c5.522 0 10-4.477 10-10s-4.478-10-10-10h-10.005c-16.542 0-30 13.458-30 30v360c0 16.542 13.458 30 30 30h136.862l26.087 18.201c3.438 2.398 8.006 2.398 11.443 0l22.943-16.008 22.943 16.008c3.438 2.398 8.006 2.398 11.443 0l22.943-16.008 22.943 16.008c1.719 1.199 3.72 1.799 5.722 1.799s4.003-.6 5.722-1.799l26.087-18.201h136.862c16.542 0 30-13.458 30-30v-360c.002-16.542-13.456-30-29.998-30zm-421.998 100.002h60.001v20h-60v-9.99c0-.003 0-.006 0-.01 0-.003 0-.006 0-.01zm0 80h60.001v20h-60v-9.99c0-.003 0-.006 0-.01 0-.003 0-.006 0-.01zm0 40h60.001v19.995h-100.005v-39.995h20.005c0 11.028 8.972 20 19.999 20zm60.001 39.995v20.001h-60.001c-11.027 0-19.999 8.972-19.999 20h-20.005v-40.001zm-60.001 49.991v-9.99h60.001v20h-60v-9.99c0-.003 0-.006 0-.01s-.001-.007-.001-.01zm0-169.986h60.001v20h-60.001c-11.027 0-19.999 8.972-19.999 20h-20.005v-60h20.005c0 11.028 8.972 20 19.999 20zm-40.004 219.998v-40.002h20.005c0 11.028 8.972 20 19.999 20h60.001v20.001h-100.005zm100.005-299.999v20.001h-60.001c-11.027 0-19.999 8.972-19.999 20h-20.005v-40.001zm78.666 357.806-18.665-13.023v-389.567l18.665-13.023 18.665 13.023v389.567zm57.33 0-18.665-13.023v-389.567l18.665-13.023 18.665 13.023v389.567zm236.001-27.807c0 5.514-4.486 10-10 10h-130.006v-10.001c0-5.523-4.478-10-10-10s-10 4.477-10 10v14.785l-18.665 13.023-18.665-13.023v-389.567l18.665-13.023 18.665 13.023v284.782c0 5.523 4.478 10 10 10s10-4.477 10-10v-279.999h130.006c5.514 0 10 4.486 10 10z"/><path d="m401.997 146.005c16.543 0 30.002-13.458 30.002-30.001s-13.459-30.001-30.002-30.001-30.001 13.458-30.001 30.001 13.458 30.001 30.001 30.001zm0-40.003c5.515 0 10.002 4.487 10.002 10.001s-4.487 10.001-10.002 10.001-10.001-4.487-10.001-10.001 4.486-10.001 10.001-10.001z"/><path d="m401.997 365.998c-16.543 0-30.001 13.458-30.001 30.001s13.458 30.001 30.001 30.001 30.002-13.458 30.002-30.001-13.459-30.001-30.002-30.001zm0 40.003c-5.515 0-10.001-4.487-10.001-10.001s4.486-10.001 10.001-10.001 10.002 4.487 10.002 10.001-4.487 10.001-10.002 10.001z"/><path d="m401.997 286.002c16.543 0 30.002-13.458 30.002-30.001s-13.459-30.001-30.002-30.001-30.001 13.458-30.001 30.001 13.458 30.001 30.001 30.001zm0-40.002c5.515 0 10.002 4.487 10.002 10.001s-4.487 10.001-10.002 10.001-10.001-4.486-10.001-10.001 4.486-10.001 10.001-10.001z"/><path d="m442.001 156.001c-16.543 0-30.002 13.458-30.002 30.001s13.459 30.001 30.002 30.001 30.001-13.458 30.001-30.001c0-16.542-13.458-30.001-30.001-30.001zm0 40.003c-5.515 0-10.002-4.487-10.002-10.001s4.487-10.001 10.002-10.001 10.001 4.486 10.001 10.001-4.486 10.001-10.001 10.001z"/><path d="m442.001 295.999c-16.543 0-30.002 13.458-30.002 30.001 0 16.542 13.459 30.001 30.002 30.001s30.001-13.458 30.001-30.001-13.458-30.001-30.001-30.001zm0 40.002c-5.515 0-10.002-4.486-10.002-10.001s4.487-10.001 10.002-10.001 10.001 4.487 10.001 10.001-4.486 10.001-10.001 10.001z"/><path d="m85.008 66.001c5.522 0 10-4.477 10-10s-4.478-10-10-10h-.008c-5.522 0-9.996 4.477-9.996 10s4.481 10 10.004 10z"/><path d="m341.996 381c-5.522 0-10 4.48-10 10.003s4.478 10 10 10 10-4.477 10-10v-.007c0-5.523-4.477-9.996-10-9.996z"/></svg>