<svg viewBox="0 -73 512 512" xmlns="http://www.w3.org/2000/svg"><path d="m295.519531 94.832031c5.191407-1.886719 7.859375-7.628906 5.96875-12.820312-1.878906-5.1875-7.617187-7.859375-12.808593-5.976563-5.191407 1.886719-7.871094 7.628906-5.980469 12.820313 1.890625 5.1875 7.628906 7.867187 12.820312 5.976562zm0 0"/><path d="m472 286.964844v-30c0-16.542969-13.457031-30-30-30h-275.609375l203.472656-74.054688 10.261719 28.183594c1.882812 5.171875 7.609375 7.871094 12.816406 5.976562l75.179688-27.359374c5.1875-1.886719 7.867187-7.628907 5.976562-12.816407l-10.839844-29.789062c9.351563-7.6875 13.664063-20.925781 9.109376-33.433594l-13.679688-37.585937c-13.226562-36.351563-53.359375-55.070313-89.71875-41.839844l-319.5 116.289062c-36.140625 13.15625-55.085938 53.25-41.835938 89.71875 5.84375 16.058594 17.464844 29.4375 32.367188 37.550782v39.160156c-22.097656 0-40 17.898437-40 40 0 22.054687 17.945312 40 40 40h432c22.097656 0 40-17.898438 40-40 0-22.058594-17.945312-40-40-40zm-20-30v30h-60v-40h50c5.515625 0 10 4.484375 10 10zm-56.503906-92.109375-6.839844-18.785157 56.386719-20.53125 6.839843 18.796876zm-369.066406 38.5625c-9.523438-26.199219 4.226562-54.75 29.882812-64.085938l319.5-116.292969c25.960938-9.449218 54.632812 3.914063 64.082031 29.882813l13.679688 37.59375c1.890625 5.183594-.769531 10.921875-5.964844 12.808594-.003906 0-.003906.003906-.007813.003906l-75.175781 27.367187c-.003906 0-.003906 0-.003906.003907l-281.910156 102.597656c-25.675781 9.335937-54.53125-3.640625-64.082031-29.878906zm33.570312 51.597656c12.625 2.476563 25.433594 1.410156 37.347656-2.925781l14.089844-5.125h260.5625v40h-312zm412 91.949219h-432c-11.027344 0-20-8.972656-20-20 0-11.046875 8.953125-20 20-20h432c11.027344 0 20 8.972656 20 20 0 11.042968-8.953125 20-20 20zm0 0"/><path d="m333.109375 81.152344 56.382813-20.523438c5.179687-1.886718 10.925781.796875 12.8125 5.972656l6.839843 18.800782c1.886719 5.191406 7.625 7.867187 12.816407 5.980468 5.1875-1.890624 7.863281-7.628906 5.976562-12.816406l-6.839844-18.804687c-5.660156-15.542969-22.910156-23.578125-38.449218-17.925781l-56.378907 20.523437c-5.191406 1.886719-7.867187 7.625-5.976562 12.816406 1.890625 5.1875 7.628906 7.863281 12.816406 5.976563zm0 0"/><path d="m83.664062 214.503906c15.542969-5.648437 23.59375-22.890625 17.945313-38.445312 0 0-.003906-.003906-.003906-.007813-5.667969-15.570312-22.871094-23.601562-38.449219-17.925781-15.589844 5.660156-23.609375 22.867188-17.933594 38.449219 5.660156 15.539062 22.828125 23.613281 38.441406 17.929687zm-13.671874-37.585937c5.203124-1.894531 10.933593.792969 12.820312 5.976562 1.878906 5.183594-.800781 10.929688-5.984375 12.8125-5.175781 1.886719-10.925781-.796875-12.8125-5.976562-1.878906-5.164063.753906-10.914063 5.976563-12.8125zm0 0"/></svg>