<?xml version="1.0" encoding="iso-8859-1"?>
<!-- Generator: Adobe Illustrator 19.0.0, SVG Export Plug-In . SVG Version: 6.00 Build 0)  -->
<svg version="1.1" id="Layer_1" xmlns="http://www.w3.org/2000/svg" xmlns:xlink="http://www.w3.org/1999/xlink" x="0px" y="0px"
	 viewBox="0 0 511.998 511.998" style="enable-background:new 0 0 511.998 511.998;" xml:space="preserve">
<g>
	<g>
		<path d="M229.144,96.248h-1.064c-5.874,0-10.636,4.762-10.636,10.636s4.762,10.636,10.636,10.636h1.064
			c5.874,0,10.636-4.762,10.636-10.636S235.018,96.248,229.144,96.248z"/>
	</g>
</g>
<g>
	<g>
		<path d="M314.827,318.105h-22.921c-5.874,0-10.636,4.762-10.636,10.636c0,5.874,4.762,10.636,10.636,10.636h22.921
			c5.874,0,10.636-4.762,10.636-10.636C325.463,322.867,320.702,318.105,314.827,318.105z"/>
	</g>
</g>
<g>
	<g>
		<path d="M314.827,193.781h-22.921c-5.874,0-10.636,4.762-10.636,10.636s4.762,10.636,10.636,10.636h22.921
			c5.874,0,10.636-4.762,10.636-10.636S320.702,193.781,314.827,193.781z"/>
	</g>
</g>
<g>
	<g>
		<path d="M314.827,373.178h-22.921c-5.874,0-10.636,4.762-10.636,10.636s4.762,10.636,10.636,10.636h22.921
			c5.874,0,10.636-4.762,10.636-10.636S320.702,373.178,314.827,373.178z"/>
	</g>
</g>
<g>
	<g>
		<path d="M314.827,428.252h-22.921c-5.874,0-10.636,4.762-10.636,10.636s4.762,10.636,10.636,10.636h22.921
			c5.874,0,10.636-4.762,10.636-10.636S320.702,428.252,314.827,428.252z"/>
	</g>
</g>
<g>
	<g>
		<path d="M485.961,223.062h-28.005h-38.97v-46.947v-69.23c0-25.335-16.281-47.348-40.514-54.777L209.923,0.47
			c-5.618-1.722-11.565,1.438-13.285,7.054c-1.721,5.617,1.438,11.565,7.054,13.285l132.077,40.464v34.976h-70.23h-6.881
			c-5.874,0-10.636,4.762-10.636,10.636s4.762,10.636,10.636,10.636h6.881c28.678,0,52.61,20.708,57.627,47.958H209.02v-58.594
			c0-5.874-4.762-10.636-10.636-10.636s-10.636,4.762-10.636,10.636v58.594h-38.524c-27.564,0-49.989,22.425-49.989,49.989v67.569
			l-67.99-38.171c-5.122-2.877-11.606-1.055-14.481,4.067s-1.055,11.606,4.067,14.481l78.403,44.016v50.206l-67.99-38.171
			c-5.122-2.876-11.606-1.054-14.481,4.067c-2.876,5.122-1.055,11.606,4.067,14.481l78.403,44.016v84.393v12.816
			c0,18.063,14.7,32.759,32.77,32.759c18.063,0,32.759-14.696,32.759-32.759v-2.18h33.62h155.073v2.18
			c0,18.063,14.696,32.759,32.759,32.759c18.07,0,32.77-14.696,32.77-32.759v-12.816v-55.073v-55.073v-55.073v-8.223
			c12.042-2.134,23.133-7.867,31.962-16.696c8.827-8.828,14.561-19.915,16.695-31.953h18.317c5.874,0,10.636-4.762,10.636-10.636
			S491.835,223.062,485.961,223.062z M120.507,215.467c0-15.834,12.883-28.717,28.717-28.717h38.524v56.754h-67.241V215.467z
			 M143.493,479.241c0,6.334-5.153,11.487-11.487,11.487c-6.339,0-11.497-5.153-11.497-11.487v-2.18h22.984V479.241z
			 M187.749,455.788h-33.62v0h-33.62v-79.812c0-0.013,0-0.026,0-0.038v-74.563c0-0.013,0-0.026,0-0.038v-36.561h67.241V455.788z
			 M357.042,67.789l15.198,4.656c11.71,3.59,20.468,12.595,23.894,23.802h-39.092V67.789z M209.02,186.75h125.75h62.944v46.947
			v49.596v7.275H209.02V186.75z M209.02,455.788v-33.801h188.694v33.801h-33.62H209.02z M397.715,479.241
			c0,6.334-5.159,11.487-11.498,11.487c-6.334,0-11.487-5.153-11.487-11.487v-2.18h22.984V479.241z M397.715,400.715H209.021
			v-33.801h188.694V400.715z M397.715,345.642H209.021V311.84h188.694V345.642z M397.715,165.478h-53.038
			c-2.522-18.849-11.628-35.635-24.94-47.958h26.67h51.308V165.478z M435.908,261.244c-4.782,4.782-10.586,8.167-16.921,9.953
			v-26.863h26.872C444.072,250.663,440.687,256.464,435.908,261.244z"/>
	</g>
</g>
<g>
	<g>
		<path d="M168.529,198.152c-5.874,0-10.636,4.762-10.636,10.636v11.306c0,5.874,4.762,10.636,10.636,10.636
			s10.636-4.762,10.636-10.636v-11.306C179.165,202.914,174.403,198.152,168.529,198.152z"/>
	</g>
</g>
<g>
</g>
<g>
</g>
<g>
</g>
<g>
</g>
<g>
</g>
<g>
</g>
<g>
</g>
<g>
</g>
<g>
</g>
<g>
</g>
<g>
</g>
<g>
</g>
<g>
</g>
<g>
</g>
<g>
</g>
</svg>
