<?xml version="1.0" encoding="iso-8859-1"?>
<!-- Generator: Adobe Illustrator 19.0.0, SVG Export Plug-In . SVG Version: 6.00 Build 0)  -->
<svg xmlns="http://www.w3.org/2000/svg" xmlns:xlink="http://www.w3.org/1999/xlink" version="1.1" id="Layer_1" x="0px" y="0px" viewBox="0 0 512 512" style="enable-background:new 0 0 512 512;" xml:space="preserve" width="512" height="512">
<g id="XMLID_1375_">
	<g id="XMLID_785_">
		<path id="XMLID_970_" d="M418,148h-19.45l19.434-72.149c0.067-0.2,0.135-0.4,0.19-0.607c0.044-0.164,0.07-0.329,0.106-0.493    l4.875-18.101c2.627-9.804,1.279-20.045-3.796-28.835c-5.075-8.791-13.27-15.078-23.074-17.705    c-20.232-5.421-41.116,6.63-46.533,26.844L319.681,148H306v-18c0-5.523-4.478-10-10-10s-10,4.477-10,10v18h-60v-8h10.36    c5.522,0,10-4.477,10-10s-4.478-10-10-10H226v-20h24.206c5.522,0,10-4.477,10-10s-4.478-10-10-10H226V60h10.36    c5.522,0,10-4.477,10-10s-4.478-10-10-10H226V20h24.206H286v30c0,5.523,4.478,10,10,10s10-4.477,10-10V10c0-5.523-4.478-10-10-10    h-45.794h-27.691H216c-5.522,0-10,4.477-10,10v138h-22.333V38c0-20.953-17.047-38-38-38s-38,17.047-38,38v110H94    c-11.028,0-20,8.972-20,20v28c0,11.028,8.972,20,20,20h4v243.079C98,488.26,121.74,512,150.921,512h210.158    C390.26,512,414,488.26,414,459.079V216h4c11.028,0,20-8.972,20-20v-28C438,156.972,429.028,148,418,148z M391.11,29.428    c4.645,1.245,8.525,4.223,10.93,8.387s3.042,9.014,1.801,13.646l-2.409,8.945l-34.785-9.32l2.418-8.928    C371.634,32.568,381.526,26.859,391.11,29.428z M361.419,70.388l34.811,9.327L377.837,148h-37.436L361.419,70.388z M145.667,20    c9.925,0,18,8.075,18,18v9.25h-36V38C127.667,28.075,135.742,20,145.667,20z M127.667,67.25h36V148h-36V67.25z M394,459.079    c0,5.308-1.271,10.322-3.511,14.767l-19.096-19.096L394,432.143V459.079z M121.511,473.846c-2.241-4.445-3.511-9.459-3.511-14.767    v-26.936l22.607,22.607L121.511,473.846z M205.607,216l36.25,36.25l-36.482,36.482l-36.482-36.482l36.25-36.25H205.607z     M306.857,216l36.25,36.25l-36.482,36.482l-36.482-36.482l36.25-36.25H306.857z M394,376.107L371.393,353.5L394,330.893V376.107z     M357.25,339.357l-36.482-36.482l36.482-36.482l36.482,36.482L357.25,339.357z M256,367.642l36.482,36.482L256,440.607    l-36.482-36.483L256,367.642z M205.375,389.982L168.893,353.5l36.482-36.482l36.482,36.482L205.375,389.982z M270.143,353.5    l36.482-36.482l36.482,36.482l-36.482,36.482L270.143,353.5z M292.482,302.875L256,339.357l-36.482-36.482L256,266.393    L292.482,302.875z M191.232,302.875l-36.482,36.482l-36.482-36.482l36.482-36.482L191.232,302.875z M118,330.893l22.607,22.607    L118,376.107V330.893z M118,274.857v-45.215l22.607,22.607L118,274.857z M118.268,404.125l36.482-36.482l36.482,36.482    l-36.482,36.482L118.268,404.125z M205.375,418.267l36.482,36.483l-36.607,36.608c-0.344-0.502-0.733-0.983-1.179-1.429    l-35.179-35.179L205.375,418.267z M256,468.893L279.107,492h-46.215L256,468.893z M306.75,491.358l-36.607-36.608l36.482-36.483    l36.482,36.482l-35.179,35.179C307.483,490.375,307.094,490.856,306.75,491.358z M320.768,404.125l36.482-36.482l36.482,36.482    l-36.482,36.482L320.768,404.125z M371.393,252.25L394,229.643v45.215L371.393,252.25z M357.25,238.107L335.143,216h44.215    L357.25,238.107z M256,238.107L233.893,216h44.215L256,238.107z M154.75,238.107L132.643,216h44.215L154.75,238.107z     M135.493,488.149l19.257-19.257L177.857,492h-26.937C145.349,492,140.098,490.603,135.493,488.149z M334.143,492l23.107-23.108    l19.257,19.257c-4.605,2.454-9.856,3.851-15.428,3.851H334.143z M418,196h-14h-0.495h-0.01h-92.49h-0.01h-109.99h-0.01h-92.49    h-0.01H108H94v-28h122h80h89.469c0.012,0,0.025,0.002,0.037,0.002c0.02,0,0.039-0.002,0.059-0.002H418V196z"/>
		<path id="XMLID_1855_" d="M296,80c-2.641,0-5.21,1.07-7.07,2.93c-1.86,1.86-2.93,4.44-2.93,7.07c0,2.63,1.069,5.21,2.93,7.07    S293.37,100,296,100s5.21-1.07,7.069-2.93C304.93,95.21,306,92.63,306,90c0-2.63-1.07-5.21-2.931-7.07    C301.21,81.07,298.63,80,296,80z"/>
	</g>
</g>















</svg>
