<?xml version="1.0" encoding="iso-8859-1"?>
<!-- Generator: Adobe Illustrator 19.0.0, SVG Export Plug-In . SVG Version: 6.00 Build 0)  -->
<svg version="1.1" id="Layer_1" xmlns="http://www.w3.org/2000/svg" xmlns:xlink="http://www.w3.org/1999/xlink" x="0px" y="0px"
	 viewBox="0 0 511.999 511.999" style="enable-background:new 0 0 511.999 511.999;" xml:space="preserve">
<g>
	<g>
		<path d="M257.482,0.007c-0.015,0-0.03,0-0.045,0L255.998,0c-1.222,0-2.439,0.017-3.653,0.042
			c-40.448,0.873-78.407,16.124-106.884,42.945c-28.773,27.101-44.619,62.929-44.619,100.883v261.532
			c0,57.92,49.927,105.734,111.281,106.584c0.568,0.009,1.138,0.013,1.703,0.013c14.795,0,29.205-2.65,42.826-7.878
			c0.002,0,0.006-0.001,0.008-0.002c42.615-16.359,70.151-54.701,70.151-97.694l-0.241-232.281c0-38.494-33.042-69.81-73.654-69.81
			l-0.324,0.005c-0.017,0-0.033,0-0.05,0c-0.601,0.003-1.203,0.009-1.748,0.025c-39.445,1.06-71.536,32.679-71.536,70.482v207.208
			c0,17.215,14.005,31.221,31.221,31.221s31.221-14.006,31.221-31.221V174.846c0-3.543,4.584-7.778,10.612-8.057
			c0.143,0.002,0.287,0.002,0.433,0.001c0.001,0,0.002,0,0.003,0c3.578-0.051,7.15,1.259,9.425,3.504
			c0.731,0.722,1.956,2.183,1.956,3.874v0.012l0.241,232.281c0,12.798-6.686,24.879-18.343,33.142c-0.001,0-0.002,0.001-0.003,0.002
			c-9.056,6.418-20.49,9.953-32.196,9.953c-0.283,0-0.566-0.002-0.836-0.006c-27.407-0.38-49.705-20.185-49.705-44.149V143.872
			c0-43.447,40.209-79.953,89.633-81.379h0.001c0.002,0,0.003,0,0.006,0c1.022-0.03,2.046-0.051,3.028-0.051l0.995,0.005
			c50.6,0.446,91.766,37.59,91.766,82.803v28.317c0,0.015-0.002,0.028-0.002,0.044v248.429c0,6.269,5.083,11.353,11.353,11.353
			s11.353-5.084,11.353-11.353v-76.045c2.71,0.77,5.564,1.191,8.517,1.191c17.216,0,31.221-14.006,31.221-31.221V145.249
			C411.153,65.909,342.217,0.754,257.482,0.007z M241.236,145.978c-12.928,4.378-22.245,15.78-22.245,28.869v207.207
			c0,4.696-3.819,8.515-8.515,8.515s-8.515-3.819-8.515-8.515V174.846c0-22.336,16.863-41.493,39.275-46.52V145.978z
			 M263.942,454.43c14.773-12.422,23.131-29.611,23.131-47.982l-0.241-232.293c-0.003-7.372-3.098-14.484-8.717-20.026
			c-3.921-3.868-8.812-6.73-14.173-8.39V128.15c22.808,4.673,39.92,23.522,39.92,46.005l0.241,232.281
			c0,28.075-15.322,53.708-40.16,68.902V454.43z M241.237,40.587c-25.585,2.951-49.267,13.526-67.587,30.36
			c-21.327,19.596-33.072,45.494-33.072,72.923v261.532c0,36.311,32.341,66.301,72.097,66.853c0.371,0.006,0.763,0.008,1.15,0.008
			c9.554,0,18.798-1.618,27.412-4.752v17.873c-8.829,2.595-18.02,3.908-27.412,3.908c-0.451,0-0.904-0.003-1.371-0.01
			c-49.023-0.68-88.905-38.308-88.905-83.88V143.872c0-61.677,51.811-113.602,117.688-120.406V40.587z M388.447,315.964
			c0,4.696-3.819,8.515-8.515,8.515s-8.515-3.819-8.515-8.515V145.249c0-55.521-47.59-101.49-107.475-105.262V22.925
			c69.241,3.831,124.505,57.46,124.505,122.323V315.964z"/>
	</g>
</g>
<g>
</g>
<g>
</g>
<g>
</g>
<g>
</g>
<g>
</g>
<g>
</g>
<g>
</g>
<g>
</g>
<g>
</g>
<g>
</g>
<g>
</g>
<g>
</g>
<g>
</g>
<g>
</g>
<g>
</g>
</svg>
