<svg height="512pt" viewBox="0 -64 512.00051 512" width="512pt" xmlns="http://www.w3.org/2000/svg"><g fill-rule="evenodd"><path d="m106.914062 51.578125c-6.621093-4.480469-14.335937-6.847656-22.304687-6.847656-13.277344 0-25.640625 6.5625-33.066406 17.550781-5.964844 8.824219-8.136719 19.441406-6.117188 29.902344 2.019531 10.460937 7.996094 19.503906 16.820313 25.46875 6.625 4.476562 14.335937 6.847656 22.308594 6.847656 13.277343 0 25.636718-6.5625 33.066406-17.550781 12.3125-18.21875 7.511718-43.058594-10.707032-55.371094zm-5.863281 44.171875c-3.703125 5.476562-9.871093 8.746094-16.496093 8.746094-3.964844 0-7.804688-1.179688-11.109376-3.414063-4.398437-2.972656-7.375-7.480469-8.382812-12.691406-1.007812-5.214844.074219-10.507813 3.050781-14.90625 3.703125-5.480469 9.871094-8.75 16.496094-8.75 3.960937 0 7.800781 1.179687 11.105469 3.414063 9.078125 6.136718 11.472656 18.519531 5.335937 27.601562zm0 0"/><path d="m107.226562 266.785156c-6.625-4.480468-14.335937-6.84375-22.308593-6.84375-13.277344 0-25.636719 6.558594-33.0625 17.546875-12.316407 18.21875-7.515625 43.058594 10.703125 55.371094 6.621094 4.480469 14.335937 6.847656 22.308594 6.847656 13.277343 0 25.636718-6.5625 33.0625-17.550781 5.96875-8.824219 8.140624-19.445312 6.121093-29.902344-2.023437-10.457031-8-19.503906-16.824219-25.46875zm-5.867187 44.171875c-3.703125 5.476563-9.867187 8.746094-16.492187 8.746094-3.964844 0-7.804688-1.179687-11.109376-3.410156-9.078124-6.140625-11.472656-18.523438-5.332031-27.601563 3.703125-5.480468 9.867188-8.75 16.492188-8.75 3.964843 0 7.804687 1.179688 11.105469 3.414063 4.402343 2.972656 7.378906 7.480469 8.386718 12.695312 1.007813 5.210938-.074218 10.507813-3.050781 14.90625zm0 0"/><path d="m511.757812 82.007812c.601563-2.671874.078126-5.476562-1.445312-7.753906-16.984375-25.398437-44.058594-42.804687-74.285156-47.757812-27.730469-4.542969-54.734375 1.996094-76.046875 18.417968l-120 92.453126-71.371094-43.175782c3.402344-30.292968-9.6875-61.445312-36.644531-79.667968-14.054688-9.5-30.414063-14.523438-47.316406-14.523438-28.175782 0-54.402344 13.917969-70.160157 37.230469-26.128906 38.648437-15.941406 91.347656 22.707031 117.476562 14.054688 9.5 30.414063 14.519531 47.316407 14.519531 14.304687 0 28.101562-3.59375 40.289062-10.175781l43.292969 33.703125-42.605469 32.828125c-12.273437-6.710937-26.203125-10.375-40.664062-10.375-16.75 0-32.988281 4.9375-46.964844 14.285157-18.785156 12.5625-31.554687 31.691406-35.953125 53.855468-4.402344 22.167969.09375 44.722656 12.660156 63.507813 15.734375 23.53125 42.050782 37.582031 70.394532 37.582031 16.75 0 32.992187-4.941406 46.964843-14.285156 27.046875-18.089844 40.292969-49.175782 37.042969-79.484375l70.628906-42.246094 118.796875 92.472656c16.960938 13.207031 37.585938 20.121094 59.351563 20.121094 5.472656 0 11.023437-.4375 16.601562-1.324219 30.25-4.800781 57.410156-22.074218 74.523438-47.386718 1.535156-2.269532 2.070312-5.066407 1.480468-7.742188-.585937-2.679688-2.246093-4.996094-4.589843-6.414062l-55.179688-33.378907c-4.722656-2.859375-10.871093-1.347656-13.730469 3.378907-2.859374 4.726562-1.347656 10.875 3.378907 13.734374l45.644531 27.613282c-13.941406 16.148437-33.367188 27.0625-54.664062 30.441406-22.222657 3.527344-43.71875-1.738281-60.53125-14.824219l-227.0625-176.757812 22.023437-32.582031 206.125 124.691406c4.726563 2.859375 10.875 1.347656 13.734375-3.378906 2.859375-4.726563 1.34375-10.875-3.378906-13.734376l-50.023438-30.257812 175.035156-104.695312c2.351563-1.40625 4.023438-3.71875 4.625-6.390626zm-390.949218 271.515626c-10.671875 7.140624-23.070313 10.910156-35.847656 10.910156-21.652344 0-41.753907-10.726563-53.769532-28.699219-9.59375-14.34375-13.027344-31.566406-9.667968-48.492187 3.359374-16.925782 13.109374-31.53125 27.457031-41.121094 10.671875-7.136719 23.066406-10.910156 35.84375-10.910156 21.652343 0 41.753906 10.726562 53.773437 28.699218 19.800782 29.609375 11.820313 69.8125-17.789062 89.613282zm45.300781-84.453126-21.863281-32.691406 40.148437-30.933594 38.273438 29.792969zm-81.597656-119.84375c-12.890625 0-25.378907-3.835937-36.113281-11.089843-29.511719-19.949219-37.289063-60.191407-17.339844-89.703125 12.035156-17.804688 32.070312-28.433594 53.589844-28.433594 12.894531 0 25.382812 3.835938 36.113281 11.09375 29.515625 19.949219 37.292969 60.191406 17.34375 89.703125-12.035157 17.800781-32.070313 28.429687-53.59375 28.429687zm228.214843 32.148438-54.386718-32.902344 113.847656-87.714844c16.878906-13.003906 38.40625-18.15625 60.605469-14.523437 21.277343 3.488281 40.648437 14.5 54.511719 30.71875zm0 0"/><path d="m230.988281 193.492188c0 5.511718 4.492188 10.003906 10.003907 10.003906 5.507812 0 10-4.492188 10-10.003906 0-5.507813-4.492188-10-10-10-5.511719 0-10.003907 4.492187-10.003907 10zm0 0"/><path d="m401.171875 252.617188c0 5.507812 4.492187 10 10 10 5.511719 0 10.003906-4.492188 10.003906-10 0-5.511719-4.492187-10.003907-10.003906-10.003907-5.507813 0-10 4.492188-10 10.003907zm0 0"/></g></svg>