<?xml version="1.0" encoding="iso-8859-1"?>
<!-- Generator: Adobe Illustrator 19.0.0, SVG Export Plug-In . SVG Version: 6.00 Build 0)  -->
<svg version="1.1" id="Layer_1" xmlns="http://www.w3.org/2000/svg" xmlns:xlink="http://www.w3.org/1999/xlink" x="0px" y="0px"
	 viewBox="0 0 512.002 512.002" style="enable-background:new 0 0 512.002 512.002;" xml:space="preserve">
<g>
	<g>
		<path d="M359.796,256l61.384-61.383c1.912-1.912,2.987-4.507,2.987-7.212s-1.075-5.299-2.987-7.212l-4.978-4.978l76.605-104.257
			c2.983-4.059,2.555-9.689-1.007-13.252l-1.906-1.906l19.12-19.12c3.983-3.983,3.983-10.441,0-14.425L489.745,2.987
			c-3.984-3.983-10.44-3.983-14.425,0l-19.12,19.12l-1.906-1.906c-3.562-3.56-9.192-3.989-13.251-1.007L336.787,95.8l-4.978-4.978
			c-3.976-3.974-10.416-3.983-14.403-0.02l-61.578,61.23l-61.21-61.209c-3.984-3.983-10.44-3.983-14.425,0l-4.978,4.978
			L70.958,19.195c-4.058-2.981-9.688-2.555-13.251,1.007l-1.906,1.906L36.679,2.987c-3.984-3.983-10.44-3.983-14.425,0L2.987,22.256
			c-3.983,3.983-3.983,10.441,0,14.425L22.108,55.8l-1.906,1.906c-3.562,3.563-3.99,9.192-1.007,13.252L95.8,175.215l-4.978,4.978
			c-1.912,1.912-2.987,4.507-2.987,7.212s1.075,5.299,2.987,7.212l61.278,61.278L2.987,405.218c-3.983,3.983-3.983,10.441,0,14.425
			l89.372,89.372c1.992,1.991,4.602,2.987,7.212,2.987s5.22-0.996,7.212-2.987L256,359.796l149.217,149.217
			c1.992,1.991,4.602,2.987,7.212,2.987s5.22-0.996,7.212-2.987l89.372-89.372c3.983-3.983,3.983-10.441,0-14.425L359.796,256z
			 M482.533,24.624l4.844,4.845l-11.909,11.909l-4.347-4.347l-0.497-0.498L482.533,24.624z M446.063,40.819l2.925,2.925
			c0,0,0,0,0,0.001l19.268,19.268c0.001,0.001,0.003,0.003,0.004,0.004l2.921,2.921l-69.572,94.686l-50.232-50.232L446.063,40.819z
			 M324.576,112.437l74.967,74.968l-54.171,54.171l-75.121-75.121L324.576,112.437z M24.624,29.468l4.844-4.845l11.909,11.909
			l-0.497,0.497l-4.347,4.347L24.624,29.468z M40.819,65.937l2.921-2.921c0.001-0.001,0.003-0.003,0.004-0.004l19.267-19.267
			l2.925-2.925l94.685,69.572l-50.232,50.232L40.819,65.937z M99.57,487.377l-74.947-74.948l12.706-12.706l37.474,37.474
			l37.474,37.474L99.57,487.377z M126.701,460.246l-74.954-74.954l114.775-114.974l75.054,75.054L126.701,460.246z M112.457,187.405
			l74.947-74.948l272.842,272.842l-74.948,74.948L112.457,187.405z M412.429,487.377l-12.706-12.706l74.948-74.948l12.706,12.706
			L412.429,487.377z"/>
	</g>
</g>
<g>
	<g>
		<path d="M435.068,377.298l-87.204-87.204c-3.984-3.983-10.44-3.983-14.425,0c-3.983,3.983-3.983,10.441,0,14.425l87.205,87.204
			c1.992,1.992,4.602,2.987,7.212,2.987c2.61,0,5.22-0.995,7.212-2.987C439.051,387.74,439.051,381.282,435.068,377.298z"/>
	</g>
</g>
<g>
	<g>
		<path d="M325.429,267.659l-5.101-5.102c-3.984-3.983-10.44-3.983-14.425,0c-3.983,3.983-3.983,10.441,0,14.425l5.102,5.102
			c1.992,1.992,4.602,2.987,7.212,2.987c2.61,0,5.22-0.995,7.212-2.987C329.412,278.101,329.412,271.643,325.429,267.659z"/>
	</g>
</g>
<g>
</g>
<g>
</g>
<g>
</g>
<g>
</g>
<g>
</g>
<g>
</g>
<g>
</g>
<g>
</g>
<g>
</g>
<g>
</g>
<g>
</g>
<g>
</g>
<g>
</g>
<g>
</g>
<g>
</g>
</svg>
