<svg height="512pt" viewBox="-30 0 512 512" width="512pt" xmlns="http://www.w3.org/2000/svg"><path d="m281.917969 57.75h-112.191407c-5.507812 0-9.980468 4.46875-9.980468 9.980469s4.472656 9.980469 9.980468 9.980469h112.1875c5.511719 0 9.980469-4.46875 9.980469-9.980469s-4.46875-9.980469-9.976562-9.980469zm0 0"/><path d="m281.917969 100.597656h-72.242188c-5.511719 0-9.980469 4.46875-9.980469 9.980469s4.46875 9.980469 9.980469 9.980469h72.242188c5.507812 0 9.980469-4.46875 9.980469-9.980469s-4.472657-9.980469-9.980469-9.980469zm0 0"/><path d="m169.753906 120.558594c5.511719 0 9.980469-4.46875 9.980469-9.980469s-4.46875-9.980469-9.980469-9.980469h-.023437c-5.511719 0-9.96875 4.46875-9.96875 9.980469s4.480469 9.980469 9.992187 9.980469zm0 0"/><path d="m281.917969 143.449219h-112.191407c-5.507812 0-9.980468 4.46875-9.980468 9.980469 0 5.511718 4.472656 9.980468 9.980468 9.980468h112.1875c5.511719 0 9.980469-4.46875 9.980469-9.980468 0-5.511719-4.46875-9.980469-9.976562-9.980469zm0 0"/><path d="m281.917969 186.296875h-112.191407c-5.507812 0-9.980468 4.46875-9.980468 9.980469 0 5.511718 4.472656 9.980468 9.980468 9.980468h112.1875c5.511719 0 9.980469-4.46875 9.980469-9.980468 0-5.511719-4.46875-9.980469-9.976562-9.980469zm0 0"/><path d="m451.550781 278.210938c-.414062-7.148438-2.308593-14.070313-5.640625-20.621094l-20.847656-41.109375c-6.097656-12.011719-19.644531-19.773438-34.511719-19.773438h-48.59375v-156.535156c0-22.152344-18.019531-40.171875-40.164062-40.171875h-151.941407c-22.144531 0-40.164062 18.019531-40.164062 40.171875v156.535156h-48.59375c-14.867188 0-28.414062 7.761719-34.511719 19.777344l-20.839843 41.09375c-3.335938 6.554687-5.230469 13.480469-5.648438 20.628906-.0625 1.019531-.09375 2.039063-.09375 3.046875v105.574219c0 15.445313 9.960938 28.601563 23.789062 33.402344 3.628907 1.261719 7.515626 1.953125 11.566407 1.953125h51.039062c-3.917969 22.519531-10.984375 48.355468-23.328125 75.453125-1.402344 3.078125-1.152344 6.65625.667969 9.503906 1.816406 2.851563 4.957031 4.589844 8.335937 4.613281l31.605469.246094h.078125c2.8125 0 5.5-1.1875 7.390625-3.273438 13.097657-14.4375 22.414063-43.527343 27.75-86.542968h23.667969v76.550781c0 5.515625 4.46875 9.980469 9.980469 9.980469h34.710937c5.511719 0 9.980469-4.464844 9.980469-9.980469v-76.550781h17.175781v76.550781c0 5.515625 4.46875 9.980469 9.980469 9.980469h34.710937c5.511719 0 9.980469-4.464844 9.980469-9.980469v-76.550781h23.671875c5.332032 43.015625 14.652344 72.105468 27.746094 86.542968 1.890625 2.085938 4.578125 3.273438 7.390625 3.273438h.078125l31.605469-.246094c3.382812-.023437 6.519531-1.761718 8.339843-4.613281 1.816407-2.847656 2.066407-6.425781.664063-9.503906-12.34375-27.09375-19.410156-52.933594-23.328125-75.449219h51.039062c4.195313 0 8.21875-.738281 11.957032-2.085938.058594-.023437.125-.039062.1875-.0625.0625-.023437.121094-.050781.183594-.074218 13.433593-5.015625 23.027343-17.976563 23.027343-33.136719v-105.574219c0-1.007812-.03125-2.027344-.09375-3.042968zm-321.902343-71.523438v-166.515625c0-11.144531 9.0625-20.210937 20.203124-20.210937h151.941407c11.140625 0 20.199219 9.066406 20.199219 20.210937v189.390625h-192.34375zm-85.265626 18.828125c2.6875-5.292969 9.402344-8.847656 16.710938-8.847656h48.59375v12.898437h-9.648438c-5.511718 0-9.980468 4.46875-9.980468 9.980469s4.46875 9.980469 9.980468 9.980469h254.542969c5.511719 0 9.980469-4.46875 9.980469-9.980469s-4.46875-9.980469-9.980469-9.980469h-12.625v-12.898437h48.59375c7.308594 0 14.023438 3.554687 16.707031 8.84375l20.734376 40.890625h-404.34375zm75.691407 185.628906c-.007813.09375-.007813.183594-.015625.273438-3.449219 31.976562-9.820313 64.714843-21.058594 80.585937l-11.769531-.089844c25.417969-63.210937 24.820312-117.289062 22.953125-140.253906h13.457031c-.21875 12.5-.980469 35.304688-3.566406 59.484375zm42.488281-8.921875h-21.566406c.027344-.292968.050781-.582031.078125-.875.050781-.601562.101562-1.207031.152343-1.804687.011719-.117188.019532-.234375.03125-.347657.027344-.367187.058594-.722656.085938-1.085937.046875-.542969.089844-1.085937.132812-1.625.042969-.554687.085938-1.101563.128907-1.648437.035156-.46875.070312-.9375.105469-1.402344.003906-.0625.011718-.125.015624-.183594.046876-.625.089844-1.242188.132813-1.863281.023437-.316407.046875-.636719.070313-.953125.003906-.03125.003906-.0625.007812-.09375.140625-1.992188.269531-3.953125.386719-5.875.011719-.195313.023437-.382813.035156-.578125.046875-.773438.089844-1.542969.136719-2.304688.011718-.253906.027344-.507812.042968-.761719.039063-.703124.078126-1.398437.113282-2.089843.015625-.246094.027344-.488281.039062-.730469.035156-.6875.074219-1.367188.105469-2.042969.011719-.25.023437-.492187.035156-.742187.03125-.652344.0625-1.300782.09375-1.9375.011719-.253906.023438-.503906.035157-.75.027343-.644532.054687-1.277344.082031-1.90625.011719-.222656.019531-.445313.027343-.664063.027344-.632812.054688-1.253906.078126-1.871093.007812-.214844.015624-.433594.023437-.644532.027344-.652344.050781-1.289062.074219-1.917968.003906-.148438.011718-.292969.015625-.441407.023437-.683593.046875-1.351562.066406-2.011719.003906-.105468.007813-.210937.011719-.3125.023437-.738281.046875-1.460937.066406-2.164062 0-.011719 0-.023438 0-.035156.097656-3.351563.164062-6.335938.207031-8.894532h18.945313v50.558594zm34.710938 9.980469v76.550781h-14.75v-137.09375h14.75zm37.136718-9.980469h-17.175781v-50.5625h17.175781zm34.710938 9.980469v76.550781h-14.75v-137.09375h14.75zm19.960937-9.980469v-50.5625h18.949219c.046875 2.921875.125 6.402344.25 10.339844.003906.125.007812.246094.007812.375.019532.53125.035157 1.074219.054688 1.621094.007812.230468.015625.453125.023438.683594.019531.519531.039062 1.050781.058593 1.582031.007813.253906.019531.507812.027344.761719.019531.527343.039063 1.0625.0625 1.601562.011719.285156.023437.574219.035156.867188.019531.515624.042969 1.039062.066407 1.566406.015624.328125.027343.652344.042968.984375.023438.519531.046875 1.046875.070313 1.582031.015625.335938.035156.679688.050781 1.023438.027344.53125.050781 1.0625.078125 1.601562.019531.367188.039063.738281.058594 1.105469.027343.535156.054687 1.066406.082031 1.609375.019531.367187.042969.734375.0625 1.105468.03125.5625.0625 1.125.09375 1.695313.023438.347656.042969.699219.0625 1.046875.039062.597656.070312 1.195312.109375 1.800781.019531.285157.035156.578125.054687.867188.140626 2.253906.296876 4.558593.46875 6.910156.023438.285156.042969.570313.0625.855469.003907.03125.003907.0625.007813.089844.046875.652343.101563 1.3125.152344 1.972656.027343.359375.054687.714844.082031 1.074218.050781.664063.105469 1.332032.160156 2 .023438.269532.042969.539063.066406.808594.007813.089844.015626.183594.023438.273438.054688.667968.113281 1.34375.171875 2.019531.019531.246094.042969.492187.0625.738281zm63.5625 89.78125c-11.246093-15.894531-17.617187-48.710937-21.070312-80.738281-.003907-.039063 0-.078125-.003907-.121094-2.585937-24.179687-3.347656-46.984375-3.566406-59.484375h13.457032c-1.867188 22.964844-2.464844 77.039063 22.953124 140.25zm79.035157-105.179687c0 6.308593-3.8125 11.734375-9.25 14.113281-.050782.023438-.101563.050781-.15625.074219-.046876.019531-.101563.035156-.148438.054687-1.800781.742188-3.769531 1.15625-5.839844 1.15625h-53.839844c-2.453124-22.941406-1.722656-40.796875-.894531-50.566406h26.132813c5.507812 0 9.980468-4.464844 9.980468-9.980469 0-5.511719-4.472656-9.980469-9.980468-9.980469h-323.71875c-5.511719 0-9.980469 4.46875-9.980469 9.980469 0 5.515625 4.46875 9.980469 9.980469 9.980469h26.128906c.828125 9.777344 1.558594 27.628906-.898438 50.566406h-53.835937c-2 0-3.902344-.394531-5.65625-1.089844-5.695313-2.261718-9.738281-7.816406-9.738281-14.308593v-100.460938h371.535156v15.890625c0 13.394532 10.898438 24.292969 24.292969 24.292969h15.886719zm0-80.238281h-15.886719c-2.390625 0-4.332031-1.945313-4.332031-4.332032v-15.890625h20.21875zm0 0"/></svg>