<?xml version="1.0" encoding="iso-8859-1"?>
<!-- Generator: Adobe Illustrator 19.0.0, SVG Export Plug-In . SVG Version: 6.00 Build 0)  -->
<svg version="1.1" id="Capa_1" xmlns="http://www.w3.org/2000/svg" xmlns:xlink="http://www.w3.org/1999/xlink" x="0px" y="0px"
	 viewBox="0 0 512 512" style="enable-background:new 0 0 512 512;" xml:space="preserve">
<g>
	<g>
		<path d="M446.743,118.966c-12.919,0-12.941,20.078,0,20.078C459.663,139.044,459.684,118.966,446.743,118.966z"/>
	</g>
</g>
<g>
	<g>
		<path d="M511.862,460.384l-49.995-300.1c-0.912-5.469-6.072-9.165-11.553-8.253c-5.468,0.912-9.164,6.084-8.253,11.552
			l48.346,290.198l-118.735,19.781L302.487,58.22l118.726-19.781l9.918,59.535c0.911,5.468,6.069,9.159,11.553,8.253
			c5.468-0.911,9.164-6.084,8.253-11.552l-11.567-69.438c-0.438-2.626-1.901-4.971-4.068-6.519s-4.857-2.171-7.485-1.735
			L299.283,38.397c-1.801-2.692-4.867-4.464-8.348-4.464H150.487H10.039C4.496,33.933,0,38.427,0,43.972v441.141
			c0,5.546,4.496,10.04,10.039,10.04h140.448h140.448c5.544,0,10.039-4.495,10.039-10.039V171.337l52.541,315.427
			c0.438,2.626,1.901,4.971,4.067,6.519c1.715,1.225,3.757,1.87,5.836,1.87c0.549,0,1.101-0.045,1.65-0.137l138.541-23.08
			C509.078,471.026,512.773,465.853,511.862,460.384z M140.448,475.075H20.078V54.012h120.37V475.075z M280.896,475.075h-120.37
			V54.012h120.37V475.075z"/>
	</g>
</g>
<g>
	<g>
		<path d="M109.076,78.95H51.451c-5.544,0-10.039,4.495-10.039,10.039v248.48c0,5.545,4.496,10.039,10.039,10.039h57.625
			c5.544,0,10.039-4.495,10.039-10.039V88.989C119.115,83.444,114.62,78.95,109.076,78.95z M99.036,327.429H61.49V99.028h37.547
			V327.429z"/>
	</g>
</g>
<g>
	<g>
		<path d="M80.263,372.435c-21.424,0-38.852,17.429-38.852,38.852s17.428,38.852,38.852,38.852
			c21.424,0,38.852-17.429,38.852-38.852S101.687,372.435,80.263,372.435z M80.263,430.06c-10.352,0-18.773-8.422-18.773-18.773
			c0-10.352,8.422-18.773,18.773-18.773c10.351,0,18.773,8.422,18.773,18.773C99.036,421.638,90.616,430.06,80.263,430.06z"/>
	</g>
</g>
<g>
	<g>
		<path d="M249.514,78.95h-57.615c-5.544,0-10.039,4.495-10.039,10.039v248.48c0,5.545,4.496,10.039,10.039,10.039h57.615
			c5.544,0,10.039-4.495,10.039-10.039V88.989C259.553,83.444,255.057,78.95,249.514,78.95z M239.474,327.429h-37.536V99.028h37.536
			V327.429z"/>
	</g>
</g>
<g>
	<g>
		<path d="M220.711,372.435c-21.423,0-38.851,17.429-38.851,38.852c-0.001,21.423,17.428,38.852,38.851,38.852
			c21.418,0,38.842-17.429,38.842-38.852S242.129,372.435,220.711,372.435z M220.711,430.06c-10.351,0-18.772-8.422-18.772-18.773
			c-0.001-10.351,8.421-18.773,18.772-18.773c10.346,0,18.763,8.422,18.763,18.773S231.057,430.06,220.711,430.06z"/>
	</g>
</g>
<g>
	<g>
		<path d="M446.747,321.552L405.918,76.447c-0.438-2.626-1.901-4.971-4.067-6.519c-2.167-1.548-4.858-2.172-7.486-1.735
			l-56.831,9.467c-5.468,0.912-9.164,6.084-8.253,11.552l40.829,245.107c0.438,2.626,1.901,4.971,4.067,6.519
			c1.715,1.225,3.757,1.87,5.836,1.87c0.549,0,1.101-0.045,1.65-0.137l56.831-9.467
			C443.962,332.193,447.658,327.021,446.747,321.552z M388.266,321.118l-37.53-225.301l37.026-6.168l37.53,225.301L388.266,321.118z
			"/>
	</g>
</g>
<g>
	<g>
		<path d="M458.874,394.362c-1.704-10.231-7.292-19.189-15.735-25.22c-8.444-6.029-18.731-8.413-28.962-6.711
			c-10.235,1.703-19.194,7.291-25.226,15.737c-6.032,8.443-8.415,18.729-6.712,28.961c1.702,10.24,7.29,19.202,15.736,25.235
			c6.662,4.758,14.468,7.244,22.489,7.243c2.149,0,4.313-0.179,6.473-0.539c10.235-1.703,19.195-7.291,25.229-15.736
			C458.201,414.886,460.583,404.597,458.874,394.362z M435.829,411.661c-2.914,4.08-7.243,6.78-12.194,7.604
			c-4.942,0.825-9.913-0.324-13.992-3.239c-4.079-2.913-6.779-7.242-7.601-12.191c-0.822-4.945,0.329-9.917,3.244-13.998
			c2.914-4.079,7.241-6.779,12.183-7.602c1.042-0.173,2.085-0.259,3.12-0.259c3.88,0,7.656,1.203,10.877,3.504
			c4.079,2.913,6.778,7.24,7.601,12.183c0,0.002,0,0.004,0.001,0.007C439.896,402.613,438.744,407.581,435.829,411.661z"/>
	</g>
</g>
<g>
</g>
<g>
</g>
<g>
</g>
<g>
</g>
<g>
</g>
<g>
</g>
<g>
</g>
<g>
</g>
<g>
</g>
<g>
</g>
<g>
</g>
<g>
</g>
<g>
</g>
<g>
</g>
<g>
</g>
</svg>
