<?xml version="1.0" encoding="iso-8859-1"?>
<!-- Generator: Adobe Illustrator 19.0.0, SVG Export Plug-In . SVG Version: 6.00 Build 0)  -->
<svg version="1.1" id="Layer_1" xmlns="http://www.w3.org/2000/svg" xmlns:xlink="http://www.w3.org/1999/xlink" x="0px" y="0px"
	 viewBox="0 0 298.972 298.972" style="enable-background:new 0 0 298.972 298.972;" xml:space="preserve">
<g>
	<g>
		<path d="M279.428,132.444h-48.009l-18.213-42.719h3.316c10.778,0,19.546-8.769,19.546-19.546c0-10.778-8.769-19.547-19.546-19.547
			H82.45c-10.778,0-19.547,8.769-19.547,19.547c0,10.778,8.769,19.546,19.547,19.546h3.316l-18.212,42.719H19.545
			C8.768,132.444,0,141.213,0,151.99c0,10.777,8.768,19.546,19.545,19.546h31.349l-28.429,66.676
			c-2.046,4.797,1.483,10.129,6.692,10.129h36.133c2.915,0,5.548-1.74,6.692-4.422l30.862-72.382h93.285l30.862,72.382
			c1.144,2.682,3.777,4.422,6.692,4.422h36.133c5.215,0,8.735-5.338,6.692-10.129l-28.43-66.676h31.349
			c10.778,0,19.545-8.768,19.545-19.546C298.972,141.212,290.206,132.444,279.428,132.444z M215.601,132.444h-20.316l-18.212-42.719
			h20.316L215.601,132.444z M179.468,132.444h-59.963l18.212-42.719h23.539L179.468,132.444z M82.45,75.175
			c-2.755,0-4.996-2.241-4.996-4.995c0-2.755,2.242-4.997,4.996-4.997h134.073c2.755,0,4.996,2.242,4.996,4.997
			c0,2.755-2.242,4.995-4.996,4.995C162.799,75.175,146.35,75.175,82.45,75.175z M101.584,89.725H121.9l-18.212,42.719H83.372
			L101.584,89.725z M60.483,233.791H40.169l26.543-62.255h20.315L60.483,233.791z M258.805,233.791H238.49l-26.543-62.255h20.315
			L258.805,233.791z M279.428,156.985c-92.62,0,4.036,0-259.882,0c-2.755,0-4.995-2.241-4.995-4.996
			c0-2.755,2.241-4.995,4.995-4.995c9.879,0,250.018,0,259.882,0c2.755,0,4.995,2.242,4.995,4.995
			C284.423,154.744,282.183,156.985,279.428,156.985z"/>
	</g>
</g>
<g>
</g>
<g>
</g>
<g>
</g>
<g>
</g>
<g>
</g>
<g>
</g>
<g>
</g>
<g>
</g>
<g>
</g>
<g>
</g>
<g>
</g>
<g>
</g>
<g>
</g>
<g>
</g>
<g>
</g>
</svg>
