<?xml version="1.0" encoding="iso-8859-1"?>
<!-- Generator: Adobe Illustrator 19.0.0, SVG Export Plug-In . SVG Version: 6.00 Build 0)  -->
<svg version="1.1" id="Layer_1" xmlns="http://www.w3.org/2000/svg" xmlns:xlink="http://www.w3.org/1999/xlink" x="0px" y="0px"
	 viewBox="0 0 512 512" style="enable-background:new 0 0 512 512;" xml:space="preserve">
<g>
	<g>
		<path d="M332.233,197.28c0-5.69-4.613-10.302-10.302-10.302H190.068c-5.689,0-10.302,4.612-10.302,10.302
			c0,5.69,4.613,10.302,10.302,10.302h16.36c-12.649,12.68-20.481,30.166-20.481,49.449c0,38.627,31.426,70.052,70.052,70.052
			s70.052-31.426,70.052-70.052c0-19.283-7.832-36.769-20.481-49.449h16.36C327.62,207.581,332.233,202.969,332.233,197.28z
			 M256,306.479c-27.267,0-49.449-22.183-49.449-49.449s22.182-49.449,49.449-49.449s49.449,22.183,49.449,49.449
			S283.267,306.479,256,306.479z"/>
	</g>
</g>
<g>
	<g>
		<path d="M332.233,45.843c0-5.69-4.613-10.302-10.302-10.302H190.068c-5.689,0-10.302,4.612-10.302,10.302
			s4.613,10.302,10.302,10.302h16.36c-12.649,12.679-20.481,30.166-20.481,49.449c0,38.627,31.426,70.052,70.052,70.052
			s70.052-31.426,70.052-70.052c0-19.283-7.832-36.769-20.481-49.449h16.36C327.62,56.145,332.233,51.533,332.233,45.843z
			 M256,155.042c-27.267,0-49.449-22.183-49.449-49.449S228.733,56.145,256,56.145s49.449,22.183,49.449,49.449
			S283.267,155.042,256,155.042z"/>
	</g>
</g>
<g>
	<g>
		<path d="M337.384,339.445h-2.06c-5.689,0-10.302,4.612-10.302,10.302s4.613,10.302,10.302,10.302h2.06
			c5.689,0,10.302-4.612,10.302-10.302S343.073,339.445,337.384,339.445z"/>
	</g>
</g>
<g>
	<g>
		<path d="M305.571,360.048h2.968c5.689,0,10.302-4.612,10.302-10.302s-4.613-10.302-10.302-10.302H190.068
			c-5.689,0-10.302,4.612-10.302,10.302s4.613,10.302,10.302,10.302h16.36c-12.649,12.68-20.481,30.166-20.481,49.449
			c0,38.627,31.426,70.052,70.052,70.052s70.052-31.426,70.052-70.052C326.052,390.214,318.22,372.728,305.571,360.048z
			 M256,458.946c-27.267,0-49.449-22.183-49.449-49.449c0-27.266,22.182-49.449,49.449-49.449s49.449,22.183,49.449,49.449
			C305.449,436.763,283.267,458.946,256,458.946z"/>
	</g>
</g>
<g>
	<g>
		<path d="M391.302,215.294c1.081,0.361,2.179,0.532,3.258,0.532c4.314,0,8.333-2.73,9.772-7.047
			c1.799-5.397-1.119-11.231-6.516-13.031l-19.74-6.58V59.45l13.225,4.408c1.081,0.361,2.179,0.532,3.258,0.532
			c4.314,0,8.333-2.73,9.772-7.047c1.799-5.397-1.119-11.231-6.516-13.031l-19.74-6.58v-4.766C378.076,14.788,363.288,0,345.111,0
			H166.889c-18.178,0-32.966,14.788-32.966,32.966v4.766l-19.74,6.58c-5.397,1.8-8.315,7.634-6.516,13.031
			c1.439,4.317,5.459,7.047,9.772,7.047c1.08,0,2.178-0.172,3.258-0.532l13.225-4.408v129.718l-19.74,6.58
			c-5.397,1.8-8.315,7.634-6.516,13.031c1.439,4.318,5.459,7.047,9.772,7.047c1.08,0,2.178-0.172,3.258-0.532l13.225-4.408v130.749
			l-19.74,6.58c-5.397,1.8-8.315,7.634-6.516,13.031c1.439,4.318,5.459,7.047,9.772,7.047c1.08,0,2.178-0.172,3.258-0.532
			l13.225-4.408v115.681c0,18.178,14.788,32.966,32.966,32.966h178.221c18.178,0,32.966-14.788,32.966-32.966V363.353l13.225,4.408
			c1.081,0.361,2.179,0.532,3.258,0.532c4.314,0,8.333-2.73,9.772-7.047c1.799-5.397-1.119-11.231-6.516-13.031l-19.74-6.58V210.886
			L391.302,215.294z M357.473,479.034c0,6.817-5.545,12.362-12.362,12.362H166.889c-6.817,0-12.362-5.545-12.362-12.362V32.966
			c0-6.817,5.545-12.362,12.362-12.362h178.221c6.817,0,12.362,5.545,12.362,12.362V479.034z"/>
	</g>
</g>
<g>
</g>
<g>
</g>
<g>
</g>
<g>
</g>
<g>
</g>
<g>
</g>
<g>
</g>
<g>
</g>
<g>
</g>
<g>
</g>
<g>
</g>
<g>
</g>
<g>
</g>
<g>
</g>
<g>
</g>
</svg>
