<?xml version="1.0" encoding="iso-8859-1"?>
<!-- Generator: Adobe Illustrator 19.0.0, SVG Export Plug-In . SVG Version: 6.00 Build 0)  -->
<svg version="1.1" id="Layer_1" xmlns="http://www.w3.org/2000/svg" xmlns:xlink="http://www.w3.org/1999/xlink" x="0px" y="0px"
	 viewBox="0 0 511.999 511.999" style="enable-background:new 0 0 511.999 511.999;" xml:space="preserve">
<g>
	<g>
		<path d="M510.207,154.002c-1.716-2.858-4.498-4.919-7.734-5.729L75.76,41.657c-0.409-0.102-0.82-0.182-1.234-0.243
			c-0.296-0.043-0.59-0.063-0.883-0.086c-0.116-0.009-0.231-0.026-0.347-0.033c-0.343-0.016-0.684-0.01-1.025,0.001
			c-0.068,0.001-0.137-0.003-0.205,0.001c-0.336,0.018-0.666,0.055-0.997,0.099c-0.077,0.01-0.153,0.013-0.229,0.025
			c-0.298,0.045-0.591,0.109-0.883,0.176c-0.109,0.025-0.22,0.042-0.329,0.068c-0.248,0.063-0.488,0.145-0.731,0.221
			c-0.151,0.048-0.303,0.087-0.451,0.141c-0.201,0.073-0.395,0.162-0.591,0.245c-0.181,0.077-0.366,0.143-0.544,0.229
			c-0.22,0.104-0.429,0.228-0.643,0.343c-0.143,0.079-0.292,0.147-0.433,0.231c-0.111,0.067-0.211,0.145-0.318,0.214
			c-0.235,0.151-0.472,0.301-0.698,0.468c-0.109,0.08-0.209,0.172-0.314,0.257c-0.216,0.171-0.434,0.341-0.639,0.527
			c-0.079,0.073-0.151,0.152-0.229,0.226c-0.22,0.21-0.439,0.421-0.644,0.648c-0.052,0.057-0.096,0.118-0.146,0.176
			c-0.22,0.252-0.435,0.507-0.636,0.777c-0.034,0.045-0.062,0.094-0.096,0.141c-0.206,0.285-0.405,0.576-0.587,0.882
			c-0.033,0.055-0.06,0.114-0.092,0.17c-0.172,0.297-0.338,0.597-0.487,0.912c-0.054,0.113-0.096,0.234-0.146,0.35
			c-0.113,0.26-0.23,0.519-0.327,0.79c-0.109,0.307-0.199,0.622-0.285,0.938c-0.024,0.088-0.057,0.171-0.079,0.26l-0.003,0.01
			L20.885,209.425c-1.684,6.738,2.413,13.565,9.151,15.249l71.799,17.938v85.242H25.151v-32.822c0-6.944-5.63-12.576-12.576-12.576
			C5.63,282.456,0,288.087,0,295.031v45.398v72.309v45.399c0,6.944,5.63,12.576,12.576,12.576c6.945,0,12.576-5.631,12.576-12.576
			v-34.741l94.338-15.68c15.932-2.645,30.449-10.88,40.87-23.187c10.431-12.301,16.176-27.963,16.176-44.1v-79.157l104.787,26.178
			c0.001,0,0.001,0,0.001,0l110.563,27.616c1.022,0.255,2.047,0.377,3.057,0.377c5.634,0,10.762-3.814,12.191-9.529l12.726-50.915
			c44.893-11.092,80.454-46.216,91.764-91.478C512.433,160.286,511.923,156.862,510.207,154.002z M141.17,368.269
			c-6.578,7.768-15.741,12.965-25.802,14.635l-90.217,14.995v-44.895h89.261h35.083C147.795,358.565,144.983,363.773,141.17,368.269
			z M151.384,327.854h-24.396v-78.959l24.396,6.095V327.854z M385.783,287.618l-86.593-21.627l5.265-24.815l54.921,13.717
			c10.087,2.523,20.281,3.785,30.486,3.785c1.058,0,2.115-0.043,3.172-0.07L385.783,287.618z M407.357,231.971
			c-13.939,2.481-28.031,1.982-41.883-1.48l-67.568-16.876c-0.075-0.019-0.151-0.026-0.226-0.044
			c-0.072-0.016-0.14-0.042-0.211-0.057c-0.132-0.028-0.264-0.04-0.396-0.063c-0.223-0.04-0.444-0.079-0.667-0.107
			c-0.2-0.025-0.399-0.04-0.597-0.055c-0.22-0.018-0.44-0.033-0.659-0.038c-0.201-0.005-0.401,0-0.601,0.004
			c-0.214,0.005-0.426,0.011-0.638,0.026c-0.204,0.015-0.404,0.039-0.605,0.064c-0.204,0.025-0.407,0.052-0.61,0.087
			s-0.402,0.079-0.601,0.125c-0.196,0.045-0.392,0.089-0.585,0.143c-0.199,0.055-0.394,0.118-0.589,0.184
			c-0.19,0.063-0.377,0.126-0.563,0.197c-0.19,0.073-0.376,0.155-0.562,0.236c-0.184,0.081-0.367,0.164-0.547,0.253
			c-0.179,0.089-0.352,0.185-0.526,0.283c-0.179,0.101-0.356,0.201-0.531,0.309c-0.165,0.104-0.324,0.213-0.485,0.324
			c-0.172,0.118-0.343,0.239-0.509,0.366c-0.152,0.117-0.299,0.239-0.445,0.363c-0.162,0.136-0.322,0.274-0.478,0.419
			c-0.14,0.131-0.273,0.267-0.407,0.404c-0.15,0.152-0.297,0.306-0.438,0.465c-0.128,0.145-0.25,0.296-0.371,0.446
			c-0.132,0.165-0.263,0.329-0.387,0.5c-0.117,0.162-0.228,0.329-0.337,0.498c-0.113,0.174-0.225,0.347-0.331,0.527
			c-0.104,0.18-0.201,0.365-0.298,0.549c-0.094,0.181-0.187,0.362-0.273,0.55c-0.089,0.195-0.17,0.395-0.249,0.596
			c-0.075,0.19-0.151,0.381-0.218,0.576c-0.07,0.205-0.13,0.414-0.19,0.624c-0.038,0.135-0.087,0.263-0.121,0.399
			c-0.019,0.076-0.026,0.15-0.044,0.224c-0.016,0.073-0.042,0.141-0.057,0.214l-7.783,36.684L48.335,203.321l18.284-73.186
			c14.993,35.508,45.962,63.1,85.276,72.922l76.02,18.994c6.738,1.683,13.566-2.414,15.249-9.152
			c1.684-6.737-2.413-13.565-9.151-15.249l-76.02-18.994c-44.807-11.192-76.1-51.219-76.1-97.332c0-4.002,0.245-8.018,0.732-12.026
			l400.783,100.138C470.83,201.795,442.115,225.781,407.357,231.971z"/>
	</g>
</g>
<g>
	<g>
		<path d="M267.422,205.998l-1.801-0.449c-6.739-1.68-13.565,2.417-15.248,9.155s2.417,13.564,9.155,15.247l1.801,0.449
			c1.022,0.255,2.047,0.377,3.056,0.377c5.636,0,10.765-3.817,12.192-9.532C278.26,214.507,274.162,207.681,267.422,205.998z"/>
	</g>
</g>
<g>
	<g>
		<path d="M147.507,98.736L130.14,94.41c-6.739-1.679-13.564,2.422-15.243,9.163c-1.679,6.738,2.423,13.563,9.163,15.242
			l17.367,4.326c1.021,0.254,2.044,0.376,3.05,0.376c5.638,0,10.768-3.819,12.193-9.539
			C158.349,107.24,154.246,100.415,147.507,98.736z"/>
	</g>
</g>
<g>
</g>
<g>
</g>
<g>
</g>
<g>
</g>
<g>
</g>
<g>
</g>
<g>
</g>
<g>
</g>
<g>
</g>
<g>
</g>
<g>
</g>
<g>
</g>
<g>
</g>
<g>
</g>
<g>
</g>
</svg>
