<?xml version="1.0" encoding="iso-8859-1"?>
<!-- Generator: Adobe Illustrator 19.0.0, SVG Export Plug-In . SVG Version: 6.00 Build 0)  -->
<svg version="1.1" id="Layer_1" xmlns="http://www.w3.org/2000/svg" xmlns:xlink="http://www.w3.org/1999/xlink" x="0px" y="0px"
	 viewBox="0 0 512 512" style="enable-background:new 0 0 512 512;" xml:space="preserve">
<g>
	<g>
		<path d="M401.027,195.239h-21.832v-72.044C379.195,55.265,323.93,0,256,0S132.805,55.265,132.805,123.195v72.044h-21.832
			c-23.046,0-41.795,18.749-41.795,41.795v217.497c0,31.688,25.78,57.469,57.469,57.469h258.707
			c31.688,0,57.469-25.78,57.469-57.469V237.034C442.822,213.988,424.073,195.239,401.027,195.239z M153.703,123.195
			c0-56.407,45.89-102.297,102.297-102.297s102.297,45.89,102.297,102.297v72.044H340.54v-72.044
			c0-46.615-37.924-84.541-84.54-84.541c-46.615,0-84.54,37.924-84.54,84.541v72.044h-17.758V123.195z M319.642,123.195v72.044
			H192.358v-72.044c0-35.092,28.549-63.643,63.642-63.643S319.642,88.103,319.642,123.195z M421.925,454.531
			c0,20.165-16.406,36.571-36.571,36.571H126.646c-20.165,0-36.571-16.406-36.571-36.571V237.034
			c0-11.523,9.375-20.898,20.898-20.898h290.054c11.523,0,20.898,9.375,20.898,20.898V454.531z"/>
	</g>
</g>
<g>
	<g>
		<path d="M308.405,322.708c0-28.896-23.509-52.405-52.405-52.405s-52.405,23.509-52.405,52.405
			c0,20.371,11.841,38.648,29.719,47.242l-9.186,55.984c-0.497,3.026,0.362,6.118,2.347,8.455c1.985,2.337,4.896,3.685,7.964,3.685
			h43.122c3.067,0,5.979-1.347,7.964-3.685c1.985-2.337,2.844-5.429,2.347-8.455l-9.186-55.984
			C296.565,361.357,308.405,343.08,308.405,322.708z M264.26,353.114c-5.172,1.4-8.447,6.488-7.58,11.777l8.578,52.286h-18.516
			l8.58-52.286c0.867-5.288-2.407-10.376-7.58-11.777c-13.689-3.707-23.249-16.211-23.249-30.407
			c0-17.373,14.134-31.507,31.508-31.507s31.507,14.134,31.507,31.507C287.509,336.903,277.949,349.406,264.26,353.114z"/>
	</g>
</g>
<g>
	<g>
		<path d="M122.255,275.455c-5.77,0-10.449,4.678-10.449,10.449v0.137c0,5.771,4.679,10.449,10.449,10.449
			c5.771,0,10.449-4.678,10.449-10.449v-0.137C132.704,280.133,128.025,275.455,122.255,275.455z"/>
	</g>
</g>
<g>
	<g>
		<path d="M122.255,309.396c-5.77,0-10.449,4.678-10.449,10.449v101.491c0,5.771,4.679,10.449,10.449,10.449
			c5.771,0,10.449-4.678,10.449-10.449V319.845C132.704,314.074,128.025,309.396,122.255,309.396z"/>
	</g>
</g>
<g>
</g>
<g>
</g>
<g>
</g>
<g>
</g>
<g>
</g>
<g>
</g>
<g>
</g>
<g>
</g>
<g>
</g>
<g>
</g>
<g>
</g>
<g>
</g>
<g>
</g>
<g>
</g>
<g>
</g>
</svg>
