<?xml version="1.0" encoding="iso-8859-1"?>
<!-- Generator: Adobe Illustrator 19.0.0, SVG Export Plug-In . SVG Version: 6.00 Build 0)  -->
<svg version="1.1" id="Layer_1" xmlns="http://www.w3.org/2000/svg" xmlns:xlink="http://www.w3.org/1999/xlink" x="0px" y="0px"
	 viewBox="0 0 512 512" style="enable-background:new 0 0 512 512;" xml:space="preserve">
<g>
	<g>
		<path d="M496.682,194.662c3.639-7.663,5.683-16.224,5.683-25.256c0-32.577-26.503-59.081-59.08-59.081
			c-32.577,0-59.081,26.504-59.081,59.081c0,1.43,0.069,2.844,0.169,4.249l-11.885-0.009c-8.547-23.379-31.013-40.112-57.315-40.112
			c-26.27,0-48.714,16.692-57.284,40.027l-196.361-0.146C27.602,173.415,0,201.017,0,234.943v191.528
			c0,33.927,27.602,61.529,61.521,61.529l388.951,0.29c33.927,0,61.528-27.602,61.528-61.528V235.233
			C512,220.209,506.485,205.824,496.682,194.662z M443.285,130.326c21.549,0,39.08,17.531,39.08,39.081
			c0,16.048-9.726,29.861-23.59,35.871c-0.184,0.079-0.368,0.159-0.554,0.236c-0.422,0.175-0.847,0.344-1.276,0.504
			c-0.28,0.104-0.563,0.202-0.846,0.3c-0.372,0.13-0.743,0.261-1.12,0.38c-0.645,0.202-1.294,0.391-1.95,0.559
			c-0.213,0.055-0.431,0.098-0.645,0.149c-0.51,0.122-1.022,0.239-1.538,0.34c-0.262,0.052-0.527,0.095-0.792,0.142
			c-0.482,0.084-0.967,0.161-1.453,0.228c-0.265,0.036-0.531,0.071-0.797,0.102c-0.516,0.06-1.034,0.106-1.555,0.146
			c-0.233,0.018-0.466,0.04-0.7,0.053c-0.751,0.043-1.506,0.07-2.264,0.07c-0.601,0-1.198-0.018-1.793-0.045
			c-0.264-0.012-0.526-0.032-0.789-0.049c-0.301-0.02-0.601-0.042-0.899-0.069c-0.371-0.034-0.741-0.071-1.109-0.115
			c-0.124-0.015-0.247-0.031-0.371-0.047c-10.802-1.408-20.53-7.339-26.805-16.032c-0.08-0.111-0.16-0.223-0.238-0.335
			c-0.207-0.294-0.41-0.59-0.61-0.89c-0.185-0.279-0.365-0.561-0.542-0.845c-0.107-0.17-0.216-0.338-0.32-0.51
			c-3.555-5.886-5.604-12.779-5.604-20.143C404.204,147.857,421.735,130.326,443.285,130.326z M376.167,193.649l13.216,0.01
			c3.481,7.798,8.521,14.584,14.682,20.046H373.07c2.003-6.033,3.103-12.474,3.103-19.171
			C376.174,194.24,376.172,193.944,376.167,193.649z M274.231,192.34c0.003-0.05,0.009-0.099,0.011-0.15
			c0.04-0.69,0.094-1.379,0.169-2.068c0.002-0.021,0.006-0.042,0.008-0.063c0.079-0.711,0.175-1.421,0.29-2.129
			c0.006-0.039,0.014-0.077,0.02-0.115c0.111-0.67,0.239-1.337,0.383-2.002c4.016-18.432,20.448-32.279,40.062-32.279
			c19.638,0,36.087,13.88,40.072,32.343c0.14,0.653,0.265,1.308,0.373,1.965c0.007,0.044,0.016,0.087,0.023,0.13
			c0.116,0.714,0.212,1.43,0.29,2.146c0.001,0.008,0.002,0.017,0.003,0.025c0.075,0.699,0.131,1.398,0.17,2.098
			c0.002,0.036,0.006,0.071,0.008,0.107c0.04,0.729,0.06,1.458,0.06,2.186c0,9.168-3.025,17.642-8.129,24.478
			c-0.017,0.023-0.034,0.045-0.051,0.068c-1.549,2.066-3.289,3.98-5.192,5.719c-0.035,0.031-0.068,0.064-0.103,0.096
			c-0.407,0.369-0.825,0.727-1.247,1.08c-0.151,0.126-0.302,0.251-0.454,0.374c-0.377,0.307-0.759,0.609-1.148,0.903
			c-0.235,0.177-0.475,0.348-0.714,0.52c-0.334,0.241-0.666,0.485-1.007,0.717c-0.584,0.395-1.176,0.777-1.779,1.14
			c-0.148,0.09-0.302,0.172-0.452,0.26c-0.523,0.307-1.051,0.606-1.587,0.889c-0.159,0.084-0.32,0.164-0.48,0.246
			c-0.56,0.286-1.125,0.562-1.697,0.822c-0.121,0.055-0.242,0.111-0.364,0.165c-0.684,0.303-1.375,0.591-2.075,0.857
			c-0.01,0.004-0.021,0.008-0.031,0.012c-1.521,0.576-3.078,1.062-4.663,1.454c-0.009,0.002-0.018,0.004-0.026,0.006
			c-0.73,0.18-1.468,0.337-2.21,0.477c-0.143,0.027-0.286,0.051-0.429,0.077c-0.612,0.109-1.229,0.202-1.848,0.284
			c-0.197,0.026-0.394,0.053-0.592,0.075c-0.589,0.068-1.181,0.12-1.775,0.163c-0.201,0.014-0.4,0.034-0.602,0.046
			c-0.779,0.045-1.561,0.072-2.346,0.072c-0.785,0-1.566-0.027-2.345-0.072c-0.203-0.011-0.404-0.032-0.607-0.046
			c-0.592-0.043-1.184-0.094-1.772-0.163c-0.198-0.023-0.395-0.05-0.592-0.075c-0.619-0.081-1.235-0.174-1.847-0.283
			c-0.143-0.025-0.288-0.05-0.431-0.077c-0.739-0.14-1.474-0.295-2.201-0.475c-0.012-0.003-0.024-0.005-0.036-0.008
			c-1.584-0.392-3.139-0.878-4.658-1.453c-0.013-0.005-0.026-0.01-0.039-0.016c-0.697-0.265-1.384-0.551-2.065-0.853
			c-0.125-0.055-0.248-0.112-0.372-0.168c-0.569-0.259-1.131-0.533-1.688-0.818c-0.162-0.083-0.325-0.164-0.486-0.249
			c-0.534-0.282-1.059-0.58-1.581-0.885c-0.151-0.089-0.307-0.172-0.457-0.263c-0.603-0.364-1.194-0.745-1.778-1.14
			c-0.34-0.231-0.671-0.474-1.005-0.715c-0.24-0.173-0.481-0.344-0.718-0.523c-0.387-0.292-0.767-0.593-1.143-0.899
			c-0.155-0.126-0.309-0.253-0.462-0.38c-0.419-0.351-0.834-0.706-1.238-1.073c-0.04-0.036-0.079-0.075-0.12-0.111
			c-1.894-1.732-3.626-3.638-5.169-5.694c-0.024-0.032-0.048-0.065-0.073-0.097c-5.097-6.833-8.118-15.301-8.118-24.462
			C274.171,193.805,274.192,193.073,274.231,192.34z M268.414,233.709c2.414,2.877,5.083,5.489,7.943,7.847
			c0.041,0.034,0.082,0.066,0.123,0.1c0.716,0.587,1.441,1.162,2.181,1.715c0.073,0.055,0.148,0.106,0.222,0.161
			c0.724,0.536,1.454,1.063,2.201,1.566c0.056,0.038,0.115,0.073,0.172,0.111c0.976,0.652,1.97,1.274,2.98,1.868
			c0.673,0.398,1.348,0.791,2.037,1.163c0.209,0.113,0.423,0.215,0.633,0.325c0.751,0.395,1.509,0.779,2.278,1.142
			c0.185,0.087,0.374,0.168,0.56,0.253c0.804,0.37,1.615,0.726,2.437,1.062c0.169,0.069,0.339,0.133,0.508,0.201
			c0.844,0.336,1.697,0.654,2.559,0.953c0.161,0.056,0.322,0.11,0.483,0.164c0.869,0.293,1.747,0.567,2.633,0.821
			c0.165,0.047,0.329,0.095,0.495,0.141c0.879,0.244,1.765,0.468,2.659,0.673c0.179,0.041,0.356,0.084,0.536,0.124
			c0.873,0.192,1.752,0.362,2.638,0.516c0.204,0.036,0.407,0.076,0.611,0.11c0.856,0.14,1.719,0.256,2.586,0.36
			c0.232,0.028,0.463,0.063,0.696,0.089c0.854,0.092,1.715,0.159,2.578,0.215c0.24,0.016,0.478,0.042,0.719,0.055
			c1.09,0.058,2.186,0.091,3.29,0.091s2.201-0.033,3.29-0.091c0.241-0.013,0.48-0.039,0.721-0.055
			c0.863-0.056,1.723-0.123,2.575-0.215c0.234-0.025,0.466-0.061,0.7-0.089c0.867-0.104,1.729-0.22,2.585-0.36
			c0.204-0.033,0.406-0.074,0.609-0.109c0.887-0.154,1.768-0.325,2.641-0.517c0.178-0.039,0.356-0.083,0.534-0.124
			c0.895-0.206,1.783-0.429,2.662-0.674c0.164-0.046,0.327-0.093,0.491-0.14c0.887-0.255,1.766-0.529,2.636-0.822
			c0.161-0.054,0.322-0.108,0.482-0.163c0.863-0.299,1.717-0.618,2.563-0.955c0.167-0.066,0.335-0.13,0.502-0.198
			c0.825-0.337,1.64-0.694,2.446-1.065c0.183-0.084,0.368-0.163,0.551-0.249c0.774-0.366,1.536-0.752,2.291-1.149
			c0.206-0.108,0.416-0.208,0.621-0.318c0.704-0.38,1.394-0.782,2.081-1.189c0.968-0.571,1.92-1.168,2.857-1.792
			c0.084-0.057,0.172-0.108,0.256-0.165c0.738-0.497,1.459-1.018,2.175-1.548c0.082-0.061,0.166-0.118,0.247-0.179
			c0.734-0.549,1.452-1.118,2.162-1.7c0.048-0.039,0.096-0.077,0.144-0.116c0.736-0.607,1.456-1.233,2.165-1.876
			c0.003-0.003,0.007-0.006,0.01-0.01c2.039-1.85,3.975-3.827,5.763-5.959h87.536c0.828,0,1.528,0.7,1.528,1.528v191.528
			c0,0.828-0.7,1.528-1.528,1.528H62.528c-0.828,0-1.528-0.7-1.528-1.528V411.02h309.494c5.522,0,10-4.478,10-10
			c0-5.522-4.478-10-10-10H61V235.233c0-0.828,0.7-1.528,1.528-1.528L268.414,233.709z M450.479,468.29l-388.951-0.29
			C38.63,468.001,20,449.371,20,426.473V234.943c0-22.898,18.63-41.528,41.521-41.528l192.661,0.144
			c-0.005,0.325-0.008,0.65-0.008,0.976c0,6.698,1.101,13.14,3.104,19.174l-194.75-0.003c-11.871,0-21.528,9.657-21.528,21.528
			v191.528c0,11.871,9.657,21.528,21.528,21.528h386.943c11.871,0,21.528-9.657,21.528-21.528V235.233
			c0-4.394-1.329-8.481-3.598-11.891c6.358-2.841,12.198-6.787,17.223-11.715c4.758,6.877,7.375,15.094,7.375,23.606v191.529H492
			C492,449.66,473.37,468.29,450.479,468.29z"/>
	</g>
</g>
<g>
	<g>
		<path d="M116.147,294.173c0-4.581,4.285-8.866,14.777-8.866c12.116,0,14.924,5.615,20.243,5.615c6.502,0,9.162-8.127,9.162-12.117
			c0-11.525-21.574-13.003-29.405-13.003c-18.471,0-37.828,8.422-37.828,30.587c0,34.577,46.842,31.475,46.842,49.354
			c0,7.093-7.536,9.752-14.334,9.752c-13.742,0-18.175-10.935-25.12-10.935c-5.615,0-10.048,7.389-10.048,12.413
			c0,9.752,16.254,19.209,35.611,19.209c21.427,0,36.941-11.525,36.941-32.804C162.989,306.142,116.147,308.949,116.147,294.173z"/>
	</g>
</g>
<g>
	<g>
		<path d="M209.383,266.689c-20.392,0-36.203,9.457-36.203,34.872v39.158c0,25.416,15.811,34.873,36.203,34.873
			c20.392,0,36.351-9.457,36.351-34.873v-39.158C245.734,276.145,229.775,266.689,209.383,266.689z M222.682,340.718
			c0,10.196-5.024,14.776-13.299,14.776c-8.275,0-13.151-4.58-13.151-14.776v-39.158c0-10.195,4.876-14.776,13.151-14.776
			c8.274,0,13.299,4.581,13.299,14.776V340.718z"/>
	</g>
</g>
<g>
	<g>
		<path d="M338.673,363.623l-27.631-90.138c-1.626-5.172-8.275-7.684-15.072-7.684s-13.447,2.512-15.072,7.684l-27.484,90.138
			c-0.147,0.591-0.296,1.182-0.296,1.625c0,5.468,8.423,9.457,14.776,9.457c3.694,0,6.65-1.183,7.536-4.285l5.024-18.471h31.179
			l5.024,18.471c0.887,3.103,3.842,4.285,7.536,4.285c6.353,0,14.776-3.989,14.776-9.457
			C338.969,364.805,338.821,364.214,338.673,363.623z M285.182,334.217l10.787-39.601l10.787,39.601H285.182z"/>
	</g>
</g>
<g>
	<g>
		<path d="M386.692,266.689h-30.588c-5.172,0-8.57,3.25-8.57,6.944v93.979c0,4.729,5.763,7.093,11.525,7.093
			c5.763,0,11.526-2.364,11.526-7.093v-31.918h14.629c20.392,0,36.35-9.457,36.35-34.281v-0.739
			C421.564,275.849,406.197,266.689,386.692,266.689z M398.513,303.186c0,10.048-5.024,14.776-13.299,14.776h-14.629v-31.178h14.629
			c8.274,0,13.299,4.728,13.299,14.776V303.186z"/>
	</g>
</g>
<g>
	<g>
		<path d="M366.174,23.709c-27.26,0-49.436,22.177-49.436,49.437c-0.001,27.259,22.176,49.436,49.436,49.436
			c27.259,0,49.436-22.177,49.436-49.436C415.61,45.886,393.433,23.709,366.174,23.709z M366.174,102.584
			c-16.231,0-29.436-13.205-29.436-29.436c-0.001-16.232,13.204-29.437,29.436-29.437c16.23,0,29.436,13.205,29.436,29.437
			C395.61,89.378,382.405,102.584,366.174,102.584z"/>
	</g>
</g>
<g>
	<g>
		<path d="M415.02,398.83c-0.13-0.64-0.33-1.27-0.58-1.87c-0.25-0.601-0.55-1.19-0.92-1.73c-0.359-0.55-0.779-1.06-1.239-1.52
			c-0.461-0.46-0.971-0.88-1.521-1.24c-0.54-0.36-1.12-0.67-1.72-0.92c-0.61-0.25-1.24-0.44-1.87-0.57c-1.29-0.26-2.62-0.26-3.91,0
			c-0.64,0.13-1.27,0.32-1.87,0.57c-0.609,0.25-1.189,0.56-1.729,0.92c-0.551,0.36-1.061,0.78-1.521,1.24
			c-0.46,0.46-0.88,0.97-1.24,1.52c-0.359,0.54-0.67,1.13-0.92,1.73c-0.25,0.6-0.449,1.23-0.569,1.87c-0.13,0.64-0.2,1.3-0.2,1.95
			c0,0.659,0.07,1.31,0.2,1.96c0.12,0.64,0.319,1.27,0.569,1.869c0.25,0.601,0.561,1.181,0.92,1.73c0.36,0.54,0.78,1.05,1.24,1.51
			c0.46,0.47,0.97,0.88,1.521,1.25c0.54,0.36,1.12,0.67,1.729,0.92c0.601,0.25,1.23,0.44,1.87,0.57s1.3,0.2,1.95,0.2
			c0.649,0,1.31-0.07,1.96-0.2c0.63-0.13,1.26-0.32,1.87-0.57c0.6-0.25,1.18-0.56,1.72-0.92c0.55-0.37,1.06-0.78,1.521-1.25
			c0.46-0.46,0.88-0.97,1.239-1.51c0.37-0.55,0.67-1.13,0.92-1.73c0.25-0.6,0.45-1.229,0.58-1.869c0.13-0.65,0.19-1.301,0.19-1.96
			C415.21,400.131,415.149,399.47,415.02,398.83z"/>
	</g>
</g>
<g>
</g>
<g>
</g>
<g>
</g>
<g>
</g>
<g>
</g>
<g>
</g>
<g>
</g>
<g>
</g>
<g>
</g>
<g>
</g>
<g>
</g>
<g>
</g>
<g>
</g>
<g>
</g>
<g>
</g>
</svg>
