<?xml version="1.0" encoding="iso-8859-1"?>
<!-- Generator: Adobe Illustrator 19.0.0, SVG Export Plug-In . SVG Version: 6.00 Build 0)  -->
<svg version="1.1" id="Layer_1" xmlns="http://www.w3.org/2000/svg" xmlns:xlink="http://www.w3.org/1999/xlink" x="0px" y="0px"
	 viewBox="0 0 512 512" style="enable-background:new 0 0 512 512;" xml:space="preserve">
<g>
	<g>
		<path d="M265.85,325.069c-2.64,0-5.21-1.06-7.08-2.92c-1.86-1.859-2.92-4.439-2.92-7.069c0-2.641,1.06-5.21,2.92-7.08
			c1.87-1.86,4.44-2.92,7.08-2.92c2.63,0,5.21,1.06,7.07,2.92c1.86,1.87,2.93,4.439,2.93,7.08c0,2.63-1.069,5.2-2.93,7.069
			C271.05,324.01,268.48,325.069,265.85,325.069z"/>
	</g>
</g>
<g>
	<g>
		<path d="M256,0c-35.29,0-64,28.71-64,64s28.71,64,64,64s64-28.71,64-64S291.289,0,256,0z M256,108.307
			c-24.431,0-44.308-19.876-44.308-44.308S231.569,19.692,256,19.692S300.307,39.569,300.307,64S280.432,108.307,256,108.307z"/>
	</g>
</g>
<g>
	<g>
		<path d="M364.307,275.692V177.23c0-27.146-22.085-49.231-49.231-49.231H256h-59.077c-27.146,0-49.231,22.085-49.231,49.231v98.461
			c0,21.993,14.495,40.664,34.435,46.959l-33.395,66.79c-1.526,3.052-1.363,6.677,0.431,9.579c1.794,2.903,4.963,4.67,8.376,4.67
			h29.538v68.258c0,21.532,17.205,39.492,38.351,40.036c0.349,0.009,0.7,0.014,1.048,0.014c10.332,0,20.052-3.946,27.472-11.177
			c0.715-0.696,1.398-1.414,2.052-2.152c0.661,0.746,1.353,1.472,2.075,2.175c7.686,7.478,17.834,11.443,28.564,11.139
			c21.11-0.578,38.285-18.515,38.285-39.983v-68.309h29.538c3.413,0,6.582-1.766,8.376-4.67c1.793-2.903,1.956-6.527,0.431-9.579
			l-33.395-66.79C349.813,316.355,364.307,297.685,364.307,275.692z M344.615,275.692c0,12.835-8.232,23.78-19.692,27.845v-27.845
			c0-5.438-4.409-9.846-9.846-9.846c-5.437,0-9.846,4.408-9.846,9.846v39.385c0,0.186,0.018,0.369,0.028,0.552
			c0.006,0.109,0.007,0.219,0.017,0.328c0.034,0.388,0.088,0.771,0.166,1.145c0.001,0.004,0.002,0.008,0.003,0.011
			c0.079,0.376,0.185,0.741,0.306,1.101c0.029,0.084,0.061,0.166,0.092,0.25c0.107,0.293,0.228,0.58,0.362,0.86
			c0.025,0.051,0.04,0.105,0.066,0.156l32.26,64.521h-23.453h-39.385c-5.437,0-9.846,4.408-9.846,9.846
			c0,5.438,4.409,9.846,9.846,9.846h29.538V472c0,10.904-8.583,20.009-19.133,20.299c-5.39,0.136-10.449-1.83-14.291-5.569
			c-3.843-3.741-5.961-8.753-5.961-14.115v-59.077c0-5.438-4.409-9.846-9.846-9.846c-5.437,0-9.846,4.408-9.846,9.846v59.077
			c0,5.356-2.113,10.365-5.95,14.105c-3.836,3.738-8.933,5.718-14.268,5.581c-10.568-0.272-19.167-9.401-19.167-20.35v-78.104
			c0-5.438-4.409-9.846-9.846-9.846H173.47l29.538-59.077h33.299c5.437,0,9.846-4.408,9.846-9.846c0-5.438-4.409-9.846-9.846-9.846
			h-29.538v-29.538c0-5.438-4.409-9.846-9.846-9.846c-5.437,0-9.846,4.408-9.846,9.846v27.845
			c-11.46-4.065-19.692-15.008-19.692-27.845V177.23c0-16.287,13.251-29.538,29.538-29.538h118.154
			c16.287,0,29.538,13.251,29.538,29.538V275.692z"/>
	</g>
</g>
<g>
</g>
<g>
</g>
<g>
</g>
<g>
</g>
<g>
</g>
<g>
</g>
<g>
</g>
<g>
</g>
<g>
</g>
<g>
</g>
<g>
</g>
<g>
</g>
<g>
</g>
<g>
</g>
<g>
</g>
</svg>
