<?xml version="1.0" encoding="iso-8859-1"?>
<!-- Generator: Adobe Illustrator 19.0.0, SVG Export Plug-In . SVG Version: 6.00 Build 0)  -->
<svg version="1.1" id="Capa_1" xmlns="http://www.w3.org/2000/svg" xmlns:xlink="http://www.w3.org/1999/xlink" x="0px" y="0px"
	 viewBox="0 0 512 512" style="enable-background:new 0 0 512 512;" xml:space="preserve">
<g>
	<g>
		<path d="M10.138,492H10c-5.522,0-10,4.477-10,10s4.478,10,10,10h0.138c5.522,0,10-4.477,10-10S15.66,492,10.138,492z"/>
	</g>
</g>
<g>
	<g>
		<path d="M502,492H402v-94.716c1.69-0.427,3.292-1.29,4.614-2.612l45.255-45.255c1.875-1.875,2.929-4.419,2.929-7.071
			c0-2.652-1.054-5.196-2.929-7.071l-49.905-49.904c0.017-0.233,0.036-0.466,0.036-0.704V146c0-2.652-1.054-5.196-2.929-7.071
			l-11.9-11.9l64.698-64.697c1.875-1.875,2.929-4.419,2.929-7.071c0-2.652-1.054-5.196-2.929-7.071L406.614,2.934
			c-3.906-3.905-10.236-3.905-14.143,0l-64.697,64.697L263.071,2.929c-3.906-3.905-10.236-3.904-14.143,0l-64.703,64.703
			L119.529,2.934c-3.906-3.905-10.236-3.905-14.143,0L60.131,48.189c-1.875,1.875-2.929,4.419-2.929,7.071
			c0,2.652,1.054,5.196,2.929,7.071l64.698,64.697l-11.9,11.9c-1.875,1.876-2.929,4.42-2.929,7.072v137
			c0,0.744,0.087,1.467,0.241,2.164l-50.111,50.11c-1.875,1.875-2.929,4.419-2.929,7.071c0,2.652,1.054,5.196,2.929,7.071
			l45.255,45.255c1.322,1.322,2.924,2.185,4.614,2.612V492H39.986c-5.522,0-10,4.477-10,10s4.478,10,10,10H502
			c5.522,0,10-4.477,10-10S507.523,492,502,492z M334.354,89.337l65.189-65.189l31.112,31.113l-65.189,65.189h-31.112V89.337z
			 M328.497,140.449h41.112c0.815,0,1.617-0.111,2.396-0.304l9.996,9.996v115.264l-5.321-5.319
			c-1.876-1.875-4.419-2.929-7.071-2.929h-41.112l-38.71-38.71c3.309-5.728,5.214-12.365,5.214-19.443
			c0-7.183-1.96-13.913-5.361-19.698L328.497,140.449z M256,24.142l58.657,58.657c-0.192,0.779-0.303,1.58-0.303,2.396v41.112
			l-38.911,38.911c-5.728-3.309-12.365-5.214-19.442-5.214c-7.077,0-13.714,1.904-19.442,5.214l-38.911-38.911V85.195
			c0-0.815-0.111-1.617-0.303-2.395L256,24.142z M275.001,199.005c0,4.772-1.782,9.128-4.698,12.468
			c-0.3,0.238-0.592,0.489-0.868,0.766c-0.293,0.293-0.557,0.604-0.806,0.923c-3.361,3.001-7.778,4.844-12.628,4.844
			c-4.85,0-9.267-1.842-12.628-4.844c-0.249-0.319-0.513-0.629-0.806-0.923c-0.277-0.277-0.568-0.529-0.868-0.766
			c-2.916-3.341-4.698-7.695-4.698-12.468c0-10.477,8.523-19,19-19C266.478,180.005,275.001,188.528,275.001,199.005z
			 M222.361,179.306c-3.401,5.786-5.361,12.516-5.361,19.698c0,7.077,1.905,13.714,5.214,19.443l-38.71,38.71h-41.112
			c-2.652,0-5.195,1.054-7.071,2.929l-5.32,5.32V150.142H130l9.996-9.996c0.779,0.192,1.58,0.303,2.396,0.303h41.112
			L222.361,179.306z M81.345,55.261l31.112-31.113l65.189,65.189v31.113h-31.112L81.345,55.261z M112.293,373.295l-30.948-30.949
			l65.189-65.189h31.112v31.112l-62.901,62.901C113.818,371.745,112.985,372.458,112.293,373.295z M303,492h-37v-53.499
			c0-5.523-4.478-10-10-10c-5.522,0-10,4.477-10,10V492h-37v-69c0-25.916,21.084-47,47-47s47,21.084,47,47V492z M382,492h-59v-69
			c0-36.944-30.056-67-67-67c-36.944,0-67,30.056-67,67v69h-59V384.201l64.718-64.718c1.875-1.875,2.929-4.419,2.929-7.071V271.3
			l38.656-38.655c5.785,3.401,12.515,5.361,19.698,5.361c7.183,0,13.913-1.96,19.698-5.361l38.656,38.655v41.112
			c0,2.652,1.054,5.196,2.929,7.071L382,384.201V492z M334.354,308.27v-31.112h31.112l65.189,65.189l-31.112,31.112L334.354,308.27z
			"/>
	</g>
</g>
<g>
	<g>
		<path d="M278,278.979h-44c-5.522,0-10,4.477-10,10v44c0,5.523,4.478,10,10,10h44c5.522,0,10-4.477,10-10v-44
			C288,283.456,283.523,278.979,278,278.979z M268,322.979h-24v-24h24V322.979z"/>
	</g>
</g>
<g>
	<g>
		<path d="M255.999,396.019c-5.522,0-10,4.477-10,10v0.131c0,5.523,4.478,10,10,10c5.522,0,10-4.477,10-10v-0.131
			C265.999,400.496,261.522,396.019,255.999,396.019z"/>
	</g>
</g>
<g>
</g>
<g>
</g>
<g>
</g>
<g>
</g>
<g>
</g>
<g>
</g>
<g>
</g>
<g>
</g>
<g>
</g>
<g>
</g>
<g>
</g>
<g>
</g>
<g>
</g>
<g>
</g>
<g>
</g>
</svg>
