<?xml version="1.0" encoding="iso-8859-1"?>
<!-- Generator: Adobe Illustrator 19.0.0, SVG Export Plug-In . SVG Version: 6.00 Build 0)  -->
<svg version="1.1" id="Capa_1" xmlns="http://www.w3.org/2000/svg" xmlns:xlink="http://www.w3.org/1999/xlink" x="0px" y="0px"
	 viewBox="0 0 512.001 512.001" style="enable-background:new 0 0 512.001 512.001;" xml:space="preserve">
<g>
	<g>
		<path d="M426.003,79.997H259.44c1.109-3.13,1.721-6.494,1.721-9.999c0-7.678-2.902-14.688-7.664-19.999
			c4.761-5.312,7.664-12.322,7.664-19.999c0-16.542-13.459-30-30-30H111.157C94.615,0,81.159,13.458,81.159,30
			c0,7.677,2.902,14.687,7.662,19.999c-4.76,5.312-7.662,12.322-7.662,19.999c0,3.563,0.627,6.981,1.772,10.155
			C67.826,81.695,56,94.491,56,109.998v392.003c0,5.523,4.478,10,10,10h380c5.523,0,10-4.477,10-10V109.998
			C456,93.456,442.544,79.997,426.003,79.997z M111.157,20h120.003c5.514,0,9.999,4.486,9.999,10s-4.485,9.999-9.999,9.999H111.157
			c-5.514,0-9.999-4.485-9.999-9.999S105.644,20,111.157,20z M111.157,59.999h120.003c5.514,0,9.999,4.486,9.999,9.999
			c0,5.514-4.485,9.999-9.999,9.999H111.157c-5.513,0-9.999-4.485-9.999-9.999C101.159,64.484,105.643,59.999,111.157,59.999z
			 M76.001,492.001V109.998c0-5.515,4.485-10.001,9.997-10.001h25.159h120.003h194.841c5.514,0,9.998,4.486,9.998,10.001v382.003
			H76.001z"/>
	</g>
</g>
<g>
	<g>
		<path d="M256.003,201.998c-68.926,0-125.001,56.075-125.001,125s56.075,125,125.001,125c68.925,0,125-56.075,125-125
			S324.927,201.998,256.003,201.998z M256.003,431.999c-57.898,0-105.001-47.103-105.001-105c0-57.897,47.103-105,105.001-105
			c57.896,0,105,47.103,105,105C361.003,384.896,313.898,431.999,256.003,431.999z"/>
	</g>
</g>
<g>
	<g>
		<path d="M256.003,231.997c-52.385,0-95.002,42.618-95.002,95.001C161,379.382,203.617,422,256.003,422
			c52.382,0,95.002-42.618,95.002-95.001C351.005,274.615,308.385,231.997,256.003,231.997z M256.003,402
			C214.646,402,181,368.354,181,326.999c0-41.356,33.646-75.001,75.002-75.001c41.355,0,75.002,33.646,75.002,75.001
			C331.005,368.354,297.357,402,256.003,402z"/>
	</g>
</g>
<g>
	<g>
		<path d="M256,362.002c-19.301,0-35.002-15.703-35.002-35.003c0-5.523-4.476-10-10-10c-5.523,0-10,4.477-10,10
			c0,30.329,24.674,55.003,55.002,55.003c5.523,0,10-4.477,10-10S261.523,362.002,256,362.002z"/>
	</g>
</g>
<g>
	<g>
		<path d="M183.005,139.995h-57.003c-5.522,0-10,4.477-10,10s4.478,10,10,10h57.003c5.523,0,10-4.477,10-10
			S188.527,139.995,183.005,139.995z"/>
	</g>
</g>
<g>
	<g>
		<path d="M212.563,139.995h-0.476c-5.523,0-10,4.477-10,10s4.478,10,10,10h0.476c5.523,0,10-4.477,10-10
			S218.086,139.995,212.563,139.995z"/>
	</g>
</g>
<g>
	<g>
		<path d="M356.44,139.995h-57.004c-5.521,0-10,4.477-10,10s4.479,10,10,10h57.004c5.523,0,10-4.477,10-10
			S361.963,139.995,356.44,139.995z"/>
	</g>
</g>
<g>
	<g>
		<path d="M385.998,139.995h-0.473c-5.523,0-10,4.477-10,10s4.477,10,10,10h0.473c5.523,0,10-4.477,10-10
			S391.521,139.995,385.998,139.995z"/>
	</g>
</g>
<g>
</g>
<g>
</g>
<g>
</g>
<g>
</g>
<g>
</g>
<g>
</g>
<g>
</g>
<g>
</g>
<g>
</g>
<g>
</g>
<g>
</g>
<g>
</g>
<g>
</g>
<g>
</g>
<g>
</g>
</svg>
