<?xml version="1.0" encoding="iso-8859-1"?>
<!-- Generator: Adobe Illustrator 19.0.0, SVG Export Plug-In . SVG Version: 6.00 Build 0)  -->
<svg version="1.1" id="Capa_1" xmlns="http://www.w3.org/2000/svg" xmlns:xlink="http://www.w3.org/1999/xlink" x="0px" y="0px"
	 viewBox="0 0 512 512" style="enable-background:new 0 0 512 512;" xml:space="preserve">
<g>
	<g>
		<path d="M63.984,404.608c-5.522,0-9.997,4.476-9.997,9.998v5.407c0,5.522,4.476,9.998,9.997,9.998s9.997-4.476,9.997-9.998v-5.407
			C73.982,409.084,69.506,404.608,63.984,404.608z"/>
	</g>
</g>
<g>
	<g>
		<path d="M63.984,366.763c-5.522,0-9.997,4.476-9.997,9.997v5.407c0,5.522,4.476,9.997,9.997,9.997s9.997-4.476,9.997-9.997v-5.407
			C73.982,371.238,69.506,366.763,63.984,366.763z"/>
	</g>
</g>
<g>
	<g>
		<path d="M63.984,328.916c-5.522,0-9.997,4.476-9.997,9.997v5.407c0,5.522,4.476,9.997,9.997,9.997s9.997-4.476,9.997-9.997v-5.407
			C73.982,333.392,69.506,328.916,63.984,328.916z"/>
	</g>
</g>
<g>
	<g>
		<path d="M63.984,442.454c-5.522,0-9.997,4.476-9.997,9.997v2.499c0,5.522,4.476,9.997,9.997,9.997s9.997-4.476,9.997-9.997v-2.499
			C73.982,446.931,69.506,442.454,63.984,442.454z"/>
	</g>
</g>
<g>
	<g>
		<path d="M469.599,212.754c-21.999-8.581-50.378-13.667-80.76-14.576V60.663c0.078-0.867,0.127-1.738,0.127-2.614
			c0-17.224-15.058-32.582-42.401-43.246c-24.367-9.505-56.554-14.739-90.63-14.739s-66.263,5.235-90.631,14.739
			c-27.342,10.664-42.4,26.023-42.4,43.246v140.135c-30.285,0.931-58.568,6.013-80.506,14.568C15.058,223.418,0,238.776,0,256
			v197.951c0,17.223,15.051,32.581,42.38,43.246c24.356,9.505,56.527,14.739,90.587,14.739c34.06,0,66.232-5.235,90.586-14.739
			c14.282-5.574,25.203-12.431,32.383-20.164c7.18,7.733,18.101,14.59,32.383,20.164c24.356,9.505,56.527,14.739,90.587,14.739
			s66.232-5.235,90.587-14.739c27.329-10.664,42.38-26.023,42.38-43.246c0,0,0.127-197.074,0.127-197.951
			C512,238.776,496.942,223.418,469.599,212.754z M255.937,20.059c68.491,0,111.121,21.163,112.966,36.933
			c-0.037,0.348-0.057,0.7-0.057,1.058v1.512C366.246,75.28,323.772,96.04,255.937,96.04c-70.033,0-113.035-22.127-113.035-37.991
			C142.902,42.185,185.904,20.059,255.937,20.059z M122.906,218.168v27.834h-18.07c-5.522,0-9.997,4.476-9.997,9.997
			c0,5.522,4.476,9.998,9.997,9.998h19.832c3.695,10.329,13.164,19.693,27.707,27.381c-6.335,0.402-12.788,0.612-19.344,0.612
			c-70.033,0-113.035-22.126-113.035-37.991C19.995,240.917,58.877,220.171,122.906,218.168z M245.94,453.952
			c-0.001,15.863-42.979,37.99-112.973,37.99S19.995,469.815,19.995,453.951V287.638c6.148,4.289,13.642,8.191,22.405,11.609
			c3.695,1.441,7.589,2.771,11.622,4.013c-0.017,0.237-0.036,0.473-0.036,0.714v2.499c0,5.522,4.476,9.998,9.997,9.998
			c4.902,0,8.971-3.53,9.826-8.184c18.119,3.72,38.31,5.7,59.221,5.7c19.512,0,38.261-1.685,55.727-5.007
			c1.408-0.268,2.685-0.823,3.794-1.586c16.312,3.658,34.453,5.857,53.388,6.428V453.952z M255.874,293.991
			c-69.994,0-112.972-22.126-112.972-37.991V89.687c6.148,4.289,13.642,8.191,22.405,11.609c3.695,1.441,7.589,2.771,11.622,4.013
			c-0.017,0.237-0.036,0.473-0.036,0.715v2.499c0,5.522,4.476,9.997,9.997,9.997c4.902,0,8.971-3.53,9.826-8.185
			c18.119,3.72,38.31,5.7,59.221,5.7c34.076,0,66.263-5.235,90.63-14.739c8.702-3.394,16.154-7.265,22.279-11.519v166.224
			C368.846,271.864,325.867,293.991,255.874,293.991z M491.879,453.952c-0.001,15.863-42.979,37.99-112.973,37.99
			s-112.972-22.127-112.972-37.991V313.818c12.07-0.369,23.815-1.398,34.973-3.046c1.609,3.367,5.036,5.7,9.016,5.7
			c4.902,0,8.972-3.53,9.826-8.185c18.163,3.728,38.633,5.701,59.221,5.701c34.076,0,66.263-5.235,90.63-14.739
			c8.702-3.394,16.154-7.265,22.279-11.519V453.952z M491.878,256.001v1.512c-2.599,15.719-45.074,36.479-112.909,36.479
			c-6.561,0-13.094-0.229-19.534-0.646c14.507-7.682,23.953-17.033,27.643-27.347h20.086c5.522,0,9.997-4.476,9.997-9.997
			s-4.476-9.997-9.997-9.997H388.84V218.16c62.696,1.91,101.342,21.784,103.095,36.783
			C491.898,255.291,491.878,255.643,491.878,256.001z"/>
	</g>
</g>
<g>
	<g>
		<path d="M309.923,368.206c-5.522,0-9.997,4.476-9.997,9.998v5.518c0,5.522,4.476,9.997,9.997,9.997
			c5.522,0,9.998-4.476,9.998-9.997v-5.518C319.921,372.682,315.445,368.206,309.923,368.206z"/>
	</g>
</g>
<g>
	<g>
		<path d="M309.923,329.583c-5.522,0-9.997,4.476-9.997,9.998v5.518c0,5.522,4.476,9.997,9.997,9.997
			c5.522,0,9.998-4.476,9.998-9.997v-5.518C319.921,334.059,315.445,329.583,309.923,329.583z"/>
	</g>
</g>
<g>
	<g>
		<path d="M309.923,406.83c-5.522,0-9.997,4.476-9.997,9.998v5.518c0,5.522,4.476,9.997,9.997,9.997
			c5.522,0,9.998-4.476,9.998-9.997v-5.518C319.921,411.306,315.445,406.83,309.923,406.83z"/>
	</g>
</g>
<g>
	<g>
		<path d="M309.923,445.453c-5.522,0-9.997,4.476-9.997,9.998v2.499c0,5.522,4.476,9.997,9.997,9.997
			c5.522,0,9.998-4.476,9.998-9.997v-2.499C319.921,449.93,315.445,445.453,309.923,445.453z"/>
	</g>
</g>
<g>
	<g>
		<path d="M284.132,48.052h-56.39c-5.522,0-9.998,4.476-9.998,9.997c0,5.522,4.476,9.998,9.998,9.998h56.39
			c5.522,0,9.997-4.476,9.997-9.998C294.129,52.528,289.653,48.052,284.132,48.052z"/>
	</g>
</g>
<g>
	<g>
		<path d="M186.891,168.33c-5.522,0-9.997,4.476-9.997,9.998v5.37c0,5.522,4.476,9.998,9.997,9.998s9.998-4.476,9.998-9.998v-5.37
			C196.888,172.806,192.411,168.33,186.891,168.33z"/>
	</g>
</g>
<g>
	<g>
		<path d="M186.891,130.743c-5.522,0-9.997,4.476-9.997,9.997v5.37c0,5.522,4.476,9.998,9.997,9.998s9.998-4.476,9.998-9.998v-5.37
			C196.888,135.219,192.411,130.743,186.891,130.743z"/>
	</g>
</g>
<g>
	<g>
		<path d="M186.891,205.916c-5.522,0-9.997,4.476-9.997,9.998v5.37c0,5.522,4.476,9.998,9.997,9.998s9.998-4.476,9.998-9.998v-5.37
			C196.888,210.392,192.411,205.916,186.891,205.916z"/>
	</g>
</g>
<g>
	<g>
		<path d="M186.891,243.503c-5.522,0-9.997,4.476-9.997,9.997V256c0,5.522,4.476,9.998,9.997,9.998s9.998-4.476,9.998-9.998v-2.499
			C196.888,247.98,192.411,243.503,186.891,243.503z"/>
	</g>
</g>
<g>
</g>
<g>
</g>
<g>
</g>
<g>
</g>
<g>
</g>
<g>
</g>
<g>
</g>
<g>
</g>
<g>
</g>
<g>
</g>
<g>
</g>
<g>
</g>
<g>
</g>
<g>
</g>
<g>
</g>
</svg>
