<?xml version="1.0" encoding="iso-8859-1"?>
<!-- Generator: Adobe Illustrator 19.0.0, SVG Export Plug-In . SVG Version: 6.00 Build 0)  -->
<svg version="1.1" id="Capa_1" xmlns="http://www.w3.org/2000/svg" xmlns:xlink="http://www.w3.org/1999/xlink" x="0px" y="0px"
	 viewBox="0 0 512 512" style="enable-background:new 0 0 512 512;" xml:space="preserve">
<g>
	<g>
		<path d="M502.006,313.083V116c0-21.045-16.341-38.335-37-39.876V58c0-5.522-4.477-10-10-10h-2V10c0-5.522-4.477-10-10-10h-40
			c-5.523,0-10,4.478-10,10v38h-2c-5.523,0-10,4.478-10,10v18.124c-20.659,1.541-37,18.83-37,39.876v48.513H206
			c-5.523,0-10,4.478-10,10v37.285c0,0.002,0,0.003,0,0.005v0.042c0,0.315,0.019,0.625,0.047,0.932
			c0.002,0.026,0.001,0.051,0.004,0.077v0.003c0.001,0.007,0.001,0.014,0.002,0.021l6.761,66.706
			c-10.701-23.921-30.014-43.177-53.974-53.807v-25.58c0-5.522-4.477-10-10-10h-22.842v-29.263h12.364l14.106,14.107
			c1.953,1.952,4.512,2.929,7.071,2.929s5.119-0.977,7.071-2.929c3.905-3.905,3.906-10.237,0-14.143l-17.036-17.036
			c-1.875-1.875-4.419-2.929-7.071-2.929H73.157c-5.523,0-10,4.478-10,10c0,5.522,4.477,10,10,10h22.842v29.263H73.157
			c-5.523,0-10,4.478-10,10v25.58C25.991,242.265,0,279.512,0,322.721c0,0.061,0.008,0.12,0.009,0.181
			C0.008,322.963,0,323.022,0,323.083v113.658C0,478.239,33.761,512,75.259,512H436.74c41.499,0,75.26-33.761,75.26-75.259V323.083
			C512,317.563,507.526,313.087,502.006,313.083z M413.006,20h20v28h-20V20z M401.006,68h44v8h-44V68z M128.841,210.196v9.012
			c-7.36-1.623-15.001-2.486-22.842-2.486s-15.482,0.863-22.842,2.486v-9.012H128.841z M105.999,236.723
			c44.161,0,80.637,33.462,85.445,76.36H20.554C25.362,270.185,61.838,236.723,105.999,236.723z M54,487.741
			c-19.947-8.346-34-28.06-34-51V333.083h34V487.741z M130.8,492H75.259c-0.422,0-0.839-0.022-1.259-0.032V333.083h56.8V492z
			 M207.6,492h-56.8V333.083h56.8V492z M216,184.513h118.039v17.332H216V184.513z M284.4,492h-56.8V333.083h0h56.8V492z
			 M258.674,313.083c3.311-5.593,9.389-9.362,16.345-9.362s13.035,3.77,16.345,9.362H258.674z M275.019,283.721
			c-18.18,0-33.491,12.504-37.793,29.362h-10.914l-9.247-91.238h116.184l-6.945,91.238h-13.492
			C308.51,296.224,293.199,283.721,275.019,283.721z M361.2,492h-56.8V333.083h49.606h7.194V492z M364.006,116
			c0-11.028,8.972-20,20-20h78c11.028,0,20,8.972,20,20v77.517c-38.437,3.839-71.899,29.547-85.107,66.414
			c-1.863,5.199,0.842,10.925,6.042,12.787c1.114,0.399,2.252,0.589,3.372,0.589c4.104,0,7.951-2.546,9.415-6.63
			c10.365-28.932,36.285-49.301,66.279-53.047v99.453h-118L364.006,116L364.006,116z M438,491.968
			c-0.42,0.01-0.837,0.032-1.259,0.032H381.2V333.083H438V491.968z M492,436.741c0,22.939-14.053,42.654-34,51V333.083h34V436.741z"
			/>
	</g>
</g>
<g>
	<g>
		<path d="M411.006,294c0-5.522-4.477-10-10-10c-5.523,0-10,4.478-10,10l0.001,0.487c0.039,5.499,4.508,9.93,9.999,9.93
			c0.024,0,0.048,0,0.072,0c5.523-0.039,9.968-4.548,9.93-10.07L411.006,294z"/>
	</g>
</g>
<g>
</g>
<g>
</g>
<g>
</g>
<g>
</g>
<g>
</g>
<g>
</g>
<g>
</g>
<g>
</g>
<g>
</g>
<g>
</g>
<g>
</g>
<g>
</g>
<g>
</g>
<g>
</g>
<g>
</g>
</svg>
