<?xml version="1.0" encoding="iso-8859-1"?>
<!-- Generator: Adobe Illustrator 19.0.0, SVG Export Plug-In . SVG Version: 6.00 Build 0)  -->
<svg version="1.1" id="Capa_1" xmlns="http://www.w3.org/2000/svg" xmlns:xlink="http://www.w3.org/1999/xlink" x="0px" y="0px"
	 viewBox="0 0 512 512" style="enable-background:new 0 0 512 512;" xml:space="preserve">
<g>
	<g>
		<path d="M418.417,153.992c-10.232-14.883-24.208-23.08-39.354-23.08s-29.121,8.197-39.354,23.08
			c-9.444,13.738-14.646,31.822-14.646,50.92c0,19.098,5.202,37.182,14.646,50.92c10.232,14.883,24.208,23.08,39.354,23.08
			s29.122-8.196,39.354-23.08c9.444-13.738,14.646-31.822,14.646-50.92C433.063,185.815,427.861,167.73,418.417,153.992z
			 M379.063,258.914c-18.43,0-34-24.729-34-54s15.57-54,34-54s34,24.729,34,54S397.493,258.914,379.063,258.914z"/>
	</g>
</g>
<g>
	<g>
		<path d="M223.222,196.662h-2.5c-5.522,0-10,4.477-10,10c0,5.523,4.478,10,10,10h2.5c5.522,0,10-4.477,10-10
			C233.222,201.14,228.744,196.662,223.222,196.662z"/>
	</g>
</g>
<g>
	<g>
		<path d="M114.513,196.662h-5.31c-5.522,0-10,4.477-10,10c0,5.523,4.478,10,10,10h5.31c5.522,0,10-4.477,10-10
			C124.513,201.14,120.035,196.662,114.513,196.662z"/>
	</g>
</g>
<g>
	<g>
		<path d="M77.34,196.662h-5.311c-5.522,0-10,4.477-10,10c0,5.523,4.478,10,10,10h5.311c5.522,0,10-4.477,10-10
			C87.34,201.14,82.862,196.662,77.34,196.662z"/>
	</g>
</g>
<g>
	<g>
		<path d="M188.859,196.662h-5.311c-5.522,0-10,4.477-10,10c0,5.523,4.478,10,10,10h5.311c5.522,0,10-4.477,10-10
			C198.859,201.14,194.382,196.662,188.859,196.662z"/>
	</g>
</g>
<g>
	<g>
		<path d="M151.687,196.662h-5.311c-5.522,0-10,4.477-10,10c0,5.523,4.478,10,10,10h5.311c5.522,0,10-4.477,10-10
			C161.687,201.14,157.209,196.662,151.687,196.662z"/>
	</g>
</g>
<g>
	<g>
		<path d="M40.167,196.662h-2.5c-5.522,0-10,4.477-10,10c0,5.523,4.478,10,10,10h2.5c5.522,0,10-4.477,10-10
			C50.167,201.14,45.689,196.662,40.167,196.662z"/>
	</g>
</g>
<g>
	<g>
		<path d="M379.292,315.5c-0.021,0-0.044,0-0.065,0h-0.163c-5.522,0-10,4.477-10,10s4.478,10,10,10h0.292
			c5.522-0.036,9.971-4.542,9.936-10.064C389.256,319.933,384.785,315.5,379.292,315.5z"/>
	</g>
</g>
<g>
	<g>
		<path d="M467.351,194.914c-5.522,0-10,4.477-10,10c0,46.919-21.174,88.901-52.688,104.467c-4.951,2.446-6.983,8.442-4.537,13.395
			c1.742,3.528,5.288,5.574,8.974,5.574c1.487,0,2.997-0.333,4.421-1.037c18.813-9.292,34.825-25.81,46.305-47.768
			c11.466-21.932,17.526-47.738,17.526-74.63C477.351,199.391,472.873,194.914,467.351,194.914z"/>
	</g>
</g>
<g>
	<g>
		<path d="M474.062,80.273C448.909,45.919,415.172,27,379.063,27h-5.829H132.937c-36.108,0-69.846,18.919-94.998,53.273
			C13.474,113.689,0,157.953,0,204.914v269.391c0,3.615,1.951,6.949,5.104,8.719c3.151,1.77,7.013,1.702,10.102-0.181l35.12-21.408
			l36.171,22.052c3.197,1.948,7.213,1.948,10.41,0l36.146-22.034l35.94,22.069c1.604,0.986,3.418,1.479,5.232,1.479
			c1.803,0,3.606-0.487,5.205-1.461l36.24-22.091l35.125,21.415c2.413,1.47,5.336,1.852,8.045,1.05l0.127-0.038
			c4.247-1.258,7.16-5.159,7.16-9.588v-91.459h112.937c36.108,0,69.846-18.919,94.998-53.273
			C498.526,296.138,512,251.872,512,204.914S498.526,113.689,474.062,80.273z M246.128,204.912v251.68h-0.001l-25.252-15.395
			c-3.195-1.949-7.213-1.949-10.41,0l-36.221,22.079l-35.94-22.069c-1.604-0.986-3.418-1.479-5.232-1.479
			c-1.803,0-3.606,0.487-5.205,1.461l-36.165,22.045l-36.172-22.05c-3.195-1.948-7.213-1.948-10.41,0L20,456.497V204.914
			C20,117.839,70.663,47,132.937,47h184.574h0.021c-12.239,8.541-23.525,19.696-33.466,33.273
			C259.601,113.688,246.128,157.953,246.128,204.912z M266.127,362.826v-63.777c5.078,10.901,11.075,21.13,17.938,30.504
			c9.941,13.577,21.227,24.732,33.466,33.273H266.127z M379.063,362.826c-62.273,0-112.937-70.839-112.937-157.913
			S316.79,47,379.063,47S492,117.839,492,204.914S441.337,362.826,379.063,362.826z"/>
	</g>
</g>
<g>
</g>
<g>
</g>
<g>
</g>
<g>
</g>
<g>
</g>
<g>
</g>
<g>
</g>
<g>
</g>
<g>
</g>
<g>
</g>
<g>
</g>
<g>
</g>
<g>
</g>
<g>
</g>
<g>
</g>
</svg>
