<?xml version="1.0" encoding="iso-8859-1"?>
<!-- Generator: Adobe Illustrator 19.0.0, SVG Export Plug-In . SVG Version: 6.00 Build 0)  -->
<svg version="1.1" id="Capa_1" xmlns="http://www.w3.org/2000/svg" xmlns:xlink="http://www.w3.org/1999/xlink" x="0px" y="0px"
	 viewBox="0 0 512 512" style="enable-background:new 0 0 512 512;" xml:space="preserve">
<g>
	<g>
		<path d="M10.236,426H10c-5.523,0-10,4.478-10,10c0,5.522,4.477,10,10,10h0.236c5.523,0,10-4.478,10-10
			C20.236,430.478,15.759,426,10.236,426z"/>
	</g>
</g>
<g>
	<g>
		<g>
			<path d="M56,76c0-0.011,0.001-0.022,0.002-0.032v-0.016L56,76z"/>
			<path d="M473.033,426H456V76c0-0.015-0.002-0.03-0.002-0.045c-0.001-0.262-0.018-0.522-0.04-0.784
				c-0.006-0.069-0.005-0.14-0.012-0.208c-0.067-0.651-0.198-1.298-0.395-1.931c-0.028-0.093-0.067-0.181-0.099-0.272
				c-0.074-0.218-0.147-0.435-0.238-0.649c-0.057-0.136-0.127-0.263-0.189-0.395c-0.114-0.241-0.236-0.479-0.372-0.714
				c-0.12-0.206-0.239-0.412-0.372-0.609c-0.061-0.088-0.131-0.171-0.193-0.258c-0.132-0.182-0.263-0.363-0.406-0.535
				c-0.012-0.014-0.021-0.028-0.032-0.042c-0.08-0.095-0.168-0.178-0.251-0.269c-0.126-0.139-0.25-0.279-0.383-0.412
				c-0.123-0.121-0.253-0.231-0.381-0.346c-0.114-0.102-0.227-0.205-0.345-0.302c-0.143-0.115-0.29-0.22-0.438-0.327
				c-0.116-0.084-0.23-0.17-0.35-0.249c-0.147-0.098-0.3-0.186-0.452-0.274c-0.131-0.077-0.26-0.155-0.395-0.226
				c-0.143-0.075-0.288-0.142-0.434-0.21c-0.153-0.07-0.305-0.143-0.462-0.207c-0.133-0.054-0.269-0.1-0.403-0.146
				c-0.174-0.063-0.348-0.125-0.525-0.178c-0.129-0.037-0.258-0.067-0.388-0.1c-0.186-0.047-0.37-0.094-0.56-0.13
				c-0.14-0.026-0.28-0.044-0.421-0.064c-0.18-0.026-0.358-0.056-0.541-0.072c-0.173-0.017-0.347-0.02-0.521-0.026
				c-0.132-0.005-0.264-0.02-0.4-0.02H66c-0.136,0-0.268,0.015-0.402,0.021c-0.174,0.007-0.348,0.01-0.521,0.026
				c-0.183,0.017-0.361,0.046-0.541,0.072c-0.141,0.021-0.281,0.038-0.421,0.064c-0.189,0.036-0.374,0.083-0.559,0.13
				c-0.13,0.032-0.26,0.063-0.388,0.1c-0.179,0.053-0.352,0.115-0.526,0.178c-0.135,0.047-0.27,0.093-0.402,0.146
				c-0.157,0.064-0.31,0.137-0.463,0.208c-0.145,0.067-0.29,0.134-0.432,0.208c-0.135,0.072-0.265,0.15-0.397,0.228
				c-0.151,0.089-0.303,0.177-0.45,0.273c-0.121,0.08-0.237,0.167-0.354,0.252c-0.146,0.106-0.292,0.209-0.432,0.323
				c-0.123,0.1-0.239,0.207-0.357,0.313c-0.124,0.109-0.249,0.217-0.367,0.334c-0.143,0.14-0.275,0.29-0.409,0.438
				c-0.075,0.083-0.155,0.158-0.227,0.244c-0.01,0.013-0.019,0.026-0.029,0.038c-0.159,0.19-0.305,0.391-0.45,0.592
				c-0.048,0.068-0.104,0.133-0.15,0.201c-0.173,0.255-0.333,0.52-0.483,0.79c-0.01,0.018-0.022,0.035-0.032,0.053
				c-0.155,0.286-0.297,0.581-0.424,0.883c-0.06,0.142-0.104,0.286-0.157,0.43c-0.061,0.163-0.127,0.323-0.179,0.491
				c-0.097,0.313-0.178,0.628-0.244,0.946c-0.005,0.028-0.008,0.058-0.013,0.085c-0.058,0.296-0.105,0.594-0.136,0.892
				c-0.009,0.085-0.008,0.172-0.015,0.257c-0.019,0.246-0.036,0.491-0.037,0.736c0,0.006-0.001,0.011-0.001,0.016L56,426H38.967
				c-5.523,0-10,4.478-10,10c0,5.522,4.477,10,10,10h434.066c5.522,0,10-4.478,10-10C483.033,430.478,478.555,426,473.033,426z
				 M418.6,86l-37.912,31.927L342.775,86H418.6z M396,146h28.505L396,179.85V146z M427.926,260.687L396,298.6v-75.825
				L427.926,260.687z M359.225,126H283.4l37.912-31.927L359.225,126z M376,146v170H136V146H376z M299.85,86L256,122.927L212.15,86
				H299.85z M228.6,126h-75.825l37.913-31.927L228.6,126z M169.225,86l-37.913,31.927L93.4,86H169.225z M76,97.495L109.85,126H76
				V97.495z M116,163.399v75.827l-31.927-37.913L116,163.399z M76,146h28.506L76,179.851V146z M76,222.774l31.927,37.913L76,298.601
				V222.774z M116,282.149V316H87.494L116,282.149z M75.992,336h360v20.773c-2.044,5.778-7.543,9.726-13.75,9.726
				c-6.583,0-12.377-4.446-14.083-10.811c-0.023-0.085-0.056-0.165-0.08-0.249c-0.059-0.197-0.119-0.392-0.189-0.584
				c-0.053-0.144-0.11-0.281-0.168-0.421c-0.064-0.154-0.13-0.308-0.201-0.458c-0.076-0.161-0.159-0.317-0.244-0.473
				c-0.066-0.123-0.134-0.246-0.206-0.366c-0.098-0.163-0.201-0.321-0.308-0.478c-0.074-0.108-0.148-0.218-0.227-0.323
				c-0.112-0.152-0.229-0.299-0.349-0.442c-0.089-0.106-0.179-0.212-0.272-0.315c-0.117-0.131-0.238-0.256-0.362-0.38
				c-0.109-0.108-0.221-0.216-0.335-0.319c-0.118-0.107-0.239-0.211-0.362-0.313c-0.129-0.106-0.26-0.211-0.395-0.31
				c-0.123-0.092-0.248-0.179-0.375-0.264c-0.14-0.095-0.28-0.187-0.426-0.273c-0.14-0.085-0.282-0.163-0.426-0.24
				c-0.136-0.073-0.271-0.146-0.412-0.213c-0.173-0.083-0.35-0.158-0.527-0.231c-0.117-0.048-0.232-0.097-0.351-0.14
				c-0.219-0.081-0.441-0.15-0.665-0.215c-0.066-0.02-0.127-0.045-0.192-0.063c-0.025-0.007-0.051-0.01-0.075-0.016
				c-0.251-0.066-0.506-0.117-0.762-0.164c-0.072-0.013-0.145-0.029-0.216-0.04c-0.247-0.038-0.496-0.063-0.746-0.083
				c-0.085-0.006-0.171-0.017-0.256-0.022c-0.215-0.011-0.432-0.009-0.649-0.007c-0.119,0.002-0.24-0.002-0.359,0.004
				c-0.174,0.009-0.349,0.029-0.523,0.047c-0.162,0.017-0.323,0.03-0.483,0.055c-0.142,0.022-0.283,0.053-0.425,0.08
				c-0.19,0.037-0.378,0.074-0.565,0.121c-0.039,0.01-0.078,0.015-0.117,0.025c-0.101,0.027-0.195,0.065-0.294,0.095
				c-0.176,0.054-0.351,0.107-0.521,0.169c-0.162,0.058-0.319,0.124-0.476,0.189c-0.136,0.058-0.271,0.114-0.403,0.177
				c-0.177,0.083-0.348,0.174-0.517,0.267c-0.109,0.06-0.219,0.119-0.326,0.184c-0.174,0.104-0.342,0.213-0.507,0.326
				c-0.102,0.068-0.202,0.139-0.301,0.211c-0.156,0.115-0.308,0.235-0.455,0.358c-0.105,0.087-0.208,0.175-0.31,0.267
				c-0.13,0.117-0.255,0.237-0.378,0.361c-0.111,0.111-0.221,0.225-0.327,0.342c-0.103,0.113-0.201,0.229-0.299,0.348
				c-0.113,0.136-0.223,0.273-0.328,0.416c-0.083,0.112-0.162,0.227-0.24,0.342c-0.103,0.152-0.204,0.307-0.3,0.467
				c-0.073,0.121-0.142,0.246-0.209,0.371c-0.084,0.154-0.167,0.31-0.243,0.471c-0.071,0.148-0.135,0.301-0.199,0.453
				c-0.059,0.142-0.117,0.282-0.17,0.428c-0.069,0.188-0.128,0.381-0.186,0.573c-0.025,0.087-0.06,0.169-0.083,0.257
				c-1.706,6.366-7.501,10.813-14.091,10.813c-6.591,0-12.385-4.446-14.091-10.811c-0.023-0.085-0.056-0.165-0.08-0.249
				c-0.059-0.197-0.119-0.392-0.189-0.584c-0.053-0.144-0.11-0.281-0.168-0.421c-0.064-0.154-0.13-0.308-0.201-0.458
				c-0.076-0.161-0.159-0.317-0.244-0.473c-0.066-0.123-0.134-0.246-0.206-0.366c-0.098-0.163-0.201-0.321-0.308-0.478
				c-0.074-0.108-0.148-0.218-0.227-0.323c-0.112-0.152-0.229-0.299-0.349-0.442c-0.089-0.106-0.179-0.212-0.272-0.315
				c-0.117-0.131-0.238-0.256-0.362-0.38c-0.109-0.108-0.221-0.216-0.335-0.319c-0.118-0.107-0.239-0.211-0.362-0.313
				c-0.129-0.106-0.26-0.211-0.395-0.31c-0.123-0.092-0.248-0.179-0.375-0.264c-0.14-0.095-0.28-0.187-0.426-0.273
				c-0.14-0.085-0.282-0.163-0.426-0.24c-0.136-0.073-0.271-0.146-0.412-0.213c-0.173-0.083-0.35-0.158-0.527-0.231
				c-0.117-0.048-0.232-0.097-0.351-0.14c-0.219-0.081-0.441-0.15-0.665-0.215c-0.066-0.02-0.127-0.045-0.192-0.063
				c-0.025-0.007-0.051-0.01-0.075-0.016c-0.251-0.066-0.506-0.117-0.762-0.164c-0.072-0.013-0.145-0.029-0.216-0.04
				c-0.247-0.038-0.496-0.063-0.746-0.083c-0.085-0.006-0.171-0.017-0.256-0.022c-0.215-0.011-0.432-0.009-0.649-0.007
				c-0.119,0.002-0.24-0.002-0.359,0.004c-0.174,0.009-0.349,0.029-0.523,0.047c-0.162,0.017-0.323,0.03-0.483,0.055
				c-0.142,0.022-0.283,0.053-0.425,0.08c-0.19,0.037-0.378,0.074-0.565,0.121c-0.039,0.01-0.078,0.015-0.117,0.025
				c-0.101,0.027-0.195,0.065-0.294,0.095c-0.176,0.054-0.351,0.107-0.521,0.169c-0.162,0.058-0.319,0.124-0.476,0.189
				c-0.136,0.058-0.271,0.114-0.403,0.177c-0.177,0.083-0.348,0.174-0.517,0.267c-0.109,0.06-0.219,0.119-0.326,0.184
				c-0.174,0.104-0.342,0.213-0.507,0.326c-0.102,0.068-0.202,0.139-0.301,0.211c-0.156,0.115-0.308,0.235-0.455,0.358
				c-0.105,0.087-0.208,0.175-0.31,0.267c-0.13,0.117-0.255,0.237-0.378,0.361c-0.111,0.111-0.221,0.225-0.327,0.342
				c-0.103,0.113-0.201,0.229-0.299,0.348c-0.113,0.136-0.223,0.273-0.328,0.416c-0.083,0.112-0.162,0.227-0.24,0.342
				c-0.103,0.152-0.204,0.307-0.3,0.467c-0.073,0.121-0.142,0.246-0.209,0.371c-0.084,0.154-0.167,0.31-0.243,0.471
				c-0.071,0.148-0.135,0.301-0.199,0.453c-0.059,0.142-0.117,0.282-0.17,0.428c-0.069,0.188-0.128,0.381-0.186,0.573
				c-0.025,0.087-0.06,0.169-0.083,0.257c-1.706,6.366-7.501,10.813-14.091,10.813c-6.591,0-12.385-4.446-14.091-10.811
				c-0.023-0.085-0.056-0.165-0.08-0.249c-0.059-0.197-0.119-0.392-0.189-0.584c-0.053-0.144-0.11-0.281-0.168-0.421
				c-0.064-0.154-0.13-0.308-0.201-0.458c-0.077-0.161-0.159-0.317-0.244-0.473c-0.066-0.123-0.134-0.246-0.206-0.366
				c-0.098-0.163-0.201-0.321-0.308-0.478c-0.074-0.108-0.148-0.218-0.227-0.323c-0.112-0.152-0.229-0.299-0.349-0.442
				c-0.089-0.106-0.178-0.212-0.272-0.315c-0.117-0.131-0.238-0.256-0.362-0.38c-0.109-0.108-0.221-0.216-0.335-0.319
				c-0.118-0.107-0.239-0.211-0.362-0.313c-0.129-0.106-0.26-0.211-0.395-0.31c-0.123-0.092-0.248-0.179-0.375-0.264
				c-0.14-0.095-0.28-0.187-0.426-0.273c-0.14-0.085-0.282-0.163-0.426-0.24c-0.136-0.073-0.271-0.146-0.412-0.213
				c-0.173-0.083-0.35-0.158-0.527-0.231c-0.117-0.048-0.232-0.097-0.351-0.14c-0.219-0.081-0.441-0.15-0.665-0.215
				c-0.066-0.02-0.127-0.045-0.192-0.063c-0.025-0.007-0.051-0.01-0.076-0.016c-0.249-0.065-0.503-0.117-0.758-0.163
				c-0.073-0.013-0.147-0.03-0.22-0.042c-0.245-0.037-0.493-0.061-0.742-0.081c-0.086-0.007-0.173-0.018-0.259-0.023
				c-0.215-0.011-0.432-0.009-0.648-0.007c-0.12,0.002-0.24-0.002-0.359,0.004c-0.176,0.009-0.353,0.029-0.529,0.048
				c-0.159,0.017-0.318,0.029-0.476,0.053c-0.146,0.022-0.291,0.054-0.438,0.083c-0.185,0.036-0.368,0.072-0.55,0.118
				c-0.04,0.011-0.081,0.016-0.122,0.026c-0.105,0.028-0.203,0.068-0.307,0.1c-0.169,0.051-0.337,0.102-0.502,0.161
				c-0.169,0.061-0.332,0.13-0.496,0.198c-0.128,0.055-0.256,0.107-0.382,0.168c-0.183,0.086-0.36,0.18-0.537,0.276
				c-0.103,0.056-0.204,0.112-0.305,0.172c-0.18,0.107-0.354,0.221-0.526,0.339c-0.095,0.064-0.188,0.129-0.281,0.197
				c-0.162,0.119-0.319,0.244-0.473,0.372c-0.1,0.082-0.197,0.166-0.293,0.252c-0.135,0.122-0.266,0.247-0.392,0.375
				c-0.108,0.108-0.212,0.217-0.315,0.329c-0.106,0.117-0.209,0.237-0.31,0.359c-0.11,0.133-0.217,0.268-0.32,0.406
				c-0.085,0.115-0.166,0.232-0.246,0.35c-0.101,0.15-0.201,0.303-0.295,0.46c-0.074,0.124-0.144,0.25-0.213,0.377
				c-0.083,0.153-0.165,0.308-0.24,0.466c-0.072,0.15-0.137,0.304-0.2,0.457c-0.059,0.141-0.117,0.28-0.17,0.425
				c-0.069,0.189-0.128,0.382-0.186,0.575c-0.025,0.086-0.059,0.168-0.083,0.256c-1.706,6.366-7.501,10.813-14.091,10.813
				c-6.591,0-12.385-4.446-14.091-10.811c-0.022-0.085-0.056-0.164-0.08-0.248c-0.059-0.197-0.119-0.393-0.189-0.587
				c-0.051-0.141-0.108-0.276-0.165-0.413c-0.065-0.157-0.132-0.314-0.205-0.469c-0.074-0.155-0.154-0.306-0.236-0.456
				c-0.07-0.131-0.142-0.26-0.218-0.387c-0.093-0.154-0.189-0.304-0.29-0.452c-0.081-0.12-0.164-0.239-0.25-0.355
				c-0.104-0.139-0.21-0.273-0.319-0.405c-0.1-0.121-0.202-0.24-0.308-0.357c-0.104-0.114-0.21-0.225-0.318-0.334
				c-0.126-0.126-0.254-0.249-0.387-0.369c-0.099-0.089-0.199-0.175-0.302-0.26c-0.15-0.125-0.304-0.246-0.462-0.363
				c-0.098-0.072-0.196-0.14-0.296-0.208c-0.166-0.113-0.335-0.224-0.509-0.327c-0.108-0.064-0.219-0.125-0.33-0.186
				c-0.167-0.092-0.335-0.181-0.509-0.263c-0.138-0.065-0.277-0.124-0.417-0.184c-0.152-0.064-0.304-0.127-0.46-0.184
				c-0.179-0.065-0.362-0.12-0.545-0.176c-0.093-0.028-0.182-0.063-0.275-0.089c-0.036-0.01-0.073-0.014-0.109-0.023
				c-0.202-0.052-0.407-0.092-0.612-0.132c-0.123-0.023-0.246-0.051-0.369-0.069c-0.188-0.029-0.379-0.046-0.569-0.064
				c-0.144-0.014-0.288-0.031-0.431-0.038c-0.158-0.008-0.316-0.005-0.475-0.006c-0.177,0-0.354-0.003-0.53,0.006
				c-0.126,0.006-0.252,0.022-0.378,0.033c-0.208,0.02-0.417,0.038-0.623,0.069c-0.107,0.017-0.214,0.041-0.321,0.062
				c-0.222,0.041-0.442,0.085-0.66,0.141c-0.033,0.009-0.065,0.013-0.098,0.022c-0.085,0.022-0.164,0.055-0.247,0.08
				c-0.197,0.059-0.393,0.118-0.584,0.188c-0.145,0.053-0.286,0.111-0.427,0.171c-0.151,0.063-0.302,0.126-0.449,0.196
				c-0.165,0.078-0.324,0.162-0.482,0.249c-0.121,0.065-0.24,0.131-0.357,0.201c-0.165,0.099-0.326,0.203-0.484,0.311
				c-0.108,0.073-0.215,0.147-0.321,0.226c-0.151,0.111-0.297,0.227-0.44,0.347c-0.109,0.09-0.216,0.182-0.321,0.276
				c-0.127,0.114-0.25,0.232-0.37,0.354c-0.114,0.113-0.225,0.229-0.333,0.349c-0.101,0.111-0.199,0.226-0.295,0.342
				c-0.114,0.138-0.225,0.277-0.332,0.422c-0.082,0.11-0.161,0.224-0.238,0.338c-0.104,0.153-0.205,0.309-0.301,0.469
				c-0.073,0.121-0.141,0.246-0.209,0.37c-0.084,0.155-0.167,0.31-0.243,0.472c-0.071,0.148-0.135,0.301-0.199,0.453
				c-0.059,0.142-0.118,0.282-0.171,0.428c-0.069,0.188-0.128,0.38-0.185,0.573c-0.026,0.087-0.06,0.169-0.083,0.257
				c-1.706,6.366-7.501,10.813-14.091,10.813c-6.591,0-12.385-4.446-14.091-10.811c-0.023-0.087-0.056-0.167-0.082-0.253
				c-0.058-0.195-0.118-0.389-0.187-0.579c-0.052-0.143-0.111-0.283-0.169-0.424c-0.064-0.153-0.128-0.306-0.2-0.456
				c-0.076-0.16-0.159-0.315-0.242-0.47c-0.068-0.125-0.137-0.25-0.21-0.372c-0.096-0.159-0.197-0.314-0.3-0.467
				c-0.078-0.115-0.156-0.229-0.238-0.34c-0.107-0.143-0.218-0.283-0.332-0.421c-0.096-0.116-0.193-0.229-0.294-0.342
				c-0.108-0.119-0.22-0.235-0.333-0.349c-0.121-0.121-0.244-0.239-0.371-0.353c-0.104-0.095-0.21-0.186-0.318-0.274
				c-0.145-0.121-0.293-0.238-0.446-0.352c-0.103-0.075-0.207-0.147-0.312-0.219c-0.161-0.11-0.325-0.217-0.493-0.317
				c-0.114-0.068-0.229-0.132-0.346-0.195c-0.163-0.088-0.326-0.175-0.494-0.254c-0.143-0.068-0.288-0.129-0.433-0.19
				c-0.147-0.061-0.293-0.123-0.445-0.178c-0.184-0.067-0.37-0.124-0.558-0.181c-0.09-0.026-0.176-0.061-0.268-0.086
				c-0.036-0.01-0.071-0.014-0.107-0.023c-0.205-0.053-0.414-0.094-0.622-0.133c-0.12-0.023-0.24-0.05-0.36-0.068
				c-0.19-0.029-0.383-0.046-0.577-0.065c-0.142-0.013-0.284-0.03-0.425-0.037c-0.158-0.008-0.316-0.005-0.476-0.006
				c-0.177,0-0.355-0.003-0.531,0.006c-0.124,0.006-0.247,0.021-0.372,0.033c-0.211,0.019-0.422,0.037-0.631,0.07
				c-0.103,0.016-0.207,0.039-0.31,0.059c-0.226,0.041-0.451,0.086-0.672,0.144c-0.031,0.009-0.063,0.013-0.094,0.021
				c-0.081,0.021-0.157,0.053-0.238,0.076c-0.202,0.06-0.402,0.122-0.599,0.193c-0.14,0.051-0.275,0.108-0.412,0.165
				c-0.157,0.065-0.313,0.131-0.466,0.204c-0.158,0.075-0.312,0.157-0.465,0.24c-0.126,0.068-0.251,0.137-0.374,0.211
				c-0.16,0.096-0.314,0.196-0.468,0.301c-0.114,0.076-0.226,0.154-0.336,0.236c-0.146,0.107-0.287,0.22-0.426,0.335
				c-0.114,0.095-0.226,0.19-0.336,0.289c-0.122,0.11-0.24,0.225-0.356,0.341c-0.118,0.117-0.233,0.237-0.346,0.361
				c-0.097,0.107-0.191,0.218-0.284,0.329c-0.117,0.142-0.231,0.285-0.341,0.434c-0.079,0.107-0.155,0.216-0.229,0.327
				c-0.106,0.156-0.209,0.314-0.308,0.477c-0.071,0.119-0.138,0.24-0.204,0.362c-0.086,0.157-0.169,0.315-0.247,0.479
				c-0.07,0.147-0.134,0.298-0.197,0.448c-0.059,0.142-0.119,0.284-0.172,0.431c-0.069,0.188-0.127,0.38-0.185,0.572
				c-0.026,0.088-0.06,0.17-0.083,0.258c-1.706,6.366-7.501,10.813-14.091,10.813c-6.59,0-12.385-4.446-14.091-10.813
				c-0.024-0.09-0.058-0.174-0.085-0.262c-0.057-0.19-0.115-0.379-0.183-0.565c-0.054-0.149-0.115-0.294-0.175-0.439
				c-0.062-0.147-0.124-0.294-0.192-0.438c-0.079-0.166-0.165-0.328-0.252-0.49c-0.064-0.117-0.128-0.233-0.197-0.349
				c-0.101-0.168-0.207-0.331-0.317-0.492c-0.071-0.104-0.143-0.209-0.218-0.311c-0.114-0.155-0.233-0.306-0.355-0.452
				c-0.087-0.104-0.174-0.207-0.265-0.309c-0.12-0.132-0.242-0.26-0.368-0.385c-0.108-0.107-0.217-0.213-0.33-0.315
				c-0.12-0.108-0.242-0.213-0.366-0.316c-0.128-0.105-0.259-0.209-0.393-0.308c-0.123-0.092-0.248-0.178-0.373-0.264
				c-0.141-0.095-0.283-0.188-0.429-0.275c-0.138-0.083-0.279-0.16-0.421-0.237c-0.138-0.073-0.276-0.147-0.418-0.216
				c-0.171-0.082-0.345-0.155-0.52-0.228c-0.119-0.049-0.237-0.099-0.358-0.143c-0.216-0.079-0.435-0.147-0.656-0.211
				c-0.067-0.02-0.13-0.047-0.198-0.064c-0.026-0.007-0.053-0.01-0.079-0.018c-0.241-0.063-0.485-0.111-0.73-0.156
				c-0.085-0.016-0.169-0.035-0.254-0.048c-0.226-0.035-0.455-0.057-0.685-0.076c-0.107-0.009-0.214-0.022-0.321-0.028
				c-0.188-0.01-0.377-0.008-0.567-0.006c-0.149,0-0.298-0.003-0.446,0.004c-0.144,0.008-0.288,0.025-0.432,0.039
				c-0.193,0.018-0.387,0.035-0.577,0.065c-0.113,0.018-0.226,0.043-0.339,0.064c-0.219,0.041-0.436,0.084-0.651,0.14
				c-0.032,0.009-0.064,0.012-0.096,0.021c-0.081,0.021-0.157,0.053-0.237,0.076c-0.202,0.06-0.403,0.122-0.601,0.194
				c-0.137,0.05-0.27,0.106-0.404,0.161c-0.16,0.067-0.32,0.135-0.476,0.209c-0.154,0.074-0.304,0.153-0.454,0.234
				c-0.13,0.07-0.26,0.142-0.387,0.218c-0.155,0.094-0.306,0.191-0.455,0.292c-0.119,0.08-0.236,0.162-0.351,0.247
				c-0.14,0.105-0.277,0.213-0.411,0.323c-0.119,0.099-0.236,0.199-0.351,0.303c-0.117,0.105-0.23,0.215-0.342,0.326
				c-0.123,0.123-0.242,0.247-0.358,0.375c-0.093,0.104-0.184,0.209-0.272,0.316c-0.121,0.146-0.238,0.293-0.351,0.446
				c-0.076,0.103-0.149,0.208-0.221,0.314c-0.109,0.16-0.215,0.322-0.315,0.489c-0.069,0.115-0.133,0.233-0.198,0.352
				c-0.087,0.16-0.173,0.322-0.252,0.488c-0.068,0.144-0.13,0.291-0.192,0.439c-0.061,0.145-0.122,0.289-0.175,0.438
				c-0.068,0.187-0.126,0.375-0.183,0.565c-0.026,0.088-0.061,0.172-0.085,0.262c-1.706,6.366-7.501,10.813-14.091,10.813
				c-6.591,0-12.385-4.446-14.091-10.811c-0.023-0.087-0.056-0.167-0.082-0.253c-0.058-0.195-0.118-0.389-0.187-0.579
				c-0.052-0.143-0.111-0.283-0.169-0.424c-0.064-0.153-0.128-0.306-0.2-0.456c-0.076-0.16-0.158-0.314-0.242-0.469
				c-0.068-0.126-0.137-0.251-0.211-0.373c-0.095-0.159-0.196-0.313-0.299-0.466c-0.078-0.115-0.157-0.23-0.24-0.342
				c-0.106-0.144-0.216-0.281-0.329-0.418c-0.097-0.117-0.195-0.232-0.297-0.345c-0.107-0.119-0.218-0.233-0.331-0.346
				c-0.121-0.122-0.245-0.241-0.373-0.357c-0.104-0.093-0.209-0.183-0.316-0.271c-0.146-0.121-0.295-0.24-0.448-0.354
				c-0.102-0.074-0.205-0.146-0.31-0.217c-0.162-0.111-0.327-0.218-0.496-0.319c-0.113-0.067-0.228-0.13-0.342-0.193
				c-0.164-0.089-0.328-0.176-0.497-0.256c-0.142-0.067-0.286-0.128-0.43-0.189c-0.148-0.063-0.296-0.124-0.448-0.18
				c-0.183-0.066-0.368-0.123-0.555-0.179c-0.091-0.026-0.177-0.063-0.269-0.087c-0.036-0.01-0.071-0.014-0.108-0.023
				c-0.204-0.053-0.412-0.094-0.621-0.133c-0.121-0.023-0.241-0.05-0.361-0.068c-0.19-0.029-0.383-0.046-0.576-0.065
				c-0.142-0.013-0.284-0.03-0.426-0.037c-0.158-0.008-0.317-0.005-0.476-0.006c-0.178,0-0.355-0.003-0.531,0.006
				c-0.124,0.006-0.247,0.021-0.372,0.033c-0.211,0.019-0.422,0.038-0.631,0.07c-0.104,0.016-0.207,0.039-0.31,0.059
				c-0.226,0.041-0.451,0.086-0.673,0.145c-0.031,0.008-0.063,0.012-0.094,0.02c-0.081,0.021-0.157,0.053-0.237,0.076
				c-0.202,0.06-0.403,0.121-0.6,0.193c-0.14,0.051-0.275,0.108-0.411,0.164c-0.157,0.066-0.313,0.132-0.467,0.205
				c-0.159,0.075-0.312,0.157-0.465,0.24c-0.126,0.068-0.251,0.137-0.374,0.211c-0.16,0.096-0.314,0.196-0.468,0.301
				c-0.113,0.076-0.226,0.154-0.336,0.236c-0.146,0.107-0.287,0.221-0.426,0.336c-0.114,0.094-0.225,0.188-0.335,0.287
				c-0.123,0.111-0.241,0.226-0.357,0.343c-0.117,0.116-0.232,0.235-0.343,0.358c-0.099,0.109-0.193,0.221-0.287,0.333
				c-0.116,0.14-0.229,0.282-0.338,0.43c-0.081,0.108-0.157,0.22-0.233,0.331c-0.105,0.155-0.208,0.313-0.305,0.475
				c-0.072,0.12-0.139,0.242-0.206,0.365c-0.085,0.156-0.168,0.314-0.245,0.476c-0.071,0.148-0.134,0.3-0.198,0.451
				c-0.059,0.142-0.118,0.282-0.171,0.429c-0.069,0.188-0.128,0.38-0.185,0.573c-0.026,0.087-0.06,0.169-0.083,0.257
				c-1.706,6.366-7.501,10.813-14.091,10.813c-6.208,0-11.707-3.947-13.75-9.726V336z M436,426H76v-42.362
				c4.248,1.847,8.908,2.861,13.75,2.861c9.06,0,17.48-3.549,23.75-9.469c6.269,5.92,14.69,9.469,23.75,9.469
				s17.48-3.549,23.75-9.469c6.269,5.92,14.69,9.469,23.75,9.469s17.48-3.549,23.75-9.469c6.269,5.92,14.69,9.469,23.75,9.469
				s17.48-3.549,23.75-9.469c6.269,5.92,14.689,9.469,23.75,9.469c9.06,0,17.48-3.549,23.75-9.469
				c6.27,5.92,14.69,9.469,23.75,9.469s17.48-3.549,23.75-9.469c6.27,5.92,14.69,9.469,23.75,9.469s17.48-3.549,23.75-9.469
				c6.27,5.92,14.69,9.469,23.75,9.469c4.842,0,9.502-1.014,13.75-2.86V426z M436,316h-28.505L436,282.15V316z M436,239.225
				l-31.926-37.912L436,163.4V239.225z M436,126h-33.85L436,97.495V126z"/>
		</g>
	</g>
</g>
<g>
	<g>
		<path d="M502,426h-0.236c-5.522,0-10,4.478-10,10c0,5.522,4.478,10,10,10H502c5.522,0,10-4.478,10-10
			C512,430.478,507.522,426,502,426z"/>
	</g>
</g>
<g>
</g>
<g>
</g>
<g>
</g>
<g>
</g>
<g>
</g>
<g>
</g>
<g>
</g>
<g>
</g>
<g>
</g>
<g>
</g>
<g>
</g>
<g>
</g>
<g>
</g>
<g>
</g>
<g>
</g>
</svg>
