<?xml version="1.0" encoding="iso-8859-1"?>
<!-- Generator: Adobe Illustrator 19.0.0, SVG Export Plug-In . SVG Version: 6.00 Build 0)  -->
<svg version="1.1" id="Capa_1" xmlns="http://www.w3.org/2000/svg" xmlns:xlink="http://www.w3.org/1999/xlink" x="0px" y="0px"
	 viewBox="0 0 512 512" style="enable-background:new 0 0 512 512;" xml:space="preserve">
<g>
	<g>
		<path d="M455.066,143.491c9.551-11.919,13.143-28.479,9.609-44.297c-2.135-9.556-6.785-19.013-11.281-28.159
			c-9.293-18.902-18.071-36.755-7.121-56.11c2.72-4.807,1.027-10.908-3.779-13.627c-4.805-2.718-10.908-1.028-13.627,3.78
			c-16.152,28.549-3.548,54.183,6.579,74.782c4.163,8.467,8.095,16.465,9.71,23.695c0.833,3.728,2.883,16.723-5.697,27.432
			c-7.423,9.264-21.36,14.445-40.45,15.091l-11.521-11.758V10c0-5.523-4.477-10-10-10h-34.405c-5.523,0-10,4.477-10,10v86.185
			c-9.974,0.248-19.287,4.286-26.314,11.456l-75.347,76.896l-91.825,27.15c-3.365,0.995-5.962,3.68-6.844,7.076
			c-0.882,3.396,0.081,7.006,2.536,9.512l23.53,24.014l-48.976,23.308c-4.987,2.374-7.106,8.34-4.732,13.327
			c1.713,3.6,5.298,5.705,9.036,5.705c1.44,0,2.903-0.313,4.29-0.973l55.185-26.262l12.557,12.815
			c-4.135,24.582,3.509,49.352,21.001,67.203c14.282,14.576,33.287,22.604,53.513,22.604c4.174,0,8.341-0.359,12.451-1.055
			l12.631,12.89l-14.194,31.064c-2.295,5.023-0.083,10.956,4.94,13.251c1.347,0.616,2.759,0.907,4.149,0.907
			c3.794,0,7.422-2.171,9.102-5.847l10.999-24.071l23.148,23.624c1.904,1.944,4.489,3.001,7.143,3.001
			c0.822,0,1.65-0.102,2.467-0.309c3.455-0.879,6.18-3.531,7.153-6.96l26.631-93.804l75.382-76.931
			c14.89-15.197,14.89-39.922,0-55.116l-25.857-26.388C433.629,161.177,446.454,154.238,455.066,143.491z M353.084,20h14.405
			v173.112h-14.405V20z M221.465,333.414c-9.069-9.255-14.567-21.032-16.005-33.528l48.746,49.748
			C241.851,348.172,230.408,342.541,221.465,333.414z M326.147,394.476L161.212,226.152l25.448-7.524l19.863,20.273
			c1.958,1.999,4.55,3.001,7.144,3.001c2.524,0,5.052-0.951,6.997-2.857c3.945-3.865,4.01-10.196,0.145-14.141l-12.439-12.695
			l25.447-7.524l113.366,115.696L326.147,394.476z M428.409,204.657c7.328,7.477,7.328,19.644,0,27.122l-70.021,71.46
			L250.749,193.39l70.307-71.751c3.233-3.299,7.473-5.213,12.028-5.453v86.927c0,5.523,4.477,10,10,10h34.405
			c5.523,0,10-4.477,10-10v-40.219L428.409,204.657z"/>
	</g>
</g>
<g>
	<g>
		<path d="M241.652,246.186l-0.143-0.148c-3.84-3.97-10.17-4.076-14.141-0.236c-3.97,3.839-4.075,10.17-0.236,14.14l0.144,0.148
			c1.962,2.029,4.574,3.048,7.189,3.048c2.503,0,5.01-0.934,6.951-2.812C245.386,256.487,245.491,250.156,241.652,246.186z"/>
	</g>
</g>
<g>
	<g>
		<path d="M166.901,388.809c-3.946-3.865-10.279-3.799-14.142,0.145l-59.956,61.188c-3.865,3.945-3.801,10.276,0.144,14.142
			c1.946,1.907,4.474,2.857,6.998,2.857c2.594,0,5.186-1.002,7.144-3.001l59.956-61.189
			C170.91,399.006,170.846,392.675,166.901,388.809z"/>
	</g>
</g>
<g>
	<g>
		<path d="M223,410.768c-4.55-3.124-10.777-1.966-13.903,2.588l-33.391,48.664c-3.124,4.554-1.966,10.779,2.589,13.903
			c1.729,1.186,3.698,1.755,5.648,1.755c3.185,0,6.316-1.518,8.255-4.343l33.391-48.664
			C228.713,420.117,227.555,413.893,223,410.768z"/>
	</g>
</g>
<g>
	<g>
		<path d="M145.442,331.518c-3.211-4.494-9.455-5.534-13.951-2.322L83.806,363.27c-4.493,3.211-5.533,9.457-2.322,13.95
			c1.952,2.732,5.025,4.187,8.146,4.187c2.012,0,4.043-0.606,5.806-1.865l47.684-34.075
			C147.613,342.257,148.653,336.012,145.442,331.518z"/>
	</g>
</g>
<g>
	<g>
		<path d="M273.435,432.929c-5.02-2.295-10.955-0.087-13.253,4.935l-0.288,0.63c-2.298,5.023-0.088,10.956,4.935,13.253
			c1.348,0.616,2.762,0.908,4.153,0.908c3.792,0,7.419-2.169,9.1-5.843l0.288-0.63C280.666,441.159,278.456,435.227,273.435,432.929
			z"/>
	</g>
</g>
<g>
	<g>
		<path d="M323.631,453.727c-5.337-1.398-10.809,1.791-12.211,7.133l-10.134,38.598c-1.403,5.342,1.791,10.809,7.133,12.212
			c0.851,0.223,1.705,0.33,2.546,0.33c4.435,0,8.486-2.973,9.665-7.463l10.134-38.598
			C332.167,460.597,328.973,455.13,323.631,453.727z"/>
	</g>
</g>
<g>
	<g>
		<path d="M103.459,228.814c-1.456-5.327-6.954-8.462-12.283-7.008l-37.82,10.342c-5.327,1.457-8.465,6.957-7.008,12.284
			c1.215,4.444,5.244,7.365,9.64,7.365c0.873,0,1.761-0.115,2.644-0.356l37.82-10.342
			C101.779,239.64,104.915,234.141,103.459,228.814z"/>
	</g>
</g>
<g>
</g>
<g>
</g>
<g>
</g>
<g>
</g>
<g>
</g>
<g>
</g>
<g>
</g>
<g>
</g>
<g>
</g>
<g>
</g>
<g>
</g>
<g>
</g>
<g>
</g>
<g>
</g>
<g>
</g>
</svg>
