<?xml version="1.0" encoding="iso-8859-1"?>
<!-- Generator: Adobe Illustrator 19.0.0, SVG Export Plug-In . SVG Version: 6.00 Build 0)  -->
<svg version="1.1" id="Capa_1" xmlns="http://www.w3.org/2000/svg" xmlns:xlink="http://www.w3.org/1999/xlink" x="0px" y="0px"
	 viewBox="0 0 512 512" style="enable-background:new 0 0 512 512;" xml:space="preserve">
<g>
	<g>
		<path d="M125.857,355.489c-6.2-13.231-38.149-36.363-47.794-43.138c-2.943-2.068-6.769-2.402-10.027-0.876
			c-3.259,1.526-5.451,4.678-5.748,8.263c-0.973,11.748-3.664,51.108,2.531,64.339c5.726,12.221,17.895,19.406,30.575,19.405
			c4.778,0,9.631-1.021,14.236-3.177c8.153-3.817,14.331-10.582,17.397-19.049C130.091,372.788,129.677,363.637,125.857,355.489z
			 M108.146,374.42c-1.239,3.423-3.737,6.157-7.031,7.7c-6.802,3.183-14.928,0.242-18.114-6.56
			c-1.919-4.097-2.363-19.494-1.773-35.912c12.984,10.055,24.525,20.257,26.445,24.358c0.001,0.001,0.001,0.002,0.002,0.004
			C109.218,367.301,109.385,370.997,108.146,374.42z"/>
	</g>
</g>
<g>
	<g>
		<path d="M248.097,355.491c-6.196-13.228-38.151-36.364-47.797-43.141c-2.944-2.068-6.767-2.401-10.026-0.877
			c-3.259,1.525-5.451,4.677-5.749,8.261c-0.975,11.749-3.674,51.109,2.521,64.341c3.818,8.148,10.581,14.324,19.046,17.39
			c3.75,1.358,7.634,2.034,11.504,2.034c4.872,0,9.722-1.07,14.261-3.196c8.152-3.817,14.332-10.581,17.4-19.045
			C252.327,372.79,251.913,363.639,248.097,355.491z M230.379,374.416c-1.241,3.424-3.741,6.16-7.04,7.705
			c-3.29,1.541-6.986,1.707-10.409,0.468c-3.424-1.241-6.16-3.738-7.702-7.028c-1.919-4.096-2.36-19.495-1.767-35.913
			c12.989,10.06,24.533,20.263,26.45,24.36c0.001,0,0.001,0.001,0.001,0.002C231.455,367.298,231.621,370.994,230.379,374.416z"/>
	</g>
</g>
<g>
	<g>
		<path d="M370.324,355.491c-6.195-13.228-38.15-36.364-47.796-43.141c-2.943-2.068-6.768-2.402-10.027-0.876
			c-3.259,1.526-5.451,4.678-5.748,8.263c-0.973,11.748-3.663,51.107,2.531,64.339c5.726,12.22,17.895,19.405,30.575,19.404
			c4.778,0,9.63-1.021,14.235-3.176c8.153-3.817,14.331-10.582,17.397-19.049C374.555,372.789,374.141,363.639,370.324,355.491z
			 M352.61,374.42c-1.239,3.423-3.737,6.158-7.031,7.7c-6.802,3.183-14.927,0.24-18.114-6.559
			c-1.918-4.097-2.363-19.494-1.773-35.911c12.988,10.059,24.529,20.26,26.446,24.356c0.001,0,0.001,0.001,0.001,0.002
			C353.684,367.3,353.85,370.997,352.61,374.42z"/>
	</g>
</g>
<g>
	<g>
		<path d="M492.561,355.492c-6.195-13.229-38.149-36.365-47.795-43.142c-2.943-2.067-6.769-2.402-10.027-0.876
			c-3.259,1.526-5.451,4.678-5.748,8.263c-0.973,11.748-3.664,51.108,2.531,64.339c5.726,12.22,17.895,19.405,30.575,19.404
			c4.779,0,9.632-1.021,14.236-3.176c8.152-3.817,14.329-10.582,17.395-19.049C496.793,372.789,496.378,363.64,492.561,355.492z
			 M474.848,374.42c-1.239,3.423-3.737,6.158-7.03,7.7c-6.801,3.183-14.929,0.241-18.115-6.559
			c-1.917-4.097-2.363-19.494-1.772-35.911c12.987,10.059,24.528,20.26,26.445,24.356c0.001,0,0.001,0.001,0.001,0.002
			C475.921,367.3,476.088,370.997,474.848,374.42z"/>
	</g>
</g>
<g>
	<g>
		<path d="M194.045,455.483C194.045,455.483,194.045,455.483,194.045,455.483c-6.195-13.231-38.151-36.359-47.798-43.133
			c-2.944-2.067-6.768-2.401-10.027-0.875c-3.258,1.526-5.45,4.678-5.747,8.263c-0.973,11.746-3.664,51.098,2.53,64.326
			c3.817,8.154,10.58,14.332,19.044,17.397c3.746,1.356,7.627,2.031,11.496,2.031c4.873,0,9.727-1.07,14.272-3.199
			C194.643,492.416,201.925,472.313,194.045,455.483z M169.301,482.11c-3.295,1.543-6.995,1.713-10.417,0.472
			c-3.42-1.239-6.154-3.736-7.697-7.031c-1.918-4.097-2.363-19.492-1.773-35.906c12.985,10.051,24.524,20.249,26.446,24.352
			C179.046,470.8,176.103,478.926,169.301,482.11z"/>
	</g>
</g>
<g>
	<g>
		<path d="M316.282,455.484C316.282,455.484,316.282,455.484,316.282,455.484c-6.195-13.231-38.15-36.359-47.797-43.133
			c-2.944-2.068-6.769-2.402-10.027-0.876c-3.258,1.526-5.45,4.678-5.747,8.263c-0.973,11.746-3.664,51.097,2.529,64.327
			c5.722,12.222,17.892,19.408,30.572,19.408c4.78,0,9.633-1.021,14.24-3.178C316.881,492.417,324.162,472.314,316.282,455.484z
			 M291.539,482.11c-6.805,3.183-14.929,0.243-18.114-6.559c-1.919-4.097-2.363-19.491-1.772-35.904
			c12.986,10.054,24.526,20.252,26.445,24.349C301.284,470.8,298.34,478.926,291.539,482.11z"/>
	</g>
</g>
<g>
	<g>
		<path d="M438.52,455.483c-0.001-0.002-0.002-0.005-0.003-0.007c-6.204-13.226-38.149-36.352-47.792-43.125
			c-2.943-2.067-6.767-2.401-10.028-0.876c-3.258,1.525-5.45,4.677-5.748,8.261c-0.975,11.746-3.675,51.098,2.519,64.329
			c3.818,8.153,10.583,14.331,19.05,17.396c3.747,1.357,7.628,2.032,11.496,2.032c4.872,0,9.726-1.071,14.266-3.198
			C439.113,492.412,446.398,472.311,438.52,455.483z M413.763,482.112c-3.29,1.543-6.987,1.711-10.41,0.471
			c-3.423-1.239-6.159-3.737-7.701-7.03c-1.919-4.098-2.36-19.494-1.766-35.908c12.984,10.053,24.526,20.253,26.452,24.358
			C423.518,470.803,420.571,478.925,413.763,482.112z"/>
	</g>
</g>
<g>
	<g>
		<path d="M445.913,136.782c-2.64-33.347-17.014-64.323-41.044-88.049c-26.272-25.94-61.076-40.226-98-40.226
			c-44.591,0-86.079,21.109-112.37,56.819c-7.808-1.686-15.753-2.537-23.702-2.537c-24.766,0-48.251,7.905-67.917,22.86
			c-17.178,13.064-30.395,31.079-37.726,51.259C28.096,142.029,0,173.683,0,211.841c0,41.727,33.944,75.676,75.666,75.676h360.669
			c41.723,0,75.666-33.948,75.666-75.676C512,173.371,483.142,141.515,445.913,136.782z M436.335,267.439H75.666
			c-30.651,0-55.587-24.94-55.587-55.597c0-29.777,23.285-54.164,53.012-55.518c4.283-0.195,7.969-3.088,9.177-7.202
			c11.447-39.009,47.852-66.255,88.531-66.255c8.492,0,16.985,1.187,25.244,3.526c4.206,1.193,8.701-0.476,11.111-4.123
			c22.218-33.615,59.495-53.684,99.716-53.684c64.96,0,118.522,52.829,119.397,117.765c0.073,5.491,4.577,9.904,10.068,9.904
			c30.651,0,55.587,24.936,55.587,55.587C491.923,242.498,466.986,267.439,436.335,267.439z"/>
	</g>
</g>
<g>
	<g>
		<path d="M191.08,225.207h-86.003c-5.544,0-10.039,4.495-10.039,10.039c0,5.545,4.496,10.039,10.039,10.039h86.003
			c5.544,0,10.039-4.495,10.039-10.039C201.12,229.701,196.624,225.207,191.08,225.207z"/>
	</g>
</g>
<g>
	<g>
		<path d="M222.815,225.207c-12.919,0-12.942,20.078,0,20.078C235.735,245.285,235.756,225.207,222.815,225.207z"/>
	</g>
</g>
<g>
</g>
<g>
</g>
<g>
</g>
<g>
</g>
<g>
</g>
<g>
</g>
<g>
</g>
<g>
</g>
<g>
</g>
<g>
</g>
<g>
</g>
<g>
</g>
<g>
</g>
<g>
</g>
<g>
</g>
</svg>
