<?xml version="1.0" encoding="iso-8859-1"?>
<!-- Generator: Adobe Illustrator 19.0.0, SVG Export Plug-In . SVG Version: 6.00 Build 0)  -->
<svg version="1.1" id="Capa_1" xmlns="http://www.w3.org/2000/svg" xmlns:xlink="http://www.w3.org/1999/xlink" x="0px" y="0px"
	 viewBox="0 0 512.002 512.002" style="enable-background:new 0 0 512.002 512.002;" xml:space="preserve">
<g>
	<g>
		<g>
			<path d="M510.597,205.563l-54.507-91.744c-2.71-4.563-8.513-6.211-13.219-3.761l-36.235,18.885l-6.395-10.932
				c-8.352-14.28-25.983-19.369-39.699-19.369c-7.598,0-14.8,1.513-20.343,4.266l-39.775,16.535l3.527-61.204h24.127
				c5.523,0,10-4.478,10-10V10c0-5.522-4.477-10-10-10H106.016c-5.523,0-10,4.478-10,10v38.238c0,5.522,4.477,10,10,10h27.894
				l10.101,126.232l-72.327,30.07l-58.838-13.534c-5.38-1.238-10.749,2.122-11.987,7.504s2.122,10.749,7.504,11.986l57.749,13.283
				l8.128,13.901l-64.467,1.471c-3.532,0.08-6.76,2.019-8.49,5.099c-1.73,3.08-1.707,6.845,0.061,9.903l132.102,228.504
				c1.742,3.013,4.924,4.903,8.403,4.992c0.085,0.002,0.17,0.003,0.255,0.003c3.383,0,6.544-1.713,8.391-4.561l35.351-54.54
				l6.436,11.006l-11.466,50.217c-1.23,5.384,2.019,12.228,9.758,12.228c4.561,0,8.682-3.141,9.74-7.776l10.429-45.675
				l266.416-137.684c7.638-3.934,13.227-10.854,15.738-19.486c3.087-10.611,1.282-22.811-4.953-33.474l-17.322-29.605l36.001-18.764
				c2.438-1.271,4.245-3.488,4.997-6.132C512.371,210.762,512.001,207.925,510.597,205.563z M116.016,38.238V20h202.063v18.238
				H116.016z M261.628,249.376c-9.871,10.493-25.628,17.213-40.821,17.213c-0.002,0-0.004,0-0.005,0
				c-29.425-0.002-53.172-21.377-54.061-48.663c-0.005-0.158-0.014-0.315-0.026-0.473L153.974,58.238h56.466v55.088
				c0,5.521,4.49,10,10,10c5.52,0,10-4.479,10-10V58.238h53.479l-8.977,155.764c-0.017,0.3-0.021,0.6-0.011,0.899
				C275.343,227.575,270.618,239.819,261.628,249.376z M142.59,468.515L27.108,268.761l57.18-1.305l89.457,152.993L142.59,468.515z
				 M470.679,278.007c3.423,5.852,4.549,12.503,3.012,17.788c-0.68,2.34-2.22,5.504-5.704,7.298L208.285,437.307L86.977,229.841
				l58.711-24.409l1.072,13.392c0.665,18.373,8.738,35.489,22.749,48.219c13.872,12.605,32.088,19.546,51.292,19.547
				c0.002,0,0.004,0,0.006,0c20.36,0,41.704-8.96,55.389-23.51c12.551-13.342,19.194-30.499,18.738-48.358l4.212-73.087
				c0,0,49.569-20.619,49.812-20.744c2.773-1.428,6.996-2.248,11.585-2.248c8.412,0,18.611,2.927,22.435,9.467L470.679,278.007z
				 M461.25,220.632l-44.273-74.525l26.751-13.941l44.276,74.523L461.25,220.632z"/>
			<path d="M193.05,345.049c-0.753,2.619-0.405,5.433,0.965,7.789l24.646,42.4c1.851,3.184,5.2,4.977,8.653,4.977
				c1.571,0,3.164-0.371,4.647-1.151l201.061-105.746c2.412-1.269,4.202-3.467,4.955-6.087c0.754-2.619,0.405-5.433-0.965-7.789
				l-24.644-42.4c-2.693-4.632-8.559-6.321-13.3-3.825L198.005,338.962C195.593,340.23,193.803,342.429,193.05,345.049z
				 M399.894,255.379l14.585,25.094L231.135,376.9l-14.587-25.094L399.894,255.379z"/>
			<path d="M220.816,181.682c-5.022,0-10.014,1.277-14.437,3.695c-7.057,3.857-12.181,10.228-14.427,17.936
				c-2.241,7.692-1.345,15.794,2.523,22.814c5.286,9.594,15.394,15.555,26.379,15.555c5.022,0,10.014-1.278,14.435-3.694
				c7.06-3.858,12.185-10.23,14.431-17.938c2.24-7.692,1.343-15.795-2.525-22.812C241.909,187.643,231.802,181.682,220.816,181.682z
				 M230.518,214.457c-0.748,2.567-2.46,4.691-4.82,5.981c-1.51,0.825-3.14,1.244-4.843,1.244c-3.697,0-7.094-1.995-8.863-5.206
				c-1.284-2.331-1.581-5.018-0.838-7.569c0.748-2.567,2.459-4.691,4.817-5.98c1.511-0.826,3.142-1.245,4.845-1.245
				c3.697,0,7.092,1.995,8.862,5.209C230.962,209.22,231.26,211.907,230.518,214.457z"/>
			<path d="M351.887,224.682c5.021,0,10.013-1.277,14.435-3.693c7.06-3.858,12.185-10.229,14.431-17.939
				c2.241-7.692,1.343-15.795-2.525-22.812c-5.286-9.595-15.393-15.556-26.379-15.556c-5.022,0-10.014,1.277-14.437,3.695
				c-7.057,3.857-12.181,10.228-14.427,17.936c-2.241,7.692-1.345,15.794,2.522,22.814
				C330.793,218.722,340.901,224.682,351.887,224.682z M342.186,191.907c0.748-2.567,2.459-4.691,4.817-5.98
				c1.511-0.826,3.142-1.245,4.845-1.245c3.697,0,7.092,1.995,8.862,5.209c1.284,2.329,1.582,5.016,0.839,7.566
				c-0.748,2.567-2.459,4.692-4.82,5.981c-1.51,0.826-3.14,1.244-4.843,1.244c-3.697,0-7.094-1.995-8.863-5.206
				C341.741,197.145,341.443,194.458,342.186,191.907z"/>
			<path d="M220.44,163.326c5.52,0,10-4.48,10-10c0-5.51-4.48-10-10-10c-5.51,0-10,4.49-10,10
				C210.44,158.847,214.93,163.326,220.44,163.326z"/>
		</g>
	</g>
</g>
<g>
</g>
<g>
</g>
<g>
</g>
<g>
</g>
<g>
</g>
<g>
</g>
<g>
</g>
<g>
</g>
<g>
</g>
<g>
</g>
<g>
</g>
<g>
</g>
<g>
</g>
<g>
</g>
<g>
</g>
</svg>
