<?xml version="1.0" encoding="iso-8859-1"?>
<!-- Generator: Adobe Illustrator 19.0.0, SVG Export Plug-In . SVG Version: 6.00 Build 0)  -->
<svg version="1.1" id="Capa_1" xmlns="http://www.w3.org/2000/svg" xmlns:xlink="http://www.w3.org/1999/xlink" x="0px" y="0px"
	 viewBox="0 0 511.999 511.999" style="enable-background:new 0 0 511.999 511.999;" xml:space="preserve">
<g>
	<g>
		<path d="M349.408,35.87c-0.437-0.468-0.88-0.934-1.326-1.394c-3.832-3.967-10.153-4.072-14.119-0.242
			c-3.965,3.832-4.074,10.154-0.242,14.12c0.367,0.378,0.731,0.759,1.09,1.145c1.967,2.105,4.63,3.17,7.3,3.17
			c2.441,0,4.889-0.891,6.813-2.687C352.955,46.219,353.172,39.901,349.408,35.87z"/>
	</g>
</g>
<g>
	<g>
		<path d="M502.015,437.734h-61.909v-19.306c0-49.379-31.185-93.872-77.601-110.718l-39.087-14.186
			c-10.996-3.99-18.806-13.75-20.517-25.094c19.094-10.518,33.753-28.132,40.386-49.27h35.933c28.679,0,52.011-23.332,52.011-52.012
			c0-28.582-23.177-51.847-51.724-52.004v-2.954c0-16.457-3.496-32.315-10.391-47.131c-2.328-4.999-8.268-7.164-13.267-4.84
			c-5,2.327-7.167,8.266-4.84,13.267c5.658,12.157,8.526,25.179,8.526,38.704v86.998h-12.555c0.118-1.826,0.198-3.663,0.198-5.518
			v-75.673c0-47.032-38.263-85.295-85.295-85.295h-11.019c-47.032,0-85.295,38.263-85.295,85.295v75.674
			c0,1.855,0.081,3.692,0.198,5.518h-12.555v-86.998c0-50.645,41.203-91.846,91.846-91.846h22.629
			c13.924,0,27.293,3.034,39.739,9.015c4.971,2.391,10.937,0.297,13.325-4.674c2.389-4.971,0.297-10.936-4.674-13.326
			c-15.166-7.29-31.448-10.987-48.39-10.987h-22.629c-61.657,0-111.817,50.161-111.817,111.817v2.954
			c-28.547,0.156-51.724,23.421-51.724,52.004c0,28.68,23.332,52.012,52.011,52.012h35.933c6.633,21.138,21.291,38.751,40.386,49.27
			c-1.711,11.344-9.522,21.104-20.517,25.094l-39.087,14.186c-46.415,16.845-77.601,61.339-77.601,110.718v19.306H10.733
			c-5.515,0-9.985,4.471-9.985,9.985v53.921c0,5.514,4.47,9.985,9.985,9.985h491.28c5.515,0,9.985-4.471,9.985-9.985v-53.921
			C512,442.204,507.53,437.734,502.015,437.734z M379.506,135.109c17.535,0.156,31.753,14.469,31.753,32.039
			c0,17.572-14.218,31.885-31.753,32.04V135.109z M133.242,199.188c-17.535-0.155-31.753-14.468-31.753-32.04
			c0-17.571,14.218-31.884,31.753-32.039V199.188z M185.539,117.997c0.001-36.02,29.305-65.324,65.325-65.324h11.019
			c36.02,0,65.324,29.305,65.324,65.324v26.993h-0.029c-11.948,0-23.363-3.431-33.14-9.808c7.772-5.493,15.132-11.688,21.999-18.555
			c3.899-3.899,3.9-10.222,0-14.122c-3.9-3.897-10.222-3.898-14.121,0c-27.828,27.826-64.825,43.152-104.178,43.152h-12.198V117.997
			z M185.54,193.671v-28.043h12.198c27.616,0,54.207-6.654,77.954-19.19c14.457,11.99,32.468,18.523,51.488,18.523h0.029v28.71
			c0,36.019-29.304,65.324-65.324,65.324h-11.019C214.844,258.996,185.54,229.691,185.54,193.671z M228.679,276.023
			c7.08,1.908,14.513,2.944,22.185,2.944h11.019c7.674,0,15.106-1.035,22.185-2.944c2.989,12.123,10.306,22.812,20.497,29.988
			c-27.787,23.305-68.596,23.305-96.383,0C218.373,298.834,225.691,288.146,228.679,276.023z M92.614,418.428
			c0-41.006,25.898-77.956,64.444-91.944l31.536-11.445c0.184,0.218,0.371,0.433,0.577,0.638
			c18.528,18.528,42.866,27.792,67.205,27.792c24.338,0,48.677-9.264,67.205-27.792c0.205-0.205,0.393-0.42,0.577-0.638
			l31.536,11.445c38.546,13.989,64.444,50.938,64.444,91.944v19.306H383.02c0.757-2.533,1.169-5.212,1.169-7.988
			c0-15.416-12.543-27.959-27.959-27.959h-64.905c-5.515,0-9.985,4.471-9.985,9.985c0,5.514,4.47,9.985,9.985,9.985h64.905
			c4.405,0,7.988,3.584,7.988,7.988s-3.584,7.988-7.988,7.988H156.523c-4.405,0-7.988-3.584-7.988-7.988s3.584-7.988,7.988-7.988
			h53.921c5.515,0,9.985-4.471,9.985-9.985c0-5.514-4.47-9.985-9.985-9.985h-53.921c-15.416,0-27.959,12.543-27.959,27.959
			c0,2.776,0.412,5.455,1.169,7.988H92.614V418.428z M492.029,491.655H20.72v-33.95h471.31V491.655z"/>
	</g>
</g>
<g>
	<g>
		<path d="M263.383,404.712c-1.857-1.857-4.433-2.926-7.06-2.926c-2.626,0-5.202,1.067-7.06,2.926
			c-1.857,1.858-2.926,4.434-2.926,7.06c0,2.626,1.068,5.202,2.926,7.059c1.857,1.858,4.434,2.927,7.06,2.927
			c2.626,0,5.202-1.068,7.06-2.927c1.857-1.856,2.926-4.433,2.926-7.059C266.309,409.146,265.241,406.57,263.383,404.712z"/>
	</g>
</g>
<g>
	<g>
		<path d="M110.176,224.539c-2.462-1.89-5.662-2.523-8.661-1.725l-62.725,16.788c-4.367,1.169-7.404,5.125-7.404,9.646v35.754
			c-8.044-1.304-16.827,1.321-23.284,7.777c-10.328,10.331-10.851,26.614-1.166,36.3c4.638,4.638,10.79,6.935,17.076,6.935
			c6.84,0,13.84-2.72,19.223-8.102c5.078-5.078,7.781-11.595,8.07-18.06c0.004-0.043,0.003-0.087,0.007-0.13
			c0.003-0.075,0.009-0.151,0.011-0.227c0.015-0.223,0.034-0.444,0.034-0.671v-51.91L94.11,245.47V269.3
			c-8.043-1.304-16.824,1.322-23.28,7.78c-4.865,4.865-7.737,11.21-8.087,17.866c-0.365,6.951,2.157,13.668,6.92,18.431
			c4.638,4.639,10.789,6.936,17.076,6.936c6.84,0,13.84-2.72,19.223-8.102c4.909-4.909,7.598-11.163,8.034-17.414
			c0.051-0.406,0.085-0.819,0.085-1.239v-61.097C114.081,229.357,112.638,226.429,110.176,224.539z M31.385,308.51
			c0.057,1.741-0.731,3.737-2.273,5.279c-2.499,2.499-6.189,3.035-8.056,1.168c-1.866-1.867-1.332-5.558,1.167-8.057
			c1.491-1.491,3.405-2.283,5.104-2.283c1.148,0,2.199,0.362,2.952,1.114c0.695,0.695,1.055,1.644,1.106,2.688V308.51z
			 M94.11,292.884c0.033,1.724-0.749,3.683-2.269,5.204c-2.499,2.499-6.188,3.035-8.056,1.166c-0.998-0.997-1.147-2.324-1.098-3.26
			c0.089-1.697,0.916-3.444,2.266-4.795c1.491-1.491,3.405-2.283,5.102-2.283c1.148,0,2.199,0.361,2.953,1.114
			c0.689,0.689,1.045,1.628,1.102,2.662V292.884z"/>
	</g>
</g>
<g>
	<g>
		<path d="M76.775,63.584c-1.887-2.493-4.834-3.959-7.962-3.959H55.365l6.898-20.056c1.793-5.214-0.98-10.896-6.195-12.689
			c-5.217-1.796-10.897,0.98-12.69,6.195L31.928,66.363c-1.049,3.051-0.56,6.421,1.314,9.048c1.875,2.625,4.902,4.185,8.129,4.185
			H55.62l-6.273,22.23c-1.498,5.307,1.591,10.824,6.898,12.322c0.907,0.257,1.819,0.378,2.717,0.378
			c4.358-0.001,8.363-2.876,9.605-7.276l9.856-34.928C79.272,69.312,78.662,66.077,76.775,63.584z"/>
	</g>
</g>
<g>
	<g>
		<path d="M485.386,263.798c-1.887-2.493-4.834-3.959-7.962-3.959h-13.447l6.898-20.057c1.793-5.215-0.981-10.896-6.195-12.689
			c-5.217-1.796-10.897,0.98-12.69,6.195l-11.449,33.289c-1.049,3.052-0.56,6.422,1.314,9.048s4.902,4.185,8.128,4.185h14.248
			l-6.272,22.229c-1.498,5.307,1.591,10.824,6.898,12.322c0.907,0.257,1.819,0.378,2.717,0.378c4.358-0.001,8.363-2.876,9.605-7.276
			l9.856-34.927C487.884,269.525,487.273,266.292,485.386,263.798z"/>
	</g>
</g>
<g>
	<g>
		<path d="M487.189,8.612c-10.272-4.945-20.409-7.762-20.835-7.879c-3.005-0.828-6.223-0.204-8.703,1.684
			c-2.12,1.616-3.483,4-3.835,6.605c-0.067,0.163-0.099,0.575-0.099,1.338v31.878v26.927c-9.326-2.186-19.872,0.593-27.493,8.213
			c-11.371,11.372-11.979,29.267-1.356,39.89c5.076,5.075,11.808,7.587,18.698,7.587c7.532,0,15.253-3.005,21.192-8.943
			c6.116-6.116,9.114-14.119,8.93-21.864V56.324c1.433,0.596,2.906,1.242,4.381,1.941c11.153,5.29,13.843,9.476,13.961,10.325
			c0.006,5.509,4.474,9.972,9.985,9.972c5.515,0,9.985-4.471,9.985-9.985V36.699C512,25.988,503.652,16.539,487.189,8.612z
			 M450.637,101.789c-3.524,3.524-8.857,4.147-11.647,1.356c-2.789-2.789-2.168-8.123,1.356-11.647
			c2.037-2.037,4.677-3.103,7.082-3.103c1.756,0,3.388,0.569,4.564,1.746c1.043,1.044,1.609,2.442,1.724,3.97v0.312
			c0,0.118,0.014,0.232,0.018,0.349C453.717,97.159,452.656,99.77,450.637,101.789z M492.029,42.993
			c-1.526-0.85-3.14-1.686-4.839-2.503c-4.871-2.346-9.713-4.212-13.502-5.539V24.443c1.432,0.596,2.907,1.244,4.381,1.943
			c11.183,5.304,13.857,9.498,13.961,10.312V42.993z"/>
	</g>
</g>
<g>
	<g>
		<path d="M297.471,183.704c-2.883-4.701-9.032-6.175-13.732-3.293l-0.64,0.395c-4.688,2.904-6.134,9.059-3.229,13.748
			c1.89,3.05,5.155,4.727,8.498,4.727c1.794,0,3.612-0.483,5.249-1.498l0.561-0.346
			C298.879,194.554,300.354,188.406,297.471,183.704z"/>
	</g>
</g>
<g>
	<g>
		<path d="M233.654,183.695c-2.887-4.698-9.039-6.165-13.735-3.278l-0.63,0.389c-4.688,2.904-6.134,9.059-3.229,13.748
			c1.89,3.051,5.155,4.727,8.498,4.727c1.794,0,3.612-0.483,5.249-1.498l0.569-0.352
			C235.074,194.543,236.542,188.393,233.654,183.695z"/>
	</g>
</g>
<g>
</g>
<g>
</g>
<g>
</g>
<g>
</g>
<g>
</g>
<g>
</g>
<g>
</g>
<g>
</g>
<g>
</g>
<g>
</g>
<g>
</g>
<g>
</g>
<g>
</g>
<g>
</g>
<g>
</g>
</svg>
