<?xml version="1.0" encoding="iso-8859-1"?>
<!-- Generator: Adobe Illustrator 19.0.0, SVG Export Plug-In . SVG Version: 6.00 Build 0)  -->
<svg version="1.1" id="Capa_1" xmlns="http://www.w3.org/2000/svg" xmlns:xlink="http://www.w3.org/1999/xlink" x="0px" y="0px"
	 viewBox="0 0 512 512" style="enable-background:new 0 0 512 512;" xml:space="preserve">
<g>
	<g>
		<path d="M502,180h-36V10c0-5.522-4.478-10-10-10H56c-5.523,0-10,4.478-10,10v170H10c-5.523,0-10,4.478-10,10v270v42
			c0,5.522,4.477,10,10,10h492c5.522,0,10-4.478,10-10v-42V190C512,184.478,507.522,180,502,180z M66,20h380v160h-20V50
			c0-5.522-4.478-10-10-10H96c-5.523,0-10,4.478-10,10v130H66V20z M406,60v120H106V60H406z M20,343.613
			C20,308.537,52.299,280,92,280s72,28.537,72,63.613V450h-20v-91.885c0-17.732-5.202-32.592-15.044-42.974
			C119.698,305.377,106.574,300,92,300s-27.698,5.377-36.956,15.142C45.202,325.523,40,340.383,40,358.115V450H20V343.613z M102,400
			v-30h22v30H102z M124,420v30h-22v-30H124z M102,350v-28.637c11.921,3.487,19.53,13.563,21.491,28.637H102z M60,400v-30h22v30H60z
			 M82,420v30H60v-30H82z M60.509,350C62.47,334.926,70.08,324.85,82,321.363V350H60.509z M492,492H20v-22h472V492z
			 M292.956,315.141C283.698,305.377,270.574,300,256,300c-14.574,0-27.698,5.377-36.956,15.142
			C209.202,325.523,204,340.383,204,358.115V450h-20V343.613C184,308.537,216.299,280,256,280s72,28.537,72,63.613V450h-20v-91.885
			C308,340.383,302.798,325.523,292.956,315.141z M266,400v-30h22v30H266z M288,420v30h-22v-30H288z M266,350v-28.637
			c11.92,3.487,19.53,13.563,21.491,28.637H266z M224,400v-30h22v30H224z M246,420v30h-22v-30H246z M224.509,350
			c1.961-15.074,9.571-25.15,21.491-28.637V350H224.509z M410,370v30h-22v-30H410z M388.509,350
			c1.961-15.074,9.571-25.15,21.491-28.637V350H388.509z M410,420v30h-22v-30H410z M452,370v30h-22v-30H452z M430,350v-28.637
			c11.92,3.487,19.53,13.563,21.491,28.637H430z M452,420v30h-22v-30H452z M492,450h-20v-91.885
			c0-17.732-5.202-32.592-15.044-42.974C447.698,305.377,434.574,300,420,300c-14.574,0-27.698,5.377-36.956,15.142
			C373.202,325.523,368,340.383,368,358.115V450h-20V343.613C348,308.537,380.299,280,420,280s72,28.537,72,63.613V450z M492,220
			H296c-5.521,0-10,4.49-10,10s4.479,10,10,10h196v51.625C475.131,272.368,449.126,260,420,260c-35.732,0-66.771,18.611-82,45.727
			C322.771,278.611,291.732,260,256,260s-66.771,18.611-82,45.727C158.771,278.611,127.732,260,92,260
			c-29.126,0-55.131,12.368-72,31.625V240h196c5.51,0,10-4.49,10-10s-4.49-10-10-10H20v-20h472V220z"/>
	</g>
</g>
<g>
	<g>
		<path d="M208.79,145.831c-0.168,0-29.919,0-29.919,0l31.021-54.89c2.1-3.831,3.172-10.561-3.081-10.561
			c-0.255,0-42.459,0-42.459,0c-3.799,0-5.17,4.405-5.17,7.481c0,3.126,1.367,7.479,5.17,7.479c0.068,0,25.519,0,25.519,0
			l-31.02,54.89c-0.951,1.622-1.61,3.967-1.488,6.036c0.146,2.458,1.396,4.525,4.571,4.525c0.374,0,46.857,0,46.857,0
			c3.662,0,5.171-4.456,5.171-7.481C213.962,150.366,212.376,145.831,208.79,145.831z"/>
	</g>
</g>
<g>
	<g>
		<path d="M274.901,86.652c-4.914-4.18-11.479-6.27-19.69-6.27c-8.14,0-14.668,2.09-19.58,6.27c-4.914,4.181-7.37,10.744-7.37,19.69
			v29.15c0,8.947,2.456,15.509,7.37,19.69c4.912,4.18,11.44,6.27,19.58,6.27c8.212,0,14.776-2.09,19.69-6.27
			c4.912-4.181,7.369-10.742,7.369-19.69v-29.15C282.27,97.396,279.813,90.832,274.901,86.652z M265.111,135.491
			c0,7.333-3.301,11-9.9,11c-6.527,0-9.79-3.667-9.79-11v-29.15c0-7.332,3.263-11,9.79-11c6.6,0,9.9,3.668,9.9,11V135.491z"/>
	</g>
</g>
<g>
	<g>
		<path d="M347.28,86.652c-4.914-4.18-11.478-6.27-19.69-6.27c-8.14,0-14.667,2.09-19.579,6.27c-4.914,4.181-7.37,10.744-7.37,19.69
			v29.15c0,8.947,2.456,15.509,7.37,19.69c4.912,4.18,11.439,6.27,19.579,6.27c8.213,0,14.776-2.09,19.69-6.27
			c4.912-4.181,7.37-10.742,7.37-19.69v-29.15C354.65,97.396,352.192,90.832,347.28,86.652z M337.49,135.491c0,7.333-3.3,11-9.9,11
			c-6.527,0-9.789-3.667-9.789-11v-29.15c0-7.332,3.262-11,9.789-11c6.601,0,9.9,3.668,9.9,11V135.491z"/>
	</g>
</g>
<g>
	<g>
		<path d="M256,220c-5.51,0-10,4.49-10,10s4.49,10,10,10s10-4.49,10-10S261.51,220,256,220z"/>
	</g>
</g>
<g>
</g>
<g>
</g>
<g>
</g>
<g>
</g>
<g>
</g>
<g>
</g>
<g>
</g>
<g>
</g>
<g>
</g>
<g>
</g>
<g>
</g>
<g>
</g>
<g>
</g>
<g>
</g>
<g>
</g>
</svg>
