<?xml version="1.0" encoding="iso-8859-1"?>
<!-- Generator: Adobe Illustrator 19.0.0, SVG Export Plug-In . SVG Version: 6.00 Build 0)  -->
<svg version="1.1" id="Capa_1" xmlns="http://www.w3.org/2000/svg" xmlns:xlink="http://www.w3.org/1999/xlink" x="0px" y="0px"
	 viewBox="0 0 512 512" style="enable-background:new 0 0 512 512;" xml:space="preserve">
<g>
	<g>
		<path d="M90,362H50c-5.523,0-10,4.478-10,10v50c0,5.522,4.477,10,10,10h40c5.523,0,10-4.478,10-10v-50
			C100,366.478,95.523,362,90,362z M80,412H60v-30h20V412z"/>
	</g>
</g>
<g>
	<g>
		<path d="M250,362h-40c-5.523,0-10,4.478-10,10v50c0,5.522,4.477,10,10,10h40c5.523,0,10-4.478,10-10v-50
			C260,366.478,255.523,362,250,362z M240,412h-20v-30h20V412z"/>
	</g>
</g>
<g>
	<g>
		<path d="M90,176H50c-5.523,0-10,4.478-10,10v50c0,5.522,4.477,10,10,10h40c5.523,0,10-4.478,10-10v-50
			C100,180.478,95.523,176,90,176z M80,226H60v-30h20V226z"/>
	</g>
</g>
<g>
	<g>
		<path d="M250,176h-40c-5.523,0-10,4.478-10,10v50c0,5.522,4.477,10,10,10h40c5.523,0,10-4.478,10-10v-50
			C260,180.478,255.523,176,250,176z M240,226h-20v-30h20V226z"/>
	</g>
</g>
<g>
	<g>
		<path d="M453.52,306.64c-1.13-0.42-2.319-0.64-3.52-0.64c-4.141,0-7.9,2.6-9.36,6.479l-21.13,56.15
			c-0.94,2.5-0.86,5.22,0.25,7.649c1.1,2.431,3.08,4.29,5.58,5.23c1.14,0.43,2.32,0.65,3.52,0.65c4.141,0,7.91-2.61,9.37-6.48
			l21.13-56.16C461.3,314.359,458.68,308.58,453.52,306.64z"/>
	</g>
</g>
<g>
	<g>
		<path d="M418.3,400.229c-1.14-0.43-2.32-0.64-3.52-0.64c-4.141,0-7.9,2.6-9.36,6.479c-0.94,2.5-0.851,5.21,0.25,7.65
			c1.1,2.43,3.09,4.29,5.59,5.23c1.13,0.43,2.31,0.64,3.51,0.64c4.15,0,7.91-2.6,9.37-6.48
			C426.08,407.95,423.46,402.17,418.3,400.229z"/>
	</g>
</g>
<g>
	<g>
		<path d="M502,120h-61V10c0-5.522-4.478-10-10-10H81c-5.523,0-10,4.478-10,10v110H10c-5.523,0-10,4.478-10,10v372
			c0,5.522,4.477,10,10,10h492c5.522,0,10-4.478,10-10V130C512,124.478,507.522,120,502,120z M91,20h330v100H91V20z M20,286h40v20
			H20V286z M120,492H20v-20h100V492z M160,492h-20V382h20V492z M280,492H180v-20h100V492z M320,492h-20V382h20V492z M330,362h-40
			c-5.522,0-10,4.478-10,10v80H180v-80c0-5.522-4.477-10-10-10h-40c-5.523,0-10,4.478-10,10v80H20V326h365.51L340,447.004V372
			C340,366.478,335.522,362,330,362z M80,306v-20h40v20H80z M160,286v20h-20v-20H160z M140,266v-70h20v70H140z M180,306v-20h40v20
			H180z M240,306v-20h40v20H240z M320,286v20h-20v-20H320z M300,266v-70h20v70H300z M340,306v-20h60.554l-7.522,20H340z M492,492
			h-45.552l7.527-20H492V492z M492,452h-30.498L492,370.963V452z M492,314.181L425.079,492h-30.631l15.602-41.45
			c0.94-2.5,0.85-5.22-0.25-7.65c-1.11-2.43-3.09-4.29-5.59-5.229c-1.141-0.43-2.32-0.65-3.521-0.65c-4.14,0-7.899,2.61-9.359,6.49
			L373.078,492h-28.633l77.478-206H492V314.181z M430,266v-70h20v70H430z M492,266h-22v-80c0-5.522-4.478-10-10-10h-40
			c-5.522,0-10,4.478-10,10v80h-70v-80c0-5.522-4.478-10-10-10h-40c-5.522,0-10,4.478-10,10v80H180v-80c0-5.522-4.477-10-10-10h-40
			c-5.523,0-10,4.478-10,10v80H20V140h472V266z"/>
	</g>
</g>
<g>
	<g>
		<path d="M168.477,37.857c-1.233-1.158-2.919-1.856-4.861-1.856c-5.53,0-8.264,2.4-10.889,7.021l-9.27,16.199
			c0,0-9.271-16.199-9.271-16.2c-2.646-4.653-5.371-7.019-10.889-7.019c-4.142,0-7.021,2.79-7.021,7.021c0,0,0,54.001,0,54.446
			c0,3.355,4.428,4.323,7.021,4.323c2.681,0,7.019-0.895,7.019-4.32V62.82c0,0,8.474,15.52,8.55,15.659
			c1.914,3.505,7.124,3.354,9.09,0.001l8.64-14.76c0,0,0,33.455,0,33.748c0,3.35,4.434,4.322,7.02,4.322c2.5,0,7.02-0.953,7.02-4.32
			c0,0,0-54.333,0-54.45C170.637,40.954,169.83,39.128,168.477,37.857z"/>
	</g>
</g>
<g>
	<g>
		<path d="M224.546,41.131c-4.021-3.42-9.391-5.13-16.11-5.13c-6.66,0-12.001,1.71-16.02,5.13c-4.021,3.42-6.03,8.791-6.03,16.11
			v23.85c0,7.321,2.01,12.69,6.03,16.11c4.019,3.42,9.359,5.13,16.02,5.13c6.72,0,12.09-1.71,16.11-5.13
			c4.019-3.42,6.03-8.789,6.03-16.11v-23.85C230.576,49.922,228.564,44.551,224.546,41.131z M216.536,81.091c0,6.001-2.7,9-8.101,9
			c-5.341,0-8.01-2.999-8.01-9v-23.85c0-5.999,2.669-9,8.01-9c5.4,0,8.101,3.001,8.101,9V81.091z"/>
	</g>
</g>
<g>
	<g>
		<path d="M285.295,36.001c0,0-38.527,0-38.877,0c-3.133,0-4.232,3.442-4.232,6.033c0,2.579,1.089,6.208,4.229,6.208h12.42
			c0,0,0,48.821,0,49.198c0,3.415,4.381,4.352,7.021,4.352c2.657,0,7.019-0.936,7.019-4.35v-49.2c0,0,12.351,0,12.42,0
			c3.102,0,4.231-3.682,4.231-6.208C289.526,39.577,288.389,36.001,285.295,36.001z"/>
	</g>
</g>
<g>
	<g>
		<path d="M340.016,89.551h-24.12v-15.3h13.5c2.857,0,4.229-2.759,4.229-5.309c0-2.413-1.301-5.49-4.229-5.49h-13.5v-15.21
			c-0.001-0.001,23.883-0.001,24.119-0.001c3.121-0.001,4.229-3.68,4.229-6.21c0-2.458-1.117-6.03-4.229-6.03c0,0-31.981,0-32.04,0
			c-2.516,0-6.12,1.142-6.12,4.319c0,0,0,56.732,0,57.148c0,3.071,3.451,4.323,6.12,4.323c0,0,32.04,0,32.041,0
			c3.13-0.001,4.228-3.444,4.229-6.029C344.245,93.322,343.16,89.551,340.016,89.551z"/>
	</g>
</g>
<g>
	<g>
		<path d="M391.673,89.551h-20.52c0,0,0-49.107,0-49.32c0-3.309-4.429-4.23-7.021-4.23c-2.633,0-7.019,0.817-7.019,4.229
			c0,0,0,57.041,0,57.24c0,3.043,3.48,4.321,6.12,4.321c0,0,28.216,0,28.438,0c2.959,0,4.052-3.637,4.052-6.121
			C395.724,93.204,394.727,89.551,391.673,89.551z"/>
	</g>
</g>
<g>
</g>
<g>
</g>
<g>
</g>
<g>
</g>
<g>
</g>
<g>
</g>
<g>
</g>
<g>
</g>
<g>
</g>
<g>
</g>
<g>
</g>
<g>
</g>
<g>
</g>
<g>
</g>
<g>
</g>
</svg>
