<?xml version="1.0" encoding="iso-8859-1"?>
<!-- Generator: Adobe Illustrator 19.0.0, SVG Export Plug-In . SVG Version: 6.00 Build 0)  -->
<svg version="1.1" id="Capa_1" xmlns="http://www.w3.org/2000/svg" xmlns:xlink="http://www.w3.org/1999/xlink" x="0px" y="0px"
	 viewBox="0 0 512 512" style="enable-background:new 0 0 512 512;" xml:space="preserve">
<g>
	<g>
		<path d="M477.479,117.979H316V34.521C316,15.486,300.514,0,281.479,0H206c-5.522,0-10,4.478-10,10s4.478,10,10,10h75.479
			C289.486,20,296,26.514,296,34.521v30.144H20V34.521C20,26.514,26.514,20,34.521,20h81.451c5.522,0,10-4.478,10-10
			s-4.478-10-10-10H34.521C15.486,0,0,15.486,0,34.521V319.48c0,15.496,10.265,28.638,24.351,32.99v8.905
			c0,18.001,14.646,32.646,32.646,32.646s32.646-14.646,32.646-32.646V354H196v83.459c0,15.496,10.265,28.638,24.351,32.99v8.905
			c0,18.001,14.646,32.646,32.646,32.646s32.646-14.646,32.646-32.646v-7.374h136.845v7.374c0,18.001,14.646,32.646,32.646,32.646
			s32.646-14.646,32.646-32.646v-8.945c14.02-4.393,24.22-17.503,24.22-32.95V152.5C512,133.466,496.514,117.979,477.479,117.979z
			 M20,84.664h142.564L28.233,218.997L20,210.764V84.664z M69.645,361.374h-0.001c0,6.974-5.673,12.646-12.646,12.646
			c-6.973,0-12.646-5.673-12.646-12.646V354h25.293V361.374z M196,286.28h-80.028c-5.522,0-10,4.478-10,10c0,5.522,4.478,10,10,10
			H196V334H34.521C26.514,334,20,327.486,20,319.479v-80.431l18.005,18.005c1.876,1.875,4.419,2.929,7.071,2.929H196V286.28z
			 M196,152.5v87.482h-67.269l39.824-39.824c3.905-3.905,3.905-10.237,0-14.143c-3.906-3.904-10.236-3.904-14.143,0l-53.967,53.967
			H49.219l-6.843-6.843L190.85,84.664H296v33.315h-65.479C211.487,117.979,196,133.465,196,152.5z M285.27,290.081
			c1.953,1.952,4.512,2.929,7.071,2.929s5.118-0.977,7.071-2.929l87.437-87.437h64.914L296.445,357.962h-51.227L216,328.743V202.644
			h142.564l-73.294,73.294C281.365,279.843,281.365,286.175,285.27,290.081z M265.645,479.354L265.645,479.354
			c-0.001,6.974-5.674,12.646-12.647,12.646c-6.973,0-12.646-5.673-12.646-12.646v-7.374h25.293V479.354z M467.782,479.354h-0.001
			c0,6.974-5.673,12.646-12.646,12.646c-6.973,0-12.646-5.673-12.646-12.646v-7.374h25.293V479.354z M492,437.459
			c0,8.007-6.514,14.52-14.521,14.52H230.521c-8.007,0-14.521-6.514-14.521-14.521v-80.431l18.005,18.005
			c1.876,1.875,4.419,2.929,7.071,2.929H466.85c2.652,0,5.195-1.054,7.071-2.929L492,356.955V437.459z M492,328.67l-29.292,29.292
			H324.73l155.319-155.318H492V328.67z M492,182.644H216V152.5c0-8.007,6.514-14.521,14.521-14.521H477.48
			c8.006,0,14.52,6.514,14.52,14.521V182.644z"/>
	</g>
</g>
<g>
	<g>
		<path d="M273.469,301.88c-1.86-1.86-4.43-2.93-7.07-2.93c-2.63,0-5.21,1.069-7.069,2.93c-1.86,1.86-2.931,4.43-2.931,7.07
			c0,2.63,1.07,5.21,2.931,7.069c1.859,1.861,4.44,2.931,7.069,2.931c2.631,0,5.21-1.07,7.07-2.931
			c1.87-1.859,2.93-4.439,2.93-7.069C276.399,306.309,275.339,303.74,273.469,301.88z"/>
	</g>
</g>
<g>
	<g>
		<path d="M396.089,404.259h-84.117c-5.522,0-10,4.478-10,10c0,5.522,4.478,10,10,10h84.117c5.522,0,10-4.478,10-10
			C406.089,408.737,401.611,404.259,396.089,404.259z"/>
	</g>
</g>
<g>
	<g>
		<path d="M267.24,407.19c-1.86-1.86-4.43-2.93-7.07-2.93c-2.63,0-5.2,1.07-7.07,2.93c-1.859,1.86-2.92,4.44-2.92,7.07
			s1.061,5.21,2.92,7.07c1.87,1.859,4.44,2.93,7.07,2.93c2.64,0,5.22-1.07,7.07-2.93c1.869-1.86,2.939-4.44,2.939-7.07
			S269.109,409.05,267.24,407.19z"/>
	</g>
</g>
<g>
	<g>
		<path d="M454.819,407.19c-1.859-1.86-4.439-2.93-7.069-2.93s-5.21,1.07-7.07,2.93c-1.86,1.86-2.93,4.44-2.93,7.07
			s1.069,5.21,2.93,7.07c1.86,1.859,4.44,2.93,7.07,2.93s5.21-1.07,7.069-2.93c1.86-1.86,2.931-4.44,2.931-7.07
			S456.68,409.05,454.819,407.19z"/>
	</g>
</g>
<g>
	<g>
		<path d="M168.559,2.93c-1.87-1.86-4.439-2.93-7.08-2.93c-2.63,0-5.199,1.069-7.069,2.93c-1.86,1.86-2.931,4.44-2.931,7.07
			s1.07,5.21,2.931,7.069c1.87,1.861,4.44,2.931,7.069,2.931c2.641,0,5.21-1.07,7.08-2.931c1.86-1.859,2.931-4.439,2.931-7.069
			S170.42,4.79,168.559,2.93z"/>
	</g>
</g>
<g>
	<g>
		<path d="M71.24,289.21c-1.86-1.86-4.43-2.93-7.07-2.93c-2.62,0-5.2,1.069-7.07,2.93c-1.859,1.859-2.92,4.439-2.92,7.07
			c0,2.63,1.061,5.21,2.92,7.069c1.87,1.86,4.45,2.931,7.07,2.931c2.64,0,5.21-1.07,7.07-2.931c1.869-1.859,2.939-4.439,2.939-7.069
			C74.179,293.649,73.109,291.069,71.24,289.21z"/>
	</g>
</g>
<g>
</g>
<g>
</g>
<g>
</g>
<g>
</g>
<g>
</g>
<g>
</g>
<g>
</g>
<g>
</g>
<g>
</g>
<g>
</g>
<g>
</g>
<g>
</g>
<g>
</g>
<g>
</g>
<g>
</g>
</svg>
