<?xml version="1.0" encoding="iso-8859-1"?>
<!-- Generator: Adobe Illustrator 19.0.0, SVG Export Plug-In . SVG Version: 6.00 Build 0)  -->
<svg version="1.1" id="Capa_1" xmlns="http://www.w3.org/2000/svg" xmlns:xlink="http://www.w3.org/1999/xlink" x="0px" y="0px"
	 viewBox="0 0 512 512" style="enable-background:new 0 0 512 512;" xml:space="preserve">
<g>
	<g>
		<path d="M429.018,500.05c-0.13-0.64-0.32-1.27-0.57-1.87c-0.25-0.61-0.56-1.19-0.92-1.73c-0.36-0.55-0.78-1.06-1.24-1.52
			c-0.46-0.46-0.98-0.88-1.52-1.24c-0.54-0.36-1.13-0.67-1.73-0.92c-0.6-0.25-1.23-0.44-1.87-0.57c-1.29-0.26-2.62-0.26-3.91,0
			c-0.64,0.13-1.26,0.32-1.87,0.57c-0.6,0.25-1.18,0.56-1.72,0.92c-0.55,0.36-1.06,0.78-1.52,1.24c-0.47,0.46-0.88,0.97-1.25,1.52
			c-0.36,0.54-0.67,1.12-0.92,1.73c-0.25,0.6-0.44,1.23-0.57,1.87s-0.19,1.3-0.19,1.95c0,2.63,1.06,5.21,2.93,7.07
			c1.86,1.86,4.43,2.93,7.07,2.93c0.65,0,1.31-0.07,1.95-0.2c0.64-0.12,1.27-0.32,1.87-0.57c0.6-0.25,1.19-0.56,1.73-0.92
			s1.06-0.78,1.52-1.24c0.46-0.46,0.88-0.97,1.24-1.52c0.36-0.54,0.67-1.12,0.92-1.72c0.25-0.61,0.44-1.24,0.57-1.88
			s0.2-1.3,0.2-1.95C429.218,501.35,429.148,500.69,429.018,500.05z"/>
	</g>
</g>
<g>
	<g>
		<g>
			<path d="M314.121,420.062C314.235,420.06,314.007,420.06,314.121,420.062L314.121,420.062z"/>
			<path d="M401.591,40.979H290.254v-6.723C290.254,15.367,274.887,0,255.998,0c-18.889,0-34.255,15.367-34.255,34.255v6.723
				H110.406c-5.523,0-10,4.477-10,10v253.986c0,5.523,4.477,10,10,10h6.235v38.42c0,5.523,4.477,10,10,10h9.05v14.494
				c0,32.645,25.286,59.495,57.301,61.994L182.834,492H92.782c-5.523,0-10,4.477-10,10s4.477,10,10,10h286.432
				c5.523,0,10-4.477,10-10s-4.477-10-10-10H329.15l-10.24-52.121c32.059-2.453,57.395-29.324,57.395-62.001v-14.494h9.05
				c5.523,0,10-4.477,10-10v-38.42h6.235c5.523,0,10-4.477,10-10V50.979h0.001C411.591,45.456,407.114,40.979,401.591,40.979z
				 M241.742,34.255L241.742,34.255C241.743,26.395,248.138,20,255.998,20c7.86,0,14.255,6.395,14.255,14.255v6.723h-28.511V34.255z
				 M120.406,294.964V96.052h72.874c-35.595,24.635-59.463,69.565-59.463,120.798c0,28.023,7.185,55.124,20.491,78.114H120.406z
				 M306.331,192.22c-36.072-37.583-108.416-23.792-111.478-23.187c-3.83,0.757-6.869,3.674-7.782,7.47
				c-0.73,3.035-17.477,74.752,18.594,112.334c2.128,2.217,4.382,4.254,6.74,6.126h-34.316
				c-15.684-21.822-24.271-49.361-24.271-78.114c0-66.335,45.46-120.353,101.483-120.798h1.396
				c56.023,0.445,101.483,54.464,101.483,120.798c0,28.752-8.587,56.292-24.271,78.114h-7.115
				C330.295,273.63,335.03,222.121,306.331,192.22z M261.664,227.966l1.193,11.665l-29.136-27.216
				c-4.035-3.77-10.363-3.555-14.134,0.481c-3.77,4.036-3.555,10.364,0.481,14.134l15.299,14.291l-7.913,0.732
				c-5.499,0.508-9.545,5.379-9.037,10.878c0.479,5.187,4.838,9.08,9.946,9.08c0.308,0,0.62-0.014,0.933-0.043l25.636-2.37
				l37.604,35.126c-2.036,0.111-4.175,0.195-6.395,0.239h-6.961v0.001c-20.054-0.411-44.302-4.572-59.085-19.975
				c-23.089-24.056-17.765-70.348-14.842-87.345c17.103-2.246,63.49-5.705,86.648,18.424c19.059,19.857,18.758,54.865,16.428,76.04
				l-23.243-21.712l-3.525-34.465c-0.563-5.494-5.472-9.489-10.966-8.931C265.101,217.562,261.102,222.472,261.664,227.966z
				 M203.21,492l10.122-51.938h85.231L308.768,492H203.21z M314.121,420.062H197.875c-23.26,0-42.184-18.923-42.184-42.184v-14.494
				h200.613v14.494h0.001C356.305,401.138,337.382,420.062,314.121,420.062z M375.355,343.384H136.641v-28.42h238.714V343.384z
				 M391.59,294.965h-33.903c13.307-22.992,20.492-50.093,20.492-78.115c0-51.233-23.868-96.163-59.463-120.798h72.874V294.965z
				 M391.591,76.049H120.406v-15.07h271.185V76.049z"/>
		</g>
	</g>
</g>
<g>
</g>
<g>
</g>
<g>
</g>
<g>
</g>
<g>
</g>
<g>
</g>
<g>
</g>
<g>
</g>
<g>
</g>
<g>
</g>
<g>
</g>
<g>
</g>
<g>
</g>
<g>
</g>
<g>
</g>
</svg>
