<?xml version="1.0" encoding="iso-8859-1"?>
<!-- Generator: Adobe Illustrator 19.0.0, SVG Export Plug-In . SVG Version: 6.00 Build 0)  -->
<svg version="1.1" id="Capa_1" xmlns="http://www.w3.org/2000/svg" xmlns:xlink="http://www.w3.org/1999/xlink" x="0px" y="0px"
	 viewBox="0 0 512.002 512.002" style="enable-background:new 0 0 512.002 512.002;" xml:space="preserve">
<g>
	<g>
		<path d="M124.094,397.891c-5.522,0-10,4.478-10,10v24.5c0,5.522,4.478,10,10,10c5.523,0,10-4.478,10-10v-24.5
			C134.094,402.369,129.617,397.891,124.094,397.891z"/>
	</g>
</g>
<g>
	<g>
		<path d="M320.22,397.891c-5.522,0-10,4.478-10,10v24.5c0,5.522,4.478,10,10,10c5.522,0,10-4.478,10-10v-24.5
			C330.22,402.369,325.742,397.891,320.22,397.891z"/>
	</g>
</g>
<g>
	<g>
		<path d="M240.72,397.891c-5.523,0-10,4.478-10,10v24.5c0,5.522,4.478,10,10,10c5.522,0,10-4.478,10-10v-24.5
			C250.72,402.369,246.242,397.891,240.72,397.891z"/>
	</g>
</g>
<g>
	<g>
		<path d="M203.594,397.891c-5.522,0-10,4.478-10,10v24.5c0,5.522,4.478,10,10,10c5.523,0,10-4.478,10-10v-24.5
			C213.594,402.369,209.117,397.891,203.594,397.891z"/>
	</g>
</g>
<g>
	<g>
		<path d="M166.467,397.891c-5.522,0-10,4.478-10,10v24.5c0,5.522,4.478,10,10,10c5.522,0,10-4.478,10-10v-24.5
			C176.467,402.369,171.99,397.891,166.467,397.891z"/>
	</g>
</g>
<g>
	<g>
		<path d="M277.846,397.891c-5.522,0-10,4.478-10,10v24.5c0,5.522,4.478,10,10,10c5.522,0,10-4.478,10-10v-24.5
			C287.846,402.369,283.368,397.891,277.846,397.891z"/>
	</g>
</g>
<g>
	<g>
		<path d="M86.967,397.891c-5.522,0-10,4.478-10,10v24.5c0,5.522,4.478,10,10,10c5.522,0,10-4.478,10-10v-24.5
			C96.967,402.369,92.489,397.891,86.967,397.891z"/>
	</g>
</g>
<g>
	<g>
		<path d="M357.346,397.891c-5.522,0-10,4.478-10,10v24.5c0,5.522,4.478,10,10,10c5.522,0,10-4.478,10-10v-24.5
			C367.346,402.369,362.868,397.891,357.346,397.891z"/>
	</g>
</g>
<g>
	<g>
		<path d="M451.127,212.142h-12.94c-5.522,0-10,4.477-10,10c0,5.522,4.478,10,10,10h12.94c5.522,0,10-4.478,10-10
			C461.127,216.619,456.65,212.142,451.127,212.142z"/>
	</g>
</g>
<g>
	<g>
		<path d="M444.658,333.52c-5.522,0-10,4.478-10,10v0.476c0,5.522,4.478,10,10,10c5.522,0,10-4.478,10-10v-0.476
			C454.658,337.997,450.18,333.52,444.658,333.52z"/>
	</g>
</g>
<g>
	<g>
		<path d="M444.658,363.079c-5.522,0-10,4.478-10,10v41.438c0,5.523,4.478,10,10,10c5.522,0,10-4.477,10-10v-41.438
			C454.658,367.557,450.18,363.079,444.658,363.079z"/>
	</g>
</g>
<g>
	<g>
		<path d="M311.161,313.14h-0.476c-5.522,0-10,4.478-10,10c0,5.522,4.478,10,10,10h0.476c5.523,0,10-4.477,10-10
			C321.161,317.618,316.684,313.14,311.161,313.14z"/>
	</g>
</g>
<g>
	<g>
		<path d="M502.001,492.002h-13.5v-329.3c0-5.522-4.478-10-10-10c-0.267,0-0.531-0.017-0.792-0.04
			c3.231-1.658,5.446-5.015,5.446-8.895c0-4.066-2.426-7.564-5.909-9.128c-2.529-4.513-5.624-17.959-5.624-22.406V99.768h5.315
			c5.522,0,10-4.478,10-10c0-5.522-4.478-10-10-10h-22.282v-7.237c8.714-3.854,14.813-12.576,14.813-22.701
			s-6.099-18.847-14.813-22.701V10c0-5.523-4.478-10-10-10c-5.523,0-10,4.477-10,10v17.13c-8.713,3.854-14.812,12.576-14.812,22.7
			c0,10.124,6.098,18.846,14.812,22.7v7.237h-22.281c-5.522,0-10,4.478-10,10c0,5.522,4.478,10,10,10h5.316v12.465
			c0,4.447-3.095,17.893-5.624,22.406c-3.483,1.564-5.91,5.063-5.91,9.128c0,3.881,2.215,7.238,5.446,8.895
			c-0.261,0.023-0.524,0.04-0.791,0.04c-5.522,0-10,4.478-10,10V313.14h-60.568c-5.522,0-10,4.478-10,10c0,5.523,4.478,10,10,10
			h60.568v34.999H52.207l23.378-34.999h185.693c5.522,0,10-4.477,10-10c0-5.522-4.478-10-10-10H109.5v-46.123h1.927
			c5.523,0,10-4.478,10-10c0-4.066-2.426-7.564-5.909-9.128c-2.529-4.513-5.624-17.959-5.624-22.406v-12.465h5.314
			c5.522,0,10-4.478,10-10c0-5.522-4.478-10-10-10H92.927v-7.237c8.714-3.854,14.813-12.576,14.813-22.701
			c0-10.124-6.099-18.847-14.813-22.701V123.25c0-5.522-4.477-10-10-10c-5.522,0-10,4.478-10,10v17.13
			c-8.713,3.854-14.811,12.576-14.811,22.7c0,10.125,6.098,18.846,14.811,22.7v7.237H50.646c-5.522,0-10,4.478-10,10
			c0,5.522,4.478,10,10,10h5.315v12.465c0,4.447-3.095,17.893-5.623,22.406c-3.484,1.564-5.91,5.063-5.91,9.128
			c0,5.281,4.097,9.595,9.284,9.964v62.897l-28.495,42.66c-0.005,0.008-0.011,0.016-0.016,0.024l-0.015,0.023
			c-0.009,0.013-0.014,0.027-0.023,0.039c-0.218,0.329-0.411,0.674-0.59,1.029c-0.044,0.087-0.085,0.175-0.126,0.263
			c-0.152,0.325-0.288,0.658-0.405,1.001c-0.017,0.049-0.038,0.097-0.054,0.147c-0.125,0.388-0.226,0.787-0.304,1.194
			c-0.016,0.085-0.025,0.17-0.039,0.254c-0.051,0.309-0.088,0.622-0.109,0.94c-0.009,0.13-0.016,0.259-0.02,0.388
			c-0.003,0.1-0.015,0.198-0.015,0.299v113.863h-13.5c-5.522,0-10,4.478-10,10c0,5.523,4.478,10,10,10h492.001v0.001
			c5.522,0,10-4.477,10-10C512.001,496.48,507.524,492.002,502.001,492.002z M89.5,313.14H73.712v-46.123H89.5V313.14z
			 M82.927,158.267c2.653,0,4.813,2.159,4.813,4.813c0,2.653-2.159,4.813-4.813,4.813c-2.653,0-4.811-2.16-4.811-4.813
			C78.116,160.427,80.274,158.267,82.927,158.267z M72.165,246.457c2.164-7.34,3.796-16.357,3.796-20.974v-12.465h12.316
			c-2.057,0-5.345,0-5.35,0.001c-0.006,0,6.129-0.001,6.89-0.001c0.051,0,0.078,0,0.077,0v12.465c0,4.616,1.632,13.633,3.796,20.974
			c0.053,0.178,0.107,0.365,0.166,0.561H72C72.058,246.823,72.112,246.635,72.165,246.457z M88.995,492.002H73.712v-15.597
			c0-4.213,3.428-7.641,7.642-7.641c4.213,0,7.641,3.428,7.641,7.641V492.002z M159.561,492.002h-15.284v-15.597
			c0-4.213,3.428-7.641,7.642-7.641c4.214,0,7.642,3.428,7.642,7.641V492.002z M229.799,492.002h-15.283v-15.597
			c0-4.213,3.428-7.641,7.641-7.641h0.001c4.213,0,7.641,3.428,7.641,7.641V492.002z M300.363,492.002h-15.283v-15.597
			c0-4.213,3.428-7.641,7.641-7.641h0.001c4.213,0,7.641,3.428,7.641,7.641V492.002z M370.603,492.002h-15.284v-15.597
			c0-4.213,3.428-7.641,7.642-7.641s7.642,3.428,7.642,7.641V492.002z M400.812,492.002h-10.211v-15.597
			c0-15.241-12.4-27.641-27.642-27.641c-15.241,0-27.642,12.399-27.642,27.641v15.597h-14.956v-15.597
			c0-15.241-12.4-27.641-27.642-27.641c-15.241,0-27.641,12.399-27.641,27.641v15.597h-15.282v-15.597
			c0-15.241-12.4-27.641-27.642-27.641c-15.241,0-27.641,12.399-27.641,27.641v15.597h-14.956v-15.597
			c0-15.241-12.4-27.641-27.642-27.641s-27.642,12.399-27.642,27.641v15.597h-15.282v-15.597c0-15.241-12.399-27.641-27.641-27.641
			s-27.642,12.399-27.642,27.641v15.597H43.501V388.139h357.311V492.002z M444.657,45.017c2.654,0.001,4.813,2.16,4.813,4.813
			c0,2.653-2.159,4.813-4.813,4.813c-2.653,0-4.813-2.159-4.813-4.813C439.844,47.177,442.003,45.017,444.657,45.017z
			 M433.896,133.207c2.164-7.34,3.796-16.357,3.796-20.974V99.768h13.924c-0.006,0,0.014,0,0.007,0v12.465
			c0,4.616,1.632,13.633,3.796,20.974c0.053,0.178,0.107,0.365,0.166,0.561H433.73C433.788,133.573,433.843,133.385,433.896,133.207
			z M420.812,170.921L420.812,170.921c7.925-2.928,14.228-9.23,17.155-17.154h13.38c2.928,7.924,9.23,14.227,17.155,17.154v0.718
			h-47.69V170.921z M468.503,492.002h-47.69v-9.737h47.69V492.002z M468.503,462.265h-47.69V191.639h47.69V462.265z"/>
	</g>
</g>
<g>
</g>
<g>
</g>
<g>
</g>
<g>
</g>
<g>
</g>
<g>
</g>
<g>
</g>
<g>
</g>
<g>
</g>
<g>
</g>
<g>
</g>
<g>
</g>
<g>
</g>
<g>
</g>
<g>
</g>
</svg>
