<svg viewBox="0 -44 512 512" xmlns="http://www.w3.org/2000/svg"><path d="m507.453125 24.617188c-2.832031-1.84375-6.410156-2.128907-9.503906-.761719l-77.09375 34.144531c-25.707031 0-52.25-.046875-77.355469-3.871094-22.257812-3.394531-40.6875-9.382812-56.34375-18.304687-56.71875-32.332031-120.40625-35.824219-145.15625-35.824219-38.464844 0-73.867188 11.679688-99.683594 32.882812-27.289062 22.414063-42.316406 54.417969-42.316406 90.117188s15.027344 67.703125 42.316406 90.117188c15.429688 12.671874 34.285156 21.941406 55.167969 27.347656l17.925781 127.402344c4.503906 32 32.269532 56.132812 64.582032 56.132812h45.007812c2.894531 0 5.648438-1.253906 7.546875-3.441406 1.898437-2.183594 2.757813-5.085938 2.355469-7.953125l-14.695313-104.445313 41.378907-27.863281c3.378906-2.277344 5.035156-6.371094 4.199218-10.355469l-9.480468-45.035156c10.332031-4.085938 20.703124-8.941406 30.851562-14.726562 15.652344-8.925782 34.082031-14.914063 56.34375-18.308594.699219-.105469 52.382812-3.867188 77.351562-3.871094l77.097657 34.144531c1.296875.574219 2.675781.855469 4.050781.855469 1.90625 0 3.808594-.546875 5.453125-1.617188 2.835937-1.847656 4.546875-5 4.546875-8.382812v-180c0-3.382812-1.710938-6.535156-4.546875-8.382812zm-375.027344 320.644531-14.179687-100.792969c7.742187 1.011719 15.679687 1.53125 23.753906 1.53125 1.046875 0 2.164062-.007812 3.34375-.019531l10.960938 81.515625zm47.566407 58.738281c-21.488282 0-40.074219-15.390625-44.3125-36.226562l37.289062-27.75c2.917969-2.171876 4.425781-5.753907 3.941406-9.355469l-11.507812-85.582031c7.566406-.570313 16.105468-1.46875 25.328125-2.863282l2.65625 18.886719 6.140625 43.644531s13.964844 99.246094 13.964844 99.246094zm37.113281-117.863281-6.679688-47.5c8.65625-1.851563 17.671875-4.160157 26.851563-7.027344l7.550781 35.859375zm60.148437-93.335938c-52.5625 29.964844-112.097656 33.199219-135.253906 33.199219-70.691406 0-122-43.316406-122-103s51.308594-103 122-103c23.15625 0 82.691406 3.234375 135.253906 33.199219 14.695313 8.378906 31.339844 14.453125 50.59375 18.4375-13.105468 34.140625-13.105468 68.585937 0 102.726562-19.253906 3.984375-35.898437 10.058594-50.59375 18.4375zm134.746094-24.792969c-21.140625.046876-42.722656.398438-63.9375 3.046876-.015625-.039063-.03125-.078126-.046875-.113282-9.8125-23.457031-12.753906-49.367187-7.019531-74.222656 1.707031-7.40625 4.089844-14.648438 7.019531-21.660156.015625-.035156.03125-.074219.046875-.109375 21.21875 2.644531 42.792969 2.996093 63.9375 3.042969zm80 29.628907-60-26.574219v-96.125l60-26.574219zm0 0"/><path d="m137 53c-5.523438 0-10 4.476562-10 10v120c0 5.523438 4.476562 10 10 10s10-4.476562 10-10v-120c0-5.523438-4.476562-10-10-10zm0 0"/><path d="m97 73h-30c-5.523438 0-10 4.476562-10 10s4.476562 10 10 10h30c5.523438 0 10-4.476562 10-10s-4.476562-10-10-10zm0 0"/><path d="m97 113h-30c-5.523438 0-10 4.476562-10 10s4.476562 10 10 10h30c5.523438 0 10-4.476562 10-10s-4.476562-10-10-10zm0 0"/><path d="m97 153h-30c-5.523438 0-10 4.476562-10 10s4.476562 10 10 10h30c5.523438 0 10-4.476562 10-10s-4.476562-10-10-10zm0 0"/><path d="m208.070312 135.929688c-3.90625-3.90625-10.234374-3.90625-14.140624 0s-3.90625 10.234374 0 14.140624l28 28c1.953124 1.953126 4.511718 2.929688 7.070312 2.929688s5.117188-.976562 7.070312-2.929688c3.90625-3.902343 3.90625-10.234374 0-14.140624zm0 0"/><path d="m219.289062 106.511719h.242188c5.519531-.132813 9.890625-4.710938 9.757812-10.230469-.128906-5.519531-4.710937-9.890625-10.230468-9.761719-5.519532.128907-9.886719 4.710938-9.757813 10.230469.121094 5.441406 4.578125 9.761719 9.988281 9.761719zm0 0"/><path d="m262.269531 100.898438c-4.527343-3.167969-10.769531-2.058594-13.929687 2.460937-3.160156 4.53125-2.058594 10.761719 2.46875 13.929687 1.742187 1.222657 3.742187 1.800782 5.722656 1.800782 3.160156 0 6.257812-1.488282 8.207031-4.269532 3.160157-4.53125 2.050781-10.761718-2.46875-13.921874zm0 0"/><path d="m190.550781 104.570312c-3.28125-4.449218-9.539062-5.398437-13.980469-2.121093-4.449218 3.28125-5.398437 9.539062-2.121093 13.980469 1.960937 2.660156 4.992187 4.070312 8.0625 4.070312 2.058593 0 4.136719-.628906 5.917969-1.949219 4.449218-3.28125 5.398437-9.539062 2.121093-13.980469zm0 0"/></svg>