<svg viewBox="0 0 511 511.9989" xmlns="http://www.w3.org/2000/svg"><path d="m38.359375 94.957031h57.859375c26.175781 0 47.472656-21.296875 47.472656-47.472656 0-26.179687-21.296875-47.4765625-47.472656-47.4765625-16.90625 0-32.660156 9.0976565-41.113281 23.7382815-2.761719 4.78125-1.125 10.898437 3.660156 13.660156s10.898437 1.121094 13.660156-3.660156c4.890625-8.472656 14.007813-13.738282 23.792969-13.738282 15.148438 0 27.472656 12.328126 27.472656 27.476563s-12.324218 27.476563-27.472656 27.476563h-57.859375c-5.523437 0-10 4.476562-10 10 0 5.519531 4.476563 9.996093 10 9.996093zm0 0"/><path d="m10.5 160.941406h162.171875c20.144531 0 36.535156-16.386718 36.535156-36.53125 0-20.144531-16.390625-36.53125-36.535156-36.53125-13.007813 0-25.128906 6.996094-31.632813 18.265625-2.761718 4.78125-1.125 10.898438 3.660157 13.660157 4.78125 2.761718 10.898437 1.121093 13.65625-3.660157 2.945312-5.101562 8.429687-8.265625 14.316406-8.265625 9.117187 0 16.535156 7.414063 16.535156 16.53125 0 9.113282-7.417969 16.53125-16.535156 16.53125h-162.171875c-5.523438 0-10 4.476563-10 10 0 5.523438 4.476562 10 10 10zm0 0"/><path d="m502.488281 460h-71.488281l15.347656-78.445312c.550782.035156 1.101563.058593 1.648438.058593 12.175781 0 23.082031-8.621093 25.507812-21.011719 1.328125-6.796874-.078125-13.71875-3.960937-19.492187-3.246094-4.824219-7.890625-8.34375-13.296875-10.148437l16.152344-82.566407c0-.007812 0-.011719.003906-.019531.0625-.316406.105468-.636719.136718-.957031.015626-.152344.015626-.304688.023438-.457031.011719-.171876.023438-.347657.023438-.519532 0-.175781-.015626-.347656-.023438-.519531-.007812-.152344-.011719-.304687-.027344-.460937-.019531-.167969-.046875-.332032-.074218-.5-.023438-.15625-.042969-.3125-.074219-.46875s-.074219-.308594-.113281-.464844c-.042969-.160156-.078126-.324219-.128907-.484375-.042969-.148438-.101562-.292969-.152343-.4375-.058594-.164063-.113282-.324219-.179688-.484375s-.144531-.3125-.21875-.46875c-.066406-.136719-.128906-.277344-.199219-.414063-.148437-.273437-.308593-.535156-.476562-.792969-.011719-.015624-.023438-.035156-.035157-.054687l-84.839843-126.113281c-3.082031-4.582032-9.296875-5.796875-13.878907-2.714844l-126.097656 84.828125c-.28125.191406-.554687.394531-.816406.609375-.085938.074219-.164062.152344-.25.230469-.15625.140625-.320312.277343-.46875.429687-.105469.109375-.203125.222656-.304688.335938-.117187.128906-.238281.253906-.347656.390625-.101562.121093-.1875.25-.28125.375-.101562.136719-.207031.269531-.300781.414062-.082031.125-.15625.253907-.234375.386719-.089844.148438-.183594.296875-.265625.457031-.070313.132813-.128906.269531-.195313.402344-.074218.160156-.152343.316406-.21875.480469-.066406.160156-.121093.328125-.175781.492187-.050781.144531-.105469.28125-.152343.429688-.089844.308593-.171876.625-.234376.941406 0 .007813 0 .011719-.003906.015625l-16.152344 82.570312c-5.6875-.367187-11.316406 1.140626-16.140624 4.386719-5.769532 3.882813-9.683594 9.765625-11.015626 16.5625-2.53125 12.945313 5.066407 25.5625 17.261719 29.640625l-24.175781 123.558594h-181.09375c-5.523438 0-10 4.476562-10 10v32c0 5.523438 4.476562 10 10 10h491.988281c5.523438 0 10-4.476562 10-10v-32c0-5.523438-4.476562-10-10-10zm-128.425781-216.667969-13.4375 68.695313-39.253906-7.679688 13.4375-68.695312c1.058594-5.414063 6.320312-8.953125 11.734375-7.894532l19.628906 3.839844c2.597656.507813 4.855469 2.015625 6.355469 4.246094 1.5 2.226562 2.046875 4.886719 1.535156 7.488281zm.964844-109.09375 76.949218 114.382813-15.316406 78.28125-56.410156-11.035156 13.441406-68.695313c1.535156-7.84375-.089844-15.828125-4.570312-22.492187-4.480469-6.660157-11.269532-11.175782-19.109375-12.707032l-19.628907-3.839844c-16.234374-3.179687-32.023437 7.445313-35.199218 23.679688l-13.441406 68.695312-56.410157-11.035156 15.316407-78.28125zm-156.894532 176.40625c.304688-1.558593 1.210938-2.910156 2.550782-3.8125 1.015625-.679687 2.175781-1.035156 3.351562-1.035156.378906 0 .761719.035156 1.136719.109375l223.964844 43.816406c1.558593.304688 2.910156 1.210938 3.8125 2.550782.902343 1.339843 1.230469 2.9375.925781 4.492187-.625 3.191406-3.847656 5.363281-7.042969 4.734375l-223.960937-43.816406c-1.558594-.304688-2.910156-1.210938-3.8125-2.550782-.902344-1.339843-1.230469-2.933593-.925782-4.488281zm17.214844 29.859375 191.328125 37.433594-16.054687 82.066406h-58.566406l7.863281-40.195312c3.175781-16.234375-7.449219-32.023438-23.683594-35.199219l-19.625-3.84375c-16.230469-3.171875-32.027344 7.449219-35.203125 23.683594l-10.867188 55.554687h-58.570312zm55.570313 119.496094 10.117187-51.710938c1.058594-5.414062 6.316406-8.953124 11.730469-7.894531l19.628906 3.839844c2.601563.507813 4.859375 2.015625 6.355469 4.246094 1.5 2.230469 2.046875 4.886719 1.539062 7.488281l-8.617187 44.035156h-40.753906zm201.570312 32h-471.988281v-12h471.988281zm0 0"/><path d="m93.804688 249.308594c-9.378907 0-18.117188-5.046875-22.808594-13.167969-2.761719-4.785156-8.882813-6.425781-13.660156-3.660156-4.785157 2.761719-6.421876 8.875-3.660157 13.65625 8.25 14.292969 23.628907 23.171875 40.128907 23.171875 25.550781 0 46.339843-20.789063 46.339843-46.339844s-20.789062-46.339844-46.339843-46.339844h-54.308594c-5.519532 0-10 4.476563-10 10 0 5.523438 4.480468 10 10 10h54.308594c14.523437 0 26.339843 11.816406 26.339843 26.339844s-11.816406 26.339844-26.339843 26.339844zm0 0"/><path d="m10.5 196.628906h.269531c5.523438 0 10-4.476562 10-10 0-5.523437-4.476562-10-10-10h-.269531c-5.523438 0-10 4.476563-10 10 0 5.523438 4.476562 10 10 10zm0 0"/><path d="m75.621094 437.828125c1.574218.910156 3.292968 1.339844 4.992187 1.339844 3.453125 0 6.816407-1.792969 8.667969-5l7.402344-12.820313c4.507812 1.417969 9.132812 2.125 13.730468 2.125 15.925782 0 31.441407-8.257812 39.964844-23.015625 9.050782-15.675781 21.519532-63.472656 24.710938-94.707031 1.035156-10.128906-2.660156-18.636719-9.886719-22.757812-7.644531-4.355469-17.277344-2.976563-26.433594 3.785156-25.152343 18.585937-59.554687 52.710937-68.164062 67.621094-6.273438 10.867187-7.941407 23.367187-4.695313 35.199218 2.320313 8.46875 6.980469 15.953125 13.429688 21.789063l-7.378906 12.78125c-2.761719 4.78125-1.121094 10.898437 3.660156 13.660156zm9.578125-53.515625c-1.820313-6.640625-.851563-13.710938 2.730469-19.914062 6.535156-11.320313 38.746093-43.816407 62.726562-61.535157 2.0625-1.523437 3.59375-2.101562 4.425781-2.277343.140625.554687.273438 1.554687.113281 3.132812-3.039062 29.726562-15.242187 74.796875-22.136718 86.734375-5.414063 9.378906-15.8125 14.113281-25.933594 12.808594l11.15625-19.324219c2.761719-4.785156 1.125-10.898438-3.660156-13.660156-4.78125-2.761719-10.898438-1.125-13.660156 3.660156l-11.203126 19.40625c-2.097656-2.667969-3.652343-5.71875-4.558593-9.03125zm0 0"/><path d="m482.574219 124.167969c-5.226563 1.792969-8.007813 7.480469-6.21875 12.703125l.089843.253906c1.421876 4.152344 5.304688 6.761719 9.457032 6.761719 1.074218 0 2.171875-.175781 3.246094-.542969 5.222656-1.792969 8.003906-7.480469 6.214843-12.703125l-.085937-.257813c-1.792969-5.222656-7.480469-8.007812-12.703125-6.214843zm0 0"/><path d="m261.664062 103.84375c6.25 3.058594 13.300782 3.503906 19.851563 1.257812l134.316406-46.066406 46.066407 134.316406c2.246093 6.550782 6.925781 11.84375 13.175781 14.902344 3.625 1.773438 7.519531 2.667969 11.429687 2.667969 2.832032 0 5.671875-.46875 8.421875-1.414063 13.5625-4.648437 20.8125-19.46875 16.160157-33.027343l-2.757813-8.039063c-1.792969-5.222656-7.476563-8.007812-12.703125-6.214844-5.222656 1.792969-8.007812 7.480469-6.214844 12.703126l2.757813 8.039062c1.054687 3.074219-.652344 6.566406-3.730469 7.621094-1.5.515625-3.125.40625-4.574219-.300782-1.449219-.710937-2.53125-1.925781-3.046875-3.425781l-49.308594-143.777343c-1.792968-5.222657-7.480468-8.007813-12.703124-6.214844l-143.777344 49.3125c-1.5.511718-3.125.40625-4.574219-.304688-1.453125-.707031-2.53125-1.925781-3.046875-3.425781s-.40625-3.125.300781-4.574219c.710938-1.453125 1.925781-2.535156 3.425781-3.046875l158.910157-54.5c1.5-.515625 3.125-.40625 4.574219.300781 1.453124.710938 2.535156 1.925782 3.050781 3.425782l29.367187 85.636718c1.792969 5.222657 7.476563 8.007813 12.703125 6.214844 5.226563-1.792968 8.007813-7.480468 6.214844-12.703125l-29.371094-85.636719c-2.246093-6.550781-6.925781-11.84375-13.175781-14.902343-6.25-3.058594-13.300781-3.503907-19.851562-1.253907l-158.90625 54.5c-6.554688 2.246094-11.847657 6.925782-14.90625 13.175782-3.054688 6.25-3.5 13.300781-1.253907 19.851562 2.246094 6.554688 6.925781 11.84375 13.175781 14.902344zm0 0"/></svg>