<svg height="512pt" viewBox="0 0 512 512" width="512pt" xmlns="http://www.w3.org/2000/svg"><path d="m357.894531 304.507812c-7.867187-4.542968-17.027343-5.75-25.800781-3.398437-16.933594 4.539063-27.464844 21.171875-24.789062 38.121094l-139.464844-80.523438c-7.867188-4.542969-17.03125-5.746093-25.800782-3.394531-8.773437 2.351562-16.105468 7.976562-20.644531 15.839844-4.542969 7.867187-5.75 17.027344-3.398437 25.800781 2.351562 8.773437 7.976562 16.105469 15.84375 20.644531l139.464844 80.523438c-16.015626 6.15625-25.152344 23.589844-20.617188 40.527344 4.066406 15.171874 17.839844 25.203124 32.851562 25.203124 2.902344 0 5.855469-.375 8.789063-1.164062l75.632813-20.261719c18.109374-4.855469 28.894531-23.535156 24.042968-41.644531l-20.265625-75.628906c-2.351562-8.773438-7.976562-16.105469-15.84375-20.644532zm6.886719 118.597657-75.628906 20.261719c-3.613282.972656-7.382813.472656-10.625-1.394532-3.238282-1.871094-5.554688-4.890625-6.519532-8.5-1.996093-7.457031 2.441407-15.152344 9.898438-17.148437l19.664062-5.269531c3.90625-1.046876 6.796876-4.34375 7.324219-8.355469.527344-4.007813-1.410156-7.941407-4.914062-9.964844l-160.144531-92.457031c-3.238282-1.871094-5.554688-4.890625-6.523438-8.5-.964844-3.613282-.46875-7.386719 1.402344-10.625 1.867187-3.238282 4.886718-5.554688 8.5-6.523438 1.207031-.324218 2.429687-.484375 3.644531-.484375 2.425781 0 4.820313.636719 6.980469 1.882813l160.140625 92.457031c3.503906 2.023437 7.878906 1.738281 11.089843-.726563 3.207032-2.460937 4.617188-6.613281 3.570313-10.519531l-5.269531-19.664062c-1.996094-7.457031 2.445312-15.148438 9.898437-17.144531 3.617188-.96875 7.386719-.472657 10.625 1.398437 3.238281 1.867187 5.554688 4.886719 6.523438 8.5l20.265625 75.628906c1.996094 7.457031-2.445313 15.148438-9.902344 17.148438zm0 0"/><path d="m163.5 451.5c-2.628906 0-5.210938 1.070312-7.070312 2.929688-1.859376 1.859374-2.929688 4.441406-2.929688 7.070312s1.070312 5.210938 2.929688 7.070312c1.859374 1.859376 4.441406 2.929688 7.070312 2.929688s5.210938-1.070312 7.070312-2.929688c1.859376-1.859374 2.929688-4.441406 2.929688-7.070312s-1.070312-5.210938-2.929688-7.070312c-1.859374-1.859376-4.441406-2.929688-7.070312-2.929688zm0 0"/><path d="m128 20c2.628906 0 5.210938-1.070312 7.070312-2.929688 1.859376-1.859374 2.929688-4.441406 2.929688-7.070312s-1.070312-5.210938-2.929688-7.070312c-1.859374-1.859376-4.441406-2.929688-7.070312-2.929688s-5.210938 1.070312-7.070312 2.929688c-1.859376 1.859374-2.929688 4.441406-2.929688 7.070312s1.070312 5.210938 2.929688 7.070312c1.859374 1.859376 4.441406 2.929688 7.070312 2.929688zm0 0"/><path d="m502 84c5.523438 0 10-4.476562 10-10v-64c0-5.523438-4.476562-10-10-10h-334.332031c-5.523438 0-10 4.476562-10 10s4.476562 10 10 10h324.332031v44h-472v-44h67.667969c5.519531 0 10-4.476562 10-10s-4.480469-10-10-10h-77.667969c-5.523438 0-10 4.476562-10 10v64c0 5.523438 4.476562 10 10 10h108v122h-76c-23.160156 0-42 18.839844-42 42v222c0 23.160156 18.839844 42 42 42h428c23.160156 0 42-18.839844 42-42v-222c0-23.160156-18.839844-42-42-42h-76v-122zm-10 164v222c0 12.132812-9.867188 22-22 22h-428c-11.625 0-21.167969-9.066406-21.941406-20.5h92.441406c5.523438 0 10-4.476562 10-10s-4.476562-10-10-10h-92.5v-203.5c0-12.132812 9.867188-22 22-22h428c12.132812 0 22 9.867188 22 22zm-118-42h-236v-122h236zm0 0"/></svg>