<svg height="512pt" viewBox="0 0 512 512.001" width="512pt" xmlns="http://www.w3.org/2000/svg"><path d="m502 372h-10v-110c0-27.570312-22.429688-50-50-50-21.574219 0-40.601562 13.980469-47.375 34h-277.253906c-5.722656-16.988281-20.097656-29.464844-37.371094-32.984375v-43.601563c3.4375 13.078126 15.359375 22.753907 29.5 22.753907 16.820312 0 30.5-13.683594 30.5-30.5 0-16.816407-13.679688-30.5-30.5-30.5-14.140625 0-26.0625 9.675781-29.5 22.753906v-65.777344l18.15625 18.15625c1.953125 1.953125 4.511719 2.929688 7.070312 2.929688 2.5625 0 5.121094-.976563 7.074219-2.929688 3.902344-3.90625 3.902344-10.238281 0-14.144531l-28.15625-28.15625 28.15625-28.15625c3.90625-3.90625 3.90625-10.238281 0-14.144531-3.90625-3.902344-10.238281-3.902344-14.144531 0l-18.15625 18.15625v-29.855469c0-5.523438-4.476562-10-10-10s-10 4.476562-10 10v29.855469l-18.15625-18.15625c-3.90625-3.902344-10.238281-3.902344-14.144531 0-3.902344 3.90625-3.902344 10.238281 0 14.144531l28.160156 28.15625-28.160156 28.15625c-3.902344 3.90625-3.902344 10.238281 0 14.144531 1.953125 1.953125 4.511719 2.929688 7.074219 2.929688 2.558593 0 5.117187-.976563 7.070312-2.929688l18.15625-18.15625v65.777344c-3.4375-13.078125-15.359375-22.753906-29.5-22.753906-16.816406 0-30.5 13.683593-30.5 30.5 0 16.816406 13.683594 30.5 30.5 30.5 14.140625 0 26.0625-9.675781 29.5-22.753907v43.59375c-22.792969 4.644532-40 24.847657-40 48.992188v110h-10c-5.523438 0-10 4.476562-10 10v40c0 5.523438 4.476562 10 10 10h120c5.523438 0 10-4.476562 10-10v-40c0-5.523438-4.476562-10-10-10h-10v-58h272v58h-10c-5.523438 0-10 4.476562-10 10v40c0 5.523438 4.476562 10 10 10h120c5.523438 0 10-4.476562 10-10v-40c0-5.523438-4.476562-10-10-10zm-392.5-220.832031c5.789062 0 10.5 4.710937 10.5 10.5 0 5.789062-4.710938 10.5-10.5 10.5s-10.5-4.710938-10.5-10.5c0-5.789063 4.710938-10.5 10.5-10.5zm-79 21c-5.789062 0-10.5-4.710938-10.5-10.5 0-5.789063 4.710938-10.5 10.5-10.5s10.5 4.710937 10.5 10.5c0 5.789062-4.710938 10.5-10.5 10.5zm353.019531 121.832031 28-28h11.480469c7.71875 0 14 6.28125 14 14s-6.28125 14-14 14zm-86.625 0 28-28h58.339844l-28 28zm-86.625 0 28-28h58.339844l-28 28zm-86.625 0 28-28h58.339844l-28 28zm-.285156-28-28 28h-10.691406c-7.71875 0-14-6.28125-14-14s6.28125-14 14-14zm-3.359375 146h-100v-20h100zm-20-40h-60v-110c0-16.542969 13.457031-30 30-30 10.503906 0 19.984375 5.472656 25.367188 14h-10.699219c-18.75 0-34 15.253906-34 34s15.25 34 34 34h15.332031zm312-58h11c18.75 0 34-15.253906 34-34s-15.25-34-34-34h-6.371094c5.382813-8.484375 14.875-14 25.371094-14 16.542969 0 30 13.457031 30 30v110h-60zm80 98h-100v-20h100zm0 0"/><path d="m396 471.9375h3.640625c5.523437 0 10-4.476562 10-10s-4.476563-10-10-10h-23.640625l-28.171875-28.175781c4.644531-.859375 8.167969-4.925781 8.167969-9.824219 0-5.523438-4.476563-10-10-10h-17.996094l-27.007812-27.007812c-3.90625-3.90625-10.238282-3.90625-14.144532 0-3.902344 3.90625-3.902344 10.234374 0 14.140624l12.867188 12.867188h-91.765625l12.867187-12.867188c3.90625-3.902343 3.90625-10.234374 0-14.140624s-10.238281-3.90625-14.144531 0l-27.007813 27.007812h-13.6875c-5.523437 0-10 4.476562-10 10 0 3.707031 2.023438 6.9375 5.023438 8.664062l-29.335938 29.335938h-19.332031c-5.523437 0-10 4.476562-10 10 0 5.308594 4.136719 9.636719 9.363281 9.96875l-23.023437 23.023438c-3.90625 3.90625-3.90625 10.234374 0 14.140624 1.953125 1.953126 4.511719 2.929688 7.070313 2.929688 2.558593 0 5.121093-.976562 7.074218-2.929688l37.132813-37.132812h70.796875c5.523437 0 10-4.476562 10-10s-4.476563-10-10-10h-50.796875l28-28h131.765625l28 28h-53.792969c-5.523437 0-10 4.476562-10 10s4.476563 10 10 10h73.792969l37.136718 37.132812c1.953126 1.953126 4.511719 2.929688 7.070313 2.929688s5.117187-.976562 7.070313-2.929688c3.90625-3.902343 3.90625-10.234374 0-14.140624zm0 0"/><path d="m253.832031 451.9375c-2.632812 0-5.203125 1.0625-7.070312 2.933594-1.859375 1.859375-2.929688 4.4375-2.929688 7.066406 0 2.632812 1.070313 5.210938 2.929688 7.070312 1.859375 1.859376 4.4375 2.929688 7.070312 2.929688 2.636719 0 5.207031-1.066406 7.070313-2.929688 1.867187-1.859374 2.929687-4.4375 2.929687-7.070312 0-2.628906-1.0625-5.207031-2.929687-7.066406-1.863282-1.871094-4.433594-2.933594-7.070313-2.933594zm0 0"/></svg>