<svg height="512pt" viewBox="0 0 512 512" width="512pt" xmlns="http://www.w3.org/2000/svg"><path d="m369.960938 275.578125-75.632813-20.265625c-18.101563-4.851562-36.789063 5.929688-41.640625 24.042969-4.539062 16.933593 4.601562 34.371093 20.617188 40.527343l-139.46875 80.519532c-16.234376 9.375-21.816407 30.210937-12.445313 46.445312 6.292969 10.898438 17.742187 16.996094 29.503906 16.996094 5.761719 0 11.601563-1.464844 16.941407-4.550781l139.46875-80.519531c-2.675782 16.949218 7.851562 33.578124 24.789062 38.117187 8.773438 2.351563 17.933594 1.144531 25.800781-3.394531 7.863281-4.542969 13.492188-11.875 15.839844-20.644532l20.265625-75.632812c4.851562-18.109375-5.933594-36.789062-24.039062-41.640625zm4.722656 36.464844-20.265625 75.628906c-.96875 3.613281-3.285157 6.632813-6.523438 8.5-3.238281 1.871094-7.007812 2.367187-10.621093 1.398437-7.457032-1.996093-11.898438-9.6875-9.902344-17.144531l5.269531-19.664062c1.046875-3.90625-.363281-8.058594-3.570313-10.519531-3.207031-2.464844-7.585937-2.75-11.085937-.726563l-160.144531 92.457031c-6.683594 3.859375-15.265625 1.5625-19.125-5.125s-1.5625-15.265625 5.125-19.125l160.144531-92.457031c3.5-2.023437 5.441406-5.957031 4.914063-9.964844-.527344-4.011719-3.417969-7.308593-7.328126-8.355469l-19.660156-5.269531c-7.457031-1.996093-11.898437-9.691406-9.902344-17.144531 1.675782-6.25 7.347657-10.378906 13.527344-10.378906 1.195313 0 2.410156.15625 3.621094.480468l75.628906 20.261719c7.453125 2 11.894532 9.691407 9.898438 17.148438zm0 0"/><path d="m147.5 266c2.628906 0 5.210938-1.070312 7.070312-2.929688 1.859376-1.859374 2.929688-4.441406 2.929688-7.070312s-1.070312-5.210938-2.929688-7.070312c-1.859374-1.859376-4.441406-2.929688-7.070312-2.929688s-5.210938 1.070312-7.070312 2.929688c-1.859376 1.859374-2.929688 4.441406-2.929688 7.070312s1.070312 5.210938 2.929688 7.070312c1.859374 1.859376 4.441406 2.929688 7.070312 2.929688zm0 0"/><path d="m128 20c2.628906 0 5.210938-1.070312 7.070312-2.929688 1.859376-1.859374 2.929688-4.441406 2.929688-7.070312s-1.070312-5.210938-2.929688-7.070312c-1.859374-1.859376-4.441406-2.929688-7.070312-2.929688s-5.210938 1.070312-7.070312 2.929688c-1.859376 1.859374-2.929688 4.441406-2.929688 7.070312s1.070312 5.210938 2.929688 7.070312c1.859374 1.859376 4.441406 2.929688 7.070312 2.929688zm0 0"/><path d="m502 84c5.523438 0 10-4.476562 10-10v-64c0-5.523438-4.476562-10-10-10h-334.332031c-5.523438 0-10 4.476562-10 10s4.476562 10 10 10h324.332031v44h-472v-44h67.667969c5.523437 0 10-4.476562 10-10s-4.476563-10-10-10h-77.667969c-5.523438 0-10 4.476562-10 10v64c0 5.523438 4.476562 10 10 10h108v122h-76c-23.160156 0-42 18.839844-42 42v222c0 23.160156 18.839844 42 42 42h428c23.160156 0 42-18.839844 42-42v-222c0-23.160156-18.839844-42-42-42h-76v-122zm-10 164v222c0 12.132812-9.867188 22-22 22h-428c-12.132812 0-22-9.867188-22-22v-204h76c5.523438 0 10-4.476562 10-10s-4.476562-10-10-10h-75.90625c1.015625-11.195312 10.449219-20 21.90625-20h428c12.132812 0 22 9.867188 22 22zm-118-42h-236v-122h236zm0 0"/></svg>