<svg viewBox="-96 0 512 512.001" xmlns="http://www.w3.org/2000/svg"><path d="m289.164062 0h-258.148437c-17.101563 0-31.015625 13.914062-31.015625 31.015625v449.96875c0 17.105469 13.914062 31.015625 31.015625 31.015625h258.148437c17.101563 0 31.015626-13.910156 31.015626-31.015625v-449.96875c0-17.101563-13.914063-31.015625-31.015626-31.015625zm-269.164062 82h280.179688v328h-280.179688zm0-50.984375c0-6.074219 4.941406-11.015625 11.015625-11.015625h258.148437c6.074219 0 11.015626 4.941406 11.015626 11.015625v30.984375h-280.179688zm280.179688 449.96875c0 6.074219-4.941407 11.015625-11.015626 11.015625h-258.148437c-6.074219 0-11.015625-4.941406-11.015625-11.015625v-50.984375h280.179688zm0 0"/><path d="m180.152344 471h-26c-5.519532 0-10-4.476562-10-10 0-5.519531 4.480468-10 10-10h26c5.523437 0 10 4.480469 10 10 0 5.523438-4.476563 10-10 10zm0 0"/><path d="m257.101562 394.039062c-.652343 0-1.3125-.070312-1.949218-.199218-.640625-.128906-1.273438-.320313-1.871094-.570313-.609375-.25-1.191406-.558593-1.730469-.917969-.550781-.359374-1.058593-.78125-1.519531-1.242187s-.878906-.976563-1.238281-1.519531c-.363281-.539063-.671875-1.128906-.921875-1.730469-.25-.597656-.441406-1.226563-.570313-1.867187-.128906-.640626-.199219-1.300782-.199219-1.953126 0-.648437.070313-1.308593.199219-1.957031.128907-.640625.320313-1.261719.570313-1.871093.25-.601563.558594-1.179688.921875-1.71875.359375-.550782.777343-1.0625 1.238281-1.523438.460938-.457031.96875-.878906 1.519531-1.25.539063-.359375 1.121094-.667969 1.730469-.917969.601562-.25 1.230469-.441406 1.871094-.570312 1.289062-.261719 2.617187-.261719 3.90625 0 .632812.128906 1.261718.320312 1.871094.570312.601562.25 1.179687.558594 1.722656.917969.546875.371094 1.058594.792969 1.519531 1.25.460937.460938.878906.972656 1.25 1.523438.359375.539062.667969 1.117187.910156 1.71875.25.601562.449219 1.230468.570313 1.871093.128906.648438.199218 1.308594.199218 1.957031 0 .652344-.070312 1.3125-.199218 1.953126-.121094.640624-.320313 1.269531-.570313 1.867187-.25.601563-.550781 1.191406-.921875 1.730469-.359375.539062-.777344 1.058594-1.238281 1.519531s-.972656.882813-1.519531 1.242187c-.542969.359376-1.121094.667969-1.722656.917969-.609376.25-1.238282.441407-1.871094.570313-.648438.128906-1.308594.199218-1.957032.199218zm0 0"/><path d="m215.101562 394.035156h-152.023437c-5.523437 0-10-4.476562-10-10 0-5.519531 4.476563-10 10-10h152.023437c5.523438 0 10 4.480469 10 10 0 5.523438-4.476562 10-10 10zm0 0"/><path d="m273.457031 175.960938-107.445312-78.933594c-3.523438-2.585938-8.320313-2.585938-11.839844 0l-45.066406 33.105468v-5.519531c0-5.519531-4.480469-10-10-10h-30.347657c-5.523437 0-10 4.480469-10 10v42.503907l-12.035156 8.839843c-2.566406 1.886719-4.082031 4.878907-4.082031 8.0625v43.019531c0 3.773438 2.121094 7.222657 5.484375 8.925782 2.988281 1.511718 6.503906 1.417968 9.382812-.1875v101.695312c0 5.519532 4.476563 10 10 10h185.167969c2.652344 0 5.195313-1.054687 7.070313-2.929687s2.929687-4.417969 2.929687-7.070313v-101.695312c1.5.839844 3.179688 1.261718 4.863281 1.261718 1.542969 0 3.089844-.351562 4.515626-1.074218 3.363281-1.703125 5.484374-5.152344 5.484374-8.925782v-43.019531c0-3.183593-1.515624-6.175781-4.082031-8.058593zm-113.367187-58.464844 97.449218 71.585937v18.207031l-91.527343-67.238281c-.222657-.160156-.445313-.3125-.675781-.453125-3.210938-1.980468-7.28125-1.980468-10.492188 0-.226562.140625-.453125.292969-.675781.453125l-91.527344 67.238281v-18.207031zm-81.332032 17.121094h10.347657v10.207031l-10.347657 7.601562zm61.042969 192.855468v-71.539062h40.578125v71.539062zm60.578125 0v-81.539062c0-5.523438-4.476562-10-10-10h-60.578125c-5.523437 0-10 4.476562-10 10v81.539062h-42.292969v-106.285156l82.582032-60.667969 82.585937 60.667969v106.285156zm0 0"/></svg>