<svg height="512pt" viewBox="0 -36 512 512" width="512pt" xmlns="http://www.w3.org/2000/svg"><path d="m142 390c0 5.523438-4.476562 10-10 10s-10-4.476562-10-10 4.476562-10 10-10 10 4.476562 10 10zm0 0"/><path d="m10 440h492c5.523438 0 10-4.476562 10-10 0-30.691406 0-342.578125 0-360 0-4.0625-2.425781-7.550781-5.902344-9.113281 3.742188-6.085938 5.902344-13.238281 5.902344-20.886719 0-22.054688-17.945312-40-40-40s-40 17.945312-40 40c0 7.648438 2.160156 14.800781 5.902344 20.886719-3.476563 1.5625-5.902344 5.050781-5.902344 9.113281v310h-67.71875c1.109375-3.128906 1.71875-6.492188 1.71875-10 0-16.542969-13.457031-30-30-30h-10v-140h10c16.574219 0 30-13.425781 30-30 0-16.542969-13.457031-30-30-30h-10v-10c0-16.574219-13.425781-30-30-30-16.542969 0-30 13.457031-30 30v10h-22v-10c0-16.574219-13.425781-30-30-30-16.542969 0-30 13.457031-30 30v10h-22v-10c0-16.574219-13.425781-30-30-30-16.542969 0-30 13.457031-30 30v10h-22v-70c0-4.0625-2.425781-7.550781-5.902344-9.113281 3.742188-6.085938 5.902344-13.238281 5.902344-20.886719 0-22.054688-17.945312-40-40-40s-40 17.945312-40 40c0 7.648438 2.160156 14.800781 5.902344 20.886719-3.476563 1.5625-5.902344 5.050781-5.902344 9.113281v360c0 5.523438 4.476562 10 10 10zm50-360v300h-40v-300zm42 260h-22v-140h22zm370-320c11.027344 0 20 8.972656 20 20s-8.972656 20-20 20-20-8.972656-20-20 8.972656-20 20-20zm-20 60h40v300h-40zm-106 290c0 5.515625-4.484375 10-10 10h-164c-5.523438 0-10 4.476562-10 10s4.476562 10 10 10h320v20h-472v-20h70c5.523438 0 10-4.476562 10-10s-4.476562-10-10-10h-10v-20h256c5.515625 0 10 4.484375 10 10zm-162-30h-22v-140h22zm82 0h-22v-140h22zm70-180c5.515625 0 10 4.484375 10 10 0 5.519531-4.476562 10-10 10h-10v-20zm-50-30c0-5.515625 4.484375-10 10-10 5.519531 0 10 4.476562 10 10v210h-20zm-20 30v20h-22v-20zm-62-30c0-5.515625 4.484375-10 10-10 5.519531 0 10 4.476562 10 10v210h-20zm-20 30v20h-22v-20zm-62-30c0-5.515625 4.484375-10 10-10 5.519531 0 10 4.476562 10 10v210h-20zm-20 50h-22v-20h22zm-62-160c11.027344 0 20 8.972656 20 20s-8.972656 20-20 20-20-8.972656-20-20 8.972656-20 20-20zm0 0"/><path d="m345 280h41.859375l-2.929687 2.929688c-3.90625 3.90625-3.90625 10.234374 0 14.140624s10.234374 3.90625 14.140624 0l20-20c3.820313-3.816406 3.960938-10.179687 0-14.140624l-20-20c-3.902343-3.90625-10.234374-3.90625-14.140624 0s-3.90625 10.234374 0 14.140624l2.929687 2.929688h-41.859375c-5.523438 0-10 4.476562-10 10s4.476562 10 10 10zm0 0"/></svg>