<svg height="512pt" viewBox="0 0 511 512" width="512pt" xmlns="http://www.w3.org/2000/svg"><path d="m235.386719 401.800781c.945312.285157 1.90625.417969 2.855469.417969 3.308593 0 6.488281-1.648438 8.367187-4.523438l83.257813-127.199218c2.011718-3.074219 2.175781-7 .429687-10.230469-1.746094-3.234375-5.125-5.246094-8.796875-5.246094h-36.742188v-81.238281c0-4.421875-2.902343-8.316406-7.140624-9.582031-4.238282-1.265625-8.800782.402343-11.222657 4.101562l-83.257812 127.09375c-2.015625 3.074219-2.179688 7.003907-.433594 10.234375 1.746094 3.234375 5.125 5.246094 8.796875 5.246094h36.742188v81.34375c0 4.421875 2.90625 8.320312 7.144531 9.582031zm-25.382813-110.925781 54.75-83.578125v57.722656c0 5.523438 4.480469 10 10 10h28.246094l-54.757812 83.664063v-57.808594c0-5.523438-4.476563-10-10-10zm0 0"/><path d="m446.5 232.675781 14.375 11.125c3.980469 3.078125 9.632812 2.71875 13.191406-.839843l35.507813-35.523438c2.027343-2.03125 3.085937-4.839844 2.90625-7.703125-.183594-2.867187-1.589844-5.515625-3.859375-7.273437l-61.035156-47.234376v-91.226562c0-5.523438-4.476563-10-10-10h-56c-5.523438 0-10 4.476562-10 10v32.414062l-108.964844-84.324218c-3.605469-2.785156-8.636719-2.785156-12.242188 0l-246 190.367187c-2.269531 1.757813-3.675781 4.402344-3.859375 7.269531-.183593 2.863282.871094 5.667969 2.898438 7.699219l35.449219 35.566407c1.9375 1.949218 4.503906 2.941406 7.085937 2.941406 2.144531 0 4.304687-.6875 6.117187-2.089844l14.429688-11.167969v211.28125h-22c-5.523438 0-10 4.476563-10 10v48.042969c0 5.523438 4.476562 10 10 10h424c5.523438 0 10-4.476562 10-10v-48.042969c0-5.523437-4.476562-10-10-10h-22v-56.507812c0-5.523438-4.476562-10-10-10s-10 4.476562-10 10v56.507812h-340v-226.757812l170-131.554688 170 131.554688v90.25c0 5.523437 4.476562 10 10 10s10-4.476563 10-10zm12 231.28125v28.042969h-404v-28.042969zm-66.914062-399.957031h36v65.75l-36-27.859375zm-141.207032 1.089844-203.574218 157.539062-21.21875-21.292968 230.914062-178.691407 230.902344 178.683594-21.253906 21.265625-203.527344-157.503906c-3.605469-2.785156-8.636719-2.785156-12.242188 0zm0 0"/><path d="m436.5 337.449219c-2.628906 0-5.210938 1.070312-7.070312 2.929687-1.859376 1.859375-2.929688 4.441406-2.929688 7.070313 0 2.628906 1.070312 5.210937 2.929688 7.070312 1.859374 1.859375 4.441406 2.929688 7.070312 2.929688s5.210938-1.070313 7.070312-2.929688c1.859376-1.859375 2.929688-4.441406 2.929688-7.070312 0-2.628907-1.070312-5.210938-2.929688-7.070313-1.859374-1.859375-4.441406-2.929687-7.070312-2.929687zm0 0"/></svg>