<svg height="512pt" viewBox="0 0 512 512" width="512pt" xmlns="http://www.w3.org/2000/svg"><path d="m391.925781 349.578125h-.347656c-5.523437 0-10 4.476563-10 10s4.476563 10 10 10h.347656c5.523438 0 10-4.476563 10-10s-4.476562-10-10-10zm0 0"/><path d="m462 346.578125c14.335938 0 26-11.664063 26-26s-11.664062-26-26-26-26 11.664063-26 26 11.664062 26 26 26zm0-32c3.308594 0 6 2.695313 6 6 0 3.308594-2.691406 6-6 6s-6-2.6875-6-6c0-3.308594 2.691406-6 6-6zm0 0"/><path d="m462 284.578125c14.335938 0 26-11.664063 26-26s-11.664062-26-26-26-26 11.664063-26 26 11.664062 26 26 26zm0-32c3.308594 0 6 2.691406 6 6s-2.691406 6-6 6-6-2.691406-6-6 2.691406-6 6-6zm0 0"/><path d="m50 294.578125c-14.335938 0-26 11.664063-26 26s11.664062 26 26 26 26-11.664063 26-26-11.664062-26-26-26zm0 32c-3.308594 0-6-2.6875-6-6 0-3.308594 2.691406-6 6-6s6 2.695313 6 6c0 3.308594-2.691406 6-6 6zm0 0"/><path d="m50 284.578125c14.335938 0 26-11.664063 26-26s-11.664062-26-26-26-26 11.664063-26 26 11.664062 26 26 26zm0-32c3.308594 0 6 2.691406 6 6s-2.691406 6-6 6-6-2.691406-6-6 2.691406-6 6-6zm0 0"/><path d="m512 42v-32c0-5.523438-4.480469-10-10-10h-492c-5.523438 0-10 4.476562-10 10v32c0 5.523438 4.476562 10 10 10v157.578125c-5.523438 0-10 4.476563-10 10v282.421875c0 5.523438 4.476562 10 10 10h492c5.519531 0 10-4.476562 10-10v-282.421875c0-5.523437-4.480469-10-10-10v-157.578125c5.523438 0 10-4.476562 10-10zm-492-22h472v12h-167.992188c-.003906 0-.003906 0-.007812 0s-.007812 0-.011719 0h-135.976562c-.003907 0-.007813 0-.011719 0s-.003906 0-.007812 0h-167.992188zm422 116.472656v-70.558594l35.761719 35.28125zm40-11.367187v70.5625l-35.761719-35.28125zm9.992188 104.472656h.007812v120h-60v-120zm-69.992188-20c-5.523438 0-10 4.476563-10 10v140c0 5.523437 4.476562 10 10 10h70v30.289063c-2.90625 8.9375-11.269531 15.09375-20.75 15.09375-9.863281 0-18.539062-6.65625-21.089844-16.183594-1.175781-4.371094-5.136718-7.410156-9.660156-7.410156-4.527344 0-8.488281 3.039062-9.660156 7.410156-2.554688 9.527344-11.226563 16.183594-21.089844 16.183594-9.867188 0-18.539062-6.65625-21.089844-16.183594-1.171875-4.371094-5.132812-7.410156-9.660156-7.410156s-8.488281 3.039062-9.660156 7.410156c-2.554688 9.527344-11.226563 16.183594-21.089844 16.183594-9.867188 0-18.539062-6.65625-21.09375-16.183594-1.171875-4.371094-5.132812-7.410156-9.65625-7.410156-4.527344 0-8.488281 3.039062-9.660156 7.410156-2.554688 9.527344-11.226563 16.183594-21.089844 16.183594s-18.539062-6.65625-21.089844-16.183594c-1.171875-4.371094-5.132812-7.410156-9.660156-7.410156-4.523438 0-8.488281 3.039062-9.660156 7.410156-2.554688 9.527344-11.226563 16.183594-21.089844 16.183594s-18.539062-6.65625-21.09375-16.183594c-1.171875-4.371094-5.132812-7.410156-9.65625-7.410156-4.527344 0-8.488281 3.039062-9.660156 7.410156-2.554688 9.527344-11.226563 16.183594-21.089844 16.183594s-18.539062-6.65625-21.089844-16.183594c-1.171875-4.371094-5.132812-7.410156-9.660156-7.410156s-8.488281 3.039062-9.660156 7.410156c-2.554688 9.527344-11.226563 16.183594-21.089844 16.183594-9.867188 0-18.539062-6.65625-21.089844-16.183594-1.171875-4.371094-5.132812-7.410156-9.660156-7.410156-4.523438 0-8.488281 3.039062-9.660156 7.410156-2.554688 9.527344-11.226563 16.183594-21.089844 16.183594-9.480469 0-17.847656-6.15625-20.75-15.09375v-30.289063h322.707031c5.523438 0 10-4.476563 10-10s-4.476562-10-10-10h-8.707031v-237.578125c9.386719-3.925781 16-13.203125 16-24 0-10.792969-6.613281-20.070312-16-23.996094v-12.003906h42v12.003906c-9.386719 3.925782-16 13.203125-16 23.996094 0 14.335938 11.664062 26 26 26s26-11.664062 26-26c0-10.792969-6.613281-20.070312-16-23.996094v-12.003906h26zm-401.992188 20h59.992188v120h-60v-120zm14.230469-128.382813 35.761719-35.28125v70.558594zm31.519531 59.191407-35.757812 35.28125v-70.5625zm24.242188-108.386719h26v12.003906c-9.386719 3.925782-16 13.203125-16 23.996094 0 14.335938 11.664062 26 26 26s26-11.664062 26-26c0-10.792969-6.613281-20.070312-16-23.996094v-12.003906h42v12.003906c-9.386719 3.925782-16 13.203125-16 23.996094s6.613281 20.070312 16 23.996094v237.582031h-78v-130c0-5.523437-4.476562-10-10-10zm36 30c3.308594 0 6 2.691406 6 6s-2.691406 6-6 6-6-2.691406-6-6 2.691406-6 6-6zm188-30v12.003906c-9.386719 3.925782-16 13.203125-16 23.996094s6.613281 20.070312 16 23.996094v237.582031h-116v-237.578125c9.386719-3.925781 16-13.203125 16-24 0-10.792969-6.613281-20.070312-16-23.996094v-12.003906zm16 36c0 3.308594-2.691406 5.996094-5.996094 6-.003906 0-.003906 0-.003906 0-.003906 0-.003906 0-.007812 0-3.304688-.003906-5.992188-2.691406-5.992188-6 0-3.304688 2.683594-5.996094 5.988281-6h.011719.007812c3.304688.007812 5.992188 2.695312 5.992188 6zm-148 0c0-3.304688 2.6875-5.996094 5.992188-6h.007812.011719c3.300781.003906 5.988281 2.695312 5.988281 6 0 3.308594-2.6875 5.996094-5.996094 6 0 0 0 0-.003906 0h-.003906c-3.308594 0-5.996094-2.691406-5.996094-6zm204-6c3.308594 0 6 2.691406 6 6s-2.691406 6-6 6-6-2.691406-6-6 2.691406-6 6-6zm-330.375-30-25.625 25.28125v-25.28125zm14.375 132.300781v25.277344h-25.625zm-50 307.699219v-62.570312c6.171875 3.535156 13.28125 5.53125 20.75 5.53125 11.960938 0 23.011719-5.109376 30.75-13.488282 7.738281 8.378906 18.785156 13.488282 30.75 13.488282 11.960938 0 23.011719-5.109376 30.75-13.488282 7.738281 8.378906 18.785156 13.488282 30.75 13.488282 11.960938 0 23.011719-5.109376 30.75-13.488282 7.738281 8.378906 18.785156 13.488282 30.75 13.488282 11.960938 0 23.011719-5.109376 30.75-13.488282 7.738281 8.378906 18.785156 13.488282 30.75 13.488282 11.960938 0 23.011719-5.105469 30.75-13.488282 7.738281 8.378906 18.785156 13.488282 30.75 13.488282 11.960938 0 23.011719-5.109376 30.75-13.488282 7.738281 8.378906 18.785156 13.488282 30.75 13.488282 11.960938 0 23.011719-5.109376 30.75-13.488282 7.738281 8.378906 18.785156 13.488282 30.75 13.488282 7.46875 0 14.574219-1.996094 20.75-5.53125v62.570312zm422-282.421875v-25.277344l25.625 25.277344zm40-132.296875-25.625-25.28125h25.625zm0 0"/></svg>