<svg height="512pt" viewBox="0 -66 512 512" width="512pt" xmlns="http://www.w3.org/2000/svg"><path d="m69.785156 20c5.523438 0 10-4.476562 10-10s-4.476562-10-10-10h-.019531c-5.523437 0-9.992187 4.476562-9.992187 10s4.488281 10 10.011718 10zm0 0"/><path d="m502 284c5.523438 0 10-4.476562 10-10v-264c0-5.523438-4.476562-10-10-10h-392c-5.523438 0-10 4.476562-10 10s4.476562 10 10 10h382v244h-44.960938c-4.5-18.34375-21.074218-32-40.789062-32h-57.5c-12.808594 0-24.289062 5.769531-32 14.839844-7.710938-9.070313-19.191406-14.839844-32-14.839844h-57.5c-12.808594 0-24.289062 5.769531-32 14.839844-7.710938-9.070313-19.191406-14.839844-32-14.839844h-57.5c-19.714844 0-36.289062 13.652344-40.789062 32h-44.960938v-244h21.035156c5.519532 0 10-4.476562 10-10s-4.480468-10-10-10h-31.035156c-5.523438 0-10 4.476562-10 10v264c0 5.523438 4.476562 10 10 10h53.75v12h-15.75c-23.15625 0-42 18.839844-42 42v32c0 5.523438 4.480469 10 10 10h386c5.523438 0 10-4.476562 10-10s-4.476562-10-10-10h-11.5v-22c0-12.128906 9.871094-22 22-22h57.5c12.132812 0 22 9.867188 22 22v22h-21.035156c-5.519532 0-10 4.476562-10 10s4.480468 10 10 10h31.035156c5.523438 0 10-4.476562 10-10v-32c0-23.160156-18.839844-42-42-42h-21.75v-12zm-274.75-32h57.5c12.132812 0 22 9.871094 22 22v22h-15.75c-12.808594 0-24.289062 5.769531-32 14.839844-7.710938-9.070313-19.191406-14.839844-32-14.839844h-21.75v-22c0-12.128906 9.867188-22 22-22zm-143.5 22c0-12.128906 9.867188-22 22-22h57.5c12.128906 0 22 9.871094 22 22v22h-15.75c-12.808594 0-24.289062 5.769531-32 14.839844-7.710938-9.070313-19.191406-14.839844-32-14.839844h-21.75zm-57.75 86v-22c0-12.128906 9.871094-22 22-22h57.5c12.132812 0 22 9.867188 22 22v22zm121.5 0v-22c0-12.128906 9.871094-22 22-22h57.5c12.132812 0 22 9.867188 22 22v22zm121.5 0v-22c0-12.128906 9.871094-22 22-22h57.5c12.132812 0 22 9.867188 22 22v22zm143.5-64c-12.808594 0-24.289062 5.769531-32 14.839844-7.710938-9.070313-19.191406-14.839844-32-14.839844h-21.75v-22c0-12.128906 9.871094-22 22-22h57.5c12.132812 0 22 9.871094 22 22v22zm0 0"/><path d="m442.214844 360c-5.523438 0-10 4.476562-10 10s4.476562 10 10 10h.019531c5.523437 0 9.992187-4.476562 9.992187-10s-4.488281-10-10.011718-10zm0 0"/><path d="m210.078125 202.378906c3.125 1.808594 6.554687 2.710938 9.984375 2.710938 3.417969 0 6.832031-.898438 9.949219-2.691406l91.984375-53.105469c6.144531-3.550781 9.957031-10.183594 9.953125-17.308594-.007813-7.207031-3.742188-13.664063-9.988281-17.261719-15.21875-8.785156-30.4375-17.578125-45.65625-26.371094-15.132813-8.742187-30.265626-17.484374-45.402344-26.222656-6.078125-3.933594-13.792969-4.265625-20.238282-.847656-6.546874 3.476562-10.613281 10.238281-10.613281 17.652344l.042969 106.164062c-.007812 7.199219 3.726562 13.660156 9.984375 17.28125zm9.988281-123.441406c.1875.128906.382813.25.582032.363281 15.21875 8.789063 30.4375 17.578125 45.652343 26.371094 15.1875 8.773437 30.371094 17.542969 45.613281 26.347656l-91.820312 53.011719-.039062-106.089844c.003906 0 .007812-.003906.011718-.003906zm0 0"/></svg>