<svg height="512pt" viewBox="0 -27 512 511" width="512pt" xmlns="http://www.w3.org/2000/svg"><path d="m223.671875 60.5c2.628906 0 5.207031-1.070312 7.066406-2.929688 1.859375-1.859374 2.933594-4.441406 2.933594-7.070312 0-2.632812-1.070313-5.210938-2.933594-7.070312-1.859375-1.859376-4.4375-2.929688-7.066406-2.929688-2.632813 0-5.210937 1.070312-7.070313 2.929688-1.859374 1.859374-2.929687 4.4375-2.929687 7.070312 0 2.640625 1.066406 5.210938 2.929687 7.070312 1.859376 1.859376 4.4375 2.929688 7.070313 2.929688zm0 0"/><path d="m489.46875 188.5c12.425781 0 22.53125-10.105469 22.53125-22.53125v-102.9375c0-12.421875-10.105469-22.53125-22.53125-22.53125h-31.46875v-30c0-5.523438-4.476562-10-10-10h-40c-5.523438 0-10 4.476562-10 10v30h-134.332031c-5.523438 0-10 4.476562-10 10s4.476562 10 10 10h225.800781c1.394531 0 2.53125 1.136719 2.53125 2.53125v102.9375c0 1.394531-1.136719 2.53125-2.53125 2.53125h-466.9375c-1.394531 0-2.53125-1.136719-2.53125-2.53125v-102.9375c0-1.394531 1.136719-2.53125 2.53125-2.53125h160.136719c5.519531 0 10-4.476562 10-10s-4.480469-10-10-10h-68.667969v-30c0-5.523438-4.476562-10-10-10h-40c-5.523438 0-10 4.476562-10 10v30h-31.46875c-12.425781 0-22.53125 10.109375-22.53125 22.53125v102.9375c0 12.421875 10.105469 22.53125 22.53125 22.53125h31.46875v50h-31.46875c-12.425781 0-22.53125 10.109375-22.53125 22.53125v30.9375c0 11.566406 8.765625 21.121094 20 22.386719v134.023437c0 5.519532 4.476562 10 10 10h40c5.523438 0 10-4.480468 10-10v-133.878906h20v103.9375c0 5.523438 4.476562 10 10 10h40c5.523438 0 10-4.476562 10-10v-103.9375h192v103.9375c0 5.523438 4.476562 10 10 10h40c5.523438 0 10-4.476562 10-10v-103.9375h20v133.878906c0 5.523438 4.476562 10 10 10h40c5.523438 0 10-4.476562 10-10v-134.023437c11.234375-1.261719 20-10.820313 20-22.386719v-30.9375c0-12.421875-10.105469-22.53125-22.53125-22.53125h-31.46875v-50zm-71.46875-168h20v20h-20zm-344 0h20v20h-20zm40 218v-50h284v50zm-40-50h20v50h-20zm-14 249.878906h-20v-123.878906h20zm80-29.941406h-20v-93.9375h20zm252 0h-20v-93.9375h20zm60 29.941406v-123.878906h20v123.878906zm40-177.347656v30.9375c0 1.394531-1.136719 2.53125-2.53125 2.53125h-466.9375c-1.394531 0-2.53125-1.136719-2.53125-2.53125v-30.9375c0-1.394531 1.136719-2.53125 2.53125-2.53125h466.9375c1.394531 0 2.53125 1.136719 2.53125 2.53125zm-54-22.53125h-20v-50h20zm0 0"/><path d="m448 83.167969h-384c-5.523438 0-10 4.476562-10 10 0 5.523437 4.476562 10 10 10h384c5.523438 0 10-4.476563 10-10 0-5.523438-4.476562-10-10-10zm0 0"/><path d="m448 125.839844c-2.628906 0-5.210938 1.058594-7.070312 2.917968-1.859376 1.871094-2.929688 4.441407-2.929688 7.070313 0 2.640625 1.070312 5.222656 2.929688 7.082031 1.859374 1.859375 4.441406 2.929688 7.070312 2.929688s5.210938-1.070313 7.070312-2.929688c1.859376-1.871094 2.929688-4.441406 2.929688-7.082031 0-2.617187-1.070312-5.199219-2.929688-7.070313-1.859374-1.859374-4.441406-2.917968-7.070312-2.917968zm0 0"/><path d="m64 125.835938c-5.523438 0-10 4.476562-10 10 0 5.519531 4.476562 10 10 10h344c5.523438 0 10-4.480469 10-10 0-5.523438-4.476562-10-10-10zm0 0"/></svg>