<svg height="512pt" viewBox="-54 0 512 512" width="512pt" xmlns="http://www.w3.org/2000/svg"><path d="m393.980469 0h-383.980469c-5.523438 0-10 4.476562-10 10v317.042969c0 5.523437 4.476562 10 10 10s10-4.476563 10-10v-307.042969h28v418h-28v-30c0-5.523438-4.476562-10-10-10s-10 4.476562-10 10v94c0 5.523438 4.476562 10 10 10h48c5.523438 0 10-4.476562 10-10v-418h267.980469v418c0 5.523438 4.476562 10 10 10h48c5.523437 0 10-4.476562 10-10v-299.5c0-5.523438-4.476563-10-10-10-5.523438 0-10 4.476562-10 10v235.5h-28v-418h28v102.332031c0 5.523438 4.476562 10 10 10 5.523437 0 10-4.476562 10-10v-112.332031c0-5.523438-4.476563-10-10-10zm-373.980469 492v-34h28v34zm48-428v-44h267.980469v44zm315.980469 394v34h-28v-34zm0 0"/><path d="m250.484375 32h-97.011719c-5.523437 0-10 4.476562-10 10s4.476563 10 10 10h97.011719c5.523437 0 10-4.476562 10-10s-4.476563-10-10-10zm0 0"/><path d="m34 52c2.628906 0 5.210938-1.070312 7.070312-2.929688 1.859376-1.859374 2.929688-4.441406 2.929688-7.070312s-1.070312-5.210938-2.929688-7.070312c-1.859374-1.859376-4.441406-2.929688-7.070312-2.929688s-5.210938 1.070312-7.070312 2.929688c-1.859376 1.859374-2.929688 4.441406-2.929688 7.070312s1.070312 5.210938 2.929688 7.070312c1.859374 1.859376 4.4375 2.929688 7.070312 2.929688zm0 0"/><path d="m26.929688 89.410156c1.859374 1.859375 4.4375 2.917969 7.070312 2.917969 2.628906 0 5.210938-1.058594 7.070312-2.917969 1.859376-1.871094 2.929688-4.441406 2.929688-7.082031 0-2.628906-1.070312-5.207031-2.929688-7.066406-1.859374-1.863281-4.441406-2.933594-7.070312-2.933594-2.632812 0-5.210938 1.070313-7.070312 2.933594-1.859376 1.859375-2.929688 4.4375-2.929688 7.066406 0 2.640625 1.070312 5.210937 2.929688 7.082031zm0 0"/><path d="m377.027344 34.929688c-1.859375-1.859376-4.4375-2.929688-7.066406-2.929688-2.632813 0-5.210938 1.070312-7.070313 2.929688-1.863281 1.859374-2.929687 4.441406-2.929687 7.070312s1.066406 5.210938 2.929687 7.070312c1.859375 1.859376 4.4375 2.929688 7.070313 2.929688 2.628906 0 5.207031-1.070312 7.066406-2.929688 1.863281-1.859374 2.933594-4.441406 2.933594-7.070312s-1.070313-5.210938-2.933594-7.070312zm0 0"/><path d="m369.960938 72.328125c-2.632813 0-5.210938 1.070313-7.070313 2.933594-1.863281 1.859375-2.929687 4.4375-2.929687 7.066406 0 2.640625 1.066406 5.210937 2.929687 7.082031 1.859375 1.859375 4.4375 2.917969 7.070313 2.917969 2.628906 0 5.207031-1.058594 7.066406-2.917969 1.863281-1.871094 2.933594-4.441406 2.933594-7.082031 0-2.628906-1.070313-5.207031-2.933594-7.066406-1.859375-1.863281-4.4375-2.933594-7.066406-2.933594zm0 0"/><path d="m238.273438 176.832031c4.402343-6.777343 6.972656-14.847656 6.972656-23.515625v-6.046875c0-23.859375-19.410156-43.269531-43.265625-43.269531-23.859375 0-43.269531 19.410156-43.269531 43.269531v6.046875c0 8.667969 2.570312 16.738282 6.972656 23.515625-30.054688 2.660157-53.707032 27.960938-53.707032 58.695313v67.351562c0 18.839844 15.328126 34.164063 34.164063 34.164063h1.835937v142.957031c0 17.644531 14.355469 32 32 32 8.519532 0 16.261719-3.351562 22-8.796875 5.742188 5.445313 13.484376 8.796875 22 8.796875 17.644532 0 32-14.355469 32-32v-142.957031h1.835938c18.839844 0 34.164062-15.324219 34.164062-34.164063v-67.351562c.003907-30.734375-23.648437-56.035156-53.703124-58.695313zm-59.5625-29.5625c0-12.832031 10.4375-23.269531 23.269531-23.269531 12.828125 0 23.265625 10.4375 23.265625 23.269531v6.046875c0 12.832032-10.4375 23.269532-23.265625 23.269532-12.832031 0-23.269531-10.4375-23.269531-23.269532zm45.269531 344.730469c-6.617188 0-12-5.382812-12-12v-132.332031c0-5.523438-4.476563-10-10-10-5.523438 0-10 4.476562-10 10v132.332031c0 6.617188-5.382813 12-12 12-6.617188 0-12-5.382812-12-12v-169h68v169c0 6.617188-5.382813 12-12 12zm48-189.121094c0 7.8125-6.355469 14.164063-14.164063 14.164063h-1.835937v-59.46875c0-5.523438-4.476563-10-10-10-5.523438 0-10 4.476562-10 10v33.425781h-68v-33.425781c0-5.523438-4.476563-10-10-10-5.523438 0-10 4.476562-10 10v59.46875h-1.835938c-7.808593 0-14.164062-6.355469-14.164062-14.164063v-67.351562c0-21.472656 17.46875-38.941406 38.945312-38.941406h62.109375c21.476563 0 38.945313 17.46875 38.945313 38.941406zm0 0"/><path d="m393.980469 152.328125c-2.628907 0-5.210938 1.070313-7.070313 2.933594-1.859375 1.859375-2.929687 4.4375-2.929687 7.066406 0 2.640625 1.070312 5.210937 2.929687 7.070313 1.859375 1.871093 4.441406 2.929687 7.070313 2.929687 2.628906 0 5.210937-1.058594 7.070312-2.929687 1.859375-1.859376 2.929688-4.429688 2.929688-7.070313 0-2.628906-1.070313-5.207031-2.929688-7.066406-1.859375-1.863281-4.441406-2.933594-7.070312-2.933594zm0 0"/><path d="m10.007812 378c2.632813 0 5.210938-1.070312 7.070313-2.929688 1.859375-1.859374 2.929687-4.441406 2.929687-7.070312s-1.070312-5.210938-2.929687-7.070312c-1.859375-1.859376-4.429687-2.929688-7.070313-2.929688-2.628906 0-5.207031 1.070312-7.070312 2.929688-1.859375 1.859374-2.9296875 4.441406-2.9296875 7.070312s1.0703125 5.210938 2.9296875 7.070312c1.863281 1.859376 4.441406 2.929688 7.070312 2.929688zm0 0"/></svg>