<?xml version="1.0" encoding="iso-8859-1"?>
<!-- Generator: Adobe Illustrator 19.0.0, SVG Export Plug-In . SVG Version: 6.00 Build 0)  -->
<svg xmlns="http://www.w3.org/2000/svg" xmlns:xlink="http://www.w3.org/1999/xlink" version="1.1" id="Layer_1" x="0px" y="0px" viewBox="0 0 512 512" style="enable-background:new 0 0 512 512;" xml:space="preserve" width="512" height="512">
<g>
	<path d="M477.749,155.888c-18.794-26.639-45.297-47.783-78.771-62.845c-39.817-17.916-88.595-27-144.978-27   c-112.206,0-174,40.655-174,114.477c0,33.769,3.782,66.663,11.241,97.767c0.125,0.521,0.293,1.022,0.493,1.504   c10.672,43.537,25.384,70.717,30.266,78.979v27.185H92v-30c0-5.523-4.477-10-10-10H42c-5.523,0-10,4.477-10,10v8H10   c-5.523,0-10,4.477-10,10s4.477,10,10,10h22v52c0,5.523,4.477,10,10,10h40c5.523,0,10-4.477,10-10v-30h241.006   c4.646,22.795,24.847,40,48.994,40s44.348-17.205,48.994-40h41.833c3.621,0,6.959-1.958,8.727-5.117   c7.345-13.128,13.447-27.202,18.136-41.831c0.001-0.003,0.001-0.005,0.002-0.008c0.001-0.003,0.002-0.006,0.003-0.009   c8.108-25.453,12.246-53.358,12.3-82.942c0-0.031,0.005-0.062,0.005-0.093C512,228.498,500.477,188.102,477.749,155.888z    M114.013,285.956H172v60h-34.29C132.94,337.394,122.644,316.899,114.013,285.956z M52,365.956h20v20H52V365.956z M72,425.956H52   v-20h20V425.956z M142,365.956h30v20h-30V365.956z M192,385.956v-150h80v150H192z M292,365.956h50.027   c-4.377,5.817-7.516,12.614-9.021,20H292V365.956z M382,425.956c-16.542,0-30-13.458-30-30s13.458-30,30-30s30,13.458,30,30   S398.542,425.956,382,425.956z M466.866,385.956h-35.872c-1.505-7.386-4.644-14.183-9.021-20h54.015   C473.284,372.818,470.236,379.503,466.866,385.956z M482.73,345.956H292v-60h20v10c0,11.028,8.972,20,20,20h80   c11.028,0,20-8.972,20-20v-10h59.812C491.059,307.133,488.015,327.249,482.73,345.956z M332,295.956v-60h80l0.013,60   c0,0-0.004,0-0.013,0H332z M432,265.956v-30c0-11.028-8.972-20-20-20h-80c-11.028,0-20,8.972-20,20v30h-20v-40   c0-5.523-4.477-10-10-10H182c-5.523,0-10,4.477-10,10v40h-63.063c-5.932-27.304-8.937-56.004-8.937-85.435   c0-78.086,83.746-94.477,154-94.477c87.063,0,231.909,23.661,237.813,179.912H432z"/>
	<path d="M242,305.982h-8c-5.523,0-10,4.477-10,10s4.477,10,10,10h8c5.523,0,10-4.477,10-10S247.523,305.982,242,305.982z"/>
	<path d="M262.98,108.986c-5.51,0-10,4.48-10,9.99c0,2.67,1.04,5.19,2.92,7.08c1.89,1.88,4.4,2.93,7.07,2.93c0,0,0,0,0.01,0   c5.51,0,9.99-4.48,10-9.99C272.98,113.476,268.5,108.986,262.98,108.986z"/>
	<path d="M410.82,147.825c-15.48-11.05-33.81-19.88-54.48-26.25c-15.88-4.89-33.48-8.43-52.31-10.5c-0.36-0.04-0.73-0.06-1.09-0.06   c-5.11,0-9.38,3.83-9.93,8.92c-0.29,2.65,0.47,5.26,2.15,7.34c1.67,2.09,4.05,3.39,6.71,3.68c27.46,2.95,66.63,11.1,97.31,33.13   c1.71,1.22,3.72,1.87,5.81,1.87c3.22,0,6.27-1.56,8.14-4.18C416.34,157.296,415.3,151.036,410.82,147.825z"/>
	<circle cx="382" cy="395.956" r="10"/>
</g>















</svg>
