<svg height="512pt" viewBox="-67 0 512 512" width="512pt" xmlns="http://www.w3.org/2000/svg"><path d="m368.335938 317.597656c5.519531 0 10-4.476562 10-10v-43.875c0-5.523437-4.480469-10-10-10h-33.875v-21.273437c0-12.582031-10.234376-22.8125-22.8125-22.8125h-20.542969v-85.761719c0-68.304688-55.570313-123.875-123.875-123.875-68.304688 0-123.875 55.570312-123.875 123.875v68.980469c0 5.523437 4.480469 10 10 10h44.265625c5.523437 0 10-4.476563 10-10v-29.34375c0-5.523438-4.476563-10-10-10h-3.917969v-3.957031h13.917969c5.523437 0 10-4.480469 10-10v-15.679688c0-27.351562 22.253906-49.601562 49.609375-49.601562 27.359375 0 49.613281 22.25 49.613281 49.601562v85.757812h-194.03125c-12.578125 0-22.8125 10.234376-22.8125 22.8125v22.523438c0 5.519531 4.476562 10 10 10s10-4.480469 10-10v-22.523438c0-1.550781 1.261719-2.8125 2.8125-2.8125h288.835938c1.550781 0 2.8125 1.261719 2.8125 2.8125v21.273438h-77.757813c-5.523437 0-10 4.476562-10 10v43.878906c0 5.519532 4.476563 10 10 10h77.757813v13.15625h-77.757813c-5.523437 0-10 4.476563-10 10v43.875c0 5.523438 4.476563 10 10 10h77.757813v13.15625h-77.757813c-5.523437 0-10 4.476563-10 10v43.875c0 5.523438 4.476563 10 10 10h77.757813v17.523438c0 1.550781-1.261719 2.8125-2.8125 2.8125h-288.835938c-1.550781 0-2.8125-1.261719-2.8125-2.8125v-155.964844c0-5.523438-4.476562-10-10-10s-10 4.476562-10 10v155.96875c0 12.578125 10.234375 22.8125 22.8125 22.8125h288.835938c12.578124 0 22.8125-10.234375 22.8125-22.8125v-17.527344h33.875c5.519531 0 10-4.476562 10-10v-43.875c0-5.523437-4.480469-10-10-10h-33.875v-13.15625h33.875c5.519531 0 10-4.476562 10-10v-43.875c0-5.523437-4.480469-10-10-10h-33.875v-13.15625zm-201.105469-263.324218c-38.382813 0-69.609375 31.222656-69.609375 69.601562v5.679688h-13.917969c-5.523437 0-10 4.476562-10 10v23.957031c0 5.519531 4.476563 10 10 10h3.917969v9.34375h-24.265625v-58.980469c0-57.277344 46.597656-103.875 103.875-103.875 57.277343 0 103.875 46.597656 103.875 103.875v85.757812h-34.261719v-85.757812c0-38.378906-31.226562-69.601562-69.613281-69.601562zm191.105469 219.449218v23.875h-23.875v-23.875zm-111.632813 0h23.878906v23.875h-23.878906zm43.878906 0h23.875v23.875h-23.875zm-43.878906 77.03125h23.878906v23.875h-23.878906zm43.878906 0h23.875v23.875h-23.875zm-43.878906 77.03125h23.878906v23.875h-23.878906zm43.878906 0h23.875v23.875h-23.875zm67.753907 0v23.875h-23.875v-23.875zm0-77.03125v23.875h-23.875v-23.875zm0 0"/><path d="m4.445312 302.789062c3.535157 2.355469 8.265626 2.191407 11.636719-.378906 3.175781-2.417968 4.609375-6.667968 3.574219-10.515625-1.109375-4.128906-4.84375-7.171875-9.117188-7.40625-4.246093-.226562-8.273437 2.363281-9.832031 6.316407-1.695312 4.304687-.15625 9.429687 3.738281 11.984374zm0 0"/><path d="m53.355469 398.027344c-5.519531 0-10 4.476562-10 10v53.632812c0 5.523438 4.480469 10 10 10h69.890625c5.523437 0 10-4.476562 10-10 0-5.523437-4.476563-10-10-10h-59.890625v-43.632812c0-5.523438-4.476563-10-10-10zm0 0"/><path d="m153.917969 467.191406c2.34375 3.515625 6.820312 5.203125 10.902343 4.097656 3.972657-1.074218 6.960938-4.566406 7.359376-8.675781.394531-4.101562-1.832032-8.117187-5.53125-9.941406-3.738282-1.851563-8.375-1.125-11.375 1.777344-3.449219 3.332031-3.96875 8.75-1.355469 12.742187zm0 0"/></svg>