<svg height="512pt" viewBox="-18 0 512 512" width="512pt" xmlns="http://www.w3.org/2000/svg"><path d="m127.226562 374.023438c3.597657 0 5.125 3.925781 5.125 7.523437 0 4.140625-1.855468 7.738281-5.125 7.738281h-15.046874v59.199219c0 3.488281-4.25 5.230469-8.503907 5.230469-4.25 0-8.503906-1.742188-8.503906-5.230469v-59.199219h-15.042969c-3.273437 0-5.125-3.597656-5.125-7.738281 0-3.597656 1.527344-7.523437 5.125-7.523437zm0 0"/><path d="m139.109375 379.148438c0-3.597657 4.25-5.125 8.503906-5.125 4.25 0 8.5 1.527343 8.5 5.125v69.335937c0 3.488281-4.25 5.234375-8.5 5.234375-4.253906 0-8.503906-1.746094-8.503906-5.234375zm0 0"/><path d="m193.839844 388.851562c-6.21875 0-9.816406 3.488282-9.816406 10.902344v28.890625c0 7.410157 3.597656 10.898438 9.921874 10.898438 8.726563 0 9.269532-6.648438 9.597657-10.898438.324219-4.035156 4.03125-5.125 8.394531-5.125 5.886719 0 8.613281 1.527344 8.613281 8.066407 0 14.5-11.777343 22.785156-27.367187 22.785156-14.28125 0-26.164063-6.976563-26.164063-25.726563v-28.890625c0-18.75 11.882813-25.730468 26.164063-25.730468 15.589844 0 27.367187 7.851562 27.367187 21.695312 0 6.542969-2.726562 8.066406-8.503906 8.066406-4.578125 0-8.285156-1.199218-8.503906-5.121094-.109375-2.835937-.4375-9.8125-9.703125-9.8125zm0 0"/><path d="m229.160156 379.148438c0-3.597657 4.25-5.125 8.503906-5.125 4.25 0 8.5 1.527343 8.5 5.125v26.164062l20.390626-28.886719c1.199218-1.746093 2.722656-2.398437 4.46875-2.398437 4.363281 0 10.03125 4.46875 10.03125 8.71875 0 .875-.21875 2.074218-1.089844 3.273437l-17.878906 22.457031 22.566406 34.558594c.546875.871094.871094 1.851563.871094 2.832032 0 4.253906-5.339844 8.503906-10.246094 8.503906-2.289063 0-4.46875-.871094-5.886719-3.160156l-18.644531-28.34375-4.582032 5.886718v19.730469c0 3.492187-4.25 5.234375-8.5 5.234375-4.253906 0-8.503906-1.746094-8.503906-5.234375zm0 0"/><path d="m307.875 407.273438h16.351562c3.273438 0 5.125 3.164062 5.125 6.652343 0 2.941407-1.527343 6.429688-5.125 6.429688h-16.351562v18.535156h29.21875c3.269531 0 5.125 3.488281 5.125 7.519531 0 3.492188-1.527344 7.304688-5.125 7.304688h-38.8125c-3.707031 0-7.414062-1.742188-7.414062-5.230469v-69.226563c0-3.488281 3.707031-5.234374 7.414062-5.234374h38.8125c3.597656 0 5.125 3.816406 5.125 7.304687 0 4.035156-1.855469 7.523437-5.125 7.523437h-29.222656v18.421876zm0 0"/><path d="m396.835938 374.023438c3.597656 0 5.125 3.925781 5.125 7.523437 0 4.140625-1.855469 7.738281-5.125 7.738281h-15.046876v59.199219c0 3.488281-4.25 5.230469-8.503906 5.230469-4.25 0-8.503906-1.742188-8.503906-5.230469v-59.199219h-15.046875c-3.269531 0-5.121094-3.597656-5.121094-7.738281 0-3.597656 1.527344-7.523437 5.121094-7.523437zm0 0"/><path d="m238.480469 245.460938c-5.523438 0-10-4.480469-10-10v-127.59375c0-5.523438 4.476562-10 10-10 5.523437 0 10 4.476562 10 10v127.59375c0 5.519531-4.476563 10-10 10zm0 0"/><path d="m476.960938 47.9375v-37.9375c0-5.523438-4.480469-10-10-10h-456.960938c-5.523438 0-10 4.476562-10 10v37.9375c0 13.074219 8.800781 24.132812 20.789062 27.5625v190.289062h-10.789062c-5.523438 0-10 4.480469-10 10v53.671876c0 5.523437 4.476562 10 10 10h10.789062v162.539062c0 5.523438 4.480469 10 10 10h415.382813c5.519531 0 10-4.476562 10-10v-162.539062h10.789063c5.519531 0 10-4.476563 10-10v-53.671876c0-5.523437-4.480469-10-10-10h-10.789063v-190.289062c11.988281-3.429688 20.789063-14.488281 20.789063-27.5625zm-456.960938-27.9375h436.960938v27.9375c0 4.777344-3.886719 8.664062-8.664063 8.664062h-419.632813c-4.777343 0-8.664062-3.886718-8.664062-8.664062zm436.960938 299.460938h-71.167969c-5.523438 0-10 4.476562-10 10 0 5.523437 4.476562 10 10 10h50.378906v152.539062h-395.382813v-152.539062h248.800782c5.519531 0 10-4.476563 10-10 0-5.523438-4.480469-10-10-10h-269.589844v-33.671876h436.960938zm-287.171876-53.671876h-76.023437v-79.15625c0-3.308593 2.695313-6 6.003906-6h64.015625c3.3125 0 6.003906 2.691407 6.003906 6zm213.40625 0h-76.023437v-79.15625c0-3.308593 2.695313-6 6.003906-6h64.015625c3.3125 0 6.003906 2.691407 6.003906 6zm20 0v-79.15625c0-14.335937-11.664062-26-26.003906-26h-64.015625c-14.339843 0-26.003906 11.664063-26.003906 26v79.15625h-97.386719v-79.15625c0-14.335937-11.664062-26-26-26h-64.019531c-14.335937 0-26 11.664063-26 26v79.15625h-32.976563v-189.1875h395.382813v189.1875zm0 0"/><path d="m337.019531 339.460938c-.648437 0-1.308593-.0625-1.949219-.191407-.640624-.128906-1.269531-.328125-1.871093-.578125-.609375-.25-1.1875-.550781-1.726563-.910156-.550781-.371094-1.0625-.789062-1.523437-1.25-.460938-.460938-.878907-.972656-1.238281-1.519531-.359376-.542969-.671876-1.121094-.921876-1.730469-.25-.601562-.4375-1.230469-.566406-1.871094-.132812-.640625-.203125-1.300781-.203125-1.949218 0-.648438.070313-1.3125.203125-1.949219.128906-.640625.316406-1.269531.566406-1.871094.25-.609375.5625-1.1875.921876-1.730469.359374-.550781.777343-1.058594 1.238281-1.519531.460937-.460937.972656-.878906 1.523437-1.238281.539063-.359375 1.117188-.671875 1.726563-.921875.601562-.25 1.230469-.449219 1.871093-.578125 1.289063-.261719 2.621094-.25 3.910157 0 .628906.128906 1.257812.328125 1.871093.578125.597657.25 1.179688.5625 1.71875.921875.550782.359375 1.058594.777344 1.519532 1.238281.460937.460937.882812.96875 1.25 1.519531.359375.542969.671875 1.121094.921875 1.730469.25.601563.4375 1.230469.566406 1.871094.132813.640625.191406 1.300781.191406 1.949219 0 .648437-.058593 1.308593-.191406 1.949218-.128906.640625-.328125 1.269532-.578125 1.871094-.25.609375-.550781 1.1875-.910156 1.730469-.367188.546875-.789063 1.058593-1.25 1.519531-.460938.460938-.96875.878906-1.519532 1.25-.539062.359375-1.121093.660156-1.71875.910156-.613281.25-1.242187.449219-1.871093.578125-.652344.128907-1.308594.191407-1.960938.191407zm0 0"/></svg>