<svg height="512pt" viewBox="0 -15 512 512" width="512pt" xmlns="http://www.w3.org/2000/svg"><path d="m346.578125 482.695312c-.648437 0-1.308594-.070312-1.949219-.203124-.640625-.128907-1.269531-.316407-1.867187-.566407-.613281-.25-1.191407-.5625-1.730469-.921875-.550781-.371094-1.0625-.78125-1.519531-1.238281-.460938-.460937-.882813-.980469-1.242188-1.523437-.359375-.546876-.667969-1.128907-.917969-1.726563-.25-.601563-.441406-1.230469-.570312-1.871094-.132812-.652343-.203125-1.300781-.203125-1.949219 0-.660156.070313-1.3125.203125-1.960937.128906-.640625.320312-1.269531.570312-1.871094.25-.597656.558594-1.179687.917969-1.730469.359375-.539062.78125-1.058593 1.242188-1.519531.457031-.460937.96875-.878906 1.519531-1.238281.539062-.359375 1.117188-.671875 1.730469-.921875.597656-.25 1.226562-.4375 1.867187-.570313 1.292969-.257812 2.621094-.257812 3.910156 0 .632813.132813 1.261719.320313 1.871094.570313.601563.25 1.179688.5625 1.71875.921875.550782.359375 1.0625.777344 1.519532 1.238281.460937.460938.882812.980469 1.25 1.519531.363281.550782.671874 1.132813.921874 1.730469.25.601563.441407 1.230469.570313 1.871094.128906.648437.1875 1.300781.1875 1.960937 0 .648438-.058594 1.296876-.1875 1.949219-.128906.640625-.320313 1.269531-.570313 1.871094-.25.597656-.558593 1.179687-.921874 1.726563-.367188.542968-.789063 1.0625-1.25 1.523437-.457032.457031-.96875.867187-1.519532 1.238281-.539062.359375-1.117187.671875-1.71875.921875-.609375.25-1.238281.4375-1.871094.566407-.648437.132812-1.308593.203124-1.960937.203124zm0 0"/><path d="m502 203.222656c5.523438 0 10-4.476562 10-10v-118.152344c0-5.523437-4.476562-10-10-10h-34.554688v-16.253906c0-26.917968-21.898437-48.816406-48.8125-48.816406-26.917968 0-48.816406 21.898438-48.816406 48.816406v16.253906h-227.628906v-16.253906c0-26.917968-21.898438-48.816406-48.816406-48.816406-26.917969 0-48.816406 21.898438-48.816406 48.8125v16.257812h-34.554688c-5.523438 0-10 4.476563-10 10v118.152344c0 5.523438 4.476562 10 10 10h42.078125v23.160156h-42.078125c-5.523438 0-10 4.476563-10 10v118.152344c0 5.523438 4.476562 10 10 10h42.078125v98.152344h-33.605469c-5.523437 0-10 4.476562-10 10s4.476563 10 10 10h278.289063c5.523437 0 10-4.476562 10-10s-4.476563-10-10-10h-172.296875v-98.152344h263.074218v108.152344c0 5.523438 4.476563 10 10 10h95.988282c5.523437 0 10-4.476562 10-10s-4.476563-10-10-10h-33.605469v-98.152344h42.078125c5.523438 0 10-4.476562 10-10v-118.152344c0-5.523437-4.476562-10-10-10h-42.078125v-23.160156zm-10-20h-111.777344l98.125-98.152344h13.652344zm-367.539062 43.160156v-23.160156h263.078124v23.160156zm35.015624 118.152344 98.121094-98.152344h94.109375l-98.132812 98.152344zm193.046876-259.464844-98.121094 98.152344h-94.109375l98.132812-98.152344zm28.277343 0h69.265625l-98.125 98.152344h-69.257812zm9.015625-36.257812c0-15.886719 12.925782-28.8125 28.8125-28.8125 15.890625 0 28.816406 12.925781 28.816406 28.8125v16.257812h-57.632812v-16.257812zm-159.671875 36.257812-98.132812 98.152344h-69.257813l98.125-98.152344zm-165.589843-36.257812c0-15.886719 12.925781-28.8125 28.8125-28.8125 15.890624 0 28.816406 12.925781 28.816406 28.8125v16.257812h-57.628906zm-44.554688 36.257812h112.597656l-98.125 98.152344h-14.472656zm52.078125 118.152344h32.382813v23.160156h-32.382813zm-52.078125 43.160156h111.777344l-98.125 98.152344h-13.652344zm84.460938 216.308594h-32.382813v-98.15625h32.382813zm-42.527344-118.15625 98.125-98.152344h69.257812l-98.117187 98.152344zm219.921875 0 98.132812-98.152344h69.257813l-98.128906 98.152344zm158.066406 118.15625h-32.382813v-98.15625h32.382813zm52.078125-118.15625h-112.601562l98.128906-98.152344h14.472656zm-52.078125-118.152344h-32.382813v-23.160156h32.382813zm0 0"/></svg>