<svg height="512pt" viewBox="-82 0 512 512" width="512pt" xmlns="http://www.w3.org/2000/svg"><path d="m347.96875 173.984375c0-5.539063-.265625-11.128906-.785156-16.617187-.519532-5.5-5.386719-9.53125-10.898438-9.011719-5.5.519531-9.53125 5.398437-9.011718 10.898437.460937 4.863282.695312 9.820313.695312 14.730469 0 84.90625-69.078125 153.984375-153.984375 153.984375s-153.984375-69.078125-153.984375-153.984375 69.078125-153.984375 153.984375-153.984375c39.648437 0 77.308594 15.03125 106.039063 42.328125 3.558593 3.378906 6.992187 6.972656 10.214843 10.675781 3.625 4.167969 9.9375 4.609375 14.105469.988282 4.167969-3.625 4.609375-9.941407.988281-14.109376-3.636719-4.183593-7.519531-8.238281-11.535156-12.054687-32.464844-30.84375-75.015625-47.828125-119.8125-47.828125-95.933594 0-173.984375 78.050781-173.984375 173.984375 0 84.648437 60.765625 155.371094 140.96875 170.839844v157.175781c0 5.523438 4.476562 10 10 10h46.03125c5.523438 0 10-4.476562 10-10v-157.175781c80.203125-15.46875 140.96875-86.191407 140.96875-170.839844zm-160.96875 318.015625h-26.03125v-144.515625c4.296875.320313 8.636719.484375 13.015625.484375s8.71875-.164062 13.019531-.484375v144.515625zm0 0"/><path d="m323.355469 116.21875c-.652344 0-1.3125-.070312-1.953125-.199219-.636719-.128906-1.269532-.320312-1.878906-.570312-.597657-.25-1.179688-.558594-1.71875-.917969-.550782-.359375-1.0625-.78125-1.519532-1.242188-.460937-.460937-.882812-.980468-1.242187-1.519531-.359375-.550781-.671875-1.128906-.921875-1.730469-.25-.597656-.449219-1.230468-.566406-1.867187-.132813-.652344-.203126-1.300781-.203126-1.953125 0-.660156.070313-1.308594.203126-1.957031.117187-.640625.316406-1.273438.566406-1.871094.25-.601563.5625-1.179687.921875-1.730469.359375-.539062.78125-1.050781 1.242187-1.519531 1.859375-1.859375 4.4375-2.921875 7.070313-2.921875 2.628906 0 5.207031 1.0625 7.070312 2.921875.457031.46875.878907.980469 1.238281 1.519531.359376.550782.671876 1.128906.921876 1.730469.25.597656.4375 1.230469.566406 1.871094.132812.648437.203125 1.296875.203125 1.957031 0 .652344-.070313 1.300781-.203125 1.953125-.128906.636719-.316406 1.269531-.566406 1.867187-.25.601563-.5625 1.191407-.921876 1.730469-.359374.539063-.78125 1.058594-1.238281 1.519531-.460937.460938-.972656.882813-1.523437 1.242188-.539063.359375-1.117188.667969-1.726563.917969-.601562.25-1.230469.441406-1.871093.570312-.640626.128907-1.300782.199219-1.949219.199219zm0 0"/><path d="m173.984375 307.785156c-73.777344 0-133.800781-60.023437-133.800781-133.800781s60.023437-133.800781 133.800781-133.800781 133.800781 60.023437 133.800781 133.800781-60.023437 133.800781-133.800781 133.800781zm0-247.601562c-62.75 0-113.800781 51.050781-113.800781 113.800781s51.050781 113.800781 113.800781 113.800781 113.800781-51.050781 113.800781-113.800781-51.050781-113.800781-113.800781-113.800781zm0 0"/><path d="m137.808594 170.816406c3.910156-2.902344 6.027344-7.851562 6.027344-14.265625 0-11.527343-7.066407-17.875-19.898438-17.875h-18.859375c-3.855469 0-7.757813 2.03125-7.757813 5.914063v58.511718c0 2.890626 2.664063 5.824219 7.757813 5.824219h20.421875c12.890625 0 19.992188-7.558593 19.992188-21.28125v-1.929687c0-8.808594-3.554688-12.707032-7.683594-14.898438zm-23.226563-6.84375v-9.785156h8.160157c2.570312 0 3.742187 2.558594 3.742187 4.9375 0 2.335938-1.171875 4.847656-3.742187 4.847656zm13.558594 21.003906v1.472657c0 6.242187-3.34375 6.964843-5.859375 6.964843h-7.699219v-15.398437h7.699219c3.042969 0 5.859375.839844 5.859375 6.960937zm0 0"/><path d="m190.359375 138.675781c-5.269531 0-8.675781 2.285157-8.675781 5.824219v41.765625c0 5.179687-2.398438 7.699219-7.332032 7.699219-4.933593 0-7.332031-2.519532-7.332031-7.699219v-41.765625c0-3.484375-3.484375-5.824219-8.675781-5.824219-5.269531 0-8.671875 2.285157-8.671875 5.824219v41.765625c0 14.964844 8.765625 23.210937 24.679687 23.210937 15.917969 0 24.683594-8.246093 24.683594-23.210937v-41.765625c0-3.484375-3.488281-5.824219-8.675781-5.824219zm0 0"/><path d="m230.289062 163.746094c-4.726562-2.082032-8.804687-3.882813-8.804687-6.460938 0-2.476562 2.949219-4.019531 7.699219-4.019531 4.171875 0 6.328125 1.121094 8.230468 2.105469 1.382813.714844 2.6875 1.390625 4.371094 1.390625 5.09375 0 7.203125-5.890625 7.203125-9.042969 0-8.902344-15.160156-9.59375-19.804687-9.59375-11.554688 0-25.050782 5.378906-25.050782 20.542969 0 13.476562 10.527344 18.371093 18.992188 22.300781 5.457031 2.535156 10.171875 4.726562 10.171875 8.425781 0 4.441407-6.664063 4.570313-7.425781 4.570313-4.488282 0-7.210938-2.097656-9.617188-3.945313-1.910156-1.472656-3.714844-2.863281-6.023437-2.863281-4.496094 0-7.753907 5.511719-7.753907 9.230469 0 7.167969 11.0625 13.457031 23.671876 13.457031 14.882812 0 24.5-8.605469 24.5-21.921875-.003907-15.203125-11.769532-20.390625-20.359376-24.175781zm0 0"/></svg>