<svg height="512pt" viewBox="0 0 512.001 512" width="512pt" xmlns="http://www.w3.org/2000/svg"><path d="m512 10c0-5.523438-4.476562-10-10-10h-492c-5.523438 0-10 4.476562-10 10v64c0 1.855469.511719 3.582031 1.390625 5.074219 0 0-.003906.003906-.003906.003906l34.613281 58.71875v314.101563h-26c-5.523438 0-10 4.476562-10 10v40c0 5.523437 4.476562 10 10 10h492c5.523438 0 10-4.476563 10-10v-40c0-5.523438-4.476562-10-10-10h-26v-314.101563l34.613281-58.71875c0-.003906 0-.003906-.003906-.007813.878906-1.488281 1.390625-3.21875 1.390625-5.070312zm-20 54h-28.449219l28.449219-28.449219zm-51.390625-5.339844-38.660156-38.660156h77.316406zm-22.945313 5.339844h-77.117187l38.558594-38.558594zm-100.0625-5.339844-38.660156-38.660156h77.320313zm-22.945312 5.339844h-77.3125l38.65625-38.65625zm-100.257812-5.339844-38.660157-38.660156h77.316407zm-22.945313 5.339844h-77.117187l38.558593-38.558594zm-100.0625-5.339844-38.660156-38.660156h77.320312zm-22.941406 5.339844h-28.449219v-28.449219zm8.925781 20 14.429688 24.535156-22.15625 13.035156-22.144532-37.570312zm-1.375 57.035156 26.386719-15.519531 75.621093 114.359375-102.007812 196.46875zm112.554688 78.527344-74.570313-112.773438-13.40625-22.789062h121.421875v34c0 5.523438 4.476562 10 10 10h4.09375zm53.445312-111.5625v-24h68v24zm78 20c5.523438 0 10-4.476562 10-10v-34h121.421875l-13.417969 22.816406-74.144531 113.542969-47.953125-92.359375zm129.660156-2.457031 26.339844 15.492187v295.308594l-101.5625-195.605469zm32.691406-3.972657-22.15625-13.035156 14.429688-24.535156h29.871094zm29.648438 370.328126h-472v-20h33.957031c.011719 0 .023438.003906.035157.003906.007812 0 .019531-.003906.027343-.003906h157.105469c5.523438 0 10-4.476563 10-10 0-5.523438-4.476562-10-10-10h-140.664062l168.167968-323.898438h34.742188l168.167968 323.898438h-140.410156c-5.523437 0-10 4.476562-10 10 0 5.523437 4.476563 10 10 10h156.851563c.007812 0 .015625.003906.027343.003906.011719 0 .023438-.003906.03125-.003906h33.960938zm0 0"/><path d="m256.128906 451.898438c-2.628906 0-5.207031 1.070312-7.070312 2.929687-1.867188 1.863281-2.929688 4.441406-2.929688 7.070313 0 2.632812 1.0625 5.210937 2.929688 7.070312 1.863281 1.859375 4.441406 2.929688 7.070312 2.929688 2.632813 0 5.199219-1.070313 7.070313-2.929688 1.859375-1.859375 2.929687-4.4375 2.929687-7.070312 0-2.628907-1.070312-5.207032-2.929687-7.070313-1.859375-1.859375-4.4375-2.929687-7.070313-2.929687zm0 0"/></svg>