<svg height="512pt" viewBox="-72 0 512 512" width="512pt" xmlns="http://www.w3.org/2000/svg"><path d="m105.632812 125.882812h156.425782c11.652344 0 21.132812-9.480468 21.132812-21.132812v-83.617188c0-11.652343-9.480468-21.132812-21.132812-21.132812h-156.425782c-11.648437 0-21.128906 9.480469-21.128906 21.132812v83.617188c0 11.652344 9.480469 21.132812 21.128906 21.132812zm-1.128906-104.75c0-.625.507813-1.132812 1.128906-1.132812h156.425782c.625 0 1.132812.507812 1.132812 1.132812v83.617188c0 .625-.507812 1.132812-1.132812 1.132812h-156.425782c-.621093 0-1.128906-.507812-1.128906-1.132812zm0 0"/><path d="m357.695312 317.480469h-3.964843v-115.476563c0-33.945312-27.617188-61.5625-61.566407-61.5625h-67.746093c-.011719 0-.023438-.003906-.039063-.003906h-80.929687c-.011719 0-.027344.003906-.039063.003906h-44.578125c-.015625 0-.027343-.003906-.039062-.003906-.007813 0-.015625 0-.023438 0-.011719 0-.023437.003906-.039062.003906h-23.058594c-33.945313 0-61.5625 27.617188-61.5625 61.5625v115.476563h-4.109375c-5.523438 0-10 4.476562-10 10 0 5.523437 4.476562 10 10 10h4.109375v164.519531c0 5.523438 4.476563 10 10 10h319.617187c5.523438 0 10-4.476562 10-10v-164.519531h3.964844c5.523438 0 10-4.476563 10-10 0-5.523438-4.476562-10-9.996094-10zm-95.882812-157.039063c1.007812 14.054688 4.585938 40.535156 17.195312 65.789063 1.753907 3.507812 5.285157 5.535156 8.957032 5.535156 1.5 0 3.023437-.339844 4.457031-1.054687 4.941406-2.46875 6.945313-8.476563 4.480469-13.414063-10.628906-21.292969-13.960938-44.183594-15.003906-56.855469h10.265624c22.921876 0 41.566407 18.644532 41.566407 41.5625v115.476563h-36.519531c-33.992188-33.203125-49.277344-75.703125-56.117188-105.886719-.613281-2.699219-1.167969-5.355469-1.679688-7.949219-.007812-.042969-.015624-.089843-.023437-.132812-3.570313-18.304688-4.65625-33.738281-4.957031-43.070313zm-177.308594 171.285156c29.878906-29.214843 51.210938-69.328124 61.808594-116.324218 2.644531-11.71875 4.585938-23.605469 5.800781-35.554688.796875-7.816406 1.15625-14.414062 1.304688-19.40625h60.984375c.152344 5.324219.546875 12.492188 1.449218 20.988282.007813.101562.019532.199218.03125.296874.359376 3.363282.804688 6.933594 1.34375 10.683594 1.105469 7.71875 2.511719 15.394532 4.21875 23 10.550782 47.007813 31.859376 87.128906 61.742188 116.347656v160.242188h-198.6875zm-8.832031-171.285156h12.25c-2.59375 19.019532-12.898437 61.738282-53.8125 97.414063v-55.851563c0-22.917968 18.644531-41.5625 41.5625-41.5625zm-41.5625 122.992188c37.882813-27.765625 56.132813-61.394532 64.804687-85.109375 5.769532-15.78125 8.167969-29.269531 9.167969-37.882813h25.300781c-.5625 16.316406-3.585937 51.332032-18.1875 88.234375-7.859374 19.777344-18.4375 38.539063-32.011718 54.972657-3.992188 4.832031-8.242188 9.453124-12.730469 13.832031h-36.34375zm0 54.046875h30.390625v154.519531h-30.390625zm299.621094 154.519531h-30.539063v-154.519531h30.539063zm0 0"/><path d="m163.308594 72.429688h26.433594l-7.007813 6.148437c-4.148437 3.644531-4.5625 9.960937-.917969 14.113281 1.976563 2.25 4.742188 3.402344 7.519532 3.402344 2.34375 0 4.695312-.816406 6.59375-2.484375l26.964843-23.667969c4.46875-3.921875 4.46875-11.105468 0-15.03125l-26.964843-23.664062c-4.152344-3.648438-10.46875-3.230469-14.113282.917968-3.644531 4.152344-3.230468 10.46875.917969 14.113282l7.011719 6.148437h-26.433594c-1.058594 0-1.914062-.855469-1.914062-1.914062v-11.75c0-5.523438-4.480469-10-10-10-5.523438 0-10 4.476562-10 10v11.753906c-.003907 12.082031 9.828124 21.914063 21.910156 21.914063zm0 0"/><path d="m300.675781 253.558594c1.601563 3.84375 5.558594 6.386718 9.730469 6.167968 4.117188-.214843 7.753906-3.003906 9.019531-6.929687 1.277344-3.96875-.109375-8.453125-3.421875-10.992187-3.363281-2.578126-8.113281-2.730469-11.640625-.382813-3.914062 2.605469-5.5 7.792969-3.6875 12.136719zm0 0"/><path d="m122.472656 319.523438c-15.480468 0-28.078125 12.59375-28.078125 28.078124 0 15.480469 12.597657 28.078126 28.078125 28.078126 15.480469 0 28.078125-12.597657 28.078125-28.078126 0-15.484374-12.597656-28.078124-28.078125-28.078124zm0 36.15625c-4.453125 0-8.078125-3.625-8.078125-8.078126 0-4.453124 3.625-8.078124 8.078125-8.078124s8.078125 3.625 8.078125 8.078124c0 4.453126-3.625 8.078126-8.078125 8.078126zm0 0"/></svg>