<svg height="512pt" viewBox="0 0 512 512" width="512pt" xmlns="http://www.w3.org/2000/svg"><path d="m492 100h-68c-11.027344 0-20 8.972656-20 20v2h-10v-69.5c0-10.199219-8.300781-18.5-18.5-18.5h-19.5v-10c0-5.523438-4.476562-10-10-10h-86v-4c0-5.523438-4.476562-10-10-10s-10 4.476562-10 10v4h-28v-4c0-5.523438-4.476562-10-10-10s-10 4.476562-10 10v4h-28v-4c0-5.523438-4.476562-10-10-10s-10 4.476562-10 10v4h-28v-4c0-5.523438-4.476562-10-10-10s-10 4.476562-10 10v4h-86c-5.523438 0-10 4.476562-10 10v40c0 5.523438 4.476562 10 10 10h6v194h-6c-5.523438 0-10 4.476562-10 10v224c0 5.523438 4.476562 10 10 10h336c5.523438 0 10-4.476562 10-10v-224c0-5.523438-4.476562-10-10-10h-6v-57c0-5.523438-4.476562-10-10-10s-10 4.476562-10 10v57h-20v-194h20v57c0 5.523438 4.476562 10 10 10s10-4.476562 10-10v-57h6c5.523438 0 10-4.476562 10-10v-10h18v69.5c0 10.199219 8.300781 18.5 18.5 18.5h11.5v2c0 11.027344 8.972656 20 20 20h68c11.027344 0 20-8.972656 20-20v-24c0-11.027344-8.972656-20-20-20zm-300-66v20h-28v-20zm10 54c5.523438 0 10-4.476562 10-10v-4h28v105.632812c0 10.101563-6.742188 18.652344-15.964844 21.402344l3.539063-25.667968c.394531-2.863282-.46875-5.757813-2.371094-7.9375-1.898437-2.179688-4.644531-3.429688-7.535156-3.429688h-111.667969c-2.890625 0-5.640625 1.25-7.539062 3.429688-1.898438 2.179687-2.761719 5.074218-2.367188 7.9375l12.316406 89.386718c.15625 1.105469.378906 2.1875.664063 3.246094h-33.074219v-194h20v4c0 5.523438 4.476562 10 10 10s10-4.476562 10-10v-4h28v4c0 5.523438 4.476562 10 10 10s10-4.476562 10-10v-4h28v4c0 5.523438 4.476562 10 10 10zm-14 348v-36h92v36zm-112 0v-36h92v36zm-56 0v-36h36v36zm0-148h36v36h-36zm148 0v36h-92v-36zm56 92h-92v-36h92zm-112-36v36h-92v-36zm188 56h36v36h-36zm36-20h-92v-36h92zm-56-56h-92v-36h92zm-91.417969-56h-53.496093c-3.441407 0-6.390626-2.570312-6.859376-5.980469l-10.753906-78.019531h26.527344v10.167969c0 23.066406 18.765625 41.832031 41.832031 41.832031 4.664063 0 9.214844-.789062 13.507813-2.253906l-3.898438 28.273437c-.46875 3.410157-3.417968 5.980469-6.859375 5.980469zm17.613281-84-3.273437 23.746094c-4.132813 5.195312-10.398437 8.253906-17.089844 8.253906-12.039062 0-21.832031-9.792969-21.832031-21.832031v-10.167969zm-62.195312-150v20h-28v-20zm-124 0h76v20h-76zm16 40h20v194h-20zm-16 382h92v36h-92zm112 0h92v36h-92zm204 36h-92v-36h92zm-6-204h6v36h-36v-36zm-50-20h-65.40625c.28125-1.058594.507812-2.140625.660156-3.25l5.917969-42.941406c21.707031-1.789063 38.828125-20.015625 38.828125-42.175782v-105.632812h20zm10-214h-78v-20h124v20zm202 90h-68v-24h68zm0 0"/><path d="m330 161c-2.628906 0-5.210938 1.070312-7.070312 2.929688-1.859376 1.859374-2.929688 4.441406-2.929688 7.070312s1.070312 5.210938 2.929688 7.070312c1.859374 1.859376 4.441406 2.929688 7.070312 2.929688s5.210938-1.070312 7.070312-2.929688c1.859376-1.859374 2.929688-4.441406 2.929688-7.070312s-1.070312-5.210938-2.929688-7.070312c-1.859374-1.859376-4.441406-2.929688-7.070312-2.929688zm0 0"/></svg>