<svg height="512pt" viewBox="0 0 512.00008 512" width="512pt" xmlns="http://www.w3.org/2000/svg"><path d="m282.882812 289.8125c-2.632812 0-5.210937 1.070312-7.070312 2.929688-1.859375 1.859374-2.929688 4.4375-2.929688 7.066406 0 2.640625 1.070313 5.210937 2.929688 7.070312s4.4375 2.929688 7.070312 2.929688c2.628907 0 5.207032-1.070313 7.066407-2.929688s2.929687-4.4375 2.929687-7.070312c0-2.628906-1.070312-5.207032-2.929687-7.066406-1.859375-1.859376-4.4375-2.929688-7.066407-2.929688zm0 0"/><path d="m494.871094 445.003906c-18.484375 18.480469-48.558594 18.480469-67.039063 0-3.90625-3.90625-10.234375-3.90625-14.140625 0-17.675781 17.675782-45.949218 18.433594-64.554687 2.296875l-30.617188-225.480469h17.90625c5.523438 0 10-4.476562 10-9.996093v-41.863281c0-5.523438-4.476562-10-10-10h-14.511719v-57.984376h6.257813c5.523437 0 10-4.476562 10-9.996093 0-5.523438-4.476563-10-10-10h-.90625c-4.425781-31.703125-29.566406-56.847657-61.269531-61.273438v-10.710937c0-5.519532-4.476563-9.996094-10-9.996094-5.519532 0-9.996094 4.476562-9.996094 9.996094v10.710937c-31.703125 4.425781-56.84375 29.570313-61.273438 61.273438h-.90625c-5.519531 0-9.996093 4.476562-9.996093 10 0 5.519531 4.476562 9.996093 9.996093 9.996093h6.125v57.984376h-14.375c-5.523437 0-10 4.476562-10 10v41.863281c0 5.519531 4.476563 9.996093 10 9.996093h17.90625l-30.617187 225.480469c-18.605469 16.136719-46.878906 15.378907-64.554687-2.296875-3.90625-3.90625-10.234376-3.90625-14.140626 0-18.480468 18.480469-48.554687 18.480469-67.039062 0-3.902344-3.90625-10.234375-3.90625-14.136719 0-3.90625 3.902344-3.90625 10.234375 0 14.136719 24.035157 24.035156 61.859375 26.085937 88.246094 6.15625 11.964844 9.035156 26.273437 13.554687 40.589844 13.554687 2.6875 0 5.375-.179687 8.046875-.5-.117188 1.160157-.179688 2.339844-.179688 3.53125v20c0 5.519532 4.476563 9.996094 10 9.996094h212.617188c5.519531 0 9.996094-4.476562 9.996094-9.996094v-20c0-1.191406-.058594-2.371093-.175782-3.53125 2.671875.320313 5.355469.5 8.042969.5 14.3125 0 28.628906-4.519531 40.589844-13.554687 26.390625 19.929687 64.214843 17.878906 88.25-6.15625 3.902343-3.902344 3.90625-10.234375 0-14.136719-3.90625-3.90625-10.238281-3.90625-14.140625 0zm-165.96875 1.878906h-81.796875l72.015625-72.015624zm-13.160156-96.914062-96.914063 96.914062h-35.738281l5.210937-38.347656 69.871094-69.871094c3.902344-3.902343 3.902344-10.234374 0-14.140624-3.90625-3.902344-10.238281-3.902344-14.140625 0l-51.289062 51.289062 8.179687-60.238281 93.753906-93.753907h3.664063zm-59.742188-309.976562c25.242188 0 46.34375 18.089843 51.015625 41.988281h-102.039063c4.675782-23.898438 25.777344-41.988281 51.023438-41.988281zm-46.0625 61.984374h91.980469v57.984376h-91.980469zm-24.371094 77.980469h140.863282v21.867188h-140.863282zm80.832032 41.863281-61.03125 61.03125 8.289062-61.03125zm85.910156 270.066407h-192.621094v-10.003907c0-8.273437 6.730469-15.003906 15-15.003906h162.617188c8.273437 0 15.003906 6.730469 15.003906 15.003906zm0 0"/><path d="m381.460938 108.792969c.855468 0 1.730468-.109375 2.597656-.34375l120.527344-32.296875c5.335937-1.425782 8.5-6.910156 7.070312-12.246094-1.429688-5.332031-6.910156-8.5-12.246094-7.066406l-120.527344 32.296875c-5.335937 1.425781-8.5 6.910156-7.070312 12.242187 1.195312 4.46875 5.234375 7.414063 9.648438 7.414063zm0 0"/><path d="m504.585938 185.785156-120.527344-32.292968c-5.335938-1.433594-10.816406 1.734374-12.246094 7.066406-1.429688 5.335937 1.734375 10.816406 7.070312 12.246094l120.527344 32.296874c.867188.230469 1.738282.34375 2.597656.34375 4.414063 0 8.453126-2.949218 9.648438-7.414062 1.429688-5.332031-1.734375-10.816406-7.070312-12.246094zm0 0"/><path d="m7.414062 76.152344 120.527344 32.296875c.867188.234375 1.738282.34375 2.597656.34375 4.414063 0 8.453126-2.945313 9.648438-7.414063 1.429688-5.332031-1.734375-10.8125-7.070312-12.242187l-120.527344-32.296875c-5.335938-1.433594-10.816406 1.734375-12.246094 7.066406-1.429688 5.335938 1.734375 10.820312 7.070312 12.246094zm0 0"/><path d="m9.992188 205.445312c.855468 0 1.730468-.113281 2.597656-.34375l120.527344-32.296874c5.335937-1.429688 8.5-6.910157 7.070312-12.246094-1.429688-5.332032-6.910156-8.5-12.246094-7.066406l-120.527344 32.292968c-5.335937 1.429688-8.5 6.914063-7.070312 12.246094 1.195312 4.464844 5.234375 7.414062 9.648438 7.414062zm0 0"/></svg>