<svg height="512pt" viewBox="0 -20 512 512" width="512pt" xmlns="http://www.w3.org/2000/svg"><path d="m502 172c5.523438 0 10-4.476562 10-10v-112c0-5.523438-4.476562-10-10-10h-17v-17c0-12.683594-10.316406-23-23-23h-14c-12.683594 0-23 10.316406-23 23v17h-338v-17c0-12.683594-10.316406-23-23-23h-14c-12.683594 0-23 10.316406-23 23v17h-17c-5.523438 0-10 4.476562-10 10v112c0 5.523438 4.476562 10 10 10h17v36h-17c-5.523438 0-10 4.476562-10 10v112c0 5.523438 4.476562 10 10 10h17v112h-17c-5.523438 0-10 4.476562-10 10s4.476562 10 10 10h94c5.523438 0 10-4.476562 10-10s-4.476562-10-10-10h-17v-112h378v112h-20v-32c0-5.523438-4.476562-10-10-10s-10 4.476562-10 10v32h-17c-5.523438 0-10 4.476562-10 10s4.476562 10 10 10h94c5.523438 0 10-4.476562 10-10s-4.476562-10-10-10h-17v-112h17c5.523438 0 10-4.476562 10-10v-112c0-5.523438-4.476562-10-10-10h-17v-36zm-10-20h-123.941406l92-92h31.941406zm-205.191406 168 92-92h52.964844l-92 92zm-125.332032 0 92-92h97.046876l-92 92zm-81.25 0 92-92h52.964844l-92 92zm6.773438-112v-36h338v36zm138.191406-148-92 92h-52.964844l92-92zm125.332032 0-92 92h-97.046876l92-92zm81.25 0-92 92h-52.964844l92-92zm13.226562-37c0-1.652344 1.347656-3 3-3h14c1.652344 0 3 1.347656 3 3v17h-20zm-398 0c0-1.652344 1.347656-3 3-3h14c1.652344 0 3 1.347656 3 3v17h-20zm-27 37h123.941406l-92 92h-31.941406zm27 112h20v36h-20zm-27 56h123.941406l-92 92h-31.941406zm47 224h-20v-112h20zm425-132h-123.941406l92-92h31.941406zm-27-112h-20v-36h20zm0 0"/><path d="m435 385c2.628906 0 5.210938-1.070312 7.070312-2.929688 1.859376-1.859374 2.929688-4.441406 2.929688-7.070312s-1.070312-5.210938-2.929688-7.070312c-1.859374-1.859376-4.441406-2.929688-7.070312-2.929688s-5.210938 1.070312-7.070312 2.929688c-1.859376 1.859374-2.929688 4.441406-2.929688 7.070312s1.070312 5.210938 2.929688 7.070312c1.859374 1.859376 4.441406 2.929688 7.070312 2.929688zm0 0"/></svg>