<svg height="511pt" viewBox="1 -16 511.99954 511" width="511pt" xmlns="http://www.w3.org/2000/svg"><path d="m497.992188 211.339844c5.058593 2.210937 10.957031-.09375 13.167968-5.15625 2.210938-5.0625-.097656-10.957032-5.15625-13.167969-32.769531-14.328125-80.003906-46.964844-80.003906-82.515625 0-32.019531 0-68.558594 0-100 0-5.523438-4.480469-10-10-10-5.523438 0-10 4.476562-10 10v30h-20v-30c0-5.523438-4.480469-10-10-10-5.523438 0-10 4.476562-10 10v80c0 59.945312-48.59375 109.996094-110 109.996094-61.402344 0-110-50.046875-110-109.996094 0-9.679688 0-70.257812 0-80 0-5.523438-4.476562-10-10-10s-10 4.476562-10 10v30h-20v-30c0-5.523438-4.476562-10-10-10s-10 4.476562-10 10v100c0 35.578125-47.296875 68.210938-80.003906 82.515625-5.058594 2.210937-7.367188 8.109375-5.15625 13.167969 2.214844 5.070312 8.117187 7.367187 13.167968 5.15625 3.941407-1.722656 7.972657-3.648438 11.996094-5.710938v74.867188h-16c-5.523437 0-9.99999975 4.480468-9.99999975 10v40c0 5.523437 4.47656275 10 9.99999975 10h76v61.636718c-3.992187-.984374-8.339844-1.636718-13-1.636718-14.101562 0-25.742187 5.882812-36.011718 11.074218-9.082032 4.589844-17.65625 8.925782-26.988282 8.925782-5.523437 0-9.99999975 4.480468-9.99999975 10 0 5.523437 4.47656275 10 9.99999975 10 14.097656 0 25.738282-5.882813 36.011719-11.074219 9.078125-4.589844 17.65625-8.925781 26.988281-8.925781 20 0 36.714844 20 62.996094 20 14.273438 0 25.179688-5.964844 34.800781-11.226563 8.605469-4.707031 16.039063-8.773437 25.199219-8.773437s16.59375 4.066406 25.203125 8.773437c9.621094 5.261719 20.527344 11.226563 34.796875 11.226563 14.273438 0 25.175781-5.964844 34.796875-11.226563 8.609375-4.707031 16.042969-8.773437 25.203125-8.773437s16.59375 4.066406 25.203125 8.773437c9.621094 5.261719 20.527344 11.226563 34.796875 11.226563 14.109375 0 25.761719-5.890625 36.042969-11.089844 8.730469-4.414062 17.5625-8.910156 26.957031-8.910156 9.328125 0 17.90625 4.335937 26.988281 8.925781 10.269531 5.191406 21.910157 11.074219 36.011719 11.074219 5.519531 0 10-4.476563 10-10 0-5.519532-4.480469-10-10-10-9.332031 0-17.910156-4.335938-26.992188-8.925782-10.269531-5.191406-21.910156-11.074218-36.007812-11.074218-4.660156 0-9.007812.652344-13 1.636718v-61.636718h76c5.519531 0 10-4.476563 10-10v-40c0-5.519532-4.480469-10-10-10h-16v-74.867188c4.019531 2.0625 8.050781 3.988282 11.992188 5.710938zm-111.992188-50.839844h20v79.996094h-20zm20-20h-20v-80h20zm-40 19.140625v120.855469h-40v-80.460938c16.34375-10.46875 29.917969-24.347656 40-40.394531zm-100 120.855469v-60.398438c13.789062-1.0625 27.300781-4.296875 40-9.582031v69.980469zm-60 0v-69.980469c12.695312 5.285156 26.210938 8.519531 40 9.582031v60.398438zm-20-80.460938v80.460938h-40v-120.851563c10.078125 16.042969 23.65625 29.921875 40 40.390625zm-80-39.535156h20v79.996094h-20zm20-20h-20v-80h20zm-80 53.578125c14.734375-9.527344 28.984375-21.117187 40-34.5v120.917969h-40zm-25.996094 126.417969v-20h65.996094v20zm85.996094 89.566406v-149.566406h20v158.457031c-6.660156-1.953125-13.234375-5.507813-20-8.890625zm210-9.566406c-14.273438 0-25.175781 5.964844-34.796875 11.226562-8.609375 4.707032-16.042969 8.773438-25.203125 8.773438s-16.59375-4.066406-25.203125-8.773438c-9.621094-5.261718-20.527344-11.226562-34.796875-11.226562s-25.175781 5.964844-34.796875 11.226562c-5.285156 2.890625-10.128906 5.535156-15.203125 7.148438v-78.375h65c5.523438 0 10-4.476563 10-10 0-5.519532-4.476562-10-10-10h-65v-20h220v20h-65c-5.523438 0-10 4.480468-10 10 0 5.523437 4.476562 10 10 10h65v78.375c-5.074219-1.613282-9.917969-4.257813-15.203125-7.148438-9.621094-5.261718-20.527344-11.226562-34.796875-11.226562zm70 18.457031v-158.457031h20v149.566406c-6.738281 3.367188-13.382812 6.949219-20 8.890625zm105.996094-98.457031h-65.996094v-20h65.996094zm-65.996094-40v-120.914063c.550781.671875 1.097656 1.34375 1.675781 2.015625 11.871094 13.820313 26.5 24.835938 38.320313 32.480469v86.417969zm0 0"/><path d="m266 330.496094c0 5.523437-4.476562 10-10 10s-10-4.476563-10-10c0-5.523438 4.476562-10 10-10s10 4.476562 10 10zm0 0"/><path d="m501.996094 460.496094c-9.328125 0-17.90625-4.335938-26.988282-8.925782-10.269531-5.191406-21.910156-11.074218-36.011718-11.074218-14.097656 0-25.738282 5.882812-36.007813 11.074218-9.082031 4.589844-17.660156 8.925782-26.988281 8.925782-9.160156 0-16.59375-4.066406-25.203125-8.773438-9.621094-5.261718-20.527344-11.226562-34.796875-11.226562-14.273438 0-25.175781 5.964844-34.796875 11.226562-8.609375 4.707032-16.042969 8.773438-25.203125 8.773438s-16.59375-4.066406-25.203125-8.773438c-9.621094-5.261718-20.527344-11.226562-34.796875-11.226562s-25.175781 5.964844-34.796875 11.226562c-8.609375 4.707032-16.042969 8.773438-25.203125 8.773438-9.332031 0-17.90625-4.335938-26.988281-8.925782-10.269531-5.191406-21.910157-11.074218-36.011719-11.074218-14.097656 0-25.738281 5.882812-36.007812 11.074218-9.082032 4.589844-17.660157 8.925782-26.988282 8.925782-5.523437 0-9.99999975 4.476562-9.99999975 10 0 5.519531 4.47656275 10 9.99999975 10 14.097656 0 25.738282-5.886719 36.007813-11.074219 9.082031-4.589844 17.660156-8.925781 26.988281-8.925781 9.332031 0 17.910156 4.335937 26.992188 8.925781 10.269531 5.1875 21.910156 11.074219 36.007812 11.074219 14.273438 0 25.175781-5.964844 34.796875-11.226563 8.609375-4.710937 16.042969-8.773437 25.203125-8.773437s16.59375 4.0625 25.203125 8.773437c9.621094 5.261719 20.527344 11.226563 34.796875 11.226563s25.175781-5.964844 34.796875-11.226563c8.609375-4.710937 16.042969-8.773437 25.203125-8.773437 9.15625 0 16.59375 4.0625 25.199219 8.773437 9.621093 5.261719 20.527343 11.226563 34.800781 11.226563 14.097656 0 25.738281-5.886719 36.007812-11.074219 9.082032-4.589844 17.660157-8.925781 26.988282-8.925781 9.332031 0 17.910156 4.335937 26.992187 8.925781 10.269531 5.1875 21.910157 11.074219 36.007813 11.074219 5.523437 0 10-4.480469 10-10 0-5.523438-4.476563-10-10-10zm0 0"/></svg>