<svg height="512pt" viewBox="0 0 512 512" width="512pt" xmlns="http://www.w3.org/2000/svg"><path d="m266 50c0 5.523438-4.476562 10-10 10s-10-4.476562-10-10 4.476562-10 10-10 10 4.476562 10 10zm0 0"/><path d="m206 170h20v20c0 5.523438 4.476562 10 10 10h40c5.523438 0 10-4.476562 10-10v-20h20c5.523438 0 10-4.476562 10-10v-40c0-5.523438-4.476562-10-10-10h-20v-20c0-5.523438-4.476562-10-10-10h-40c-5.523438 0-10 4.476562-10 10v20h-20c-5.523438 0-10 4.476562-10 10v40c0 5.523438 4.476562 10 10 10zm10-40h20c5.523438 0 10-4.476562 10-10v-20h20v20c0 5.523438 4.476562 10 10 10h20v20h-20c-5.523438 0-10 4.476562-10 10v20h-20v-20c0-5.523438-4.476562-10-10-10h-20zm0 0"/><path d="m502 200h-90v-140h10c5.523438 0 10-4.476562 10-10v-40c0-5.523438-4.476562-10-10-10h-332c-5.523438 0-10 4.476562-10 10v40c0 5.523438 4.476562 10 10 10h10v140h-90c-5.523438 0-10 4.476562-10 10v40c0 5.523438 4.476562 10 10 10h10v232h-10c-5.523438 0-10 4.476562-10 10s4.476562 10 10 10h492c5.523438 0 10-4.476562 10-10s-4.476562-10-10-10h-10v-232h10c5.523438 0 10-4.476562 10-10v-40c0-5.523438-4.476562-10-10-10zm-291-140c5.523438 0 10-4.476562 10-10s-4.476562-10-10-10h-111v-20h312v20h-111c-5.523438 0-10 4.476562-10 10s4.476562 10 10 10h91v432h-46v-102c0-5.523438-4.476562-10-10-10h-160c-5.523438 0-10 4.476562-10 10v102h-46v-432zm55 340h60v92h-60zm-20 92h-60v-92h60zm-226-272h80v20h-80zm20 160h20v20h-20zm0-80h20v20h-20zm0 120h30c5.523438 0 10-4.476562 10-10v-40c0-5.523438-4.476562-10-10-10h-30v-20h30c5.523438 0 10-4.476562 10-10v-40c0-5.523438-4.476562-10-10-10h-30v-20h60v232h-60zm432-100h-20v-20h20zm0 80h-20v-20h20zm0-120h-30c-5.523438 0-10 4.476562-10 10v40c0 5.523438 4.476562 10 10 10h30v20h-30c-5.523438 0-10 4.476562-10 10v40c0 5.523438 4.476562 10 10 10h30v72h-60v-232h60zm20-40h-80v-20h80zm0 0"/><path d="m176 360h160c5.523438 0 10-4.476562 10-10v-40c0-5.523438-4.476562-10-10-10h-160c-5.523438 0-10 4.476562-10 10v40c0 5.523438 4.476562 10 10 10zm150-20h-60v-20h60zm-140-20h60v20h-60zm0 0"/><path d="m176 280h160c5.523438 0 10-4.476562 10-10v-40c0-5.523438-4.476562-10-10-10h-160c-5.523438 0-10 4.476562-10 10v40c0 5.523438 4.476562 10 10 10zm150-20h-60v-20h60zm-140-20h60v20h-60zm0 0"/></svg>