<svg height="512pt" viewBox="0 -106 512 512" width="512pt" xmlns="http://www.w3.org/2000/svg"><path d="m431.992188 140.011719h-13.765626c16.640626-14.671875 27.171876-36.125 27.171876-60.003907 0-44.117187-35.890626-80.007812-80.007813-80.007812h-30.363281c-5.523438 0-10 4.476562-10 10s4.476562 10 10 10h30.363281c33.085937 0 60.003906 26.917969 60.003906 60.007812 0 33.085938-26.917969 60.003907-60.003906 60.003907h-159.078125c1.25-1.105469 2.484375-2.242188 3.675781-3.433594 31.191407-31.195313 31.191407-81.949219 0-113.144531-1.195312-1.195313-2.429687-2.328125-3.679687-3.433594h38.710937c5.523438 0 10-4.476562 10-10s-4.476562-10-10-10h-91.605469c-.371093 0-.738281.0234375-1.101562.0625-20.117188.277344-40.152344 8.054688-55.46875 23.371094-31.195312 31.195312-31.195312 81.949218 0 113.144531 1.191406 1.195313 2.425781 2.328125 3.675781 3.433594h-20.5c-.003906 0-.003906 0-.003906 0-.003906 0-.007813 0-.007813 0-44.117187 0-80.007812 35.890625-80.007812 80.007812 0 44.113281 35.890625 80.003907 80.007812 80.003907h.007813.003906 351.972657c44.117187 0 80.007812-35.890626 80.007812-80.003907 0-44.117187-35.890625-80.007812-80.007812-80.007812zm-151.96875 80.003906c0 33.089844-26.917969 60.007813-60.007813 60.007813-33.085937 0-60.003906-26.917969-60.003906-60.007813 0-33.085937 26.917969-60.003906 60.003906-60.003906 33.089844 0 60.007813 26.917969 60.007813 60.003906zm-126.609376-60.003906h13.769532c-6.871094 6.058593-12.699219 13.265625-17.171875 21.328125-4.472657-8.0625-10.300781-15.269532-17.167969-21.328125zm-42.429687-37.574219c-23.394531-23.398438-23.394531-61.464844 0-84.859375 11.699219-11.699219 27.0625-17.546875 42.429687-17.546875 15.363282 0 30.734376 5.851562 42.429688 17.546875 23.394531 23.394531 23.394531 61.460937 0 84.859375-11.332031 11.332031-26.402344 17.574219-42.429688 17.574219-16.027343 0-31.09375-6.242188-42.429687-17.574219zm-90.984375 97.578125c0-33.085937 26.917969-60.003906 60.007812-60.003906 33.085938 0 60.003907 26.917969 60.003907 60.003906 0 33.089844-26.917969 60.007813-60.003907 60.007813-33.089843 0-60.007812-26.917969-60.007812-60.007813zm112.839844 60.007813c6.871094-6.058594 12.699218-13.265626 17.171875-21.328126 4.472656 8.0625 10.300781 15.269532 17.171875 21.328126zm299.152344 0h-159.140626c16.644532-14.671876 27.171876-36.128907 27.171876-60.007813s-10.53125-45.332031-27.171876-60.003906h159.140626c33.089843 0 60.007812 26.917969 60.007812 60.003906 0 33.089844-26.917969 60.007813-60.007812 60.007813zm0 0"/><path d="m153.414062 40.003906c-22.058593 0-40.003906 17.945313-40.003906 40.003906 0 22.054688 17.945313 40 40.003906 40 22.058594 0 40.003907-17.945312 40.003907-40 0-22.058593-17.945313-40.003906-40.003907-40.003906zm0 60.003906c-11.027343 0-20-8.972656-20-20 0-11.03125 8.972657-20.003906 20-20.003906 11.03125 0 20.003907 8.972656 20.003907 20.003906 0 11.027344-8.972657 20-20.003907 20zm0 0"/><path d="m220.015625 260.019531c22.058594 0 40.003906-17.945312 40.003906-40.003906 0-22.054687-17.945312-40-40.003906-40-22.054687 0-40 17.945313-40 40 0 22.058594 17.945313 40.003906 40 40.003906zm0-60.003906c11.03125 0 20.003906 8.972656 20.003906 20 0 11.03125-8.972656 20.003906-20.003906 20.003906-11.027344 0-20-8.972656-20-20.003906 0-11.027344 8.972656-20 20-20zm0 0"/><path d="m120.007812 220.015625c0-22.054687-17.945312-40-40-40-22.058593 0-40.003906 17.945313-40.003906 40 0 22.058594 17.945313 40.003906 40.003906 40.003906 22.054688 0 40-17.945312 40-40.003906zm-60.003906 0c0-11.027344 8.972656-20 20.003906-20 11.027344 0 20 8.972656 20 20 0 11.03125-8.972656 20.003906-20 20.003906-11.03125 0-20.003906-8.972656-20.003906-20.003906zm0 0"/><path d="m290.023438 20c2.628906 0 5.210937-1.070312 7.070312-2.929688 1.859375-1.859374 2.929688-4.4375 2.929688-7.070312 0-2.628906-1.070313-5.210938-2.929688-7.070312-1.859375-1.859376-4.441406-2.929688-7.070312-2.929688-2.632813 0-5.210938 1.070312-7.070313 2.929688-1.859375 1.859374-2.929687 4.441406-2.929687 7.070312 0 2.632812 1.070312 5.210938 2.929687 7.070312 1.859375 1.859376 4.4375 2.929688 7.070313 2.929688zm0 0"/></svg>