<svg height="512pt" viewBox="0 0 512 512" width="512pt" xmlns="http://www.w3.org/2000/svg"><path d="m472 66h-20v-36c0-16.542969-13.457031-30-30-30h-116c-16.542969 0-30 13.457031-30 30v462h-75c-5.523438 0-10 4.476562-10 10s4.476562 10 10 10h301c5.523438 0 10-4.476562 10-10s-4.476562-10-10-10h-206v-166h46v20c0 5.523438 4.476562 10 10 10s10-4.476562 10-10v-60c0-5.523438-4.476562-10-10-10s-10 4.476562-10 10v20h-46v-276c0-5.515625 4.484375-10 10-10h116c5.515625 0 10 4.484375 10 10v36h-20c-22.054688 0-40 17.945312-40 40v30c0 5.523438 4.476562 10 10 10h120c5.523438 0 10-4.476562 10-10v-30c0-22.054688-17.945312-40-40-40zm20 60h-100v-20c0-11.027344 8.972656-20 20-20h60c11.027344 0 20 8.972656 20 20zm0 0"/><path d="m136 186c-5.523438 0-10 4.476562-10 10v30c0 5.523438 4.476562 10 10 10s10-4.476562 10-10v-30c0-5.523438-4.476562-10-10-10zm0 0"/><path d="m176 316v-30c0-5.523438-4.476562-10-10-10s-10 4.476562-10 10v30c0 5.523438 4.476562 10 10 10s10-4.476562 10-10zm0 0"/><path d="m206 226v-30c0-5.523438-4.476562-10-10-10s-10 4.476562-10 10v30c0 5.523438 4.476562 10 10 10s10-4.476562 10-10zm0 0"/><path d="m402 196v30c0 5.523438 4.476562 10 10 10s10-4.476562 10-10v-30c0-5.523438-4.476562-10-10-10s-10 4.476562-10 10zm0 0"/><path d="m432 286v30c0 5.523438 4.476562 10 10 10s10-4.476562 10-10v-30c0-5.523438-4.476562-10-10-10s-10 4.476562-10 10zm0 0"/><path d="m462 196v30c0 5.523438 4.476562 10 10 10s10-4.476562 10-10v-30c0-5.523438-4.476562-10-10-10s-10 4.476562-10 10zm0 0"/><path d="m166 502c0 5.523438-4.476562 10-10 10s-10-4.476562-10-10 4.476562-10 10-10 10 4.476562 10 10zm0 0"/><path d="m10 512h101c5.523438 0 10-4.476562 10-10s-4.476562-10-10-10h-91v-166h46v20c0 5.523438 4.476562 10 10 10s10-4.476562 10-10v-60c0-5.523438-4.476562-10-10-10s-10 4.476562-10 10v20h-46v-276c0-5.515625 4.484375-10 10-10h116c5.515625 0 10 4.484375 10 10v36h-20c-22.054688 0-40 17.945312-40 40v30c0 5.523438 4.476562 10 10 10h120c5.523438 0 10-4.476562 10-10v-30c0-22.054688-17.945312-40-40-40h-20v-36c0-16.542969-13.457031-30-30-30h-116c-16.542969 0-30 13.457031-30 30v472c0 5.523438 4.476562 10 10 10zm206-406v20h-100v-20c0-11.027344 8.972656-20 20-20h60c11.027344 0 20 8.972656 20 20zm0 0"/></svg>