<svg height="512pt" viewBox="0 0 512 512" width="512pt" xmlns="http://www.w3.org/2000/svg"><path d="m437.019531 74.980469c-48.351562-48.351563-112.640625-74.980469-181.019531-74.980469s-132.667969 26.628906-181.019531 74.980469c-48.351563 48.351562-74.980469 112.640625-74.980469 181.019531s26.628906 132.667969 74.980469 181.019531c48.351562 48.351563 112.640625 74.980469 181.019531 74.980469s132.667969-26.628906 181.019531-74.980469c48.351563-48.351562 74.980469-112.640625 74.980469-181.019531s-26.628906-132.667969-74.980469-181.019531zm-14.140625 347.898437c-44.574218 44.574219-103.839844 69.121094-166.878906 69.121094s-122.304688-24.546875-166.878906-69.121094c-44.574219-44.574218-69.121094-103.839844-69.121094-166.878906s24.546875-122.304688 69.121094-166.878906c44.574218-44.574219 103.839844-69.121094 166.878906-69.121094s122.304688 24.546875 166.878906 69.121094c44.574219 44.574218 69.121094 103.839844 69.121094 166.878906s-24.546875 122.304688-69.121094 166.878906zm0 0"/><path d="m256 40c-119.101562 0-216 96.898438-216 216 0 .457031.007812.910156.015625 1.363281l.011719.679688c.058594 5.484375 4.523437 9.894531 9.996094 9.894531h.109374c5.519532-.058594 9.949219-4.582031 9.890626-10.105469l-.011719-.820312c-.003907-.335938-.011719-.671875-.011719-1.011719 0-108.074219 87.925781-196 196-196s196 87.925781 196 196-87.925781 196-196 196c-37.472656 0-73.917969-10.65625-105.394531-30.816406-30.664063-19.640625-55.246094-47.292969-71.089844-79.972656-2.410156-4.972657-8.398437-7.046876-13.363281-4.636719-4.96875 2.410156-7.042969 8.390625-4.632813 13.359375 17.453125 36 44.527344 66.460937 78.296875 88.089844 34.707032 22.226562 74.882813 33.976562 116.183594 33.976562 119.101562 0 216-96.898438 216-216s-96.898438-216-216-216zm0 0"/><path d="m131.261719 356.800781c1.859375 2.734375 4.957031 4.371094 8.265625 4.371094h42c4.046875 0 7.699218-2.445313 9.242187-6.191406 16.007813-38.8125 57.742188-139.941407 59.914063-144.945313.621094-1.320312.953125-2.773437.953125-4.253906v-39.222656c0-5.519532-4.480469-10-10-10h-111.492188c-5.519531 0-10 4.480468-10 10v40c0 5.523437 4.480469 10 10 10h51.589844l-51.515625 130.949218c-1.210938 3.082032-.820312 6.558594 1.042969 9.292969zm118.859375-145.734375c-.152344.246094-.324219.503906-.535156.777344.191406-.25.367187-.511719.535156-.777344zm.507812-.914062c-.109375.226562-.265625.519531-.464844.84375.167969-.273438.324219-.554688.464844-.84375zm-44.90625.070312c1.210938-3.078125.820313-6.558594-1.042968-9.292968-1.863282-2.734376-4.957032-4.367188-8.265626-4.367188h-56.269531v-20h91.488281v27.273438c-1.433593 3.304687-3.941406 9.355468-8.75 20.972656-5.648437 13.644531-13.152343 31.8125-20.652343 49.96875-11.257813 27.269531-22.5 54.515625-27.398438 66.394531h-20.628906zm0 0"/><path d="m344.542969 156.722656c-1.808594-.109375-3.34375-.160156-4.828125-.160156-42.601563 0-77.261719 34.65625-77.261719 77.257812v50.089844c0 42.601563 34.660156 77.261719 77.261719 77.261719 42.601562 0 77.261718-34.660156 77.261718-77.261719v-50.089844c0-3.632812-.269531-7.34375-.800781-11.035156-.785156-5.464844-5.855469-9.25-11.324219-8.472656-5.464843.789062-9.257812 5.859375-8.472656 11.324219.394532 2.746093.597656 5.5.597656 8.183593v50.089844c0 31.574219-25.6875 57.261719-57.261718 57.261719-31.574219 0-57.261719-25.6875-57.261719-57.261719v-50.089844c0-31.574218 25.6875-57.257812 57.261719-57.257812 1.0625 0 2.207031.039062 3.601562.125 5.5.320312 10.253906-3.855469 10.59375-9.367188.339844-5.511718-3.851562-10.257812-9.367187-10.597656zm0 0"/><path d="m339.714844 196.5625c-20.542969 0-37.261719 16.714844-37.261719 37.257812v50.089844c0 20.546875 16.71875 37.261719 37.261719 37.261719 20.546875 0 37.261718-16.714844 37.261718-37.261719v-50.089844c0-20.546874-16.714843-37.257812-37.261718-37.257812zm17.261718 87.347656c0 9.515625-7.742187 17.261719-17.261718 17.261719-9.515625 0-17.261719-7.746094-17.261719-17.261719v-50.089844c0-9.515624 7.746094-17.261718 17.261719-17.261718 9.519531 0 17.261718 7.746094 17.261718 17.261718zm0 0"/><path d="m377.640625 190.148438c2.25 3.4375 6.601563 5.132812 10.589844 4.191406 4.042969-.953125 7.167969-4.425782 7.652343-8.5625.480469-4.105469-1.683593-8.179688-5.363281-10.0625-3.71875-1.90625-8.347656-1.265625-11.40625 1.585937-3.527343 3.296875-4.140625 8.839844-1.472656 12.847657zm0 0"/><path d="m62.851562 311.628906c2.988282-2.988281 3.773438-7.699218 1.898438-11.492187-1.863281-3.773438-6.03125-6.035157-10.214844-5.503907-4.039062.515626-7.464844 3.53125-8.449218 7.488282-1.007813 4.042968.660156 8.441406 4.144531 10.75 3.921875 2.597656 9.28125 2.097656 12.621093-1.242188zm0 0"/></svg>