<svg height="512pt" viewBox="-36 0 512 512" width="512pt" xmlns="http://www.w3.org/2000/svg"><path d="m210.179688 480.957031c-15.808594 7.328125-32.691407 11.042969-50.179688 11.042969-31.949219 0-62.054688-12.511719-84.773438-35.230469-22.714843-22.714843-35.226562-52.820312-35.226562-84.769531v-212c0-5.523438-4.476562-10-10-10s-10 4.476562-10 10v212c0 37.292969 14.589844 72.421875 41.085938 98.914062 26.492187 26.496094 61.621093 41.085938 98.914062 41.085938 20.414062 0 40.128906-4.339844 58.589844-12.898438 5.011718-2.320312 7.191406-8.265624 4.867187-13.277343-2.324219-5.007813-8.269531-7.1875-13.277343-4.867188zm0 0"/><path d="m430 96h-40c-5.523438 0-10 4.476562-10 10v10.265625c-46.847656 2.433594-90.640625 21.921875-124.226562 55.507813-33.585938 33.585937-53.078126 77.378906-55.507813 124.226562h-10.265625c-5.523438 0-10 4.476562-10 10v40c0 5.523438 4.476562 10 10 10h10v16c0 10.589844-4.1875 20.609375-11.789062 28.210938-7.605469 7.601562-17.621094 11.789062-28.210938 11.789062s-20.609375-4.1875-28.210938-11.789062c-7.601562-7.601563-11.789062-17.621094-11.789062-28.210938v-312h10c5.523438 0 10-4.476562 10-10v-40c0-5.523438-4.476562-10-10-10h-120c-5.523438 0-10 4.476562-10 10v40c0 5.523438 4.476562 10 10 10h10v10c0 5.523438 4.476562 10 10 10s10-4.476562 10-10v-10h60v312c0 15.933594 6.269531 30.972656 17.648438 42.351562 11.378906 11.378907 26.417968 17.648438 42.351562 17.648438 15.929688 0 30.972656-6.265625 42.351562-17.648438 11.382813-11.378906 17.648438-26.421874 17.648438-42.351562v-16h60v16c0 17.492188-3.71875 34.378906-11.046875 50.1875-2.320313 5.011719-.144531 10.957031 4.867187 13.277344 1.359376.632812 2.792969.929687 4.199219.929687 3.773438 0 7.386719-2.144531 9.078125-5.796875 8.5625-18.460937 12.902344-38.175781 12.902344-58.597656v-16h10c5.523438 0 10-4.476562 10-10v-40c0-5.523438-4.476562-10-10-10h-9.425781c2.246093-20.132812 11.234375-38.851562 25.902343-53.523438 14.667969-14.667968 33.390626-23.652343 53.523438-25.902343v9.425781c0 5.523438 4.476562 10 10 10h40c5.519531 0 10-4.476562 10-10v-120c0-5.523438-4.480469-10-10-10zm-410-76h100v20h-100zm280 316h-100v-20h100zm12.335938-107.664062c-18.457032 18.457031-29.566407 42.183593-31.878907 67.664062h-60.15625c2.414063-41.503906 19.808594-80.28125 49.613281-110.085938 29.804688-29.804687 68.582032-47.199218 110.082032-49.613281v60.160157c-25.476563 2.308593-49.207032 13.417968-67.660156 31.875zm107.664062-12.335938h-20v-100h20zm0 0"/><path d="m30 125.003906c5.523438 0 10-4.476562 10-10v-.007812c0-5.523438-4.476562-9.996094-10-9.996094s-10 4.480469-10 10.003906c0 5.523438 4.476562 10 10 10zm0 0"/><path d="m244.765625 456.777344c-3.902344 3.90625-3.902344 10.238281 0 14.144531 1.953125 1.953125 4.511719 2.925781 7.074219 2.925781 2.558594 0 5.117187-.976562 7.070312-2.925781l.003906-.007813c3.90625-3.902343 3.902344-10.234374-.003906-14.136718-3.902344-3.90625-10.238281-3.902344-14.144531 0zm0 0"/></svg>