<svg height="512pt" viewBox="-26 0 512 512" width="512pt" xmlns="http://www.w3.org/2000/svg"><path d="m430 202.003906h-70v-30c0-5.523437-4.480469-10-10-10h-60c-5.523438 0-10 4.476563-10 10v30h-20v-132.003906c0-2.628906 1.050781-5.128906 2.957031-7.039062 1.910157-1.910157 4.410157-2.960938 7.039063-2.960938 2.632812 0 5.132812 1.050781 7.039062 2.960938 1.910156 1.910156 2.960938 4.410156 2.960938 7.039062v43.027344c0 5.523437 4.480468 10 10 10h40.003906c5.519531 0 10-4.476563 10-10v-43.027344c0-18.652344-7.296875-36.21875-20.539062-49.460938-13.242188-13.246093-30.808594-20.539062-49.464844-20.539062-18.652344 0-36.214844 7.292969-49.457032 20.539062-13.246093 13.242188-20.539062 30.808594-20.539062 49.460938 0 5.523438 4.476562 10 10 10s10-4.476562 10-10c0-13.308594 5.214844-25.851562 14.679688-35.320312 9.464843-9.464844 22.007812-14.679688 35.316406-14.679688 13.3125 0 25.855468 5.214844 35.320312 14.679688 9.46875 9.46875 14.683594 22.011718 14.683594 35.320312v33.027344h-20.003906v-33.027344c0-7.972656-3.128906-15.492188-8.816406-21.179688s-13.210938-8.820312-21.183594-8.820312c-7.96875 0-15.488282 3.132812-21.179688 8.820312-5.6875 5.6875-8.816406 13.207032-8.816406 21.179688v132h-20v-42c0-5.523438-4.476562-10-10-10s-10 4.476562-10 10v42.003906h-20v-30c0-5.523437-4.480469-10-10-10h-60c-5.523438 0-10 4.476563-10 10v30h-70c-16.542969 0-30 13.457032-30 30v20c0 5.519532 4.476562 10 10 10h10v29.996094c0 49.625 40.375 90 90 90h50v10c0 13.035156 8.359375 24.152344 20 28.28125v41.71875c0 27.570312 22.429688 50 50 50 27.566406 0 49.996094-22.429688 49.996094-50v-41.71875c11.640625-4.128906 20-15.242188 20-28.28125v-10h50c49.628906 0 90.003906-40.375 90.003906-90v-29.996094h10c5.519531 0 10-4.480468 10-10v-20c0-16.542968-13.460938-30-30-30zm-130-20h40v20h-40zm-180 0h40v20h-40zm80 199.996094v20h-10c-5.515625 0-10-4.484375-10-10v-10zm20 20v-20h20.003906v20zm10 90c-16.542969 0-30-13.457031-30-30v-40h60v40c-.003906 16.542969-13.460938 30-30 30zm49.996094-100c0 5.515625-4.484375 10-9.996094 10h-9.996094v-20h19.992188zm140.003906-100c0 38.597656-31.402344 70-70.003906 70h-239.996094c-38.597656 0-70-31.402344-70-70v-29.996094h379.996094v29.996094zm20-49.996094h-420v-10c0-5.515625 4.484375-10 10-10h400c5.511719 0 10 4.484375 10 10zm0 0"/><path d="m335 302.003906h54.996094c5.523437 0 10-4.476562 10-10 0-5.523437-4.476563-10-10-10h-54.996094c-5.519531 0-10 4.476563-10 10 0 5.523438 4.480469 10 10 10zm0 0"/><path d="m290.003906 302.003906c5.523438 0 10-4.476562 10-10 0-5.523437-4.476562-10-10-10h-.007812c-5.519532 0-9.996094 4.476563-9.996094 10 0 5.523438 4.484375 10 10.003906 10zm0 0"/><path d="m210 125.003906c5.523438 0 10-4.476562 10-10v-.007812c0-5.523438-4.476562-9.996094-10-9.996094s-10 4.480469-10 10.003906c0 5.523438 4.476562 10 10 10zm0 0"/></svg>