<svg height="512pt" viewBox="0 0 512.002 512" width="512pt" xmlns="http://www.w3.org/2000/svg"><path d="m503.238281 164.328125-155.5625-155.5625c-5.652343-5.652344-13.183593-8.765625-21.214843-8.765625-8.027344 0-15.5625 3.113281-21.210938 8.765625-9.296875 9.292969-11.195312 23.214844-5.71875 34.414063-19.035156 21.832031-29.429688 49.476562-29.429688 78.71875 0 20.019531 4.867188 39.289062 14.046876 56.457031l-204.660157 204.660156c-3.90625 3.90625-3.90625 10.238281 0 14.144531 1.953125 1.953125 4.511719 2.925782 7.070313 2.925782s5.117187-.972657 7.070312-2.925782l201.667969-201.667968c3.058594 3.925781 6.378906 7.6875 9.953125 11.261718 3.574219 3.574219 7.335938 6.894532 11.257812 9.953125l-275.304687 275.304688-21.214844-21.214844 10.003907-10c3.902343-3.902344 3.902343-10.234375 0-14.140625-3.90625-3.90625-10.238282-3.90625-14.144532 0l-10 10c-7.796875 7.800781-7.796875 20.488281 0 28.285156l21.214844 21.210938c3.769531 3.773437 8.792969 5.847656 14.140625 5.847656 5.351563 0 10.375-2.074219 14.144531-5.847656l278.296875-278.296875c17.171875 9.175781 36.441407 14.042969 56.457031 14.042969 29.242188 0 56.886719-10.394532 78.71875-29.425782 4.054688 1.988282 8.546876 3.042969 13.207032 3.042969 8.027344 0 15.5625-3.113281 21.210937-8.765625 5.652344-5.648438 8.765625-13.183594 8.765625-21.210938-.003906-8.027343-3.117187-15.5625-8.765625-21.210937zm-14.144531 28.28125c-1.871094 1.875-4.382812 2.90625-7.070312 2.90625-2.683594 0-5.195313-1.03125-7.066407-2.902344 0 0-.003906 0-.003906-.003906 0 0 0 0-.003906-.003906l-9.996094-9.996094c-3.902344-3.902344-10.234375-3.902344-14.140625 0-3.90625 3.90625-3.90625 10.238281 0 14.144531l2.582031 2.582032c-17.816406 14.617187-39.945312 22.5625-63.292969 22.5625-18.84375 0-36.890624-5.183594-52.519531-14.863282-.113281-.078125-.226562-.140625-.339843-.210937-6.394532-3.996094-12.382813-8.746094-17.851563-14.210938-5.457031-5.460937-10.199219-11.441406-14.195313-17.828125-.074218-.121094-.148437-.246094-.230468-.367187-9.679688-15.628907-14.863282-33.671875-14.863282-52.515625 0-23.351563 7.949219-45.476563 22.566407-63.292969l74.503906 74.503906c3.90625 3.90625 10.238281 3.90625 14.144531 0 3.90625-3.902343 3.90625-10.234375 0-14.140625l-81.925781-81.925781c-3.898437-3.898437-3.898437-10.242187 0-14.140625s10.242187-3.902344 14.144531 0l155.558594 155.5625c1.875 1.871094 2.90625 4.382812 2.90625 7.070312s-1.03125 5.199219-2.90625 7.070313zm0 0"/><path d="m433.460938 151.132812c-3.714844-4.085937-10.039063-4.382812-14.125-.671874-4.085938 3.71875-4.386719 10.042968-.671876 14.128906 1.976563 2.171875 4.683594 3.273437 7.402344 3.273437 2.402344 0 4.808594-.859375 6.726563-2.601562 4.085937-3.714844 4.386719-10.039063.671875-14.125zm0 0"/><path d="m48.335938 429.59375c1.867187 1.558594 4.136718 2.316406 6.394531 2.316406 2.863281 0 5.710937-1.222656 7.6875-3.597656l.007812-.003906c3.535157-4.246094 2.957031-10.546875-1.285156-14.082032-4.242187-3.539062-10.550781-2.957031-14.085937 1.28125-3.535157 4.242188-2.960938 10.550782 1.28125 14.085938zm0 0"/></svg>