<svg id="Capa_1" enable-background="new 0 0 512 512" height="512" viewBox="0 0 512 512" width="512" xmlns="http://www.w3.org/2000/svg"><path id="XMLID_292_" d="m116.9 40c-5.523 0-10 4.477-10 10v72c0 5.523 4.477 10 10 10s10-4.477 10-10v-72c0-5.523-4.477-10-10-10z"/><path id="XMLID_293_" d="m76.9 40h-36c-5.523 0-10 4.477-10 10s4.477 10 10 10h8v62c0 5.523 4.477 10 10 10s10-4.477 10-10v-62h8c5.523 0 10-4.477 10-10s-4.477-10-10-10z"/><path id="XMLID_294_" d="m367.1 60h8v62c0 5.523 4.477 10 10 10s10-4.477 10-10v-62h8c5.523 0 10-4.477 10-10s-4.477-10-10-10h-36c-5.523 0-10 4.477-10 10s4.477 10 10 10z"/><path id="XMLID_829_" d="m265.609 129.474c4.128-3.669 4.5-9.99.831-14.118l-26.095-29.356 26.095-29.356c3.669-4.128 3.297-10.448-.831-14.118-4.127-3.668-10.448-3.297-14.118.831l-14.526 16.342v-9.699c0-5.523-4.477-10-10-10s-10 4.477-10 10v72c0 5.523 4.477 10 10 10s10-4.477 10-10v-9.698l14.526 16.342c1.976 2.223 4.721 3.356 7.478 3.356 2.363 0 4.735-.833 6.64-2.526z"/><path id="XMLID_1340_" d="m312.965 132h14c5.523 0 10-4.477 10-10s-4.477-10-10-10h-14c-2.206 0-4-1.794-4-4v-12h18c5.523 0 10-4.477 10-10s-4.477-10-10-10h-18v-12c0-2.206 1.794-4 4-4h14c5.523 0 10-4.477 10-10s-4.477-10-10-10h-14c-13.233 0-24 10.767-24 24v44c0 13.233 10.767 24 24 24z"/><path id="XMLID_1431_" d="m449 112h-14c-5.523 0-10 4.477-10 10s4.477 10 10 10h14c13.233 0 24-10.767 24-24v-8c0-13.233-10.767-24-24-24-2.206 0-4-1.794-4-4v-8c0-2.206 1.794-4 4-4h14c5.523 0 10-4.477 10-10s-4.477-10-10-10h-14c-13.233 0-24 10.767-24 24v8c0 13.233 10.767 24 24 24 2.206 0 4 1.794 4 4v8c0 2.206-1.794 4-4 4z"/><path id="XMLID_1432_" d="m170.9 60h16c5.523 0 10-4.477 10-10s-4.477-10-10-10h-16c-13.233 0-24 10.767-24 24v44c0 13.233 10.767 24 24 24h16c5.523 0 10-4.477 10-10s-4.477-10-10-10h-16c-2.206 0-4-1.794-4-4v-44c0-2.206 1.794-4 4-4z"/><path id="XMLID_1435_" d="m502 0h-492c-5.523 0-10 4.477-10 10v152 340c0 5.523 4.477 10 10 10h492c5.523 0 10-4.477 10-10v-340-152c0-5.523-4.477-10-10-10zm-136 314h-52v-26c0-14.336 11.664-26 26-26s26 11.664 26 26zm-26-72c-25.364 0-46 20.636-46 46v26h-28v-142h226v142h-106v-26c0-25.364-20.636-46-46-46zm-200 72v-26c0-25.364-20.636-46-46-46s-46 20.636-46 46v26h-28v-142h226v142zm-20 0h-52v-26c0-14.336 11.664-26 26-26s26 11.664 26 26zm-100-294h472v132h-472zm0 472v-118h191c5.523 0 10-4.477 10-10s-4.477-10-10-10h-191v-20h472v20h-191c-5.523 0-10 4.477-10 10s4.477 10 10 10h191v118z"/><path id="XMLID_1513_" d="m256 354c-2.63 0-5.21 1.07-7.07 2.93s-2.93 4.44-2.93 7.07 1.07 5.21 2.93 7.07 4.44 2.93 7.07 2.93 5.21-1.07 7.07-2.93 2.93-4.44 2.93-7.07-1.07-5.21-2.93-7.07-4.44-2.93-7.07-2.93z"/></svg>