<svg id="Capa_1" enable-background="new 0 0 512 512" height="512" viewBox="0 0 512 512" width="512" xmlns="http://www.w3.org/2000/svg"><path d="m502 216h-53v-76h20c5.522 0 10-4.477 10-10v-120c0-5.523-4.478-10-10-10h-180c-5.522 0-10 4.477-10 10v120c0 5.523 4.478 10 10 10h20v108.101l-106 25.238v-43.339h20c5.522 0 10-4.477 10-10v-120c0-5.523-4.478-10-10-10h-180c-5.522 0-10 4.477-10 10v120c0 5.523 4.478 10 10 10h20v76h-53c-5.522 0-10 4.477-10 10v186c0 5.523 4.478 10 10 10h201c5.522 0 10-4.477 10-10s-4.478-10-10-10h-191v-20c0-10.28 11.178-20 23-20 .772-.191 9.304 1.43 12.174-6.654 3.535-9.957 11.246-17.676 21.199-21.191 5.758-2.062 10.195-1.068 13.277-6.531 8.916-15.806 25.528-25.624 43.35-25.624s34.434 9.818 43.35 25.624c3.084 5.466 7.484 4.455 13.319 6.546 9.911 3.5 17.622 11.219 21.157 21.176 1.416 3.989 5.19 6.654 9.424 6.654h71.5c4.233 0 8.008-2.665 9.424-6.654 3.535-9.957 11.246-17.676 21.199-21.191 5.758-2.062 10.195-1.068 13.277-6.531 8.916-15.806 25.528-25.624 43.35-25.624s34.434 9.818 43.35 25.624c3.084 5.466 7.484 4.455 13.319 6.546 9.911 3.5 17.622 11.219 21.157 21.176 2.875 8.099 11.453 6.476 12.174 6.654 11.822 0 23 9.72 23 20v20h-191c-5.522 0-10 4.477-10 10s4.478 10 10 10h201c5.522 0 10-4.477 10-10 0-12.962 0-265.092 0-276 0-5.523-4.478-10-10-10zm-43-156h-40v-40h40zm-100 0v-40h40v40zm-20-40v40h-40v-40zm-40 60h160v40h-160zm-86 70h-40v-40h40zm-100 0v-40h40v40zm-20-40v40h-40v-40zm-40 60h160v40h-160zm-13.904 262.181c-6.887.638-13.413 2.945-19.096 6.446v-112.627h43v82.185c-10.321 5.261-18.665 13.625-23.904 23.996zm93.904-60.181c-18.995 0-36.984 7.904-50 21.366v-97.366h50c5.522 0 10-4.477 10-10s-4.478-10-10-10h-50v-46h100v163.367c-13.016-13.463-31.005-21.367-50-21.367zm152.188 60h-58.375c-5.248-10.296-13.561-18.597-23.813-23.819v-114.282l106-25.238v139.524c-10.261 5.23-18.568 13.528-23.812 23.815zm93.812-60c-18.995 0-36.984 7.904-50 21.366v-97.366h50c5.522 0 10-4.477 10-10s-4.478-10-10-10h-50v-136h100v46h-50c-5.522 0-10 4.477-10 10s4.478 10 10 10h50v187.367c-13.016-13.463-31.005-21.367-50-21.367zm93.904 60.181c-5.243-10.379-13.593-18.747-23.904-23.999v-172.182h43v202.627c-5.682-3.501-12.208-5.808-19.096-6.446z"/><circle cx="256" cy="502" r="10"/></svg>