<svg id="Capa_1" enable-background="new 0 0 512 512" height="512" viewBox="0 0 512 512" width="512" xmlns="http://www.w3.org/2000/svg"><path d="m502 0h-492c-5.523 0-10 4.477-10 10v462c0 5.523 4.477 10 10 10h110v20c0 5.522 4.477 10 10 10h222c5.523 0 10-4.478 10-10v-20h140c5.523 0 10-4.477 10-10 0-7.592 0-454.569 0-462 0-5.523-4.477-10-10-10zm-482 102.09c14.742 1.159 29.632-2.446 42-9.933v193.843c0 10.841-9.617 20-21 20s-21-9.159-21-20c0-8.788 0-175.481 0-183.91zm62-9.529c11.853 7.401 25.823 10.876 40 9.774v183.665c0 11.028-8.972 20-20 20s-20-8.972-20-20zm60 5.075c7.443-3.006 14.21-7.317 20.073-12.791 12.369 11.206 29.181 17.655 46.927 17.655 17.78 0 34.624-6.474 47-17.721 12.376 11.247 29.22 17.721 47 17.721 17.746 0 34.558-6.449 46.927-17.655 5.863 5.475 12.631 9.786 20.073 12.792v148.363h-228zm248 4.698c14.179 1.102 28.148-2.373 40-9.774v193.44c0 11.028-8.972 20-20 20s-20-8.972-20-20zm60-9.57c10.277 6.5 22.115 9.897 34.665 9.897 2.421 0 4.868-.127 7.335-.382v183.721c0 11.08-10.018 20-21 20-11.383 0-21-9.159-21-20zm-430-72.764h472v62.136c-17.567 2.495-33.322-3.902-44-18.137-3.992-5.324-12.027-5.301-15.999 0-18.537 24.711-55.505 24.671-74 .001-3.998-5.331-12-5.336-16.001-.001-8.688 11.584-23.268 18.5-39 18.5s-30.312-6.916-39-18.5c-4.002-5.336-12.007-5.324-16 0-8.688 11.584-23.268 18.5-39 18.5s-30.312-6.916-39-18.5c-4.002-5.336-12.008-5.323-16.001.001-18.491 24.665-55.461 24.713-73.999 0-4.047-5.391-12.068-5.245-16 0-9.818 13.093-27.142 19.957-44 18.022zm322 472h-202v-30c0-5.514 4.486-10 10-10h182c5.514 0 10 4.486 10 10zm150-30h-130c0-16.542-13.458-30-30-30h-182c-16.542 0-30 13.458-30 30h-100v-73h191c5.523 0 10-4.477 10-10s-4.477-10-10-10h-191v-48.844c6.186 3.695 13.39 5.844 21 5.844 12.097 0 23.164-5.435 30.746-13.878 7.34 8.49 18.176 13.878 30.254 13.878 22.056 0 40-17.944 40-40v-20h228v20c0 22.056 17.944 40 40 40 12.078 0 22.914-5.388 30.254-13.878 7.582 8.443 18.649 13.878 30.746 13.878 7.346 0 14.649-2.063 21-5.807v48.807h-191c-5.523 0-10 4.477-10 10s4.477 10 10 10h191z"/><circle cx="256" cy="379" r="10"/></svg>