<svg id="Capa_1" enable-background="new 0 0 512.003 512.003" height="512" viewBox="0 0 512.003 512.003" width="512" xmlns="http://www.w3.org/2000/svg"><path d="m505.512 366.638-60-22.5c-5.175-1.939-10.936.682-12.875 5.852-1.939 5.172.681 10.936 5.852 12.875l60 22.5c5.183 1.942 10.939-.69 12.875-5.852 1.939-5.172-.681-10.935-5.852-12.875z"/><path d="m511.363 192.49c-1.939-5.171-7.697-7.79-12.875-5.852l-60 22.5c-5.171 1.939-7.791 7.703-5.852 12.875 1.937 5.163 7.692 7.794 12.875 5.852l60-22.5c5.172-1.94 7.792-7.703 5.852-12.875z"/><path d="m30 356.001h30c0 16.542 13.458 30 30 30h287.857l87.071 87.071c3.907 3.905 10.236 3.904 14.143 0 3.905-3.905 3.905-10.237 0-14.143l-87.071-87.07v-171.715l87.071-87.071c3.905-3.905 3.905-10.237 0-14.143-3.906-3.904-10.236-3.904-14.143 0l-87.071 87.071h-111.857v-70c16.542 0 30-13.458 30-30v-30h50c5.522 0 10-4.478 10-10s-4.478-10-10-10h-240c-5.523 0-10 4.478-10 10s4.477 10 10 10h50v30c0 16.542 13.458 30 30 30v70h-96c-16.542 0-30 13.458-30 30h-30c-16.542 0-30 13.458-30 30v80c0 16.542 13.458 30 30 30zm146-270v-30h100v30c0 5.514-4.486 10-10 10h-80c-5.514 0-10-4.486-10-10zm70 30v140c0 11.028-8.972 20-20 20s-20-8.972-20-20v-140zm-166 100c0-5.514 4.486-10 10-10h96v50c0 22.056 17.944 40 40 40s40-17.944 40-40v-50h43v35c0 5.522 4.478 10 10 10s10-4.478 10-10v-35h43v160h-43v-35c0-5.522-4.478-10-10-10s-10 4.478-10 10v35h-219c-5.514 0-10-4.486-10-10zm-60 30c0-5.514 4.486-10 10-10h30v100h-30c-5.514 0-10-4.486-10-10z"/><circle cx="319" cy="286.001" r="10"/></svg>